<?xml version="1.0" encoding="UTF-8" standalone="no"?>
<!DOCTYPE svg PUBLIC "-//W3C//DTD SVG 1.1//EN"
 "http://www.w3.org/Graphics/SVG/1.1/DTD/svg11.dtd">
<!-- Generated by graphviz version 12.0.0 (20240704.0754)
 -->
<!-- Title: dependency&#45;cruiser output Pages: 1 -->
<svg width="993pt" height="1248pt"
 viewBox="0.00 0.00 993.25 1248.00" xmlns="http://www.w3.org/2000/svg" xmlns:xlink="http://www.w3.org/1999/xlink">
<g id="graph0" class="graph" transform="scale(1 1) rotate(0) translate(4 1244)">
<title>dependency&#45;cruiser output</title>
<polygon fill="white" stroke="none" points="-4,4 -4,-1244 989.25,-1244 989.25,4 -4,4"/>
<g id="clust1" class="cluster">
<title>cluster_src</title>
<path fill="#ffffff" stroke="black" stroke-width="2" d="M20,-8C20,-8 965.25,-8 965.25,-8 971.25,-8 977.25,-14 977.25,-20 977.25,-20 977.25,-1220 977.25,-1220 977.25,-1226 971.25,-1232 965.25,-1232 965.25,-1232 20,-1232 20,-1232 14,-1232 8,-1226 8,-1220 8,-1220 8,-20 8,-20 8,-14 14,-8 20,-8"/>
<text text-anchor="middle" x="492.62" y="-1219.45" font-family="Helvetica,sans-Serif" font-weight="bold" font-size="9.00">src</text>
</g>
<g id="clust2" class="cluster">
<title>cluster_src/core</title>
<path fill="#ffffff" stroke="black" stroke-width="2" d="M444,-726C444,-726 957.25,-726 957.25,-726 963.25,-726 969.25,-732 969.25,-738 969.25,-738 969.25,-1194 969.25,-1194 969.25,-1200 963.25,-1206 957.25,-1206 957.25,-1206 444,-1206 444,-1206 438,-1206 432,-1200 432,-1194 432,-1194 432,-738 432,-738 432,-732 438,-726 444,-726"/>
<text text-anchor="middle" x="700.62" y="-1193.45" font-family="Helvetica,sans-Serif" font-weight="bold" font-size="9.00">core</text>
</g>
<g id="clust3" class="cluster">
<title>cluster_src/core/di</title>
<path fill="#ffffff" stroke="black" stroke-width="2" d="M666.75,-914C666.75,-914 919.12,-914 919.12,-914 925.12,-914 931.12,-920 931.12,-926 931.12,-926 931.12,-954 931.12,-954 931.12,-960 925.12,-966 919.12,-966 919.12,-966 666.75,-966 666.75,-966 660.75,-966 654.75,-960 654.75,-954 654.75,-954 654.75,-926 654.75,-926 654.75,-920 660.75,-914 666.75,-914"/>
<text text-anchor="middle" x="792.94" y="-953.45" font-family="Helvetica,sans-Serif" font-weight="bold" font-size="9.00">di</text>
</g>
<g id="clust4" class="cluster">
<title>cluster_src/core/services</title>
<path fill="#ffffff" stroke="black" stroke-width="2" d="M833.75,-734C833.75,-734 949.25,-734 949.25,-734 955.25,-734 961.25,-740 961.25,-746 961.25,-746 961.25,-894 961.25,-894 961.25,-900 955.25,-906 949.25,-906 949.25,-906 833.75,-906 833.75,-906 827.75,-906 821.75,-900 821.75,-894 821.75,-894 821.75,-746 821.75,-746 821.75,-740 827.75,-734 833.75,-734"/>
<text text-anchor="middle" x="891.5" y="-893.45" font-family="Helvetica,sans-Serif" font-weight="bold" font-size="9.00">services</text>
</g>
<g id="clust5" class="cluster">
<title>cluster_src/core/services/feature&#45;flags</title>
<path fill="#ffffff" stroke="black" stroke-width="2" d="M841.75,-768C841.75,-768 941.25,-768 941.25,-768 947.25,-768 953.25,-774 953.25,-780 953.25,-780 953.25,-808 953.25,-808 953.25,-814 947.25,-820 941.25,-820 941.25,-820 841.75,-820 841.75,-820 835.75,-820 829.75,-814 829.75,-808 829.75,-808 829.75,-780 829.75,-780 829.75,-774 835.75,-768 841.75,-768"/>
<text text-anchor="middle" x="891.5" y="-807.45" font-family="Helvetica,sans-Serif" font-weight="bold" font-size="9.00">feature&#45;flags</text>
</g>
<g id="clust6" class="cluster">
<title>cluster_src/core/services/theme</title>
<path fill="#ffffff" stroke="black" stroke-width="2" d="M854.5,-828C854.5,-828 928.5,-828 928.5,-828 934.5,-828 940.5,-834 940.5,-840 940.5,-840 940.5,-868 940.5,-868 940.5,-874 934.5,-880 928.5,-880 928.5,-880 854.5,-880 854.5,-880 848.5,-880 842.5,-874 842.5,-868 842.5,-868 842.5,-840 842.5,-840 842.5,-834 848.5,-828 854.5,-828"/>
<text text-anchor="middle" x="891.5" y="-867.45" font-family="Helvetica,sans-Serif" font-weight="bold" font-size="9.00">theme</text>
</g>
<g id="clust7" class="cluster">
<title>cluster_src/core/store</title>
<path fill="#ffffff" stroke="black" stroke-width="2" d="M477.38,-734C477.38,-734 523.38,-734 523.38,-734 529.38,-734 535.38,-740 535.38,-746 535.38,-746 535.38,-774 535.38,-774 535.38,-780 529.38,-786 523.38,-786 523.38,-786 477.38,-786 477.38,-786 471.38,-786 465.38,-780 465.38,-774 465.38,-774 465.38,-746 465.38,-746 465.38,-740 471.38,-734 477.38,-734"/>
<text text-anchor="middle" x="500.38" y="-773.45" font-family="Helvetica,sans-Serif" font-weight="bold" font-size="9.00">store</text>
</g>
<g id="clust8" class="cluster">
<title>cluster_src/core/ui</title>
<path fill="#ffffff" stroke="black" stroke-width="2" d="M452,-974C452,-974 755.75,-974 755.75,-974 761.75,-974 767.75,-980 767.75,-986 767.75,-986 767.75,-1168 767.75,-1168 767.75,-1174 761.75,-1180 755.75,-1180 755.75,-1180 452,-1180 452,-1180 446,-1180 440,-1174 440,-1168 440,-1168 440,-986 440,-986 440,-980 446,-974 452,-974"/>
<text text-anchor="middle" x="603.88" y="-1167.45" font-family="Helvetica,sans-Serif" font-weight="bold" font-size="9.00">ui</text>
</g>
<g id="clust9" class="cluster">
<title>cluster_src/core/ui/FeatureToggle</title>
<path fill="#ffffff" stroke="black" stroke-width="2" d="M460,-1042C460,-1042 747.75,-1042 747.75,-1042 753.75,-1042 759.75,-1048 759.75,-1054 759.75,-1054 759.75,-1082 759.75,-1082 759.75,-1088 753.75,-1094 747.75,-1094 747.75,-1094 460,-1094 460,-1094 454,-1094 448,-1088 448,-1082 448,-1082 448,-1054 448,-1054 448,-1048 454,-1042 460,-1042"/>
<text text-anchor="middle" x="603.88" y="-1081.45" font-family="Helvetica,sans-Serif" font-weight="bold" font-size="9.00">FeatureToggle</text>
</g>
<g id="clust10" class="cluster">
<title>cluster_src/core/ui/Price</title>
<path fill="#ffffff" stroke="black" stroke-width="2" d="M477.38,-982C477.38,-982 523.38,-982 523.38,-982 529.38,-982 535.38,-988 535.38,-994 535.38,-994 535.38,-1022 535.38,-1022 535.38,-1028 529.38,-1034 523.38,-1034 523.38,-1034 477.38,-1034 477.38,-1034 471.38,-1034 465.38,-1028 465.38,-1022 465.38,-1022 465.38,-994 465.38,-994 465.38,-988 471.38,-982 477.38,-982"/>
<text text-anchor="middle" x="500.38" y="-1021.45" font-family="Helvetica,sans-Serif" font-weight="bold" font-size="9.00">Price</text>
</g>
<g id="clust11" class="cluster">
<title>cluster_src/core/ui/ThemeToggle</title>
<path fill="#ffffff" stroke="black" stroke-width="2" d="M461.5,-1102C461.5,-1102 746.25,-1102 746.25,-1102 752.25,-1102 758.25,-1108 758.25,-1114 758.25,-1114 758.25,-1142 758.25,-1142 758.25,-1148 752.25,-1154 746.25,-1154 746.25,-1154 461.5,-1154 461.5,-1154 455.5,-1154 449.5,-1148 449.5,-1142 449.5,-1142 449.5,-1114 449.5,-1114 449.5,-1108 455.5,-1102 461.5,-1102"/>
<text text-anchor="middle" x="603.88" y="-1141.45" font-family="Helvetica,sans-Serif" font-weight="bold" font-size="9.00">ThemeToggle</text>
</g>
<g id="clust12" class="cluster">
<title>cluster_src/modules</title>
<path fill="#ffffff" stroke="black" stroke-width="2" d="M168,-136C168,-136 801.75,-136 801.75,-136 807.75,-136 813.75,-142 813.75,-148 813.75,-148 813.75,-706 813.75,-706 813.75,-712 807.75,-718 801.75,-718 801.75,-718 168,-718 168,-718 162,-718 156,-712 156,-706 156,-706 156,-148 156,-148 156,-142 162,-136 168,-136"/>
<text text-anchor="middle" x="484.88" y="-705.45" font-family="Helvetica,sans-Serif" font-weight="bold" font-size="9.00">modules</text>
</g>
<g id="clust13" class="cluster">
<title>cluster_src/modules/cart</title>
<path fill="#ffffff" stroke="black" stroke-width="2" d="M310.12,-422C310.12,-422 793.75,-422 793.75,-422 799.75,-422 805.75,-428 805.75,-434 805.75,-434 805.75,-680 805.75,-680 805.75,-686 799.75,-692 793.75,-692 793.75,-692 310.12,-692 310.12,-692 304.12,-692 298.12,-686 298.12,-680 298.12,-680 298.12,-434 298.12,-434 298.12,-428 304.12,-422 310.12,-422"/>
<text text-anchor="middle" x="551.94" y="-679.45" font-family="Helvetica,sans-Serif" font-weight="bold" font-size="9.00">cart</text>
</g>
<g id="clust14" class="cluster">
<title>cluster_src/modules/cart/store</title>
<path fill="#ffffff" stroke="black" stroke-width="2" d="M473.12,-430C473.12,-430 527.62,-430 527.62,-430 533.62,-430 539.62,-436 539.62,-442 539.62,-442 539.62,-470 539.62,-470 539.62,-476 533.62,-482 527.62,-482 527.62,-482 473.12,-482 473.12,-482 467.12,-482 461.12,-476 461.12,-470 461.12,-470 461.12,-442 461.12,-442 461.12,-436 467.12,-430 473.12,-430"/>
<text text-anchor="middle" x="500.38" y="-469.45" font-family="Helvetica,sans-Serif" font-weight="bold" font-size="9.00">store</text>
</g>
<g id="clust15" class="cluster">
<title>cluster_src/modules/cart/ui</title>
<path fill="#ffffff" stroke="black" stroke-width="2" d="M318.12,-490C318.12,-490 785.75,-490 785.75,-490 791.75,-490 797.75,-496 797.75,-502 797.75,-502 797.75,-654 797.75,-654 797.75,-660 791.75,-666 785.75,-666 785.75,-666 318.12,-666 318.12,-666 312.12,-666 306.12,-660 306.12,-654 306.12,-654 306.12,-502 306.12,-502 306.12,-496 312.12,-490 318.12,-490"/>
<text text-anchor="middle" x="551.94" y="-653.45" font-family="Helvetica,sans-Serif" font-weight="bold" font-size="9.00">ui</text>
</g>
<g id="clust16" class="cluster">
<title>cluster_src/modules/cart/ui/AddToCartButton</title>
<path fill="#ffffff" stroke="black" stroke-width="2" d="M454.75,-498C454.75,-498 777.75,-498 777.75,-498 783.75,-498 789.75,-504 789.75,-510 789.75,-510 789.75,-568 789.75,-568 789.75,-574 783.75,-580 777.75,-580 777.75,-580 454.75,-580 454.75,-580 448.75,-580 442.75,-574 442.75,-568 442.75,-568 442.75,-510 442.75,-510 442.75,-504 448.75,-498 454.75,-498"/>
<text text-anchor="middle" x="616.25" y="-567.45" font-family="Helvetica,sans-Serif" font-weight="bold" font-size="9.00">AddToCartButton</text>
</g>
<g id="clust17" class="cluster">
<title>cluster_src/modules/cart/ui/Cart</title>
<path fill="#ffffff" stroke="black" stroke-width="2" d="M326.12,-588C326.12,-588 537.38,-588 537.38,-588 543.38,-588 549.38,-594 549.38,-600 549.38,-600 549.38,-628 549.38,-628 549.38,-634 543.38,-640 537.38,-640 537.38,-640 326.12,-640 326.12,-640 320.12,-640 314.12,-634 314.12,-628 314.12,-628 314.12,-600 314.12,-600 314.12,-594 320.12,-588 326.12,-588"/>
<text text-anchor="middle" x="431.75" y="-627.45" font-family="Helvetica,sans-Serif" font-weight="bold" font-size="9.00">Cart</text>
</g>
<g id="clust18" class="cluster">
<title>cluster_src/modules/popular&#45;products</title>
<path fill="#ffffff" stroke="black" stroke-width="2" d="M176,-144C176,-144 577.75,-144 577.75,-144 583.75,-144 589.75,-150 589.75,-156 589.75,-156 589.75,-402 589.75,-402 589.75,-408 583.75,-414 577.75,-414 577.75,-414 176,-414 176,-414 170,-414 164,-408 164,-402 164,-402 164,-156 164,-156 164,-150 170,-144 176,-144"/>
<text text-anchor="middle" x="376.88" y="-401.45" font-family="Helvetica,sans-Serif" font-weight="bold" font-size="9.00">popular&#45;products</text>
</g>
<g id="clust19" class="cluster">
<title>cluster_src/modules/popular&#45;products/services</title>
<path fill="#ffffff" stroke="black" stroke-width="2" d="M451.38,-306C451.38,-306 549.38,-306 549.38,-306 555.38,-306 561.38,-312 561.38,-318 561.38,-318 561.38,-346 561.38,-346 561.38,-352 555.38,-358 549.38,-358 549.38,-358 451.38,-358 451.38,-358 445.38,-358 439.38,-352 439.38,-346 439.38,-346 439.38,-318 439.38,-318 439.38,-312 445.38,-306 451.38,-306"/>
<text text-anchor="middle" x="500.38" y="-345.45" font-family="Helvetica,sans-Serif" font-weight="bold" font-size="9.00">services</text>
</g>
<g id="clust20" class="cluster">
<title>cluster_src/modules/popular&#45;products/store</title>
<path fill="#ffffff" stroke="black" stroke-width="2" d="M286.25,-306C286.25,-306 412,-306 412,-306 418,-306 424,-312 424,-318 424,-318 424,-376 424,-376 424,-382 418,-388 412,-388 412,-388 286.25,-388 286.25,-388 280.25,-388 274.25,-382 274.25,-376 274.25,-376 274.25,-318 274.25,-318 274.25,-312 280.25,-306 286.25,-306"/>
<text text-anchor="middle" x="349.12" y="-375.45" font-family="Helvetica,sans-Serif" font-weight="bold" font-size="9.00">store</text>
</g>
<g id="clust21" class="cluster">
<title>cluster_src/modules/popular&#45;products/ui</title>
<path fill="#ffffff" stroke="black" stroke-width="2" d="M184,-152C184,-152 569.75,-152 569.75,-152 575.75,-152 581.75,-158 581.75,-164 581.75,-164 581.75,-286 581.75,-286 581.75,-292 575.75,-298 569.75,-298 569.75,-298 184,-298 184,-298 178,-298 172,-292 172,-286 172,-286 172,-164 172,-164 172,-158 178,-152 184,-152"/>
<text text-anchor="middle" x="376.88" y="-285.45" font-family="Helvetica,sans-Serif" font-weight="bold" font-size="9.00">ui</text>
</g>
<g id="clust22" class="cluster">
<title>cluster_src/modules/popular&#45;products/ui/ProductList</title>
<path fill="#ffffff" stroke="black" stroke-width="2" d="M192,-160C192,-160 400.38,-160 400.38,-160 406.38,-160 412.38,-166 412.38,-172 412.38,-172 412.38,-200 412.38,-200 412.38,-206 406.38,-212 400.38,-212 400.38,-212 192,-212 192,-212 186,-212 180,-206 180,-200 180,-200 180,-172 180,-172 180,-166 186,-160 192,-160"/>
<text text-anchor="middle" x="296.19" y="-199.45" font-family="Helvetica,sans-Serif" font-weight="bold" font-size="9.00">ProductList</text>
</g>
<g id="clust23" class="cluster">
<title>cluster_src/modules/popular&#45;products/ui/ProductListCard</title>
<path fill="#ffffff" stroke="black" stroke-width="2" d="M305.38,-220C305.38,-220 561.75,-220 561.75,-220 567.75,-220 573.75,-226 573.75,-232 573.75,-232 573.75,-260 573.75,-260 573.75,-266 567.75,-272 561.75,-272 561.75,-272 305.38,-272 305.38,-272 299.38,-272 293.38,-266 293.38,-260 293.38,-260 293.38,-232 293.38,-232 293.38,-226 299.38,-220 305.38,-220"/>
<text text-anchor="middle" x="433.56" y="-259.45" font-family="Helvetica,sans-Serif" font-weight="bold" font-size="9.00">ProductListCard</text>
</g>
<g id="clust24" class="cluster">
<title>cluster_src/types</title>
<path fill="#ffffff" stroke="black" stroke-width="2" d="M655.75,-16C655.75,-16 723.75,-16 723.75,-16 729.75,-16 735.75,-22 735.75,-28 735.75,-28 735.75,-116 735.75,-116 735.75,-122 729.75,-128 723.75,-128 723.75,-128 655.75,-128 655.75,-128 649.75,-128 643.75,-122 643.75,-116 643.75,-116 643.75,-28 643.75,-28 643.75,-22 649.75,-16 655.75,-16"/>
<text text-anchor="middle" x="689.75" y="-115.45" font-family="Helvetica,sans-Serif" font-weight="bold" font-size="9.00">types</text>
</g>
<!-- src/App.module.css -->
<g id="node1" class="node">
<title>src/App.module.css</title>
<g id="a_node1"><a xlink:href="src/App.module.css" xlink:title="App.module.css">
<path fill="#ffffcc" stroke="black" d="M260.33,-127.88C260.33,-127.88 190.92,-127.88 190.92,-127.88 187.96,-127.88 185,-124.92 185,-121.96 185,-121.96 185,-116.04 185,-116.04 185,-113.08 187.96,-110.12 190.92,-110.12 190.92,-110.12 260.33,-110.12 260.33,-110.12 263.29,-110.12 266.25,-113.08 266.25,-116.04 266.25,-116.04 266.25,-121.96 266.25,-121.96 266.25,-124.92 263.29,-127.88 260.33,-127.88"/>
<text text-anchor="start" x="193" y="-115.33" font-family="Helvetica,sans-Serif" font-size="9.00">App.module.css</text>
</a>
</g>
</g>
<!-- src/App.tsx -->
<g id="node2" class="node">
<title>src/App.tsx</title>
<g id="a_node2"><a xlink:href="src/App.tsx" xlink:title="App.tsx">
<path fill="#bbfeff" stroke="black" d="M141.96,-759.88C141.96,-759.88 99.79,-759.88 99.79,-759.88 96.83,-759.88 93.88,-756.92 93.88,-753.96 93.88,-753.96 93.88,-748.04 93.88,-748.04 93.88,-745.08 96.83,-742.12 99.79,-742.12 99.79,-742.12 141.96,-742.12 141.96,-742.12 144.92,-742.12 147.88,-745.08 147.88,-748.04 147.88,-748.04 147.88,-753.96 147.88,-753.96 147.88,-756.92 144.92,-759.88 141.96,-759.88"/>
<text text-anchor="start" x="105.88" y="-747.33" font-family="Helvetica,sans-Serif" font-size="9.00">App.tsx</text>
</a>
</g>
</g>
<!-- src/App.tsx&#45;&gt;src/App.module.css -->
<g id="edge1" class="edge">
<title>src/App.tsx&#45;&gt;src/App.module.css</title>
<path fill="none" stroke="#000000" stroke-width="2" stroke-opacity="0.200000" d="M121.87,-741.63C121.93,-669.87 123.56,-208.6 156,-157 162.95,-145.95 174.32,-137.84 185.82,-132.03"/>
<polygon fill="#000000" fill-opacity="0.200000" stroke="#000000" stroke-width="2" stroke-opacity="0.200000" points="186.44,-134.06 191.01,-129.63 184.68,-130.24 186.44,-134.06"/>
</g>
<!-- src/core/di/useDi.tsx -->
<g id="node3" class="node">
<title>src/core/di/useDi.tsx</title>
<g id="a_node3"><a xlink:href="src/core/di/useDi.tsx" xlink:title="useDi.tsx">
<path fill="#bbfeff" stroke="black" d="M710.83,-939.88C710.83,-939.88 668.67,-939.88 668.67,-939.88 665.71,-939.88 662.75,-936.92 662.75,-933.96 662.75,-933.96 662.75,-928.04 662.75,-928.04 662.75,-925.08 665.71,-922.12 668.67,-922.12 668.67,-922.12 710.83,-922.12 710.83,-922.12 713.79,-922.12 716.75,-925.08 716.75,-928.04 716.75,-928.04 716.75,-933.96 716.75,-933.96 716.75,-936.92 713.79,-939.88 710.83,-939.88"/>
<text text-anchor="start" x="671" y="-927.33" font-family="Helvetica,sans-Serif" font-size="9.00">useDi.tsx</text>
</a>
</g>
</g>
<!-- src/App.tsx&#45;&gt;src/core/di/useDi.tsx -->
<g id="edge2" class="edge">
<title>src/App.tsx&#45;&gt;src/core/di/useDi.tsx</title>
<path fill="none" stroke="#000000" stroke-width="2" stroke-opacity="0.200000" d="M142.7,-760.21C144.76,-761.86 146.61,-763.79 148,-766 161.04,-786.75 147.35,-853.07 156,-876 217.77,-1039.8 266.68,-1099.44 432,-1157 498.21,-1180.05 538.52,-1204.87 589.75,-1157 599.35,-1148.03 592.83,-1051.18 597.75,-1039 613.43,-1000.19 648.66,-965.12 670.4,-946.05"/>
<polygon fill="#000000" fill-opacity="0.200000" stroke="#000000" stroke-width="2" stroke-opacity="0.200000" points="671.72,-947.69 674.9,-942.19 668.98,-944.5 671.72,-947.69"/>
</g>
<!-- src/core/store/store.ts -->
<g id="node4" class="node">
<title>src/core/store/store.ts</title>
<g id="a_node4"><a xlink:href="src/core/store/store.ts" xlink:title="store.ts">
<path fill="#ddfeff" stroke="black" d="M521.46,-759.88C521.46,-759.88 479.29,-759.88 479.29,-759.88 476.33,-759.88 473.38,-756.92 473.38,-753.96 473.38,-753.96 473.38,-748.04 473.38,-748.04 473.38,-745.08 476.33,-742.12 479.29,-742.12 479.29,-742.12 521.46,-742.12 521.46,-742.12 524.42,-742.12 527.38,-745.08 527.38,-748.04 527.38,-748.04 527.38,-753.96 527.38,-753.96 527.38,-756.92 524.42,-759.88 521.46,-759.88"/>
<text text-anchor="start" x="485.75" y="-747.33" font-family="Helvetica,sans-Serif" font-size="9.00">store.ts</text>
</a>
</g>
</g>
<!-- src/App.tsx&#45;&gt;src/core/store/store.ts -->
<g id="edge3" class="edge">
<title>src/App.tsx&#45;&gt;src/core/store/store.ts</title>
<path fill="none" stroke="#000000" stroke-width="2" stroke-opacity="0.200000" d="M148.12,-751C214.56,-751 389.43,-751 464.42,-751"/>
<polygon fill="#000000" fill-opacity="0.200000" stroke="#000000" stroke-width="2" stroke-opacity="0.200000" points="464.03,-753.1 470.03,-751 464.03,-748.9 464.03,-753.1"/>
</g>
<!-- src/core/ui/FeatureToggle/FeatureToggle.tsx -->
<g id="node5" class="node">
<title>src/core/ui/FeatureToggle/FeatureToggle.tsx</title>
<g id="a_node5"><a xlink:href="src/core/ui/FeatureToggle/FeatureToggle.tsx" xlink:title="FeatureToggle.tsx">
<path fill="#bbfeff" stroke="black" d="M538.83,-1067.88C538.83,-1067.88 461.92,-1067.88 461.92,-1067.88 458.96,-1067.88 456,-1064.92 456,-1061.96 456,-1061.96 456,-1056.04 456,-1056.04 456,-1053.08 458.96,-1050.12 461.92,-1050.12 461.92,-1050.12 538.83,-1050.12 538.83,-1050.12 541.79,-1050.12 544.75,-1053.08 544.75,-1056.04 544.75,-1056.04 544.75,-1061.96 544.75,-1061.96 544.75,-1064.92 541.79,-1067.88 538.83,-1067.88"/>
<text text-anchor="start" x="464" y="-1055.33" font-family="Helvetica,sans-Serif" font-size="9.00">FeatureToggle.tsx</text>
</a>
</g>
</g>
<!-- src/App.tsx&#45;&gt;src/core/ui/FeatureToggle/FeatureToggle.tsx -->
<g id="edge4" class="edge">
<title>src/App.tsx&#45;&gt;src/core/ui/FeatureToggle/FeatureToggle.tsx</title>
<path fill="none" stroke="#000000" stroke-width="2" stroke-opacity="0.200000" d="M148.33,-759C209.28,-778.97 359.3,-837.34 424,-945 434.57,-962.59 419.24,-1020.93 432,-1037 436.2,-1042.29 441.69,-1046.32 447.72,-1049.39"/>
<polygon fill="#000000" fill-opacity="0.200000" stroke="#000000" stroke-width="2" stroke-opacity="0.200000" points="446.49,-1051.14 452.83,-1051.59 448.15,-1047.28 446.49,-1051.14"/>
</g>
<!-- src/core/ui/ThemeToggle/ThemeToggle.tsx -->
<g id="node6" class="node">
<title>src/core/ui/ThemeToggle/ThemeToggle.tsx</title>
<g id="a_node6"><a xlink:href="src/core/ui/ThemeToggle/ThemeToggle.tsx" xlink:title="ThemeToggle.tsx">
<path fill="#bbfeff" stroke="black" d="M537.33,-1127.88C537.33,-1127.88 463.42,-1127.88 463.42,-1127.88 460.46,-1127.88 457.5,-1124.92 457.5,-1121.96 457.5,-1121.96 457.5,-1116.04 457.5,-1116.04 457.5,-1113.08 460.46,-1110.12 463.42,-1110.12 463.42,-1110.12 537.33,-1110.12 537.33,-1110.12 540.29,-1110.12 543.25,-1113.08 543.25,-1116.04 543.25,-1116.04 543.25,-1121.96 543.25,-1121.96 543.25,-1124.92 540.29,-1127.88 537.33,-1127.88"/>
<text text-anchor="start" x="465.5" y="-1115.33" font-family="Helvetica,sans-Serif" font-size="9.00">ThemeToggle.tsx</text>
</a>
</g>
</g>
<!-- src/App.tsx&#45;&gt;src/core/ui/ThemeToggle/ThemeToggle.tsx -->
<g id="edge5" class="edge">
<title>src/App.tsx&#45;&gt;src/core/ui/ThemeToggle/ThemeToggle.tsx</title>
<path fill="none" stroke="#000000" stroke-width="2" stroke-opacity="0.200000" d="M141.64,-760.22C143.99,-761.9 146.2,-763.83 148,-766 154.91,-774.33 150.5,-779.68 156,-789 249.35,-947.34 278.04,-996.6 432,-1097 437.8,-1100.78 444.3,-1103.96 450.92,-1106.63"/>
<polygon fill="#000000" fill-opacity="0.200000" stroke="#000000" stroke-width="2" stroke-opacity="0.200000" points="450.12,-1108.57 456.48,-1108.68 451.58,-1104.63 450.12,-1108.57"/>
</g>
<!-- src/modules/cart/ui/Cart/Cart.tsx -->
<g id="node7" class="node">
<title>src/modules/cart/ui/Cart/Cart.tsx</title>
<g id="a_node7"><a xlink:href="src/modules/cart/ui/Cart/Cart.tsx" xlink:title="Cart.tsx">
<path fill="#bbfeff" stroke="black" d="M370.21,-613.88C370.21,-613.88 328.04,-613.88 328.04,-613.88 325.08,-613.88 322.12,-610.92 322.12,-607.96 322.12,-607.96 322.12,-602.04 322.12,-602.04 322.12,-599.08 325.08,-596.12 328.04,-596.12 328.04,-596.12 370.21,-596.12 370.21,-596.12 373.17,-596.12 376.12,-599.08 376.12,-602.04 376.12,-602.04 376.12,-607.96 376.12,-607.96 376.12,-610.92 373.17,-613.88 370.21,-613.88"/>
<text text-anchor="start" x="333.75" y="-601.33" font-family="Helvetica,sans-Serif" font-size="9.00">Cart.tsx</text>
</a>
</g>
</g>
<!-- src/App.tsx&#45;&gt;src/modules/cart/ui/Cart/Cart.tsx -->
<g id="edge6" class="edge">
<title>src/App.tsx&#45;&gt;src/modules/cart/ui/Cart/Cart.tsx</title>
<path fill="none" stroke="#000000" stroke-width="2" stroke-opacity="0.200000" d="M122,-741.71C123.13,-664.19 131.77,-126.98 156,-104 191.55,-70.28 231.12,-69.84 266.25,-104 277.68,-115.12 271.39,-375.31 274.25,-391 288.08,-466.93 324.16,-552.28 340.22,-587.93"/>
<polygon fill="#000000" fill-opacity="0.200000" stroke="#000000" stroke-width="2" stroke-opacity="0.200000" points="338.19,-588.54 342.59,-593.13 342.01,-586.8 338.19,-588.54"/>
</g>
<!-- src/modules/popular&#45;products/ui/ProductList/ProductList.tsx -->
<g id="node8" class="node">
<title>src/modules/popular&#45;products/ui/ProductList/ProductList.tsx</title>
<g id="a_node8"><a xlink:href="src/modules/popular-products/ui/ProductList/ProductList.tsx" xlink:title="ProductList.tsx">
<path fill="#bbfeff" stroke="black" d="M257.33,-185.88C257.33,-185.88 193.92,-185.88 193.92,-185.88 190.96,-185.88 188,-182.92 188,-179.96 188,-179.96 188,-174.04 188,-174.04 188,-171.08 190.96,-168.12 193.92,-168.12 193.92,-168.12 257.33,-168.12 257.33,-168.12 260.29,-168.12 263.25,-171.08 263.25,-174.04 263.25,-174.04 263.25,-179.96 263.25,-179.96 263.25,-182.92 260.29,-185.88 257.33,-185.88"/>
<text text-anchor="start" x="196" y="-173.32" font-family="Helvetica,sans-Serif" font-size="9.00">ProductList.tsx</text>
</a>
</g>
</g>
<!-- src/App.tsx&#45;&gt;src/modules/popular&#45;products/ui/ProductList/ProductList.tsx -->
<g id="edge7" class="edge">
<title>src/App.tsx&#45;&gt;src/modules/popular&#45;products/ui/ProductList/ProductList.tsx</title>
<path fill="none" stroke="#000000" stroke-width="2" stroke-opacity="0.200000" d="M121.77,-742.05C121.05,-673.52 117.95,-233.2 156,-190 161.95,-183.24 170.22,-179.31 178.97,-177.14"/>
<polygon fill="#000000" fill-opacity="0.200000" stroke="#000000" stroke-width="2" stroke-opacity="0.200000" points="179.31,-179.21 184.83,-176.06 178.55,-175.08 179.31,-179.21"/>
</g>
<!-- src/core/di/container.ts -->
<g id="node9" class="node">
<title>src/core/di/container.ts</title>
<g id="a_node9"><a xlink:href="src/core/di/container.ts" xlink:title="container.ts">
<path fill="#ddfeff" stroke="black" d="M917.21,-939.88C917.21,-939.88 865.79,-939.88 865.79,-939.88 862.83,-939.88 859.88,-936.92 859.88,-933.96 859.88,-933.96 859.88,-928.04 859.88,-928.04 859.88,-925.08 862.83,-922.12 865.79,-922.12 865.79,-922.12 917.21,-922.12 917.21,-922.12 920.17,-922.12 923.12,-925.08 923.12,-928.04 923.12,-928.04 923.12,-933.96 923.12,-933.96 923.12,-936.92 920.17,-939.88 917.21,-939.88"/>
<text text-anchor="start" x="867.88" y="-927.33" font-family="Helvetica,sans-Serif" font-size="9.00">container.ts</text>
</a>
</g>
</g>
<!-- src/core/di/useDi.tsx&#45;&gt;src/core/di/container.ts -->
<g id="edge10" class="edge">
<title>src/core/di/useDi.tsx&#45;&gt;src/core/di/container.ts</title>
<path fill="none" stroke="#000000" stroke-width="2" stroke-opacity="0.200000" d="M716.86,-931C750.91,-931 810.79,-931 850.55,-931"/>
<polygon fill="#000000" fill-opacity="0.200000" stroke="#000000" stroke-width="2" stroke-opacity="0.200000" points="850.43,-933.1 856.43,-931 850.43,-928.9 850.43,-933.1"/>
</g>
<!-- src/core/services/feature&#45;flags/feature&#45;flags.service.ts -->
<g id="node10" class="node">
<title>src/core/services/feature&#45;flags/feature&#45;flags.service.ts</title>
<g id="a_node10"><a xlink:href="src/core/services/feature-flags/feature-flags.service.ts" xlink:title="feature&#45;flags.service.ts">
<path fill="#ddfeff" stroke="black" d="M939.33,-793.88C939.33,-793.88 843.67,-793.88 843.67,-793.88 840.71,-793.88 837.75,-790.92 837.75,-787.96 837.75,-787.96 837.75,-782.04 837.75,-782.04 837.75,-779.08 840.71,-776.12 843.67,-776.12 843.67,-776.12 939.33,-776.12 939.33,-776.12 942.29,-776.12 945.25,-779.08 945.25,-782.04 945.25,-782.04 945.25,-787.96 945.25,-787.96 945.25,-790.92 942.29,-793.88 939.33,-793.88"/>
<text text-anchor="start" x="845.75" y="-781.33" font-family="Helvetica,sans-Serif" font-size="9.00">feature&#45;flags.service.ts</text>
</a>
</g>
</g>
<!-- src/core/di/useDi.tsx&#45;&gt;src/core/services/feature&#45;flags/feature&#45;flags.service.ts -->
<g id="edge8" class="edge">
<title>src/core/di/useDi.tsx&#45;&gt;src/core/services/feature&#45;flags/feature&#45;flags.service.ts</title>
<path fill="none" stroke="#000000" stroke-width="2" stroke-opacity="0.200000" d="M713.13,-921.64C740.64,-909.04 786.96,-884.08 813.75,-849 820.57,-840.06 814.66,-833.72 821.75,-825 831.11,-813.49 844.73,-804.59 857.38,-798.14"/>
<polygon fill="#000000" fill-opacity="0.200000" stroke="#000000" stroke-width="2" stroke-opacity="0.200000" points="858.26,-800.05 862.77,-795.57 856.45,-796.26 858.26,-800.05"/>
</g>
<!-- src/core/services/theme/theme.service.ts -->
<g id="node11" class="node">
<title>src/core/services/theme/theme.service.ts</title>
<g id="a_node11"><a xlink:href="src/core/services/theme/theme.service.ts" xlink:title="theme.service.ts">
<path fill="#ddfeff" stroke="black" d="M926.58,-853.88C926.58,-853.88 856.42,-853.88 856.42,-853.88 853.46,-853.88 850.5,-850.92 850.5,-847.96 850.5,-847.96 850.5,-842.04 850.5,-842.04 850.5,-839.08 853.46,-836.12 856.42,-836.12 856.42,-836.12 926.58,-836.12 926.58,-836.12 929.54,-836.12 932.5,-839.08 932.5,-842.04 932.5,-842.04 932.5,-847.96 932.5,-847.96 932.5,-850.92 929.54,-853.88 926.58,-853.88"/>
<text text-anchor="start" x="858.5" y="-841.33" font-family="Helvetica,sans-Serif" font-size="9.00">theme.service.ts</text>
</a>
</g>
</g>
<!-- src/core/di/useDi.tsx&#45;&gt;src/core/services/theme/theme.service.ts -->
<g id="edge9" class="edge">
<title>src/core/di/useDi.tsx&#45;&gt;src/core/services/theme/theme.service.ts</title>
<path fill="none" stroke="#000000" stroke-width="2" stroke-opacity="0.200000" d="M712.51,-921.63C748.38,-906.19 820,-875.35 860.6,-857.87"/>
<polygon fill="#000000" fill-opacity="0.200000" stroke="#000000" stroke-width="2" stroke-opacity="0.200000" points="861.31,-859.85 865.99,-855.55 859.65,-856 861.31,-859.85"/>
</g>
<!-- src/modules/popular&#45;products/store/popular&#45;products.slice.ts -->
<g id="node13" class="node">
<title>src/modules/popular&#45;products/store/popular&#45;products.slice.ts</title>
<g id="a_node13"><a xlink:href="src/modules/popular-products/store/popular-products.slice.ts" xlink:title="popular&#45;products.slice.ts">
<path fill="#ddfeff" stroke="black" d="M401.08,-331.88C401.08,-331.88 297.17,-331.88 297.17,-331.88 294.21,-331.88 291.25,-328.92 291.25,-325.96 291.25,-325.96 291.25,-320.04 291.25,-320.04 291.25,-317.08 294.21,-314.12 297.17,-314.12 297.17,-314.12 401.08,-314.12 401.08,-314.12 404.04,-314.12 407,-317.08 407,-320.04 407,-320.04 407,-325.96 407,-325.96 407,-328.92 404.04,-331.88 401.08,-331.88"/>
<text text-anchor="start" x="299.25" y="-319.32" font-family="Helvetica,sans-Serif" font-size="9.00">popular&#45;products.slice.ts</text>
</a>
</g>
</g>
<!-- src/core/store/store.ts&#45;&gt;src/modules/popular&#45;products/store/popular&#45;products.slice.ts -->
<g id="edge11" class="edge">
<title>src/core/store/store.ts&#45;&gt;src/modules/popular&#45;products/store/popular&#45;products.slice.ts</title>
<path fill="none" stroke="#000000" stroke-width="2" stroke-opacity="0.200000" d="M491.14,-741.74C476.01,-724.07 444.21,-683.63 432,-643 427.12,-626.77 434.9,-350.98 424,-338 421.49,-335.01 418.57,-332.52 415.35,-330.44"/>
<polygon fill="#000000" fill-opacity="0.200000" stroke="#000000" stroke-width="2" stroke-opacity="0.200000" points="416.38,-328.61 410.09,-327.71 414.45,-332.33 416.38,-328.61"/>
</g>
<!-- src/core/ui/FeatureToggle/FeatureToggle.tsx&#45;&gt;src/core/di/useDi.tsx -->
<g id="edge13" class="edge">
<title>src/core/ui/FeatureToggle/FeatureToggle.tsx&#45;&gt;src/core/di/useDi.tsx</title>
<path fill="none" stroke="#000000" stroke-width="2" stroke-opacity="0.200000" d="M545.1,-1053.28C559.99,-1050.03 576.26,-1044.94 589.75,-1037 628.75,-1014.06 661.78,-971.1 678,-947.53"/>
<polygon fill="#000000" fill-opacity="0.200000" stroke="#000000" stroke-width="2" stroke-opacity="0.200000" points="679.54,-948.99 681.15,-942.84 676.06,-946.65 679.54,-948.99"/>
</g>
<!-- src/core/ui/FeatureToggle/FeatureToggle.tsx&#45;&gt;src/core/services/feature&#45;flags/feature&#45;flags.service.ts -->
<g id="edge14" class="edge">
<title>src/core/ui/FeatureToggle/FeatureToggle.tsx&#45;&gt;src/core/services/feature&#45;flags/feature&#45;flags.service.ts</title>
<path fill="none" stroke="#000000" stroke-opacity="0.200000" d="M544.87,-1058.59C561.38,-1056.08 578.81,-1050.11 589.75,-1037 607.72,-1015.45 581.59,-933.93 597.75,-911 651.41,-834.85 761.12,-804.36 829.94,-792.42"/>
<polygon fill="none" stroke="#000000" stroke-opacity="0.200000" points="830.23,-794.5 835.8,-791.43 829.53,-790.35 830.23,-794.5"/>
</g>
<!-- src/core/ui/FeatureToggle/FeatureToggle.module.css -->
<g id="node14" class="node">
<title>src/core/ui/FeatureToggle/FeatureToggle.module.css</title>
<g id="a_node14"><a xlink:href="src/core/ui/FeatureToggle/FeatureToggle.module.css" xlink:title="FeatureToggle.module.css">
<path fill="#ffffcc" stroke="black" d="M745.83,-1067.88C745.83,-1067.88 633.67,-1067.88 633.67,-1067.88 630.71,-1067.88 627.75,-1064.92 627.75,-1061.96 627.75,-1061.96 627.75,-1056.04 627.75,-1056.04 627.75,-1053.08 630.71,-1050.12 633.67,-1050.12 633.67,-1050.12 745.83,-1050.12 745.83,-1050.12 748.79,-1050.12 751.75,-1053.08 751.75,-1056.04 751.75,-1056.04 751.75,-1061.96 751.75,-1061.96 751.75,-1064.92 748.79,-1067.88 745.83,-1067.88"/>
<text text-anchor="start" x="635.75" y="-1055.33" font-family="Helvetica,sans-Serif" font-size="9.00">FeatureToggle.module.css</text>
</a>
</g>
</g>
<!-- src/core/ui/FeatureToggle/FeatureToggle.tsx&#45;&gt;src/core/ui/FeatureToggle/FeatureToggle.module.css -->
<g id="edge12" class="edge">
<title>src/core/ui/FeatureToggle/FeatureToggle.tsx&#45;&gt;src/core/ui/FeatureToggle/FeatureToggle.module.css</title>
<path fill="none" stroke="#000000" stroke-width="2" stroke-opacity="0.200000" d="M544.83,-1059C566.69,-1059 593.73,-1059 618.44,-1059"/>
<polygon fill="#000000" fill-opacity="0.200000" stroke="#000000" stroke-width="2" stroke-opacity="0.200000" points="618.4,-1061.1 624.4,-1059 618.4,-1056.9 618.4,-1061.1"/>
</g>
<!-- src/core/ui/ThemeToggle/ThemeToggle.tsx&#45;&gt;src/core/di/useDi.tsx -->
<g id="edge16" class="edge">
<title>src/core/ui/ThemeToggle/ThemeToggle.tsx&#45;&gt;src/core/di/useDi.tsx</title>
<path fill="none" stroke="#000000" stroke-width="2" stroke-opacity="0.200000" d="M543.48,-1118.32C560.18,-1115.82 578.13,-1109.94 589.75,-1097 607.14,-1077.64 587.17,-1062.77 597.75,-1039 614.76,-1000.76 649.55,-965.5 670.84,-946.24"/>
<polygon fill="#000000" fill-opacity="0.200000" stroke="#000000" stroke-width="2" stroke-opacity="0.200000" points="672.13,-947.9 675.23,-942.35 669.35,-944.76 672.13,-947.9"/>
</g>
<!-- src/core/ui/ThemeToggle/ThemeToggle.module.css -->
<g id="node16" class="node">
<title>src/core/ui/ThemeToggle/ThemeToggle.module.css</title>
<g id="a_node16"><a xlink:href="src/core/ui/ThemeToggle/ThemeToggle.module.css" xlink:title="ThemeToggle.module.css">
<path fill="#ffffcc" stroke="black" d="M744.33,-1127.88C744.33,-1127.88 635.17,-1127.88 635.17,-1127.88 632.21,-1127.88 629.25,-1124.92 629.25,-1121.96 629.25,-1121.96 629.25,-1116.04 629.25,-1116.04 629.25,-1113.08 632.21,-1110.12 635.17,-1110.12 635.17,-1110.12 744.33,-1110.12 744.33,-1110.12 747.29,-1110.12 750.25,-1113.08 750.25,-1116.04 750.25,-1116.04 750.25,-1121.96 750.25,-1121.96 750.25,-1124.92 747.29,-1127.88 744.33,-1127.88"/>
<text text-anchor="start" x="637.25" y="-1115.33" font-family="Helvetica,sans-Serif" font-size="9.00">ThemeToggle.module.css</text>
</a>
</g>
</g>
<!-- src/core/ui/ThemeToggle/ThemeToggle.tsx&#45;&gt;src/core/ui/ThemeToggle/ThemeToggle.module.css -->
<g id="edge15" class="edge">
<title>src/core/ui/ThemeToggle/ThemeToggle.tsx&#45;&gt;src/core/ui/ThemeToggle/ThemeToggle.module.css</title>
<path fill="none" stroke="#000000" stroke-width="2" stroke-opacity="0.200000" d="M543.43,-1119C566.01,-1119 594.42,-1119 620.11,-1119"/>
<polygon fill="#000000" fill-opacity="0.200000" stroke="#000000" stroke-width="2" stroke-opacity="0.200000" points="620.05,-1121.1 626.05,-1119 620.05,-1116.9 620.05,-1121.1"/>
</g>
<!-- src/core/ui/Price/Price.tsx -->
<g id="node15" class="node">
<title>src/core/ui/Price/Price.tsx</title>
<g id="a_node15"><a xlink:href="src/core/ui/Price/Price.tsx" xlink:title="Price.tsx">
<path fill="#bbfeff" stroke="black" d="M521.46,-1007.88C521.46,-1007.88 479.29,-1007.88 479.29,-1007.88 476.33,-1007.88 473.38,-1004.92 473.38,-1001.96 473.38,-1001.96 473.38,-996.04 473.38,-996.04 473.38,-993.08 476.33,-990.12 479.29,-990.12 479.29,-990.12 521.46,-990.12 521.46,-990.12 524.42,-990.12 527.38,-993.08 527.38,-996.04 527.38,-996.04 527.38,-1001.96 527.38,-1001.96 527.38,-1004.92 524.42,-1007.88 521.46,-1007.88"/>
<text text-anchor="start" x="483.12" y="-995.33" font-family="Helvetica,sans-Serif" font-size="9.00">Price.tsx</text>
</a>
</g>
</g>
<!-- src/modules/cart/ui/Cart/Cart.tsx&#45;&gt;src/core/ui/Price/Price.tsx -->
<g id="edge27" class="edge">
<title>src/modules/cart/ui/Cart/Cart.tsx&#45;&gt;src/core/ui/Price/Price.tsx</title>
<path fill="none" stroke="#000000" stroke-width="2" stroke-opacity="0.200000" d="M376.61,-602.12C392.77,-601.95 412.47,-604.9 424,-618 436.57,-632.28 428.62,-770.28 432,-789 445.3,-862.67 477.59,-946.31 492.1,-981.71"/>
<polygon fill="#000000" fill-opacity="0.200000" stroke="#000000" stroke-width="2" stroke-opacity="0.200000" points="490.14,-982.47 494.38,-987.21 494.02,-980.87 490.14,-982.47"/>
</g>
<!-- src/modules/cart/store/cart.store.ts -->
<g id="node19" class="node">
<title>src/modules/cart/store/cart.store.ts</title>
<g id="a_node19"><a xlink:href="src/modules/cart/store/cart.store.ts" xlink:title="cart.store.ts">
<path fill="#ddfeff" stroke="black" d="M525.71,-455.88C525.71,-455.88 475.04,-455.88 475.04,-455.88 472.08,-455.88 469.12,-452.92 469.12,-449.96 469.12,-449.96 469.12,-444.04 469.12,-444.04 469.12,-441.08 472.08,-438.12 475.04,-438.12 475.04,-438.12 525.71,-438.12 525.71,-438.12 528.67,-438.12 531.62,-441.08 531.62,-444.04 531.62,-444.04 531.62,-449.96 531.62,-449.96 531.62,-452.92 528.67,-455.88 525.71,-455.88"/>
<text text-anchor="start" x="477.12" y="-443.32" font-family="Helvetica,sans-Serif" font-size="9.00">cart.store.ts</text>
</a>
</g>
</g>
<!-- src/modules/cart/ui/Cart/Cart.tsx&#45;&gt;src/modules/cart/store/cart.store.ts -->
<g id="edge24" class="edge">
<title>src/modules/cart/ui/Cart/Cart.tsx&#45;&gt;src/modules/cart/store/cart.store.ts</title>
<path fill="none" stroke="#000000" stroke-width="2" stroke-opacity="0.200000" d="M355.64,-595.7C367.76,-575.75 398.32,-527.98 432,-495 445.29,-481.98 462.39,-469.84 476.04,-461.03"/>
<polygon fill="#000000" fill-opacity="0.200000" stroke="#000000" stroke-width="2" stroke-opacity="0.200000" points="477.1,-462.84 481.06,-457.86 474.86,-459.29 477.1,-462.84"/>
</g>
<!-- src/modules/cart/ui/AddToCartButton/AddToCartButton.tsx -->
<g id="node22" class="node">
<title>src/modules/cart/ui/AddToCartButton/AddToCartButton.tsx</title>
<g id="a_node22"><a xlink:href="src/modules/cart/ui/AddToCartButton/AddToCartButton.tsx" xlink:title="AddToCartButton.tsx">
<path fill="#bbfeff" stroke="black" d="M544.08,-553.88C544.08,-553.88 456.67,-553.88 456.67,-553.88 453.71,-553.88 450.75,-550.92 450.75,-547.96 450.75,-547.96 450.75,-542.04 450.75,-542.04 450.75,-539.08 453.71,-536.12 456.67,-536.12 456.67,-536.12 544.08,-536.12 544.08,-536.12 547.04,-536.12 550,-539.08 550,-542.04 550,-542.04 550,-547.96 550,-547.96 550,-550.92 547.04,-553.88 544.08,-553.88"/>
<text text-anchor="start" x="458.75" y="-541.33" font-family="Helvetica,sans-Serif" font-size="9.00">AddToCartButton.tsx</text>
</a>
</g>
</g>
<!-- src/modules/cart/ui/Cart/Cart.tsx&#45;&gt;src/modules/cart/ui/AddToCartButton/AddToCartButton.tsx -->
<g id="edge25" class="edge">
<title>src/modules/cart/ui/Cart/Cart.tsx&#45;&gt;src/modules/cart/ui/AddToCartButton/AddToCartButton.tsx</title>
<path fill="none" stroke="#000000" stroke-width="2" stroke-opacity="0.200000" d="M373.45,-595.62C398.86,-585.41 439.65,-569.01 467.89,-557.66"/>
<polygon fill="#000000" fill-opacity="0.200000" stroke="#000000" stroke-width="2" stroke-opacity="0.200000" points="468.63,-559.62 473.41,-555.44 467.06,-555.73 468.63,-559.62"/>
</g>
<!-- src/modules/cart/ui/Cart/Cart.module.css -->
<g id="node24" class="node">
<title>src/modules/cart/ui/Cart/Cart.module.css</title>
<g id="a_node24"><a xlink:href="src/modules/cart/ui/Cart/Cart.module.css" xlink:title="Cart.module.css">
<path fill="#ffffcc" stroke="black" d="M535.46,-613.88C535.46,-613.88 465.29,-613.88 465.29,-613.88 462.33,-613.88 459.38,-610.92 459.38,-607.96 459.38,-607.96 459.38,-602.04 459.38,-602.04 459.38,-599.08 462.33,-596.12 465.29,-596.12 465.29,-596.12 535.46,-596.12 535.46,-596.12 538.42,-596.12 541.38,-599.08 541.38,-602.04 541.38,-602.04 541.38,-607.96 541.38,-607.96 541.38,-610.92 538.42,-613.88 535.46,-613.88"/>
<text text-anchor="start" x="467.38" y="-601.33" font-family="Helvetica,sans-Serif" font-size="9.00">Cart.module.css</text>
</a>
</g>
</g>
<!-- src/modules/cart/ui/Cart/Cart.tsx&#45;&gt;src/modules/cart/ui/Cart/Cart.module.css -->
<g id="edge26" class="edge">
<title>src/modules/cart/ui/Cart/Cart.tsx&#45;&gt;src/modules/cart/ui/Cart/Cart.module.css</title>
<path fill="none" stroke="#000000" stroke-width="2" stroke-opacity="0.200000" d="M376.46,-605C396.81,-605 425.55,-605 450.13,-605"/>
<polygon fill="#000000" fill-opacity="0.200000" stroke="#000000" stroke-width="2" stroke-opacity="0.200000" points="449.94,-607.1 455.94,-605 449.94,-602.9 449.94,-607.1"/>
</g>
<!-- src/modules/popular&#45;products/ui/ProductList/ProductList.tsx&#45;&gt;src/core/store/store.ts -->
<g id="edge37" class="edge">
<title>src/modules/popular&#45;products/ui/ProductList/ProductList.tsx&#45;&gt;src/core/store/store.ts</title>
<path fill="none" stroke="#000000" stroke-opacity="0.200000" d="M262.73,-186.23C264.03,-187.35 265.22,-188.6 266.25,-190 281.2,-210.25 260.65,-621.82 274.25,-643 285.72,-660.88 411.63,-714.7 469.99,-738.94"/>
<polygon fill="none" stroke="#000000" stroke-opacity="0.200000" points="469.02,-740.81 475.36,-741.17 470.62,-736.93 469.02,-740.81"/>
</g>
<!-- src/modules/popular&#45;products/ui/ProductList/ProductList.tsx&#45;&gt;src/modules/popular&#45;products/store/popular&#45;products.slice.ts -->
<g id="edge34" class="edge">
<title>src/modules/popular&#45;products/ui/ProductList/ProductList.tsx&#45;&gt;src/modules/popular&#45;products/store/popular&#45;products.slice.ts</title>
<path fill="none" stroke="#000000" stroke-width="2" stroke-opacity="0.200000" d="M262.6,-186.33C263.94,-187.42 265.17,-188.64 266.25,-190 278.09,-204.83 264.43,-258.77 274.25,-275 283.69,-290.6 300.36,-302.08 315.48,-309.89"/>
<polygon fill="#000000" fill-opacity="0.200000" stroke="#000000" stroke-width="2" stroke-opacity="0.200000" points="314.16,-311.59 320.47,-312.33 316,-307.81 314.16,-311.59"/>
</g>
<!-- src/modules/popular&#45;products/ui/ProductList/ProductList.tsx&#45;&gt;src/modules/cart/store/cart.store.ts -->
<g id="edge38" class="edge">
<title>src/modules/popular&#45;products/ui/ProductList/ProductList.tsx&#45;&gt;src/modules/cart/store/cart.store.ts</title>
<path fill="none" stroke="#000000" stroke-width="2" stroke-opacity="0.200000" d="M262.69,-186.26C264,-187.37 265.2,-188.61 266.25,-190 279.72,-207.84 260.14,-373.67 274.25,-391 318.87,-445.8 408.09,-451.79 459.8,-450.13"/>
<polygon fill="#000000" fill-opacity="0.200000" stroke="#000000" stroke-width="2" stroke-opacity="0.200000" points="459.76,-452.23 465.67,-449.89 459.59,-448.04 459.76,-452.23"/>
</g>
<!-- src/modules/popular&#45;products/store/popular&#45;products.selectors.ts -->
<g id="node26" class="node">
<title>src/modules/popular&#45;products/store/popular&#45;products.selectors.ts</title>
<g id="a_node26"><a xlink:href="src/modules/popular-products/store/popular-products.selectors.ts" xlink:title="popular&#45;products.selectors.ts">
<path fill="#ddfeff" stroke="black" d="M410.08,-361.88C410.08,-361.88 288.17,-361.88 288.17,-361.88 285.21,-361.88 282.25,-358.92 282.25,-355.96 282.25,-355.96 282.25,-350.04 282.25,-350.04 282.25,-347.08 285.21,-344.12 288.17,-344.12 288.17,-344.12 410.08,-344.12 410.08,-344.12 413.04,-344.12 416,-347.08 416,-350.04 416,-350.04 416,-355.96 416,-355.96 416,-358.92 413.04,-361.88 410.08,-361.88"/>
<text text-anchor="start" x="290.25" y="-349.32" font-family="Helvetica,sans-Serif" font-size="9.00">popular&#45;products.selectors.ts</text>
</a>
</g>
</g>
<!-- src/modules/popular&#45;products/ui/ProductList/ProductList.tsx&#45;&gt;src/modules/popular&#45;products/store/popular&#45;products.selectors.ts -->
<g id="edge33" class="edge">
<title>src/modules/popular&#45;products/ui/ProductList/ProductList.tsx&#45;&gt;src/modules/popular&#45;products/store/popular&#45;products.selectors.ts</title>
<path fill="none" stroke="#000000" stroke-width="2" stroke-opacity="0.200000" d="M262.67,-186.28C263.99,-187.39 265.19,-188.62 266.25,-190 286.28,-216.14 252.72,-313.07 274.25,-338 274.53,-338.32 274.81,-338.64 275.1,-338.95"/>
<polygon fill="#000000" fill-opacity="0.200000" stroke="#000000" stroke-width="2" stroke-opacity="0.200000" points="273.55,-340.39 279.47,-342.7 276.28,-337.2 273.55,-340.39"/>
</g>
<!-- src/modules/popular&#45;products/ui/ProductList/ProductList.module.css -->
<g id="node27" class="node">
<title>src/modules/popular&#45;products/ui/ProductList/ProductList.module.css</title>
<g id="a_node27"><a xlink:href="src/modules/popular-products/ui/ProductList/ProductList.module.css" xlink:title="ProductList.module.css">
<path fill="#ffffcc" stroke="black" d="M398.46,-185.88C398.46,-185.88 299.79,-185.88 299.79,-185.88 296.83,-185.88 293.88,-182.92 293.88,-179.96 293.88,-179.96 293.88,-174.04 293.88,-174.04 293.88,-171.08 296.83,-168.12 299.79,-168.12 299.79,-168.12 398.46,-168.12 398.46,-168.12 401.42,-168.12 404.38,-171.08 404.38,-174.04 404.38,-174.04 404.38,-179.96 404.38,-179.96 404.38,-182.92 401.42,-185.88 398.46,-185.88"/>
<text text-anchor="start" x="301.88" y="-173.32" font-family="Helvetica,sans-Serif" font-size="9.00">ProductList.module.css</text>
</a>
</g>
</g>
<!-- src/modules/popular&#45;products/ui/ProductList/ProductList.tsx&#45;&gt;src/modules/popular&#45;products/ui/ProductList/ProductList.module.css -->
<g id="edge36" class="edge">
<title>src/modules/popular&#45;products/ui/ProductList/ProductList.tsx&#45;&gt;src/modules/popular&#45;products/ui/ProductList/ProductList.module.css</title>
<path fill="none" stroke="#000000" stroke-width="2" stroke-opacity="0.200000" d="M263.74,-177C270.56,-177 277.85,-177 285.19,-177"/>
<polygon fill="#000000" fill-opacity="0.200000" stroke="#000000" stroke-width="2" stroke-opacity="0.200000" points="284.77,-179.1 290.77,-177 284.77,-174.9 284.77,-179.1"/>
</g>
<!-- src/modules/popular&#45;products/ui/ProductListCard/ProductListCard.tsx -->
<g id="node28" class="node">
<title>src/modules/popular&#45;products/ui/ProductListCard/ProductListCard.tsx</title>
<g id="a_node28"><a xlink:href="src/modules/popular-products/ui/ProductListCard/ProductListCard.tsx" xlink:title="ProductListCard.tsx">
<path fill="#bbfeff" stroke="black" d="M390.96,-245.88C390.96,-245.88 307.29,-245.88 307.29,-245.88 304.33,-245.88 301.38,-242.92 301.38,-239.96 301.38,-239.96 301.38,-234.04 301.38,-234.04 301.38,-231.08 304.33,-228.12 307.29,-228.12 307.29,-228.12 390.96,-228.12 390.96,-228.12 393.92,-228.12 396.88,-231.08 396.88,-234.04 396.88,-234.04 396.88,-239.96 396.88,-239.96 396.88,-242.92 393.92,-245.88 390.96,-245.88"/>
<text text-anchor="start" x="309.38" y="-233.32" font-family="Helvetica,sans-Serif" font-size="9.00">ProductListCard.tsx</text>
</a>
</g>
</g>
<!-- src/modules/popular&#45;products/ui/ProductList/ProductList.tsx&#45;&gt;src/modules/popular&#45;products/ui/ProductListCard/ProductListCard.tsx -->
<g id="edge35" class="edge">
<title>src/modules/popular&#45;products/ui/ProductList/ProductList.tsx&#45;&gt;src/modules/popular&#45;products/ui/ProductListCard/ProductListCard.tsx</title>
<path fill="none" stroke="#000000" stroke-width="2" stroke-opacity="0.200000" d="M261.53,-186.14C263.23,-187.28 264.82,-188.56 266.25,-190 274.47,-198.28 265.92,-206.83 274.25,-215 279.54,-220.18 286,-224.15 292.86,-227.19"/>
<polygon fill="#000000" fill-opacity="0.200000" stroke="#000000" stroke-width="2" stroke-opacity="0.200000" points="291.9,-229.07 298.25,-229.26 293.4,-225.15 291.9,-229.07"/>
</g>
<!-- src/core/services/api.ts -->
<g id="node12" class="node">
<title>src/core/services/api.ts</title>
<g id="a_node12"><a xlink:href="src/core/services/api.ts" xlink:title="api.ts">
<path fill="#ddfeff" stroke="black" d="M912.58,-759.88C912.58,-759.88 870.42,-759.88 870.42,-759.88 867.46,-759.88 864.5,-756.92 864.5,-753.96 864.5,-753.96 864.5,-748.04 864.5,-748.04 864.5,-745.08 867.46,-742.12 870.42,-742.12 870.42,-742.12 912.58,-742.12 912.58,-742.12 915.54,-742.12 918.5,-745.08 918.5,-748.04 918.5,-748.04 918.5,-753.96 918.5,-753.96 918.5,-756.92 915.54,-759.88 912.58,-759.88"/>
<text text-anchor="start" x="880.62" y="-747.33" font-family="Helvetica,sans-Serif" font-size="9.00">api.ts</text>
</a>
</g>
</g>
<!-- src/types/product.ts -->
<g id="node20" class="node">
<title>src/types/product.ts</title>
<g id="a_node20"><a xlink:href="src/types/product.ts" xlink:title="product.ts">
<path fill="#ddfeff" stroke="black" d="M711.71,-41.88C711.71,-41.88 667.79,-41.88 667.79,-41.88 664.83,-41.88 661.88,-38.92 661.88,-35.96 661.88,-35.96 661.88,-30.04 661.88,-30.04 661.88,-27.08 664.83,-24.12 667.79,-24.12 667.79,-24.12 711.71,-24.12 711.71,-24.12 714.67,-24.12 717.62,-27.08 717.62,-30.04 717.62,-30.04 717.62,-35.96 717.62,-35.96 717.62,-38.92 714.67,-41.88 711.71,-41.88"/>
<text text-anchor="start" x="669.88" y="-29.32" font-family="Helvetica,sans-Serif" font-size="9.00">product.ts</text>
</a>
</g>
</g>
<!-- src/modules/popular&#45;products/store/popular&#45;products.slice.ts&#45;&gt;src/types/product.ts -->
<g id="edge32" class="edge">
<title>src/modules/popular&#45;products/store/popular&#45;products.slice.ts&#45;&gt;src/types/product.ts</title>
<path fill="none" stroke="#000000" stroke-opacity="0.200000" d="M374.46,-313.66C391.2,-305.92 412.44,-293.2 424,-275 437.95,-253.03 419.61,-239.88 432,-217 476.22,-135.35 541.19,-159.15 589.75,-80 597.42,-67.5 586.97,-57.93 597.75,-48 612.72,-34.21 635.26,-30.41 654.16,-30.09"/>
<polygon fill="none" stroke="#000000" stroke-opacity="0.200000" points="653.95,-32.19 659.96,-30.12 653.97,-27.99 653.95,-32.19"/>
</g>
<!-- src/modules/popular&#45;products/services/getPopularProducts.ts -->
<g id="node25" class="node">
<title>src/modules/popular&#45;products/services/getPopularProducts.ts</title>
<g id="a_node25"><a xlink:href="src/modules/popular-products/services/getPopularProducts.ts" xlink:title="getPopularProducts.ts">
<path fill="#ddfeff" stroke="black" d="M547.46,-331.88C547.46,-331.88 453.29,-331.88 453.29,-331.88 450.33,-331.88 447.38,-328.92 447.38,-325.96 447.38,-325.96 447.38,-320.04 447.38,-320.04 447.38,-317.08 450.33,-314.12 453.29,-314.12 453.29,-314.12 547.46,-314.12 547.46,-314.12 550.42,-314.12 553.38,-317.08 553.38,-320.04 553.38,-320.04 553.38,-325.96 553.38,-325.96 553.38,-328.92 550.42,-331.88 547.46,-331.88"/>
<text text-anchor="start" x="455.38" y="-319.32" font-family="Helvetica,sans-Serif" font-size="9.00">getPopularProducts.ts</text>
</a>
</g>
</g>
<!-- src/modules/popular&#45;products/store/popular&#45;products.slice.ts&#45;&gt;src/modules/popular&#45;products/services/getPopularProducts.ts -->
<g id="edge31" class="edge">
<title>src/modules/popular&#45;products/store/popular&#45;products.slice.ts&#45;&gt;src/modules/popular&#45;products/services/getPopularProducts.ts</title>
<path fill="none" stroke="#000000" stroke-width="2" stroke-opacity="0.200000" d="M407.4,-323C417.45,-323 427.94,-323 438.09,-323"/>
<polygon fill="#000000" fill-opacity="0.200000" stroke="#000000" stroke-width="2" stroke-opacity="0.200000" points="437.87,-325.1 443.87,-323 437.87,-320.9 437.87,-325.1"/>
</g>
<!-- src/index.css -->
<g id="node17" class="node">
<title>src/index.css</title>
<g id="a_node17"><a xlink:href="src/index.css" xlink:title="index.css">
<path fill="#ffffcc" stroke="black" d="M142.08,-789.88C142.08,-789.88 99.67,-789.88 99.67,-789.88 96.71,-789.88 93.75,-786.92 93.75,-783.96 93.75,-783.96 93.75,-778.04 93.75,-778.04 93.75,-775.08 96.71,-772.12 99.67,-772.12 99.67,-772.12 142.08,-772.12 142.08,-772.12 145.04,-772.12 148,-775.08 148,-778.04 148,-778.04 148,-783.96 148,-783.96 148,-786.92 145.04,-789.88 142.08,-789.88"/>
<text text-anchor="start" x="101.75" y="-777.33" font-family="Helvetica,sans-Serif" font-size="9.00">index.css</text>
</a>
</g>
</g>
<!-- src/main.tsx -->
<g id="node18" class="node">
<title>src/main.tsx</title>
<g id="a_node18"><a xlink:href="src/main.tsx" xlink:title="main.tsx">
<path fill="#bbfeff" stroke="black" d="M69.46,-774.88C69.46,-774.88 27.29,-774.88 27.29,-774.88 24.33,-774.88 21.38,-771.92 21.38,-768.96 21.38,-768.96 21.38,-763.04 21.38,-763.04 21.38,-760.08 24.33,-757.12 27.29,-757.12 27.29,-757.12 69.46,-757.12 69.46,-757.12 72.42,-757.12 75.38,-760.08 75.38,-763.04 75.38,-763.04 75.38,-768.96 75.38,-768.96 75.38,-771.92 72.42,-774.88 69.46,-774.88"/>
<text text-anchor="start" x="31.5" y="-762.33" font-family="Helvetica,sans-Serif" font-size="9.00">main.tsx</text>
</a>
</g>
</g>
<!-- src/main.tsx&#45;&gt;src/App.tsx -->
<g id="edge17" class="edge">
<title>src/main.tsx&#45;&gt;src/App.tsx</title>
<path fill="none" stroke="#000000" stroke-width="2" stroke-opacity="0.200000" d="M75.63,-760.41C78.69,-759.76 81.86,-759.09 85.02,-758.42"/>
<polygon fill="#000000" fill-opacity="0.200000" stroke="#000000" stroke-width="2" stroke-opacity="0.200000" points="85.44,-760.47 90.88,-757.17 84.57,-756.36 85.44,-760.47"/>
</g>
<!-- src/main.tsx&#45;&gt;src/index.css -->
<g id="edge18" class="edge">
<title>src/main.tsx&#45;&gt;src/index.css</title>
<path fill="none" stroke="#000000" stroke-width="2" stroke-opacity="0.200000" d="M75.63,-771.59C78.61,-772.22 81.69,-772.88 84.77,-773.53"/>
<polygon fill="#000000" fill-opacity="0.200000" stroke="#000000" stroke-width="2" stroke-opacity="0.200000" points="84.1,-775.54 90.41,-774.73 84.97,-771.43 84.1,-775.54"/>
</g>
<!-- src/modules/cart/store/cart.store.ts&#45;&gt;src/types/product.ts -->
<g id="edge19" class="edge">
<title>src/modules/cart/store/cart.store.ts&#45;&gt;src/types/product.ts</title>
<path fill="none" stroke="#000000" stroke-opacity="0.200000" d="M516.74,-437.64C537.72,-423.85 574.48,-395.91 589.75,-361 596.72,-345.06 586.33,-61.12 597.75,-48 611.46,-32.26 634.8,-28.66 654.41,-28.92"/>
<polygon fill="none" stroke="#000000" stroke-opacity="0.200000" points="654.13,-31.01 660.2,-29.13 654.28,-26.81 654.13,-31.01"/>
</g>
<!-- src/modules/cart/ui/AddToCartButton/AddToCartButton.module.css -->
<g id="node21" class="node">
<title>src/modules/cart/ui/AddToCartButton/AddToCartButton.module.css</title>
<g id="a_node21"><a xlink:href="src/modules/cart/ui/AddToCartButton/AddToCartButton.module.css" xlink:title="AddToCartButton.module.css">
<path fill="#ffffcc" stroke="black" d="M751.08,-523.88C751.08,-523.88 628.42,-523.88 628.42,-523.88 625.46,-523.88 622.5,-520.92 622.5,-517.96 622.5,-517.96 622.5,-512.04 622.5,-512.04 622.5,-509.08 625.46,-506.12 628.42,-506.12 628.42,-506.12 751.08,-506.12 751.08,-506.12 754.04,-506.12 757,-509.08 757,-512.04 757,-512.04 757,-517.96 757,-517.96 757,-520.92 754.04,-523.88 751.08,-523.88"/>
<text text-anchor="start" x="630.5" y="-511.32" font-family="Helvetica,sans-Serif" font-size="9.00">AddToCartButton.module.css</text>
</a>
</g>
</g>
<!-- src/modules/cart/ui/AddToCartButton/AddToCartButton.tsx&#45;&gt;src/core/di/useDi.tsx -->
<g id="edge22" class="edge">
<title>src/modules/cart/ui/AddToCartButton/AddToCartButton.tsx&#45;&gt;src/core/di/useDi.tsx</title>
<path fill="none" stroke="#000000" stroke-width="2" stroke-opacity="0.200000" d="M539.41,-554.23C556.97,-560.28 576.76,-569.96 589.75,-585 676.42,-685.38 687.43,-857.16 688.66,-912.94"/>
<polygon fill="#000000" fill-opacity="0.200000" stroke="#000000" stroke-width="2" stroke-opacity="0.200000" points="686.55,-912.69 688.74,-918.66 690.75,-912.63 686.55,-912.69"/>
</g>
<!-- src/modules/cart/ui/AddToCartButton/AddToCartButton.tsx&#45;&gt;src/core/ui/Price/Price.tsx -->
<g id="edge23" class="edge">
<title>src/modules/cart/ui/AddToCartButton/AddToCartButton.tsx&#45;&gt;src/core/ui/Price/Price.tsx</title>
<path fill="none" stroke="#000000" stroke-width="2" stroke-opacity="0.200000" d="M468.33,-554.32C451.62,-561.26 433.52,-572.76 428,-591 421.82,-611.42 424.57,-761.94 428,-783 440.5,-859.65 476.4,-945.79 492.46,-981.77"/>
<polygon fill="#000000" fill-opacity="0.200000" stroke="#000000" stroke-width="2" stroke-opacity="0.200000" points="490.45,-982.44 494.84,-987.04 494.28,-980.71 490.45,-982.44"/>
</g>
<!-- src/modules/cart/ui/AddToCartButton/AddToCartButton.tsx&#45;&gt;src/modules/cart/ui/AddToCartButton/AddToCartButton.module.css -->
<g id="edge20" class="edge">
<title>src/modules/cart/ui/AddToCartButton/AddToCartButton.tsx&#45;&gt;src/modules/cart/ui/AddToCartButton/AddToCartButton.module.css</title>
<path fill="none" stroke="#000000" stroke-width="2" stroke-opacity="0.200000" d="M550.12,-537.2C571.85,-533.72 597.8,-529.56 621.35,-525.79"/>
<polygon fill="#000000" fill-opacity="0.200000" stroke="#000000" stroke-width="2" stroke-opacity="0.200000" points="621.66,-527.87 627.26,-524.85 621,-523.72 621.66,-527.87"/>
</g>
<!-- src/modules/cart/ui/AddToCartButton/mixkit&#45;on&#45;or&#45;off&#45;light&#45;switch&#45;tap&#45;2585.wav -->
<g id="node23" class="node">
<title>src/modules/cart/ui/AddToCartButton/mixkit&#45;on&#45;or&#45;off&#45;light&#45;switch&#45;tap&#45;2585.wav</title>
<g id="a_node23"><a xlink:href="src/modules/cart/ui/AddToCartButton/mixkit-on-or-off-light-switch-tap-2585.wav" xlink:title="mixkit&#45;on&#45;or&#45;off&#45;light&#45;switch&#45;tap&#45;2585.wav">
<path fill="#ffffcc" stroke="black" d="M775.83,-553.88C775.83,-553.88 603.67,-553.88 603.67,-553.88 600.71,-553.88 597.75,-550.92 597.75,-547.96 597.75,-547.96 597.75,-542.04 597.75,-542.04 597.75,-539.08 600.71,-536.12 603.67,-536.12 603.67,-536.12 775.83,-536.12 775.83,-536.12 778.79,-536.12 781.75,-539.08 781.75,-542.04 781.75,-542.04 781.75,-547.96 781.75,-547.96 781.75,-550.92 778.79,-553.88 775.83,-553.88"/>
<text text-anchor="start" x="605.75" y="-541.33" font-family="Helvetica,sans-Serif" font-size="9.00">mixkit&#45;on&#45;or&#45;off&#45;light&#45;switch&#45;tap&#45;2585.wav</text>
</a>
</g>
</g>
<!-- src/modules/cart/ui/AddToCartButton/AddToCartButton.tsx&#45;&gt;src/modules/cart/ui/AddToCartButton/mixkit&#45;on&#45;or&#45;off&#45;light&#45;switch&#45;tap&#45;2585.wav -->
<g id="edge21" class="edge">
<title>src/modules/cart/ui/AddToCartButton/AddToCartButton.tsx&#45;&gt;src/modules/cart/ui/AddToCartButton/mixkit&#45;on&#45;or&#45;off&#45;light&#45;switch&#45;tap&#45;2585.wav</title>
<path fill="none" stroke="#000000" stroke-width="2" stroke-opacity="0.200000" d="M550.12,-545C562.04,-545 575.23,-545 588.59,-545"/>
<polygon fill="#000000" fill-opacity="0.200000" stroke="#000000" stroke-width="2" stroke-opacity="0.200000" points="588.37,-547.1 594.37,-545 588.37,-542.9 588.37,-547.1"/>
</g>
<!-- src/modules/popular&#45;products/services/getPopularProducts.ts&#45;&gt;src/core/services/api.ts -->
<g id="edge28" class="edge">
<title>src/modules/popular&#45;products/services/getPopularProducts.ts&#45;&gt;src/core/services/api.ts</title>
<path fill="none" stroke="#000000" stroke-width="2" stroke-opacity="0.200000" d="M535.18,-332.23C599.25,-351.49 738.68,-402.04 813.75,-495 873.24,-568.66 886.66,-687.55 889.65,-732.76"/>
<polygon fill="#000000" fill-opacity="0.200000" stroke="#000000" stroke-width="2" stroke-opacity="0.200000" points="887.55,-732.81 889.99,-738.68 891.74,-732.57 887.55,-732.81"/>
</g>
<!-- src/modules/popular&#45;products/services/getPopularProducts.ts&#45;&gt;src/types/product.ts -->
<g id="edge29" class="edge">
<title>src/modules/popular&#45;products/services/getPopularProducts.ts&#45;&gt;src/types/product.ts</title>
<path fill="none" stroke="#000000" stroke-opacity="0.200000" d="M535.4,-313.75C554.85,-306.56 577.71,-294.45 589.75,-275 603.03,-253.54 581.08,-66.95 597.75,-48 611.53,-32.33 634.87,-28.73 654.46,-28.97"/>
<polygon fill="none" stroke="#000000" stroke-opacity="0.200000" points="654.18,-31.06 660.25,-29.17 654.33,-26.86 654.18,-31.06"/>
</g>
<!-- src/modules/popular&#45;products/store/popular&#45;products.selectors.ts&#45;&gt;src/core/store/store.ts -->
<g id="edge30" class="edge">
<title>src/modules/popular&#45;products/store/popular&#45;products.selectors.ts&#45;&gt;src/core/store/store.ts</title>
<path fill="none" stroke="#000000" stroke-opacity="0.200000" d="M353.66,-362.13C365.46,-392.97 403.93,-496.36 424,-585 429.75,-610.38 423.14,-618.53 432,-643 445.1,-679.19 471.56,-716.12 487.14,-736.04"/>
<polygon fill="none" stroke="#000000" stroke-opacity="0.200000" points="485.46,-737.31 490.84,-740.7 488.75,-734.69 485.46,-737.31"/>
</g>
<!-- src/modules/popular&#45;products/ui/ProductListCard/ProductListCard.tsx&#45;&gt;src/types/product.ts -->
<g id="edge41" class="edge">
<title>src/modules/popular&#45;products/ui/ProductListCard/ProductListCard.tsx&#45;&gt;src/types/product.ts</title>
<path fill="none" stroke="#000000" stroke-opacity="0.200000" d="M397.31,-231.9C407.52,-228.59 417.26,-223.32 424,-215 438.03,-197.67 418.81,-132.97 432,-115 483.81,-44.43 597.03,-33.21 654.22,-32.29"/>
<polygon fill="none" stroke="#000000" stroke-opacity="0.200000" points="654.08,-34.39 660.07,-32.23 654.05,-30.19 654.08,-34.39"/>
</g>
<!-- src/modules/popular&#45;products/ui/ProductListCard/ProductListCard.tsx&#45;&gt;src/modules/cart/ui/AddToCartButton/AddToCartButton.tsx -->
<g id="edge40" class="edge">
<title>src/modules/popular&#45;products/ui/ProductListCard/ProductListCard.tsx&#45;&gt;src/modules/cart/ui/AddToCartButton/AddToCartButton.tsx</title>
<path fill="none" stroke="#000000" stroke-width="2" stroke-opacity="0.200000" d="M366.88,-246.37C384.67,-257.35 411.84,-277.36 424,-303 441.35,-339.58 414.63,-448.43 432,-485 441.3,-504.57 460.23,-520.52 475.66,-531.03"/>
<polygon fill="#000000" fill-opacity="0.200000" stroke="#000000" stroke-width="2" stroke-opacity="0.200000" points="474.19,-532.58 480.36,-534.1 476.48,-529.06 474.19,-532.58"/>
</g>
<!-- src/modules/popular&#45;products/ui/ProductListCard/ProductListCard.module.css -->
<g id="node29" class="node">
<title>src/modules/popular&#45;products/ui/ProductListCard/ProductListCard.module.css</title>
<g id="a_node29"><a xlink:href="src/modules/popular-products/ui/ProductListCard/ProductListCard.module.css" xlink:title="ProductListCard.module.css">
<path fill="#ffffcc" stroke="black" d="M559.83,-245.88C559.83,-245.88 440.92,-245.88 440.92,-245.88 437.96,-245.88 435,-242.92 435,-239.96 435,-239.96 435,-234.04 435,-234.04 435,-231.08 437.96,-228.12 440.92,-228.12 440.92,-228.12 559.83,-228.12 559.83,-228.12 562.79,-228.12 565.75,-231.08 565.75,-234.04 565.75,-234.04 565.75,-239.96 565.75,-239.96 565.75,-242.92 562.79,-245.88 559.83,-245.88"/>
<text text-anchor="start" x="443" y="-233.32" font-family="Helvetica,sans-Serif" font-size="9.00">ProductListCard.module.css</text>
</a>
</g>
</g>
<!-- src/modules/popular&#45;products/ui/ProductListCard/ProductListCard.tsx&#45;&gt;src/modules/popular&#45;products/ui/ProductListCard/ProductListCard.module.css -->
<g id="edge39" class="edge">
<title>src/modules/popular&#45;products/ui/ProductListCard/ProductListCard.tsx&#45;&gt;src/modules/popular&#45;products/ui/ProductListCard/ProductListCard.module.css</title>
<path fill="none" stroke="#000000" stroke-width="2" stroke-opacity="0.200000" d="M397.35,-237C406.44,-237 416.16,-237 425.85,-237"/>
<polygon fill="#000000" fill-opacity="0.200000" stroke="#000000" stroke-width="2" stroke-opacity="0.200000" points="425.7,-239.1 431.7,-237 425.7,-234.9 425.7,-239.1"/>
</g>
<!-- src/types/featureFlags.ts -->
<g id="node30" class="node">
<title>src/types/featureFlags.ts</title>
<g id="a_node30"><a xlink:href="src/types/featureFlags.ts" xlink:title="no&#45;orphans">
<path fill="#ccffcc" stroke="orange" d="M721.83,-71.88C721.83,-71.88 657.67,-71.88 657.67,-71.88 654.71,-71.88 651.75,-68.92 651.75,-65.96 651.75,-65.96 651.75,-60.04 651.75,-60.04 651.75,-57.08 654.71,-54.12 657.67,-54.12 657.67,-54.12 721.83,-54.12 721.83,-54.12 724.79,-54.12 727.75,-57.08 727.75,-60.04 727.75,-60.04 727.75,-65.96 727.75,-65.96 727.75,-68.92 724.79,-71.88 721.83,-71.88"/>
<text text-anchor="start" x="659.75" y="-59.33" font-family="Helvetica,sans-Serif" font-size="9.00" fill="orange">featureFlags.ts</text>
</a>
</g>
</g>
<!-- src/types/style.d.ts -->
<g id="node31" class="node">
<title>src/types/style.d.ts</title>
<g id="a_node31"><a xlink:href="src/types/style.d.ts" xlink:title="style.d.ts">
<path fill="#ccffcc" stroke="black" d="M710.83,-101.88C710.83,-101.88 668.67,-101.88 668.67,-101.88 665.71,-101.88 662.75,-98.92 662.75,-95.96 662.75,-95.96 662.75,-90.04 662.75,-90.04 662.75,-87.08 665.71,-84.12 668.67,-84.12 668.67,-84.12 710.83,-84.12 710.83,-84.12 713.79,-84.12 716.75,-87.08 716.75,-90.04 716.75,-90.04 716.75,-95.96 716.75,-95.96 716.75,-98.92 713.79,-101.88 710.83,-101.88"/>
<text text-anchor="start" x="672.12" y="-89.33" font-family="Helvetica,sans-Serif" font-size="9.00">style.d.ts</text>
</a>
</g>
</g>
<!-- src/vite&#45;env.d.ts -->
<g id="node32" class="node">
<title>src/vite&#45;env.d.ts</title>
<g id="a_node32"><a xlink:href="src/vite-env.d.ts" xlink:title="vite&#45;env.d.ts">
<path fill="#ccffcc" stroke="black" d="M74.83,-1012.88C74.83,-1012.88 21.92,-1012.88 21.92,-1012.88 18.96,-1012.88 16,-1009.92 16,-1006.96 16,-1006.96 16,-1001.04 16,-1001.04 16,-998.08 18.96,-995.12 21.92,-995.12 21.92,-995.12 74.83,-995.12 74.83,-995.12 77.79,-995.12 80.75,-998.08 80.75,-1001.04 80.75,-1001.04 80.75,-1006.96 80.75,-1006.96 80.75,-1009.92 77.79,-1012.88 74.83,-1012.88"/>
<text text-anchor="start" x="24" y="-1000.33" font-family="Helvetica,sans-Serif" font-size="9.00">vite&#45;env.d.ts</text>
</a>
</g>
</g>
</g>
</svg>
