<?xml version="1.0" encoding="UTF-8" standalone="no"?>
<!DOCTYPE svg PUBLIC "-//W3C//DTD SVG 1.1//EN"
 "http://www.w3.org/Graphics/SVG/1.1/DTD/svg11.dtd">
<!-- Generated by graphviz version 12.0.0 (20240704.0754)
 -->
<!-- Title: dependency&#45;cruiser output Pages: 1 -->
<svg width="602pt" height="270pt"
 viewBox="0.00 0.00 602.00 270.00" xmlns="http://www.w3.org/2000/svg" xmlns:xlink="http://www.w3.org/1999/xlink">
<g id="graph0" class="graph" transform="scale(1 1) rotate(0) translate(4 266)">
<title>dependency&#45;cruiser output</title>
<polygon fill="white" stroke="none" points="-4,4 -4,-266 598,-266 598,4 -4,4"/>
<g id="clust1" class="cluster">
<title>cluster_src</title>
<path fill="#ffffff" stroke="black" stroke-width="2" d="M20,-8C20,-8 574,-8 574,-8 580,-8 586,-14 586,-20 586,-20 586,-242 586,-242 586,-248 580,-254 574,-254 574,-254 20,-254 20,-254 14,-254 8,-248 8,-242 8,-242 8,-20 8,-20 8,-14 14,-8 20,-8"/>
<text text-anchor="middle" x="297" y="-241.45" font-family="Helvetica,sans-Serif" font-weight="bold" font-size="9.00">src</text>
</g>
<g id="clust2" class="cluster">
<title>cluster_src/core</title>
<path fill="#ffffff" stroke="black" stroke-width="2" d="M259,-16C259,-16 466,-16 466,-16 472,-16 478,-22 478,-28 478,-28 478,-150 478,-150 478,-156 472,-162 466,-162 466,-162 259,-162 259,-162 253,-162 247,-156 247,-150 247,-150 247,-28 247,-28 247,-22 253,-16 259,-16"/>
<text text-anchor="middle" x="362.5" y="-149.45" font-family="Helvetica,sans-Serif" font-weight="bold" font-size="9.00">core</text>
</g>
<g id="clust3" class="cluster">
<title>cluster_src/core/services</title>
<path fill="#ffffff" stroke="black" stroke-width="2" d="M399,-24C399,-24 458,-24 458,-24 464,-24 470,-30 470,-36 470,-36 470,-124 470,-124 470,-130 464,-136 458,-136 458,-136 399,-136 399,-136 393,-136 387,-130 387,-124 387,-124 387,-36 387,-36 387,-30 393,-24 399,-24"/>
<text text-anchor="middle" x="428.5" y="-123.45" font-family="Helvetica,sans-Serif" font-weight="bold" font-size="9.00">services</text>
</g>
<g id="clust4" class="cluster">
<title>cluster_src/modules</title>
<path fill="#ffffff" stroke="black" stroke-width="2" d="M157.25,-176C157.25,-176 305,-176 305,-176 311,-176 317,-182 317,-188 317,-188 317,-216 317,-216 317,-222 311,-228 305,-228 305,-228 157.25,-228 157.25,-228 151.25,-228 145.25,-222 145.25,-216 145.25,-216 145.25,-188 145.25,-188 145.25,-182 151.25,-176 157.25,-176"/>
<text text-anchor="middle" x="231.12" y="-215.45" font-family="Helvetica,sans-Serif" font-weight="bold" font-size="9.00">modules</text>
</g>
<g id="clust5" class="cluster">
<title>cluster_src/types</title>
<path fill="#ffffff" stroke="black" stroke-width="2" d="M498,-124C498,-124 566,-124 566,-124 572,-124 578,-130 578,-136 578,-136 578,-194 578,-194 578,-200 572,-206 566,-206 566,-206 498,-206 498,-206 492,-206 486,-200 486,-194 486,-194 486,-136 486,-136 486,-130 492,-124 498,-124"/>
<text text-anchor="middle" x="532" y="-193.45" font-family="Helvetica,sans-Serif" font-weight="bold" font-size="9.00">types</text>
</g>
<!-- src/App.module.css -->
<g id="node1" class="node">
<title>src/App.module.css</title>
<g id="a_node1"><a xlink:href="src/App.module.css" xlink:title="App.module.css">
<path fill="#ffffcc" stroke="black" d="M230.83,-61.88C230.83,-61.88 161.42,-61.88 161.42,-61.88 158.46,-61.88 155.5,-58.92 155.5,-55.96 155.5,-55.96 155.5,-50.04 155.5,-50.04 155.5,-47.08 158.46,-44.12 161.42,-44.12 161.42,-44.12 230.83,-44.12 230.83,-44.12 233.79,-44.12 236.75,-47.08 236.75,-50.04 236.75,-50.04 236.75,-55.96 236.75,-55.96 236.75,-58.92 233.79,-61.88 230.83,-61.88"/>
<text text-anchor="start" x="163.5" y="-49.33" font-family="Helvetica,sans-Serif" font-size="9.00">App.module.css</text>
</a>
</g>
</g>
<!-- src/App.tsx -->
<g id="node2" class="node">
<title>src/App.tsx</title>
<g id="a_node2"><a xlink:href="src/App.tsx" xlink:title="App.tsx">
<path fill="#bbfeff" stroke="black" d="M131.21,-122.88C131.21,-122.88 89.04,-122.88 89.04,-122.88 86.08,-122.88 83.12,-119.92 83.12,-116.96 83.12,-116.96 83.12,-111.04 83.12,-111.04 83.12,-108.08 86.08,-105.12 89.04,-105.12 89.04,-105.12 131.21,-105.12 131.21,-105.12 134.17,-105.12 137.12,-108.08 137.12,-111.04 137.12,-111.04 137.12,-116.96 137.12,-116.96 137.12,-119.92 134.17,-122.88 131.21,-122.88"/>
<text text-anchor="start" x="95.12" y="-110.33" font-family="Helvetica,sans-Serif" font-size="9.00">App.tsx</text>
</a>
</g>
</g>
<!-- src/App.tsx&#45;&gt;src/App.module.css -->
<g id="edge1" class="edge">
<title>src/App.tsx&#45;&gt;src/App.module.css</title>
<path fill="none" stroke="#000000" stroke-width="2" stroke-opacity="0.200000" d="M116.26,-104.87C122.12,-95.2 132.56,-80.12 145.25,-71 147.76,-69.2 150.46,-67.56 153.27,-66.08"/>
<polygon fill="#000000" fill-opacity="0.200000" stroke="#000000" stroke-width="2" stroke-opacity="0.200000" points="154.09,-68.01 158.64,-63.56 152.31,-64.2 154.09,-68.01"/>
</g>
<!-- src/core/di/ -->
<g id="node3" class="node">
<title>src/core/di/</title>
<g id="a_node3"><a xlink:href="src/core/di/" xlink:title="di">
<polygon fill="#ffffcc" stroke="black" points="379,-83.88 326.97,-83.88 325,-81.9 325,-66.12 377.03,-66.12 379,-68.1 379,-83.88"/>
<polyline fill="none" stroke="black" points="377.03,-81.9 325,-81.9"/>
<polyline fill="none" stroke="black" points="377.03,-81.9 377.03,-66.12"/>
<polyline fill="none" stroke="black" points="377.03,-81.9 379,-83.88"/>
<text text-anchor="start" x="348.25" y="-71.33" font-family="Helvetica,sans-Serif" font-size="9.00">di</text>
</a>
</g>
</g>
<!-- src/App.tsx&#45;&gt;src/core/di/ -->
<g id="edge2" class="edge">
<title>src/App.tsx&#45;&gt;src/core/di/</title>
<path fill="none" stroke="#000000" stroke-width="2" stroke-opacity="0.200000" d="M128.46,-104.72C133.73,-102.21 139.62,-99.72 145.25,-98 203.24,-80.24 274.17,-75.9 315.79,-75"/>
<polygon fill="#000000" fill-opacity="0.200000" stroke="#000000" stroke-width="2" stroke-opacity="0.200000" points="315.72,-77.11 321.69,-74.91 315.65,-72.91 315.72,-77.11"/>
</g>
<!-- src/core/store/ -->
<g id="node4" class="node">
<title>src/core/store/</title>
<g id="a_node4"><a xlink:href="src/core/store/" xlink:title="store">
<polygon fill="#ffffcc" stroke="black" points="309,-135.88 256.97,-135.88 255,-133.9 255,-118.12 307.03,-118.12 309,-120.1 309,-135.88"/>
<polyline fill="none" stroke="black" points="307.03,-133.9 255,-133.9"/>
<polyline fill="none" stroke="black" points="307.03,-133.9 307.03,-118.12"/>
<polyline fill="none" stroke="black" points="307.03,-133.9 309,-135.88"/>
<text text-anchor="start" x="271.88" y="-123.33" font-family="Helvetica,sans-Serif" font-size="9.00">store</text>
</a>
</g>
</g>
<!-- src/App.tsx&#45;&gt;src/core/store/ -->
<g id="edge3" class="edge">
<title>src/App.tsx&#45;&gt;src/core/store/</title>
<path fill="none" stroke="#000000" stroke-width="2" stroke-opacity="0.200000" d="M137.3,-116C166.39,-118.23 213.53,-121.84 245.83,-124.31"/>
<polygon fill="#000000" fill-opacity="0.200000" stroke="#000000" stroke-width="2" stroke-opacity="0.200000" points="245.36,-126.38 251.5,-124.74 245.68,-122.19 245.36,-126.38"/>
</g>
<!-- src/core/ui/ -->
<g id="node5" class="node">
<title>src/core/ui/</title>
<g id="a_node5"><a xlink:href="src/core/ui/" xlink:title="ui">
<polygon fill="#ffffcc" stroke="black" points="309,-105.88 256.97,-105.88 255,-103.9 255,-88.12 307.03,-88.12 309,-90.1 309,-105.88"/>
<polyline fill="none" stroke="black" points="307.03,-103.9 255,-103.9"/>
<polyline fill="none" stroke="black" points="307.03,-103.9 307.03,-88.12"/>
<polyline fill="none" stroke="black" points="307.03,-103.9 309,-105.88"/>
<text text-anchor="start" x="278.25" y="-93.33" font-family="Helvetica,sans-Serif" font-size="9.00">ui</text>
</a>
</g>
</g>
<!-- src/App.tsx&#45;&gt;src/core/ui/ -->
<g id="edge4" class="edge">
<title>src/App.tsx&#45;&gt;src/core/ui/</title>
<path fill="none" stroke="#000000" stroke-width="2" stroke-opacity="0.200000" d="M137.3,-111.38C166.39,-108.47 213.53,-103.75 245.83,-100.52"/>
<polygon fill="#000000" fill-opacity="0.200000" stroke="#000000" stroke-width="2" stroke-opacity="0.200000" points="245.75,-102.64 251.51,-99.95 245.33,-98.46 245.75,-102.64"/>
</g>
<!-- src/modules/cart/ -->
<g id="node6" class="node">
<title>src/modules/cart/</title>
<g id="a_node6"><a xlink:href="src/modules/cart/" xlink:title="cart">
<polygon fill="#ffffcc" stroke="black" points="309,-201.88 256.97,-201.88 255,-199.9 255,-184.12 307.03,-184.12 309,-186.1 309,-201.88"/>
<polyline fill="none" stroke="black" points="307.03,-199.9 255,-199.9"/>
<polyline fill="none" stroke="black" points="307.03,-199.9 307.03,-184.12"/>
<polyline fill="none" stroke="black" points="307.03,-199.9 309,-201.88"/>
<text text-anchor="start" x="274.5" y="-189.32" font-family="Helvetica,sans-Serif" font-size="9.00">cart</text>
</a>
</g>
</g>
<!-- src/App.tsx&#45;&gt;src/modules/cart/ -->
<g id="edge5" class="edge">
<title>src/App.tsx&#45;&gt;src/modules/cart/</title>
<path fill="none" stroke="#000000" stroke-width="2" stroke-opacity="0.200000" d="M131.89,-123.24C133.96,-124.9 135.83,-126.81 137.25,-129 146.85,-143.81 132.16,-196.17 145.25,-208 175.32,-235.18 225.75,-219.37 255.95,-205.87"/>
<polygon fill="#000000" fill-opacity="0.200000" stroke="#000000" stroke-width="2" stroke-opacity="0.200000" points="256.61,-207.88 261.16,-203.44 254.83,-204.08 256.61,-207.88"/>
</g>
<!-- src/modules/popular&#45;products/ -->
<g id="node7" class="node">
<title>src/modules/popular&#45;products/</title>
<g id="a_node7"><a xlink:href="src/modules/popular-products/" xlink:title="popular&#45;products">
<polygon fill="#ffffcc" stroke="black" points="239,-201.88 155.22,-201.88 153.25,-199.9 153.25,-184.12 237.03,-184.12 239,-186.1 239,-201.88"/>
<polyline fill="none" stroke="black" points="237.03,-199.9 153.25,-199.9"/>
<polyline fill="none" stroke="black" points="237.03,-199.9 237.03,-184.12"/>
<polyline fill="none" stroke="black" points="237.03,-199.9 239,-201.88"/>
<text text-anchor="start" x="161.25" y="-189.32" font-family="Helvetica,sans-Serif" font-size="9.00">popular&#45;products</text>
</a>
</g>
</g>
<!-- src/App.tsx&#45;&gt;src/modules/popular&#45;products/ -->
<g id="edge6" class="edge">
<title>src/App.tsx&#45;&gt;src/modules/popular&#45;products/</title>
<path fill="none" stroke="#000000" stroke-width="2" stroke-opacity="0.200000" d="M131.77,-123.32C133.87,-124.96 135.77,-126.85 137.25,-129 150.25,-147.9 129.85,-162.99 145.25,-180 145.54,-180.32 145.83,-180.62 146.13,-180.92"/>
<polygon fill="#000000" fill-opacity="0.200000" stroke="#000000" stroke-width="2" stroke-opacity="0.200000" points="144.72,-182.49 150.77,-184.43 147.25,-179.14 144.72,-182.49"/>
</g>
<!-- src/core/services/feature&#45;flags/ -->
<g id="node8" class="node">
<title>src/core/services/feature&#45;flags/</title>
<g id="a_node8"><a xlink:href="src/core/services/feature-flags/" xlink:title="feature&#45;flags">
<polygon fill="#ffffcc" stroke="black" points="462,-79.88 396.97,-79.88 395,-77.9 395,-62.12 460.03,-62.12 462,-64.1 462,-79.88"/>
<polyline fill="none" stroke="black" points="460.03,-77.9 395,-77.9"/>
<polyline fill="none" stroke="black" points="460.03,-77.9 460.03,-62.12"/>
<polyline fill="none" stroke="black" points="460.03,-77.9 462,-79.88"/>
<text text-anchor="start" x="403" y="-67.33" font-family="Helvetica,sans-Serif" font-size="9.00">feature&#45;flags</text>
</a>
</g>
</g>
<!-- src/core/di/&#45;&gt;src/core/services/feature&#45;flags/ -->
<g id="edge7" class="edge">
<title>src/core/di/&#45;&gt;src/core/services/feature&#45;flags/</title>
<path fill="none" stroke="#000000" stroke-width="2" stroke-opacity="0.200000" d="M379.48,-73.58C381.63,-73.46 383.85,-73.34 386.08,-73.22"/>
<polygon fill="#000000" fill-opacity="0.200000" stroke="#000000" stroke-width="2" stroke-opacity="0.200000" points="385.82,-75.34 391.7,-72.92 385.59,-71.15 385.82,-75.34"/>
</g>
<!-- src/core/services/theme/ -->
<g id="node9" class="node">
<title>src/core/services/theme/</title>
<g id="a_node9"><a xlink:href="src/core/services/theme/" xlink:title="theme">
<polygon fill="#ffffcc" stroke="black" points="455.5,-49.88 403.47,-49.88 401.5,-47.9 401.5,-32.12 453.53,-32.12 455.5,-34.1 455.5,-49.88"/>
<polyline fill="none" stroke="black" points="453.53,-47.9 401.5,-47.9"/>
<polyline fill="none" stroke="black" points="453.53,-47.9 453.53,-32.12"/>
<polyline fill="none" stroke="black" points="453.53,-47.9 455.5,-49.88"/>
<text text-anchor="start" x="415.75" y="-37.33" font-family="Helvetica,sans-Serif" font-size="9.00">theme</text>
</a>
</g>
</g>
<!-- src/core/di/&#45;&gt;src/core/services/theme/ -->
<g id="edge8" class="edge">
<title>src/core/di/&#45;&gt;src/core/services/theme/</title>
<path fill="none" stroke="#000000" stroke-width="2" stroke-opacity="0.200000" d="M368.31,-65.78C374.07,-62.49 380.74,-58.89 387,-56 388.97,-55.09 391,-54.2 393.07,-53.33"/>
<polygon fill="#000000" fill-opacity="0.200000" stroke="#000000" stroke-width="2" stroke-opacity="0.200000" points="393.52,-55.41 398.3,-51.23 391.95,-51.52 393.52,-55.41"/>
</g>
<!-- src/core/store/&#45;&gt;src/modules/popular&#45;products/ -->
<g id="edge10" class="edge">
<title>src/core/store/&#45;&gt;src/modules/popular&#45;products/</title>
<path fill="none" stroke="#000000" stroke-width="2" stroke-opacity="0.200000" d="M270.25,-136.36C262.66,-141.02 252.84,-146.9 247,-155 240.99,-163.34 244.62,-170.44 243.38,-177.62"/>
<polygon fill="#000000" fill-opacity="0.200000" stroke="#000000" stroke-width="2" stroke-opacity="0.200000" points="241.59,-176.5 240.8,-182.81 245.35,-178.38 241.59,-176.5"/>
</g>
<!-- src/core/ui/&#45;&gt;src/core/di/ -->
<g id="edge11" class="edge">
<title>src/core/ui/&#45;&gt;src/core/di/</title>
<path fill="none" stroke="#000000" stroke-width="2" stroke-opacity="0.200000" d="M309.49,-88.43C311.86,-87.66 314.29,-86.88 316.72,-86.09"/>
<polygon fill="#000000" fill-opacity="0.200000" stroke="#000000" stroke-width="2" stroke-opacity="0.200000" points="316.98,-88.21 322.04,-84.37 315.69,-84.22 316.98,-88.21"/>
</g>
<!-- src/core/ui/&#45;&gt;src/core/services/feature&#45;flags/ -->
<g id="edge12" class="edge">
<title>src/core/ui/&#45;&gt;src/core/services/feature&#45;flags/</title>
<path fill="none" stroke="#000000" stroke-opacity="0.200000" d="M309.13,-97.81C328.7,-97.77 355.96,-96.33 379,-90 382.83,-88.95 383.35,-87.58 387,-86 389.41,-84.95 391.92,-83.91 394.46,-82.9"/>
<polygon fill="none" stroke="#000000" stroke-opacity="0.200000" points="394.95,-84.96 399.78,-80.82 393.43,-81.04 394.95,-84.96"/>
</g>
<!-- src/modules/cart/&#45;&gt;src/core/di/ -->
<g id="edge17" class="edge">
<title>src/modules/cart/&#45;&gt;src/core/di/</title>
<path fill="none" stroke="#000000" stroke-width="2" stroke-opacity="0.200000" d="M297.41,-183.76C304.11,-178.86 311.75,-172.34 317,-165 332.97,-142.7 342.45,-111.96 347.18,-92.8"/>
<polygon fill="#000000" fill-opacity="0.200000" stroke="#000000" stroke-width="2" stroke-opacity="0.200000" points="349.19,-93.44 348.5,-87.12 345.1,-92.49 349.19,-93.44"/>
</g>
<!-- src/modules/cart/&#45;&gt;src/core/ui/ -->
<g id="edge15" class="edge">
<title>src/modules/cart/&#45;&gt;src/core/ui/</title>
<path fill="none" stroke="#000000" stroke-width="2" stroke-opacity="0.200000" d="M255.46,-183.71C249.8,-180.17 244.94,-175.39 243,-169 239.72,-158.15 239.72,-128.85 243,-118 243.89,-115.06 245.46,-112.52 247.46,-110.33"/>
<polygon fill="#000000" fill-opacity="0.200000" stroke="#000000" stroke-width="2" stroke-opacity="0.200000" points="248.75,-111.99 252.19,-106.64 246.17,-108.68 248.75,-111.99"/>
</g>
<!-- src/types/product.ts -->
<g id="node14" class="node">
<title>src/types/product.ts</title>
<g id="a_node14"><a xlink:href="src/types/product.ts" xlink:title="product.ts">
<path fill="#ddfeff" stroke="black" d="M553.96,-179.88C553.96,-179.88 510.04,-179.88 510.04,-179.88 507.08,-179.88 504.12,-176.92 504.12,-173.96 504.12,-173.96 504.12,-168.04 504.12,-168.04 504.12,-165.08 507.08,-162.12 510.04,-162.12 510.04,-162.12 553.96,-162.12 553.96,-162.12 556.92,-162.12 559.88,-165.08 559.88,-168.04 559.88,-168.04 559.88,-173.96 559.88,-173.96 559.88,-176.92 556.92,-179.88 553.96,-179.88"/>
<text text-anchor="start" x="512.12" y="-167.32" font-family="Helvetica,sans-Serif" font-size="9.00">product.ts</text>
</a>
</g>
</g>
<!-- src/modules/cart/&#45;&gt;src/types/product.ts -->
<g id="edge16" class="edge">
<title>src/modules/cart/&#45;&gt;src/types/product.ts</title>
<path fill="none" stroke="#000000" stroke-opacity="0.200000" d="M309.07,-190.69C354.02,-186.7 446.11,-178.53 496.38,-174.07"/>
<polygon fill="none" stroke="#000000" stroke-opacity="0.200000" points="496.48,-176.17 502.27,-173.55 496.11,-171.99 496.48,-176.17"/>
</g>
<!-- src/modules/popular&#45;products/&#45;&gt;src/core/store/ -->
<g id="edge20" class="edge">
<title>src/modules/popular&#45;products/&#45;&gt;src/core/store/</title>
<path fill="none" stroke="#000000" stroke-opacity="0.200000" d="M222.46,-183.76C228.56,-181.62 234.59,-178.63 239,-174 248.81,-163.7 238.68,-154.54 247,-143 247.73,-141.98 248.53,-141 249.38,-140.05"/>
<polygon fill="none" stroke="#000000" stroke-opacity="0.200000" points="250.67,-141.72 253.61,-136.08 247.8,-138.66 250.67,-141.72"/>
</g>
<!-- src/modules/popular&#45;products/&#45;&gt;src/modules/cart/ -->
<g id="edge21" class="edge">
<title>src/modules/popular&#45;products/&#45;&gt;src/modules/cart/</title>
<g id="a_edge21"><a xlink:title="modules&#45;not&#45;to&#45;modules">
<path fill="none" stroke="orange" stroke-width="2" d="M239.06,-193C241.43,-193 243.79,-193 246.13,-193"/>
<polygon fill="orange" stroke="orange" stroke-width="2" points="245.89,-195.1 251.89,-193 245.89,-190.9 245.89,-195.1"/>
</a>
</g>
<text text-anchor="middle" x="295.78" y="-194.2" font-family="Helvetica,sans-Serif" font-size="9.00" fill="orange">modules&#45;not&#45;to&#45;modules</text>
</g>
<!-- src/core/services/api.ts -->
<g id="node10" class="node">
<title>src/core/services/api.ts</title>
<g id="a_node10"><a xlink:href="src/core/services/api.ts" xlink:title="api.ts">
<path fill="#ddfeff" stroke="black" d="M449.58,-109.88C449.58,-109.88 407.42,-109.88 407.42,-109.88 404.46,-109.88 401.5,-106.92 401.5,-103.96 401.5,-103.96 401.5,-98.04 401.5,-98.04 401.5,-95.08 404.46,-92.12 407.42,-92.12 407.42,-92.12 449.58,-92.12 449.58,-92.12 452.54,-92.12 455.5,-95.08 455.5,-98.04 455.5,-98.04 455.5,-103.96 455.5,-103.96 455.5,-106.92 452.54,-109.88 449.58,-109.88"/>
<text text-anchor="start" x="417.62" y="-97.33" font-family="Helvetica,sans-Serif" font-size="9.00">api.ts</text>
</a>
</g>
</g>
<!-- src/modules/popular&#45;products/&#45;&gt;src/core/services/api.ts -->
<g id="edge19" class="edge">
<title>src/modules/popular&#45;products/&#45;&gt;src/core/services/api.ts</title>
<path fill="none" stroke="#000000" stroke-width="2" stroke-opacity="0.200000" d="M233.19,-183.77C235.24,-182.65 237.2,-181.4 239,-180 244.36,-175.84 241.33,-170.72 247,-167 296.54,-134.47 325.79,-174.12 379,-148 393.54,-140.86 406.51,-127.75 415.37,-117.18"/>
<polygon fill="#000000" fill-opacity="0.200000" stroke="#000000" stroke-width="2" stroke-opacity="0.200000" points="416.81,-118.73 418.92,-112.74 413.53,-116.11 416.81,-118.73"/>
</g>
<!-- src/modules/popular&#45;products/&#45;&gt;src/types/product.ts -->
<g id="edge18" class="edge">
<title>src/modules/popular&#45;products/&#45;&gt;src/types/product.ts</title>
<path fill="none" stroke="#000000" stroke-opacity="0.200000" d="M227.08,-183.64C236.34,-180.82 244.72,-178.36 247,-178 336.08,-163.77 442.83,-166.3 496.54,-168.91"/>
<polygon fill="none" stroke="#000000" stroke-opacity="0.200000" points="496.15,-170.99 502.25,-169.2 496.36,-166.79 496.15,-170.99"/>
</g>
<!-- src/types/featureFlags.ts -->
<g id="node11" class="node">
<title>src/types/featureFlags.ts</title>
<g id="a_node11"><a xlink:href="src/types/featureFlags.ts" xlink:title="featureFlags.ts">
<path fill="#ddfeff" stroke="black" d="M564.08,-149.88C564.08,-149.88 499.92,-149.88 499.92,-149.88 496.96,-149.88 494,-146.92 494,-143.96 494,-143.96 494,-138.04 494,-138.04 494,-135.08 496.96,-132.12 499.92,-132.12 499.92,-132.12 564.08,-132.12 564.08,-132.12 567.04,-132.12 570,-135.08 570,-138.04 570,-138.04 570,-143.96 570,-143.96 570,-146.92 567.04,-149.88 564.08,-149.88"/>
<text text-anchor="start" x="502" y="-137.32" font-family="Helvetica,sans-Serif" font-size="9.00">featureFlags.ts</text>
</a>
</g>
</g>
<!-- src/core/services/feature&#45;flags/&#45;&gt;src/types/featureFlags.ts -->
<g id="edge9" class="edge">
<title>src/core/services/feature&#45;flags/&#45;&gt;src/types/featureFlags.ts</title>
<path fill="none" stroke="#000000" stroke-opacity="0.200000" d="M462.32,-78.67C467.76,-80.63 473.2,-83.04 478,-86 495.08,-96.52 510.48,-113.8 520.22,-126.19"/>
<polygon fill="none" stroke="#000000" stroke-opacity="0.200000" points="518.3,-127.14 523.61,-130.63 521.63,-124.58 518.3,-127.14"/>
</g>
<!-- src/index.css -->
<g id="node12" class="node">
<title>src/index.css</title>
<g id="a_node12"><a xlink:href="src/index.css" xlink:title="index.css">
<path fill="#ffffcc" stroke="black" d="M131.33,-152.88C131.33,-152.88 88.92,-152.88 88.92,-152.88 85.96,-152.88 83,-149.92 83,-146.96 83,-146.96 83,-141.04 83,-141.04 83,-138.08 85.96,-135.12 88.92,-135.12 88.92,-135.12 131.33,-135.12 131.33,-135.12 134.29,-135.12 137.25,-138.08 137.25,-141.04 137.25,-141.04 137.25,-146.96 137.25,-146.96 137.25,-149.92 134.29,-152.88 131.33,-152.88"/>
<text text-anchor="start" x="91" y="-140.32" font-family="Helvetica,sans-Serif" font-size="9.00">index.css</text>
</a>
</g>
</g>
<!-- src/main.tsx -->
<g id="node13" class="node">
<title>src/main.tsx</title>
<g id="a_node13"><a xlink:href="src/main.tsx" xlink:title="main.tsx">
<path fill="#bbfeff" stroke="black" d="M64.08,-137.88C64.08,-137.88 21.92,-137.88 21.92,-137.88 18.96,-137.88 16,-134.92 16,-131.96 16,-131.96 16,-126.04 16,-126.04 16,-123.08 18.96,-120.12 21.92,-120.12 21.92,-120.12 64.08,-120.12 64.08,-120.12 67.04,-120.12 70,-123.08 70,-126.04 70,-126.04 70,-131.96 70,-131.96 70,-134.92 67.04,-137.88 64.08,-137.88"/>
<text text-anchor="start" x="26.12" y="-125.33" font-family="Helvetica,sans-Serif" font-size="9.00">main.tsx</text>
</a>
</g>
</g>
<!-- src/main.tsx&#45;&gt;src/App.tsx -->
<g id="edge13" class="edge">
<title>src/main.tsx&#45;&gt;src/App.tsx</title>
<path fill="none" stroke="#000000" stroke-width="2" stroke-opacity="0.200000" d="M70.49,-122.9C71.77,-122.6 73.05,-122.31 74.35,-122.01"/>
<polygon fill="#000000" fill-opacity="0.200000" stroke="#000000" stroke-width="2" stroke-opacity="0.200000" points="74.55,-124.12 79.92,-120.73 73.6,-120.03 74.55,-124.12"/>
</g>
<!-- src/main.tsx&#45;&gt;src/index.css -->
<g id="edge14" class="edge">
<title>src/main.tsx&#45;&gt;src/index.css</title>
<path fill="none" stroke="#000000" stroke-width="2" stroke-opacity="0.200000" d="M70.49,-135.1C71.77,-135.4 73.05,-135.69 74.35,-135.99"/>
<polygon fill="#000000" fill-opacity="0.200000" stroke="#000000" stroke-width="2" stroke-opacity="0.200000" points="73.6,-137.97 79.92,-137.27 74.55,-133.88 73.6,-137.97"/>
</g>
</g>
</svg>
