<?xml version="1.0" encoding="UTF-8" standalone="no"?>
<!DOCTYPE svg PUBLIC "-//W3C//DTD SVG 1.1//EN"
 "http://www.w3.org/Graphics/SVG/1.1/DTD/svg11.dtd">
<!-- Generated by graphviz version 12.0.0 (20240704.0754)
 -->
<!-- Title: dependency&#45;cruiser output Pages: 1 -->
<svg width="1629pt" height="1308pt"
 viewBox="0.00 0.00 1628.75 1308.00" xmlns="http://www.w3.org/2000/svg" xmlns:xlink="http://www.w3.org/1999/xlink">
<g id="graph0" class="graph" transform="scale(1 1) rotate(0) translate(4 1304)">
<title>dependency&#45;cruiser output</title>
<polygon fill="white" stroke="none" points="-4,4 -4,-1304 1624.75,-1304 1624.75,4 -4,4"/>
<g id="clust1" class="cluster">
<title>cluster_src</title>
<path fill="#ffffff" stroke="black" stroke-width="2" d="M20,-8C20,-8 1600.75,-8 1600.75,-8 1606.75,-8 1612.75,-14 1612.75,-20 1612.75,-20 1612.75,-1280 1612.75,-1280 1612.75,-1286 1606.75,-1292 1600.75,-1292 1600.75,-1292 20,-1292 20,-1292 14,-1292 8,-1286 8,-1280 8,-1280 8,-20 8,-20 8,-14 14,-8 20,-8"/>
<text text-anchor="middle" x="810.38" y="-1279.45" font-family="Helvetica,sans-Serif" font-weight="bold" font-size="9.00">src</text>
</g>
<g id="clust2" class="cluster">
<title>cluster_src/app</title>
<path fill="#ffffff" stroke="black" stroke-width="2" d="M28,-573C28,-573 301.62,-573 301.62,-573 307.62,-573 313.62,-579 313.62,-585 313.62,-585 313.62,-827 313.62,-827 313.62,-833 307.62,-839 301.62,-839 301.62,-839 28,-839 28,-839 22,-839 16,-833 16,-827 16,-827 16,-585 16,-585 16,-579 22,-573 28,-573"/>
<text text-anchor="middle" x="164.81" y="-826.45" font-family="Helvetica,sans-Serif" font-weight="bold" font-size="9.00">app</text>
</g>
<g id="clust3" class="cluster">
<title>cluster_src/app/providers</title>
<path fill="#ffffff" stroke="black" stroke-width="2" d="M103.38,-607C103.38,-607 293.62,-607 293.62,-607 299.62,-607 305.62,-613 305.62,-619 305.62,-619 305.62,-801 305.62,-801 305.62,-807 299.62,-813 293.62,-813 293.62,-813 103.38,-813 103.38,-813 97.38,-813 91.38,-807 91.38,-801 91.38,-801 91.38,-619 91.38,-619 91.38,-613 97.38,-607 103.38,-607"/>
<text text-anchor="middle" x="198.5" y="-800.45" font-family="Helvetica,sans-Serif" font-weight="bold" font-size="9.00">providers</text>
</g>
<g id="clust4" class="cluster">
<title>cluster_src/app/providers/diContainer</title>
<path fill="#ffffff" stroke="black" stroke-width="2" d="M111.38,-615C111.38,-615 285.62,-615 285.62,-615 291.62,-615 297.62,-621 297.62,-627 297.62,-627 297.62,-655 297.62,-655 297.62,-661 291.62,-667 285.62,-667 285.62,-667 111.38,-667 111.38,-667 105.38,-667 99.38,-661 99.38,-655 99.38,-655 99.38,-627 99.38,-627 99.38,-621 105.38,-615 111.38,-615"/>
<text text-anchor="middle" x="198.5" y="-654.45" font-family="Helvetica,sans-Serif" font-weight="bold" font-size="9.00">diContainer</text>
</g>
<g id="clust5" class="cluster">
<title>cluster_src/app/providers/layout</title>
<path fill="#ffffff" stroke="black" stroke-width="2" d="M122.25,-735C122.25,-735 206,-735 206,-735 212,-735 218,-741 218,-747 218,-747 218,-775 218,-775 218,-781 212,-787 206,-787 206,-787 122.25,-787 122.25,-787 116.25,-787 110.25,-781 110.25,-775 110.25,-775 110.25,-747 110.25,-747 110.25,-741 116.25,-735 122.25,-735"/>
<text text-anchor="middle" x="164.12" y="-774.45" font-family="Helvetica,sans-Serif" font-weight="bold" font-size="9.00">layout</text>
</g>
<g id="clust6" class="cluster">
<title>cluster_src/app/providers/redux</title>
<path fill="#ffffff" stroke="black" stroke-width="2" d="M122.62,-675C122.62,-675 284.75,-675 284.75,-675 290.75,-675 296.75,-681 296.75,-687 296.75,-687 296.75,-715 296.75,-715 296.75,-721 290.75,-727 284.75,-727 284.75,-727 122.62,-727 122.62,-727 116.62,-727 110.62,-721 110.62,-715 110.62,-715 110.62,-687 110.62,-687 110.62,-681 116.62,-675 122.62,-675"/>
<text text-anchor="middle" x="203.69" y="-714.45" font-family="Helvetica,sans-Serif" font-weight="bold" font-size="9.00">redux</text>
</g>
<g id="clust7" class="cluster">
<title>cluster_src/shared</title>
<path fill="#ffffff" stroke="black" stroke-width="2" d="M691,-18C691,-18 1592.75,-18 1592.75,-18 1598.75,-18 1604.75,-24 1604.75,-30 1604.75,-30 1604.75,-754 1604.75,-754 1604.75,-760 1598.75,-766 1592.75,-766 1592.75,-766 691,-766 691,-766 685,-766 679,-760 679,-754 679,-754 679,-30 679,-30 679,-24 685,-18 691,-18"/>
<text text-anchor="middle" x="1141.88" y="-753.45" font-family="Helvetica,sans-Serif" font-weight="bold" font-size="9.00">shared</text>
</g>
<g id="clust8" class="cluster">
<title>cluster_src/shared/api</title>
<path fill="#ffffff" stroke="black" stroke-width="2" d="M699,-658C699,-658 908.88,-658 908.88,-658 914.88,-658 920.88,-664 920.88,-670 920.88,-670 920.88,-728 920.88,-728 920.88,-734 914.88,-740 908.88,-740 908.88,-740 699,-740 699,-740 693,-740 687,-734 687,-728 687,-728 687,-670 687,-670 687,-664 693,-658 699,-658"/>
<text text-anchor="middle" x="803.94" y="-727.45" font-family="Helvetica,sans-Serif" font-weight="bold" font-size="9.00">api</text>
</g>
<g id="clust9" class="cluster">
<title>cluster_src/shared/di</title>
<path fill="#ffffff" stroke="black" stroke-width="2" d="M1312.38,-614C1312.38,-614 1584.75,-614 1584.75,-614 1590.75,-614 1596.75,-620 1596.75,-626 1596.75,-626 1596.75,-728 1596.75,-728 1596.75,-734 1590.75,-740 1584.75,-740 1584.75,-740 1312.38,-740 1312.38,-740 1306.38,-740 1300.38,-734 1300.38,-728 1300.38,-728 1300.38,-626 1300.38,-626 1300.38,-620 1306.38,-614 1312.38,-614"/>
<text text-anchor="middle" x="1448.56" y="-727.45" font-family="Helvetica,sans-Serif" font-weight="bold" font-size="9.00">di</text>
</g>
<g id="clust10" class="cluster">
<title>cluster_src/shared/di/lib</title>
<path fill="#ffffff" stroke="black" stroke-width="2" d="M1439.88,-622C1439.88,-622 1495.12,-622 1495.12,-622 1501.12,-622 1507.12,-628 1507.12,-634 1507.12,-634 1507.12,-692 1507.12,-692 1507.12,-698 1501.12,-704 1495.12,-704 1495.12,-704 1439.88,-704 1439.88,-704 1433.88,-704 1427.88,-698 1427.88,-692 1427.88,-692 1427.88,-634 1427.88,-634 1427.88,-628 1433.88,-622 1439.88,-622"/>
<text text-anchor="middle" x="1467.5" y="-691.45" font-family="Helvetica,sans-Serif" font-weight="bold" font-size="9.00">lib</text>
</g>
<g id="clust11" class="cluster">
<title>cluster_src/shared/di/model</title>
<path fill="#ffffff" stroke="black" stroke-width="2" d="M1530.5,-657C1530.5,-657 1576.75,-657 1576.75,-657 1582.75,-657 1588.75,-663 1588.75,-669 1588.75,-669 1588.75,-697 1588.75,-697 1588.75,-703 1582.75,-709 1576.75,-709 1576.75,-709 1530.5,-709 1530.5,-709 1524.5,-709 1518.5,-703 1518.5,-697 1518.5,-697 1518.5,-669 1518.5,-669 1518.5,-663 1524.5,-657 1530.5,-657"/>
<text text-anchor="middle" x="1553.62" y="-696.45" font-family="Helvetica,sans-Serif" font-weight="bold" font-size="9.00">model</text>
</g>
<g id="clust12" class="cluster">
<title>cluster_src/shared/feature&#45;flags</title>
<path fill="#ffffff" stroke="black" stroke-width="2" d="M1016.62,-26C1016.62,-26 1498.5,-26 1498.5,-26 1504.5,-26 1510.5,-32 1510.5,-38 1510.5,-38 1510.5,-206 1510.5,-206 1510.5,-212 1504.5,-218 1498.5,-218 1498.5,-218 1016.62,-218 1016.62,-218 1010.62,-218 1004.62,-212 1004.62,-206 1004.62,-206 1004.62,-38 1004.62,-38 1004.62,-32 1010.62,-26 1016.62,-26"/>
<text text-anchor="middle" x="1257.56" y="-205.45" font-family="Helvetica,sans-Serif" font-weight="bold" font-size="9.00">feature&#45;flags</text>
</g>
<g id="clust13" class="cluster">
<title>cluster_src/shared/feature&#45;flags/model</title>
<path fill="#ffffff" stroke="black" stroke-width="2" d="M1285.62,-140C1285.62,-140 1490.5,-140 1490.5,-140 1496.5,-140 1502.5,-146 1502.5,-152 1502.5,-152 1502.5,-180 1502.5,-180 1502.5,-186 1496.5,-192 1490.5,-192 1490.5,-192 1285.62,-192 1285.62,-192 1279.62,-192 1273.62,-186 1273.62,-180 1273.62,-180 1273.62,-152 1273.62,-152 1273.62,-146 1279.62,-140 1285.62,-140"/>
<text text-anchor="middle" x="1388.06" y="-179.45" font-family="Helvetica,sans-Serif" font-weight="bold" font-size="9.00">model</text>
</g>
<g id="clust14" class="cluster">
<title>cluster_src/shared/feature&#45;flags/ui</title>
<path fill="#ffffff" stroke="black" stroke-width="2" d="M1167.62,-46C1167.62,-46 1401.38,-46 1401.38,-46 1407.38,-46 1413.38,-52 1413.38,-58 1413.38,-58 1413.38,-120 1413.38,-120 1413.38,-126 1407.38,-132 1401.38,-132 1401.38,-132 1167.62,-132 1167.62,-132 1161.62,-132 1155.62,-126 1155.62,-120 1155.62,-120 1155.62,-58 1155.62,-58 1155.62,-52 1161.62,-46 1167.62,-46"/>
<text text-anchor="middle" x="1284.5" y="-119.45" font-family="Helvetica,sans-Serif" font-weight="bold" font-size="9.00">ui</text>
</g>
<g id="clust15" class="cluster">
<title>cluster_src/shared/feature&#45;flags/ui/FeatureToggle</title>
<path fill="#ffffff" stroke="black" stroke-width="2" d="M1175.62,-54C1175.62,-54 1393.38,-54 1393.38,-54 1399.38,-54 1405.38,-60 1405.38,-66 1405.38,-66 1405.38,-94 1405.38,-94 1405.38,-100 1399.38,-106 1393.38,-106 1393.38,-106 1175.62,-106 1175.62,-106 1169.62,-106 1163.62,-100 1163.62,-94 1163.62,-94 1163.62,-66 1163.62,-66 1163.62,-60 1169.62,-54 1175.62,-54"/>
<text text-anchor="middle" x="1284.5" y="-93.45" font-family="Helvetica,sans-Serif" font-weight="bold" font-size="9.00">FeatureToggle</text>
</g>
<g id="clust16" class="cluster">
<title>cluster_src/shared/theme</title>
<path fill="#ffffff" stroke="black" stroke-width="2" d="M1016.62,-226C1016.62,-226 1407.88,-226 1407.88,-226 1413.88,-226 1419.88,-232 1419.88,-238 1419.88,-238 1419.88,-394 1419.88,-394 1419.88,-400 1413.88,-406 1407.88,-406 1407.88,-406 1016.62,-406 1016.62,-406 1010.62,-406 1004.62,-400 1004.62,-394 1004.62,-394 1004.62,-238 1004.62,-238 1004.62,-232 1010.62,-226 1016.62,-226"/>
<text text-anchor="middle" x="1212.25" y="-393.45" font-family="Helvetica,sans-Serif" font-weight="bold" font-size="9.00">theme</text>
</g>
<g id="clust17" class="cluster">
<title>cluster_src/shared/theme/model</title>
<path fill="#ffffff" stroke="black" stroke-width="2" d="M1179,-234C1179,-234 1253,-234 1253,-234 1259,-234 1265,-240 1265,-246 1265,-246 1265,-274 1265,-274 1265,-280 1259,-286 1253,-286 1253,-286 1179,-286 1179,-286 1173,-286 1167,-280 1167,-274 1167,-274 1167,-246 1167,-246 1167,-240 1173,-234 1179,-234"/>
<text text-anchor="middle" x="1216" y="-273.45" font-family="Helvetica,sans-Serif" font-weight="bold" font-size="9.00">model</text>
</g>
<g id="clust18" class="cluster">
<title>cluster_src/shared/theme/ui</title>
<path fill="#ffffff" stroke="black" stroke-width="2" d="M1169.12,-294C1169.12,-294 1399.88,-294 1399.88,-294 1405.88,-294 1411.88,-300 1411.88,-306 1411.88,-306 1411.88,-368 1411.88,-368 1411.88,-374 1405.88,-380 1399.88,-380 1399.88,-380 1169.12,-380 1169.12,-380 1163.12,-380 1157.12,-374 1157.12,-368 1157.12,-368 1157.12,-306 1157.12,-306 1157.12,-300 1163.12,-294 1169.12,-294"/>
<text text-anchor="middle" x="1284.5" y="-367.45" font-family="Helvetica,sans-Serif" font-weight="bold" font-size="9.00">ui</text>
</g>
<g id="clust19" class="cluster">
<title>cluster_src/shared/theme/ui/ThemeToggle</title>
<path fill="#ffffff" stroke="black" stroke-width="2" d="M1177.12,-302C1177.12,-302 1391.88,-302 1391.88,-302 1397.88,-302 1403.88,-308 1403.88,-314 1403.88,-314 1403.88,-342 1403.88,-342 1403.88,-348 1397.88,-354 1391.88,-354 1391.88,-354 1177.12,-354 1177.12,-354 1171.12,-354 1165.12,-348 1165.12,-342 1165.12,-342 1165.12,-314 1165.12,-314 1165.12,-308 1171.12,-302 1177.12,-302"/>
<text text-anchor="middle" x="1284.5" y="-341.45" font-family="Helvetica,sans-Serif" font-weight="bold" font-size="9.00">ThemeToggle</text>
</g>
<g id="clust20" class="cluster">
<title>cluster_src/shared/ui</title>
<path fill="#ffffff" stroke="black" stroke-width="2" d="M699,-414C699,-414 1135.62,-414 1135.62,-414 1141.62,-414 1147.62,-420 1147.62,-426 1147.62,-426 1147.62,-638 1147.62,-638 1147.62,-644 1141.62,-650 1135.62,-650 1135.62,-650 699,-650 699,-650 693,-650 687,-644 687,-638 687,-638 687,-426 687,-426 687,-420 693,-414 699,-414"/>
<text text-anchor="middle" x="917.31" y="-637.45" font-family="Helvetica,sans-Serif" font-weight="bold" font-size="9.00">ui</text>
</g>
<g id="clust21" class="cluster">
<title>cluster_src/shared/ui/AddToCartButton</title>
<path fill="#ffffff" stroke="black" stroke-width="2" d="M839.38,-422C839.38,-422 1127.62,-422 1127.62,-422 1133.62,-422 1139.62,-428 1139.62,-434 1139.62,-434 1139.62,-492 1139.62,-492 1139.62,-498 1133.62,-504 1127.62,-504 1127.62,-504 839.38,-504 839.38,-504 833.38,-504 827.38,-498 827.38,-492 827.38,-492 827.38,-434 827.38,-434 827.38,-428 833.38,-422 839.38,-422"/>
<text text-anchor="middle" x="983.5" y="-491.45" font-family="Helvetica,sans-Serif" font-weight="bold" font-size="9.00">AddToCartButton</text>
</g>
<g id="clust22" class="cluster">
<title>cluster_src/shared/ui/Layout</title>
<path fill="#ffffff" stroke="black" stroke-width="2" d="M860.38,-572C860.38,-572 1081.88,-572 1081.88,-572 1087.88,-572 1093.88,-578 1093.88,-584 1093.88,-584 1093.88,-612 1093.88,-612 1093.88,-618 1087.88,-624 1081.88,-624 1081.88,-624 860.38,-624 860.38,-624 854.38,-624 848.38,-618 848.38,-612 848.38,-612 848.38,-584 848.38,-584 848.38,-578 854.38,-572 860.38,-572"/>
<text text-anchor="middle" x="971.12" y="-611.45" font-family="Helvetica,sans-Serif" font-weight="bold" font-size="9.00">Layout</text>
</g>
<g id="clust23" class="cluster">
<title>cluster_src/shared/ui/Price</title>
<path fill="#ffffff" stroke="black" stroke-width="2" d="M1016.62,-512C1016.62,-512 1062.62,-512 1062.62,-512 1068.62,-512 1074.62,-518 1074.62,-524 1074.62,-524 1074.62,-552 1074.62,-552 1074.62,-558 1068.62,-564 1062.62,-564 1062.62,-564 1016.62,-564 1016.62,-564 1010.62,-564 1004.62,-558 1004.62,-552 1004.62,-552 1004.62,-524 1004.62,-524 1004.62,-518 1010.62,-512 1016.62,-512"/>
<text text-anchor="middle" x="1039.62" y="-551.45" font-family="Helvetica,sans-Serif" font-weight="bold" font-size="9.00">Price</text>
</g>
<g id="clust24" class="cluster">
<title>cluster_src/widgets</title>
<path fill="#ffffff" stroke="black" stroke-width="2" d="M333.62,-774C333.62,-774 807.38,-774 807.38,-774 813.38,-774 819.38,-780 819.38,-786 819.38,-786 819.38,-1254 819.38,-1254 819.38,-1260 813.38,-1266 807.38,-1266 807.38,-1266 333.62,-1266 333.62,-1266 327.62,-1266 321.62,-1260 321.62,-1254 321.62,-1254 321.62,-786 321.62,-786 321.62,-780 327.62,-774 333.62,-774"/>
<text text-anchor="middle" x="570.5" y="-1253.45" font-family="Helvetica,sans-Serif" font-weight="bold" font-size="9.00">widgets</text>
</g>
<g id="clust25" class="cluster">
<title>cluster_src/widgets/cart</title>
<path fill="#ffffff" stroke="black" stroke-width="2" d="M341.62,-782C341.62,-782 626.75,-782 626.75,-782 632.75,-782 638.75,-788 638.75,-794 638.75,-794 638.75,-950 638.75,-950 638.75,-956 632.75,-962 626.75,-962 626.75,-962 341.62,-962 341.62,-962 335.62,-962 329.62,-956 329.62,-950 329.62,-950 329.62,-794 329.62,-794 329.62,-788 335.62,-782 341.62,-782"/>
<text text-anchor="middle" x="484.19" y="-949.45" font-family="Helvetica,sans-Serif" font-weight="bold" font-size="9.00">cart</text>
</g>
<g id="clust26" class="cluster">
<title>cluster_src/widgets/cart/store</title>
<path fill="#ffffff" stroke="black" stroke-width="2" d="M546.5,-790C546.5,-790 601,-790 601,-790 607,-790 613,-796 613,-802 613,-802 613,-830 613,-830 613,-836 607,-842 601,-842 601,-842 546.5,-842 546.5,-842 540.5,-842 534.5,-836 534.5,-830 534.5,-830 534.5,-802 534.5,-802 534.5,-796 540.5,-790 546.5,-790"/>
<text text-anchor="middle" x="573.75" y="-829.45" font-family="Helvetica,sans-Serif" font-weight="bold" font-size="9.00">store</text>
</g>
<g id="clust27" class="cluster">
<title>cluster_src/widgets/cart/ui</title>
<path fill="#ffffff" stroke="black" stroke-width="2" d="M422.25,-850C422.25,-850 618.75,-850 618.75,-850 624.75,-850 630.75,-856 630.75,-862 630.75,-862 630.75,-924 630.75,-924 630.75,-930 624.75,-936 618.75,-936 618.75,-936 422.25,-936 422.25,-936 416.25,-936 410.25,-930 410.25,-924 410.25,-924 410.25,-862 410.25,-862 410.25,-856 416.25,-850 422.25,-850"/>
<text text-anchor="middle" x="520.5" y="-923.45" font-family="Helvetica,sans-Serif" font-weight="bold" font-size="9.00">ui</text>
</g>
<g id="clust28" class="cluster">
<title>cluster_src/widgets/cart/ui/Cart</title>
<path fill="#ffffff" stroke="black" stroke-width="2" d="M430.25,-858C430.25,-858 610.75,-858 610.75,-858 616.75,-858 622.75,-864 622.75,-870 622.75,-870 622.75,-898 622.75,-898 622.75,-904 616.75,-910 610.75,-910 610.75,-910 430.25,-910 430.25,-910 424.25,-910 418.25,-904 418.25,-898 418.25,-898 418.25,-870 418.25,-870 418.25,-864 424.25,-858 430.25,-858"/>
<text text-anchor="middle" x="520.5" y="-897.45" font-family="Helvetica,sans-Serif" font-weight="bold" font-size="9.00">Cart</text>
</g>
<g id="clust29" class="cluster">
<title>cluster_src/widgets/popular&#45;products</title>
<path fill="#ffffff" stroke="black" stroke-width="2" d="M341.62,-970C341.62,-970 799.38,-970 799.38,-970 805.38,-970 811.38,-976 811.38,-982 811.38,-982 811.38,-1228 811.38,-1228 811.38,-1234 805.38,-1240 799.38,-1240 799.38,-1240 341.62,-1240 341.62,-1240 335.62,-1240 329.62,-1234 329.62,-1228 329.62,-1228 329.62,-982 329.62,-982 329.62,-976 335.62,-970 341.62,-970"/>
<text text-anchor="middle" x="570.5" y="-1227.45" font-family="Helvetica,sans-Serif" font-weight="bold" font-size="9.00">popular&#45;products</text>
</g>
<g id="clust30" class="cluster">
<title>cluster_src/widgets/popular&#45;products/api</title>
<path fill="#ffffff" stroke="black" stroke-width="2" d="M673,-978C673,-978 771,-978 771,-978 777,-978 783,-984 783,-990 783,-990 783,-1018 783,-1018 783,-1024 777,-1030 771,-1030 771,-1030 673,-1030 673,-1030 667,-1030 661,-1024 661,-1018 661,-1018 661,-990 661,-990 661,-984 667,-978 673,-978"/>
<text text-anchor="middle" x="722" y="-1017.45" font-family="Helvetica,sans-Serif" font-weight="bold" font-size="9.00">api</text>
</g>
<g id="clust31" class="cluster">
<title>cluster_src/widgets/popular&#45;products/store</title>
<path fill="#ffffff" stroke="black" stroke-width="2" d="M510.88,-978C510.88,-978 636.62,-978 636.62,-978 642.62,-978 648.62,-984 648.62,-990 648.62,-990 648.62,-1048 648.62,-1048 648.62,-1054 642.62,-1060 636.62,-1060 636.62,-1060 510.88,-1060 510.88,-1060 504.88,-1060 498.88,-1054 498.88,-1048 498.88,-1048 498.88,-990 498.88,-990 498.88,-984 504.88,-978 510.88,-978"/>
<text text-anchor="middle" x="573.75" y="-1047.45" font-family="Helvetica,sans-Serif" font-weight="bold" font-size="9.00">store</text>
</g>
<g id="clust32" class="cluster">
<title>cluster_src/widgets/popular&#45;products/ui</title>
<path fill="#ffffff" stroke="black" stroke-width="2" d="M411.62,-1068C411.62,-1068 791.38,-1068 791.38,-1068 797.38,-1068 803.38,-1074 803.38,-1080 803.38,-1080 803.38,-1202 803.38,-1202 803.38,-1208 797.38,-1214 791.38,-1214 791.38,-1214 411.62,-1214 411.62,-1214 405.62,-1214 399.62,-1208 399.62,-1202 399.62,-1202 399.62,-1080 399.62,-1080 399.62,-1074 405.62,-1068 411.62,-1068"/>
<text text-anchor="middle" x="601.5" y="-1201.45" font-family="Helvetica,sans-Serif" font-weight="bold" font-size="9.00">ui</text>
</g>
<g id="clust33" class="cluster">
<title>cluster_src/widgets/popular&#45;products/ui/ProductList</title>
<path fill="#ffffff" stroke="black" stroke-width="2" d="M419.62,-1076C419.62,-1076 625,-1076 625,-1076 631,-1076 637,-1082 637,-1088 637,-1088 637,-1116 637,-1116 637,-1122 631,-1128 625,-1128 625,-1128 419.62,-1128 419.62,-1128 413.62,-1128 407.62,-1122 407.62,-1116 407.62,-1116 407.62,-1088 407.62,-1088 407.62,-1082 413.62,-1076 419.62,-1076"/>
<text text-anchor="middle" x="522.31" y="-1115.45" font-family="Helvetica,sans-Serif" font-weight="bold" font-size="9.00">ProductList</text>
</g>
<g id="clust34" class="cluster">
<title>cluster_src/widgets/popular&#45;products/ui/ProductListCard</title>
<path fill="#ffffff" stroke="black" stroke-width="2" d="M530,-1136C530,-1136 783.38,-1136 783.38,-1136 789.38,-1136 795.38,-1142 795.38,-1148 795.38,-1148 795.38,-1176 795.38,-1176 795.38,-1182 789.38,-1188 783.38,-1188 783.38,-1188 530,-1188 530,-1188 524,-1188 518,-1182 518,-1176 518,-1176 518,-1148 518,-1148 518,-1142 524,-1136 530,-1136"/>
<text text-anchor="middle" x="656.69" y="-1175.45" font-family="Helvetica,sans-Serif" font-weight="bold" font-size="9.00">ProductListCard</text>
</g>
<!-- src/app/entry.tsx -->
<g id="node1" class="node">
<title>src/app/entry.tsx</title>
<g id="a_node1"><a xlink:href="src/app/entry.tsx" xlink:title="entry.tsx">
<path fill="#bbfeff" stroke="black" d="M72.08,-670.88C72.08,-670.88 29.92,-670.88 29.92,-670.88 26.96,-670.88 24,-667.92 24,-664.96 24,-664.96 24,-659.04 24,-659.04 24,-656.08 26.96,-653.12 29.92,-653.12 29.92,-653.12 72.08,-653.12 72.08,-653.12 75.04,-653.12 78,-656.08 78,-659.04 78,-659.04 78,-664.96 78,-664.96 78,-667.92 75.04,-670.88 72.08,-670.88"/>
<text text-anchor="start" x="34.12" y="-658.33" font-family="Helvetica,sans-Serif" font-size="9.00">entry.tsx</text>
</a>
</g>
</g>
<!-- src/app/index.css -->
<g id="node2" class="node">
<title>src/app/index.css</title>
<g id="a_node2"><a xlink:href="src/app/index.css" xlink:title="index.css">
<path fill="#ffffcc" stroke="black" d="M185.33,-598.88C185.33,-598.88 142.92,-598.88 142.92,-598.88 139.96,-598.88 137,-595.92 137,-592.96 137,-592.96 137,-587.04 137,-587.04 137,-584.08 139.96,-581.12 142.92,-581.12 142.92,-581.12 185.33,-581.12 185.33,-581.12 188.29,-581.12 191.25,-584.08 191.25,-587.04 191.25,-587.04 191.25,-592.96 191.25,-592.96 191.25,-595.92 188.29,-598.88 185.33,-598.88"/>
<text text-anchor="start" x="145" y="-586.33" font-family="Helvetica,sans-Serif" font-size="9.00">index.css</text>
</a>
</g>
</g>
<!-- src/app/entry.tsx&#45;&gt;src/app/index.css -->
<g id="edge1" class="edge">
<title>src/app/entry.tsx&#45;&gt;src/app/index.css</title>
<path fill="none" stroke="#000000" stroke-width="2" stroke-opacity="0.200000" d="M56.87,-652.85C63.31,-641.62 75.7,-622.74 91.38,-612 102.19,-604.59 115.58,-599.61 127.86,-596.29"/>
<polygon fill="#000000" fill-opacity="0.200000" stroke="#000000" stroke-width="2" stroke-opacity="0.200000" points="128.28,-598.35 133.6,-594.88 127.28,-594.27 128.28,-598.35"/>
</g>
<!-- src/app/providers/diContainer/DIContainerProvider.tsx -->
<g id="node3" class="node">
<title>src/app/providers/diContainer/DIContainerProvider.tsx</title>
<g id="a_node3"><a xlink:href="src/app/providers/diContainer/DIContainerProvider.tsx" xlink:title="DIContainerProvider.tsx">
<path fill="#bbfeff" stroke="black" d="M214.96,-640.88C214.96,-640.88 113.29,-640.88 113.29,-640.88 110.33,-640.88 107.38,-637.92 107.38,-634.96 107.38,-634.96 107.38,-629.04 107.38,-629.04 107.38,-626.08 110.33,-623.12 113.29,-623.12 113.29,-623.12 214.96,-623.12 214.96,-623.12 217.92,-623.12 220.88,-626.08 220.88,-629.04 220.88,-629.04 220.88,-634.96 220.88,-634.96 220.88,-637.92 217.92,-640.88 214.96,-640.88"/>
<text text-anchor="start" x="115.38" y="-628.33" font-family="Helvetica,sans-Serif" font-size="9.00">DIContainerProvider.tsx</text>
</a>
</g>
</g>
<!-- src/app/entry.tsx&#45;&gt;src/app/providers/diContainer/DIContainerProvider.tsx -->
<g id="edge2" class="edge">
<title>src/app/entry.tsx&#45;&gt;src/app/providers/diContainer/DIContainerProvider.tsx</title>
<path fill="none" stroke="#000000" stroke-width="2" stroke-opacity="0.200000" d="M78.34,-654.89C90.77,-651.53 105.94,-647.44 119.99,-643.64"/>
<polygon fill="#000000" fill-opacity="0.200000" stroke="#000000" stroke-width="2" stroke-opacity="0.200000" points="120.39,-645.71 125.64,-642.12 119.3,-641.66 120.39,-645.71"/>
</g>
<!-- src/app/providers/layout/LayoutProvider.tsx -->
<g id="node4" class="node">
<title>src/app/providers/layout/LayoutProvider.tsx</title>
<g id="a_node4"><a xlink:href="src/app/providers/layout/LayoutProvider.tsx" xlink:title="LayoutProvider.tsx">
<path fill="#bbfeff" stroke="black" d="M204.08,-760.88C204.08,-760.88 124.17,-760.88 124.17,-760.88 121.21,-760.88 118.25,-757.92 118.25,-754.96 118.25,-754.96 118.25,-749.04 118.25,-749.04 118.25,-746.08 121.21,-743.12 124.17,-743.12 124.17,-743.12 204.08,-743.12 204.08,-743.12 207.04,-743.12 210,-746.08 210,-749.04 210,-749.04 210,-754.96 210,-754.96 210,-757.92 207.04,-760.88 204.08,-760.88"/>
<text text-anchor="start" x="126.25" y="-748.33" font-family="Helvetica,sans-Serif" font-size="9.00">LayoutProvider.tsx</text>
</a>
</g>
</g>
<!-- src/app/entry.tsx&#45;&gt;src/app/providers/layout/LayoutProvider.tsx -->
<g id="edge3" class="edge">
<title>src/app/entry.tsx&#45;&gt;src/app/providers/layout/LayoutProvider.tsx</title>
<path fill="none" stroke="#000000" stroke-width="2" stroke-opacity="0.200000" d="M78.22,-670.17C80.17,-671.54 81.93,-673.14 83.38,-675 98.54,-694.5 75.29,-711.25 91.38,-730 96.31,-735.76 102.72,-740.03 109.66,-743.21"/>
<polygon fill="#000000" fill-opacity="0.200000" stroke="#000000" stroke-width="2" stroke-opacity="0.200000" points="108.83,-745.14 115.19,-745.35 110.35,-741.22 108.83,-745.14"/>
</g>
<!-- src/app/providers/redux/ReduxProvider.tsx -->
<g id="node5" class="node">
<title>src/app/providers/redux/ReduxProvider.tsx</title>
<g id="a_node5"><a xlink:href="src/app/providers/redux/ReduxProvider.tsx" xlink:title="ReduxProvider.tsx">
<path fill="#bbfeff" stroke="black" d="M203.71,-700.88C203.71,-700.88 124.54,-700.88 124.54,-700.88 121.58,-700.88 118.62,-697.92 118.62,-694.96 118.62,-694.96 118.62,-689.04 118.62,-689.04 118.62,-686.08 121.58,-683.12 124.54,-683.12 124.54,-683.12 203.71,-683.12 203.71,-683.12 206.67,-683.12 209.62,-686.08 209.62,-689.04 209.62,-689.04 209.62,-694.96 209.62,-694.96 209.62,-697.92 206.67,-700.88 203.71,-700.88"/>
<text text-anchor="start" x="126.62" y="-688.33" font-family="Helvetica,sans-Serif" font-size="9.00">ReduxProvider.tsx</text>
</a>
</g>
</g>
<!-- src/app/entry.tsx&#45;&gt;src/app/providers/redux/ReduxProvider.tsx -->
<g id="edge4" class="edge">
<title>src/app/entry.tsx&#45;&gt;src/app/providers/redux/ReduxProvider.tsx</title>
<path fill="none" stroke="#000000" stroke-width="2" stroke-opacity="0.200000" d="M78.34,-669.11C90.77,-672.47 105.94,-676.56 119.99,-680.36"/>
<polygon fill="#000000" fill-opacity="0.200000" stroke="#000000" stroke-width="2" stroke-opacity="0.200000" points="119.3,-682.34 125.64,-681.88 120.39,-678.29 119.3,-682.34"/>
</g>
<!-- src/app/providers/diContainer/register.ts -->
<g id="node6" class="node">
<title>src/app/providers/diContainer/register.ts</title>
<g id="a_node6"><a xlink:href="src/app/providers/diContainer/register.ts" xlink:title="register.ts">
<path fill="#ddfeff" stroke="black" d="M283.71,-640.88C283.71,-640.88 239.79,-640.88 239.79,-640.88 236.83,-640.88 233.88,-637.92 233.88,-634.96 233.88,-634.96 233.88,-629.04 233.88,-629.04 233.88,-626.08 236.83,-623.12 239.79,-623.12 239.79,-623.12 283.71,-623.12 283.71,-623.12 286.67,-623.12 289.62,-626.08 289.62,-629.04 289.62,-629.04 289.62,-634.96 289.62,-634.96 289.62,-637.92 286.67,-640.88 283.71,-640.88"/>
<text text-anchor="start" x="241.88" y="-628.33" font-family="Helvetica,sans-Serif" font-size="9.00">register.ts</text>
</a>
</g>
</g>
<!-- src/app/providers/diContainer/DIContainerProvider.tsx&#45;&gt;src/app/providers/diContainer/register.ts -->
<g id="edge5" class="edge">
<title>src/app/providers/diContainer/DIContainerProvider.tsx&#45;&gt;src/app/providers/diContainer/register.ts</title>
<path fill="none" stroke="#000000" stroke-width="2" stroke-opacity="0.200000" d="M221.3,-632C222.49,-632 223.67,-632 224.85,-632"/>
<polygon fill="#000000" fill-opacity="0.200000" stroke="#000000" stroke-width="2" stroke-opacity="0.200000" points="224.55,-634.1 230.55,-632 224.55,-629.9 224.55,-634.1"/>
</g>
<!-- src/shared/di/index.ts -->
<g id="node7" class="node">
<title>src/shared/di/index.ts</title>
<g id="a_node7"><a xlink:href="src/shared/di/index.ts" xlink:title="index.ts">
<path fill="#ddfeff" stroke="black" d="M1356.46,-713.88C1356.46,-713.88 1314.29,-713.88 1314.29,-713.88 1311.33,-713.88 1308.38,-710.92 1308.38,-707.96 1308.38,-707.96 1308.38,-702.04 1308.38,-702.04 1308.38,-699.08 1311.33,-696.12 1314.29,-696.12 1314.29,-696.12 1356.46,-696.12 1356.46,-696.12 1359.42,-696.12 1362.38,-699.08 1362.38,-702.04 1362.38,-702.04 1362.38,-707.96 1362.38,-707.96 1362.38,-710.92 1359.42,-713.88 1356.46,-713.88"/>
<text text-anchor="start" x="1319.62" y="-701.33" font-family="Helvetica,sans-Serif" font-size="9.00">index.ts</text>
</a>
</g>
</g>
<!-- src/app/providers/diContainer/DIContainerProvider.tsx&#45;&gt;src/shared/di/index.ts -->
<g id="edge6" class="edge">
<title>src/app/providers/diContainer/DIContainerProvider.tsx&#45;&gt;src/shared/di/index.ts</title>
<path fill="none" stroke="#000000" stroke-width="2" stroke-opacity="0.200000" d="M184.77,-641.37C196.98,-648.2 212,-658.59 220.88,-672 235.45,-694.03 213.58,-713.09 233.88,-730 254.68,-747.34 693.92,-749 721,-749 721,-749 721,-749 1040.62,-749 1135.15,-749 1244.91,-726.44 1299.63,-713.63"/>
<polygon fill="#000000" fill-opacity="0.200000" stroke="#000000" stroke-width="2" stroke-opacity="0.200000" points="1299.94,-715.71 1305.29,-712.29 1298.97,-711.63 1299.94,-715.71"/>
</g>
<!-- src/app/providers/layout/LayoutProvider.tsx&#45;&gt;src/shared/di/index.ts -->
<g id="edge11" class="edge">
<title>src/app/providers/layout/LayoutProvider.tsx&#45;&gt;src/shared/di/index.ts</title>
<path fill="none" stroke="#000000" stroke-width="2" stroke-opacity="0.200000" d="M210.41,-756.3C250.61,-759.74 310.97,-764 363.62,-764 363.62,-764 363.62,-764 1040.62,-764 1140.47,-764 1170.45,-785.08 1265,-753 1285.36,-746.09 1305.19,-731.32 1318.39,-719.98"/>
<polygon fill="#000000" fill-opacity="0.200000" stroke="#000000" stroke-width="2" stroke-opacity="0.200000" points="1319.65,-721.66 1322.75,-716.11 1316.87,-718.52 1319.65,-721.66"/>
</g>
<!-- src/widgets/cart/index.ts -->
<g id="node10" class="node">
<title>src/widgets/cart/index.ts</title>
<g id="a_node10"><a xlink:href="src/widgets/cart/index.ts" xlink:title="index.ts">
<path fill="#ddfeff" stroke="black" d="M385.71,-811.88C385.71,-811.88 343.54,-811.88 343.54,-811.88 340.58,-811.88 337.62,-808.92 337.62,-805.96 337.62,-805.96 337.62,-800.04 337.62,-800.04 337.62,-797.08 340.58,-794.12 343.54,-794.12 343.54,-794.12 385.71,-794.12 385.71,-794.12 388.67,-794.12 391.62,-797.08 391.62,-800.04 391.62,-800.04 391.62,-805.96 391.62,-805.96 391.62,-808.92 388.67,-811.88 385.71,-811.88"/>
<text text-anchor="start" x="348.88" y="-799.33" font-family="Helvetica,sans-Serif" font-size="9.00">index.ts</text>
</a>
</g>
</g>
<!-- src/app/providers/layout/LayoutProvider.tsx&#45;&gt;src/widgets/cart/index.ts -->
<g id="edge13" class="edge">
<title>src/app/providers/layout/LayoutProvider.tsx&#45;&gt;src/widgets/cart/index.ts</title>
<path fill="none" stroke="#000000" stroke-width="2" stroke-opacity="0.200000" d="M201.53,-761.35C237.75,-770.66 292.93,-784.84 328.64,-794.01"/>
<polygon fill="#000000" fill-opacity="0.200000" stroke="#000000" stroke-width="2" stroke-opacity="0.200000" points="328.01,-796.02 334.34,-795.48 329.05,-791.95 328.01,-796.02"/>
</g>
<!-- src/shared/ui/index.ts -->
<g id="node11" class="node">
<title>src/shared/ui/index.ts</title>
<g id="a_node11"><a xlink:href="src/shared/ui/index.ts" xlink:title="index.ts">
<path fill="#ddfeff" stroke="black" d="M743.08,-593.88C743.08,-593.88 700.92,-593.88 700.92,-593.88 697.96,-593.88 695,-590.92 695,-587.96 695,-587.96 695,-582.04 695,-582.04 695,-579.08 697.96,-576.12 700.92,-576.12 700.92,-576.12 743.08,-576.12 743.08,-576.12 746.04,-576.12 749,-579.08 749,-582.04 749,-582.04 749,-587.96 749,-587.96 749,-590.92 746.04,-593.88 743.08,-593.88"/>
<text text-anchor="start" x="706.25" y="-581.33" font-family="Helvetica,sans-Serif" font-size="9.00">index.ts</text>
</a>
</g>
</g>
<!-- src/app/providers/layout/LayoutProvider.tsx&#45;&gt;src/shared/ui/index.ts -->
<g id="edge12" class="edge">
<title>src/app/providers/layout/LayoutProvider.tsx&#45;&gt;src/shared/ui/index.ts</title>
<path fill="none" stroke="#000000" stroke-width="2" stroke-opacity="0.200000" d="M210.2,-751.93C239.93,-751.01 279.53,-748.13 313.62,-740 473.79,-701.81 499.73,-649.95 656.62,-600 666.09,-596.99 676.5,-594.3 686.15,-592.06"/>
<polygon fill="#000000" fill-opacity="0.200000" stroke="#000000" stroke-width="2" stroke-opacity="0.200000" points="686.4,-594.16 691.79,-590.79 685.48,-590.06 686.4,-594.16"/>
</g>
<!-- src/widgets/popular&#45;products/index.ts -->
<g id="node12" class="node">
<title>src/widgets/popular&#45;products/index.ts</title>
<g id="a_node12"><a xlink:href="src/widgets/popular-products/index.ts" xlink:title="index.ts">
<path fill="#ddfeff" stroke="black" d="M385.71,-999.88C385.71,-999.88 343.54,-999.88 343.54,-999.88 340.58,-999.88 337.62,-996.92 337.62,-993.96 337.62,-993.96 337.62,-988.04 337.62,-988.04 337.62,-985.08 340.58,-982.12 343.54,-982.12 343.54,-982.12 385.71,-982.12 385.71,-982.12 388.67,-982.12 391.62,-985.08 391.62,-988.04 391.62,-988.04 391.62,-993.96 391.62,-993.96 391.62,-996.92 388.67,-999.88 385.71,-999.88"/>
<text text-anchor="start" x="348.88" y="-987.33" font-family="Helvetica,sans-Serif" font-size="9.00">index.ts</text>
</a>
</g>
</g>
<!-- src/app/providers/layout/LayoutProvider.tsx&#45;&gt;src/widgets/popular&#45;products/index.ts -->
<g id="edge14" class="edge">
<title>src/app/providers/layout/LayoutProvider.tsx&#45;&gt;src/widgets/popular&#45;products/index.ts</title>
<path fill="none" stroke="#000000" stroke-width="2" stroke-opacity="0.200000" d="M170.06,-761.05C187.46,-792.35 248.81,-897.75 321.62,-965 326.48,-969.48 332.21,-973.62 337.85,-977.21"/>
<polygon fill="#000000" fill-opacity="0.200000" stroke="#000000" stroke-width="2" stroke-opacity="0.200000" points="336.59,-978.9 342.81,-980.2 338.76,-975.31 336.59,-978.9"/>
</g>
<!-- src/app/providers/redux/store.ts -->
<g id="node13" class="node">
<title>src/app/providers/redux/store.ts</title>
<g id="a_node13"><a xlink:href="src/app/providers/redux/store.ts" xlink:title="store.ts">
<path fill="#ddfeff" stroke="black" d="M282.83,-700.88C282.83,-700.88 240.67,-700.88 240.67,-700.88 237.71,-700.88 234.75,-697.92 234.75,-694.96 234.75,-694.96 234.75,-689.04 234.75,-689.04 234.75,-686.08 237.71,-683.12 240.67,-683.12 240.67,-683.12 282.83,-683.12 282.83,-683.12 285.79,-683.12 288.75,-686.08 288.75,-689.04 288.75,-689.04 288.75,-694.96 288.75,-694.96 288.75,-697.92 285.79,-700.88 282.83,-700.88"/>
<text text-anchor="start" x="247.12" y="-688.33" font-family="Helvetica,sans-Serif" font-size="9.00">store.ts</text>
</a>
</g>
</g>
<!-- src/app/providers/redux/ReduxProvider.tsx&#45;&gt;src/app/providers/redux/store.ts -->
<g id="edge15" class="edge">
<title>src/app/providers/redux/ReduxProvider.tsx&#45;&gt;src/app/providers/redux/store.ts</title>
<path fill="none" stroke="#000000" stroke-width="2" stroke-opacity="0.200000" d="M209.86,-692C215.08,-692 220.36,-692 225.43,-692"/>
<polygon fill="#000000" fill-opacity="0.200000" stroke="#000000" stroke-width="2" stroke-opacity="0.200000" points="225.26,-694.1 231.26,-692 225.26,-689.9 225.26,-694.1"/>
</g>
<!-- src/app/providers/diContainer/register.ts&#45;&gt;src/shared/di/index.ts -->
<g id="edge7" class="edge">
<title>src/app/providers/diContainer/register.ts&#45;&gt;src/shared/di/index.ts</title>
<path fill="none" stroke="#000000" stroke-width="2" stroke-opacity="0.200000" d="M263.5,-622.83C269.97,-546.33 319.58,-17 452.25,-17 452.25,-17 452.25,-17 1040.62,-17 1141.49,-17 1201.42,27.3 1265,-51 1275.72,-64.2 1271.67,-340.08 1273.38,-357 1286.23,-484.57 1318.76,-635.82 1330.27,-687.04"/>
<polygon fill="#000000" fill-opacity="0.200000" stroke="#000000" stroke-width="2" stroke-opacity="0.200000" points="1328.18,-687.32 1331.55,-692.71 1332.27,-686.39 1328.18,-687.32"/>
</g>
<!-- src/shared/feature&#45;flags/index.ts -->
<g id="node8" class="node">
<title>src/shared/feature&#45;flags/index.ts</title>
<g id="a_node8"><a xlink:href="src/shared/feature-flags/index.ts" xlink:title="index.ts">
<path fill="#ddfeff" stroke="black" d="M1060.71,-165.88C1060.71,-165.88 1018.54,-165.88 1018.54,-165.88 1015.58,-165.88 1012.62,-162.92 1012.62,-159.96 1012.62,-159.96 1012.62,-154.04 1012.62,-154.04 1012.62,-151.08 1015.58,-148.12 1018.54,-148.12 1018.54,-148.12 1060.71,-148.12 1060.71,-148.12 1063.67,-148.12 1066.62,-151.08 1066.62,-154.04 1066.62,-154.04 1066.62,-159.96 1066.62,-159.96 1066.62,-162.92 1063.67,-165.88 1060.71,-165.88"/>
<text text-anchor="start" x="1023.88" y="-153.32" font-family="Helvetica,sans-Serif" font-size="9.00">index.ts</text>
</a>
</g>
</g>
<!-- src/app/providers/diContainer/register.ts&#45;&gt;src/shared/feature&#45;flags/index.ts -->
<g id="edge8" class="edge">
<title>src/app/providers/diContainer/register.ts&#45;&gt;src/shared/feature&#45;flags/index.ts</title>
<path fill="none" stroke="#000000" stroke-width="2" stroke-opacity="0.200000" d="M262.84,-622.79C263.94,-564.04 277.95,-244 452.25,-244 452.25,-244 452.25,-244 723,-244 833.06,-244 957.21,-194.22 1011.16,-169.97"/>
<polygon fill="#000000" fill-opacity="0.200000" stroke="#000000" stroke-width="2" stroke-opacity="0.200000" points="1011.85,-171.96 1016.45,-167.56 1010.11,-168.14 1011.85,-171.96"/>
</g>
<!-- src/shared/theme/index.ts -->
<g id="node9" class="node">
<title>src/shared/theme/index.ts</title>
<g id="a_node9"><a xlink:href="src/shared/theme/index.ts" xlink:title="index.ts">
<path fill="#ddfeff" stroke="black" d="M1060.71,-353.88C1060.71,-353.88 1018.54,-353.88 1018.54,-353.88 1015.58,-353.88 1012.62,-350.92 1012.62,-347.96 1012.62,-347.96 1012.62,-342.04 1012.62,-342.04 1012.62,-339.08 1015.58,-336.12 1018.54,-336.12 1018.54,-336.12 1060.71,-336.12 1060.71,-336.12 1063.67,-336.12 1066.62,-339.08 1066.62,-342.04 1066.62,-342.04 1066.62,-347.96 1066.62,-347.96 1066.62,-350.92 1063.67,-353.88 1060.71,-353.88"/>
<text text-anchor="start" x="1023.88" y="-341.32" font-family="Helvetica,sans-Serif" font-size="9.00">index.ts</text>
</a>
</g>
</g>
<!-- src/app/providers/diContainer/register.ts&#45;&gt;src/shared/theme/index.ts -->
<g id="edge9" class="edge">
<title>src/app/providers/diContainer/register.ts&#45;&gt;src/shared/theme/index.ts</title>
<path fill="none" stroke="#000000" stroke-width="2" stroke-opacity="0.200000" d="M264.65,-622.85C274.74,-577.07 326.41,-375 452.25,-375 452.25,-375 452.25,-375 723,-375 825.41,-375 945.67,-359.16 1003.74,-350.5"/>
<polygon fill="#000000" fill-opacity="0.200000" stroke="#000000" stroke-width="2" stroke-opacity="0.200000" points="1003.9,-352.6 1009.52,-349.62 1003.28,-348.44 1003.9,-352.6"/>
</g>
<!-- src/app/providers/diContainer/register.ts&#45;&gt;src/widgets/cart/index.ts -->
<g id="edge10" class="edge">
<title>src/app/providers/diContainer/register.ts&#45;&gt;src/widgets/cart/index.ts</title>
<path fill="none" stroke="#000000" stroke-width="2" stroke-opacity="0.200000" d="M278.4,-641.09C289.55,-648.25 304.17,-659.15 313.62,-672 339.84,-707.62 354.03,-758.66 360.06,-785.3"/>
<polygon fill="#000000" fill-opacity="0.200000" stroke="#000000" stroke-width="2" stroke-opacity="0.200000" points="357.97,-785.55 361.28,-790.97 362.07,-784.66 357.97,-785.55"/>
</g>
<!-- src/shared/di/lib/container.ts -->
<g id="node17" class="node">
<title>src/shared/di/lib/container.ts</title>
<g id="a_node17"><a xlink:href="src/shared/di/lib/container.ts" xlink:title="container.ts">
<path fill="#ddfeff" stroke="black" d="M1493.21,-647.88C1493.21,-647.88 1441.79,-647.88 1441.79,-647.88 1438.83,-647.88 1435.88,-644.92 1435.88,-641.96 1435.88,-641.96 1435.88,-636.04 1435.88,-636.04 1435.88,-633.08 1438.83,-630.12 1441.79,-630.12 1441.79,-630.12 1493.21,-630.12 1493.21,-630.12 1496.17,-630.12 1499.12,-633.08 1499.12,-636.04 1499.12,-636.04 1499.12,-641.96 1499.12,-641.96 1499.12,-644.92 1496.17,-647.88 1493.21,-647.88"/>
<text text-anchor="start" x="1443.88" y="-635.33" font-family="Helvetica,sans-Serif" font-size="9.00">container.ts</text>
</a>
</g>
</g>
<!-- src/shared/di/index.ts&#45;&gt;src/shared/di/lib/container.ts -->
<g id="edge19" class="edge">
<title>src/shared/di/index.ts&#45;&gt;src/shared/di/lib/container.ts</title>
<path fill="none" stroke="#000000" stroke-width="2" stroke-opacity="0.200000" d="M1351.58,-695.67C1369.46,-684.9 1400.23,-667 1427.88,-654 1430.09,-652.96 1432.4,-651.93 1434.73,-650.93"/>
<polygon fill="#000000" fill-opacity="0.200000" stroke="#000000" stroke-width="2" stroke-opacity="0.200000" points="1440.82,-650.67 1434.48,-651.04 1439.21,-646.79 1440.82,-650.67"/>
</g>
<!-- src/shared/di/lib/useDi.tsx -->
<g id="node18" class="node">
<title>src/shared/di/lib/useDi.tsx</title>
<g id="a_node18"><a xlink:href="src/shared/di/lib/useDi.tsx" xlink:title="useDi.tsx">
<path fill="#bbfeff" stroke="black" d="M1488.58,-677.88C1488.58,-677.88 1446.42,-677.88 1446.42,-677.88 1443.46,-677.88 1440.5,-674.92 1440.5,-671.96 1440.5,-671.96 1440.5,-666.04 1440.5,-666.04 1440.5,-663.08 1443.46,-660.12 1446.42,-660.12 1446.42,-660.12 1488.58,-660.12 1488.58,-660.12 1491.54,-660.12 1494.5,-663.08 1494.5,-666.04 1494.5,-666.04 1494.5,-671.96 1494.5,-671.96 1494.5,-674.92 1491.54,-677.88 1488.58,-677.88"/>
<text text-anchor="start" x="1448.75" y="-665.33" font-family="Helvetica,sans-Serif" font-size="9.00">useDi.tsx</text>
</a>
</g>
</g>
<!-- src/shared/di/index.ts&#45;&gt;src/shared/di/lib/useDi.tsx -->
<g id="edge20" class="edge">
<title>src/shared/di/index.ts&#45;&gt;src/shared/di/lib/useDi.tsx</title>
<path fill="none" stroke="#000000" stroke-width="2" stroke-opacity="0.200000" d="M1362.71,-697.71C1383.08,-692.08 1411.42,-684.24 1433.33,-678.18"/>
<polygon fill="#000000" fill-opacity="0.200000" stroke="#000000" stroke-width="2" stroke-opacity="0.200000" points="1439.8,-678.56 1433.46,-678.14 1438.68,-674.52 1439.8,-678.56"/>
</g>
<!-- src/shared/di/model/context.ts -->
<g id="node19" class="node">
<title>src/shared/di/model/context.ts</title>
<g id="a_node19"><a xlink:href="src/shared/di/model/context.ts" xlink:title="context.ts">
<path fill="#ddfeff" stroke="black" d="M1574.83,-682.88C1574.83,-682.88 1532.42,-682.88 1532.42,-682.88 1529.46,-682.88 1526.5,-679.92 1526.5,-676.96 1526.5,-676.96 1526.5,-671.04 1526.5,-671.04 1526.5,-668.08 1529.46,-665.12 1532.42,-665.12 1532.42,-665.12 1574.83,-665.12 1574.83,-665.12 1577.79,-665.12 1580.75,-668.08 1580.75,-671.04 1580.75,-671.04 1580.75,-676.96 1580.75,-676.96 1580.75,-679.92 1577.79,-682.88 1574.83,-682.88"/>
<text text-anchor="start" x="1534.5" y="-670.33" font-family="Helvetica,sans-Serif" font-size="9.00">context.ts</text>
</a>
</g>
</g>
<!-- src/shared/di/index.ts&#45;&gt;src/shared/di/model/context.ts -->
<g id="edge21" class="edge">
<title>src/shared/di/index.ts&#45;&gt;src/shared/di/model/context.ts</title>
<path fill="none" stroke="#000000" stroke-width="2" stroke-opacity="0.200000" d="M1362.62,-710.66C1397.48,-716.99 1460.49,-724.26 1510.5,-707 1521.49,-703.21 1531.8,-695.24 1539.47,-688.08"/>
<polygon fill="#000000" fill-opacity="0.200000" stroke="#000000" stroke-width="2" stroke-opacity="0.200000" points="1545.09,-685.52 1539.33,-688.22 1542.15,-682.52 1545.09,-685.52"/>
</g>
<!-- src/shared/feature&#45;flags/model/feature&#45;flags.service.ts -->
<g id="node20" class="node">
<title>src/shared/feature&#45;flags/model/feature&#45;flags.service.ts</title>
<g id="a_node20"><a xlink:href="src/shared/feature-flags/model/feature-flags.service.ts" xlink:title="feature&#45;flags.service.ts">
<path fill="#ddfeff" stroke="black" d="M1383.21,-165.88C1383.21,-165.88 1287.54,-165.88 1287.54,-165.88 1284.58,-165.88 1281.62,-162.92 1281.62,-159.96 1281.62,-159.96 1281.62,-154.04 1281.62,-154.04 1281.62,-151.08 1284.58,-148.12 1287.54,-148.12 1287.54,-148.12 1383.21,-148.12 1383.21,-148.12 1386.17,-148.12 1389.12,-151.08 1389.12,-154.04 1389.12,-154.04 1389.12,-159.96 1389.12,-159.96 1389.12,-162.92 1386.17,-165.88 1383.21,-165.88"/>
<text text-anchor="start" x="1289.62" y="-153.32" font-family="Helvetica,sans-Serif" font-size="9.00">feature&#45;flags.service.ts</text>
</a>
</g>
</g>
<!-- src/shared/feature&#45;flags/index.ts&#45;&gt;src/shared/feature&#45;flags/model/feature&#45;flags.service.ts -->
<g id="edge23" class="edge">
<title>src/shared/feature&#45;flags/index.ts&#45;&gt;src/shared/feature&#45;flags/model/feature&#45;flags.service.ts</title>
<path fill="none" stroke="#000000" stroke-width="2" stroke-opacity="0.200000" d="M1066.95,-157C1113.35,-157 1210.78,-157 1274.35,-157"/>
<polygon fill="#000000" fill-opacity="0.200000" stroke="#000000" stroke-width="2" stroke-opacity="0.200000" points="1280.16,-159.1 1274.16,-157 1280.16,-154.9 1280.16,-159.1"/>
</g>
<!-- src/shared/feature&#45;flags/model/types.ts -->
<g id="node21" class="node">
<title>src/shared/feature&#45;flags/model/types.ts</title>
<g id="a_node21"><a xlink:href="src/shared/feature-flags/model/types.ts" xlink:title="types.ts">
<path fill="#ddfeff" stroke="black" d="M1488.58,-165.88C1488.58,-165.88 1446.42,-165.88 1446.42,-165.88 1443.46,-165.88 1440.5,-162.92 1440.5,-159.96 1440.5,-159.96 1440.5,-154.04 1440.5,-154.04 1440.5,-151.08 1443.46,-148.12 1446.42,-148.12 1446.42,-148.12 1488.58,-148.12 1488.58,-148.12 1491.54,-148.12 1494.5,-151.08 1494.5,-154.04 1494.5,-154.04 1494.5,-159.96 1494.5,-159.96 1494.5,-162.92 1491.54,-165.88 1488.58,-165.88"/>
<text text-anchor="start" x="1452.12" y="-153.32" font-family="Helvetica,sans-Serif" font-size="9.00">types.ts</text>
</a>
</g>
</g>
<!-- src/shared/feature&#45;flags/index.ts&#45;&gt;src/shared/feature&#45;flags/model/types.ts -->
<g id="edge24" class="edge">
<title>src/shared/feature&#45;flags/index.ts&#45;&gt;src/shared/feature&#45;flags/model/types.ts</title>
<path fill="none" stroke="#000000" stroke-opacity="0.200000" d="M1047.08,-147.71C1062.73,-126.05 1105.15,-72.46 1155.62,-51 1203.87,-30.49 1220.97,-45.56 1273.38,-44 1338.46,-42.07 1365.76,-7.79 1419.88,-44 1452.48,-65.82 1462.31,-115.06 1465.25,-140.73"/>
<polygon fill="none" stroke="#000000" stroke-opacity="0.200000" points="1463.13,-140.62 1465.81,-146.38 1467.31,-140.2 1463.13,-140.62"/>
</g>
<!-- src/shared/feature&#45;flags/ui/FeatureToggle/FeatureToggle.tsx -->
<g id="node22" class="node">
<title>src/shared/feature&#45;flags/ui/FeatureToggle/FeatureToggle.tsx</title>
<g id="a_node22"><a xlink:href="src/shared/feature-flags/ui/FeatureToggle/FeatureToggle.tsx" xlink:title="FeatureToggle.tsx">
<path fill="#bbfeff" stroke="black" d="M1254.46,-79.88C1254.46,-79.88 1177.54,-79.88 1177.54,-79.88 1174.58,-79.88 1171.62,-76.92 1171.62,-73.96 1171.62,-73.96 1171.62,-68.04 1171.62,-68.04 1171.62,-65.08 1174.58,-62.12 1177.54,-62.12 1177.54,-62.12 1254.46,-62.12 1254.46,-62.12 1257.42,-62.12 1260.38,-65.08 1260.38,-68.04 1260.38,-68.04 1260.38,-73.96 1260.38,-73.96 1260.38,-76.92 1257.42,-79.88 1254.46,-79.88"/>
<text text-anchor="start" x="1179.62" y="-67.33" font-family="Helvetica,sans-Serif" font-size="9.00">FeatureToggle.tsx</text>
</a>
</g>
</g>
<!-- src/shared/feature&#45;flags/index.ts&#45;&gt;src/shared/feature&#45;flags/ui/FeatureToggle/FeatureToggle.tsx -->
<g id="edge25" class="edge">
<title>src/shared/feature&#45;flags/index.ts&#45;&gt;src/shared/feature&#45;flags/ui/FeatureToggle/FeatureToggle.tsx</title>
<path fill="none" stroke="#000000" stroke-width="2" stroke-opacity="0.200000" d="M1051.95,-147.87C1071.76,-132.36 1114.51,-100.93 1155.62,-84 1158.58,-82.78 1161.67,-81.67 1164.81,-80.66"/>
<polygon fill="#000000" fill-opacity="0.200000" stroke="#000000" stroke-width="2" stroke-opacity="0.200000" points="1170.97,-81.01 1164.62,-80.72 1169.77,-76.99 1170.97,-81.01"/>
</g>
<!-- src/shared/theme/model/theme.service.ts -->
<g id="node24" class="node">
<title>src/shared/theme/model/theme.service.ts</title>
<g id="a_node24"><a xlink:href="src/shared/theme/model/theme.service.ts" xlink:title="theme.service.ts">
<path fill="#ddfeff" stroke="black" d="M1251.08,-259.88C1251.08,-259.88 1180.92,-259.88 1180.92,-259.88 1177.96,-259.88 1175,-256.92 1175,-253.96 1175,-253.96 1175,-248.04 1175,-248.04 1175,-245.08 1177.96,-242.12 1180.92,-242.12 1180.92,-242.12 1251.08,-242.12 1251.08,-242.12 1254.04,-242.12 1257,-245.08 1257,-248.04 1257,-248.04 1257,-253.96 1257,-253.96 1257,-256.92 1254.04,-259.88 1251.08,-259.88"/>
<text text-anchor="start" x="1183" y="-247.32" font-family="Helvetica,sans-Serif" font-size="9.00">theme.service.ts</text>
</a>
</g>
</g>
<!-- src/shared/theme/index.ts&#45;&gt;src/shared/theme/model/theme.service.ts -->
<g id="edge30" class="edge">
<title>src/shared/theme/index.ts&#45;&gt;src/shared/theme/model/theme.service.ts</title>
<path fill="none" stroke="#000000" stroke-width="2" stroke-opacity="0.200000" d="M1057.98,-335.64C1089.45,-318.68 1155.93,-282.84 1191.46,-263.69"/>
<polygon fill="#000000" fill-opacity="0.200000" stroke="#000000" stroke-width="2" stroke-opacity="0.200000" points="1197.83,-262.64 1191.55,-263.64 1195.84,-258.94 1197.83,-262.64"/>
</g>
<!-- src/shared/theme/ui/ThemeToggle/ThemeToggle.tsx -->
<g id="node25" class="node">
<title>src/shared/theme/ui/ThemeToggle/ThemeToggle.tsx</title>
<g id="a_node25"><a xlink:href="src/shared/theme/ui/ThemeToggle/ThemeToggle.tsx" xlink:title="ThemeToggle.tsx">
<path fill="#bbfeff" stroke="black" d="M1252.96,-327.88C1252.96,-327.88 1179.04,-327.88 1179.04,-327.88 1176.08,-327.88 1173.12,-324.92 1173.12,-321.96 1173.12,-321.96 1173.12,-316.04 1173.12,-316.04 1173.12,-313.08 1176.08,-310.12 1179.04,-310.12 1179.04,-310.12 1252.96,-310.12 1252.96,-310.12 1255.92,-310.12 1258.88,-313.08 1258.88,-316.04 1258.88,-316.04 1258.88,-321.96 1258.88,-321.96 1258.88,-324.92 1255.92,-327.88 1252.96,-327.88"/>
<text text-anchor="start" x="1181.12" y="-315.32" font-family="Helvetica,sans-Serif" font-size="9.00">ThemeToggle.tsx</text>
</a>
</g>
</g>
<!-- src/shared/theme/index.ts&#45;&gt;src/shared/theme/ui/ThemeToggle/ThemeToggle.tsx -->
<g id="edge31" class="edge">
<title>src/shared/theme/index.ts&#45;&gt;src/shared/theme/ui/ThemeToggle/ThemeToggle.tsx</title>
<path fill="none" stroke="#000000" stroke-width="2" stroke-opacity="0.200000" d="M1067.11,-341.05C1093.26,-337.15 1133.87,-331.1 1165.93,-326.32"/>
<polygon fill="#000000" fill-opacity="0.200000" stroke="#000000" stroke-width="2" stroke-opacity="0.200000" points="1171.95,-327.54 1165.71,-326.35 1171.33,-323.39 1171.95,-327.54"/>
</g>
<!-- src/widgets/cart/store/cart.store.ts -->
<g id="node35" class="node">
<title>src/widgets/cart/store/cart.store.ts</title>
<g id="a_node35"><a xlink:href="src/widgets/cart/store/cart.store.ts" xlink:title="cart.store.ts">
<path fill="#ddfeff" stroke="black" d="M599.08,-815.88C599.08,-815.88 548.42,-815.88 548.42,-815.88 545.46,-815.88 542.5,-812.92 542.5,-809.96 542.5,-809.96 542.5,-804.04 542.5,-804.04 542.5,-801.08 545.46,-798.12 548.42,-798.12 548.42,-798.12 599.08,-798.12 599.08,-798.12 602.04,-798.12 605,-801.08 605,-804.04 605,-804.04 605,-809.96 605,-809.96 605,-812.92 602.04,-815.88 599.08,-815.88"/>
<text text-anchor="start" x="550.5" y="-803.33" font-family="Helvetica,sans-Serif" font-size="9.00">cart.store.ts</text>
</a>
</g>
</g>
<!-- src/widgets/cart/index.ts&#45;&gt;src/widgets/cart/store/cart.store.ts -->
<g id="edge44" class="edge">
<title>src/widgets/cart/index.ts&#45;&gt;src/widgets/cart/store/cart.store.ts</title>
<path fill="none" stroke="#000000" stroke-width="2" stroke-opacity="0.200000" d="M391.86,-803.51C428.08,-804.21 493.62,-805.47 535.08,-806.27"/>
<polygon fill="#000000" fill-opacity="0.200000" stroke="#000000" stroke-width="2" stroke-opacity="0.200000" points="540.98,-808.49 535.02,-806.27 541.06,-804.29 540.98,-808.49"/>
</g>
<!-- src/widgets/cart/ui/Cart/Cart.tsx -->
<g id="node36" class="node">
<title>src/widgets/cart/ui/Cart/Cart.tsx</title>
<g id="a_node36"><a xlink:href="src/widgets/cart/ui/Cart/Cart.tsx" xlink:title="Cart.tsx">
<path fill="#bbfeff" stroke="black" d="M474.33,-883.88C474.33,-883.88 432.17,-883.88 432.17,-883.88 429.21,-883.88 426.25,-880.92 426.25,-877.96 426.25,-877.96 426.25,-872.04 426.25,-872.04 426.25,-869.08 429.21,-866.12 432.17,-866.12 432.17,-866.12 474.33,-866.12 474.33,-866.12 477.29,-866.12 480.25,-869.08 480.25,-872.04 480.25,-872.04 480.25,-877.96 480.25,-877.96 480.25,-880.92 477.29,-883.88 474.33,-883.88"/>
<text text-anchor="start" x="437.88" y="-871.33" font-family="Helvetica,sans-Serif" font-size="9.00">Cart.tsx</text>
</a>
</g>
</g>
<!-- src/widgets/cart/index.ts&#45;&gt;src/widgets/cart/ui/Cart/Cart.tsx -->
<g id="edge45" class="edge">
<title>src/widgets/cart/index.ts&#45;&gt;src/widgets/cart/ui/Cart/Cart.tsx</title>
<path fill="none" stroke="#000000" stroke-width="2" stroke-opacity="0.200000" d="M368.34,-812.13C372.72,-825.23 382.62,-849.2 399.62,-862 405.26,-866.24 412.12,-869.12 418.99,-871.06"/>
<polygon fill="#000000" fill-opacity="0.200000" stroke="#000000" stroke-width="2" stroke-opacity="0.200000" points="424.35,-874.51 419.01,-871.06 425.34,-870.43 424.35,-874.51"/>
</g>
<!-- src/shared/ui/AddToCartButton/AddToCartButton.tsx -->
<g id="node28" class="node">
<title>src/shared/ui/AddToCartButton/AddToCartButton.tsx</title>
<g id="a_node28"><a xlink:href="src/shared/ui/AddToCartButton/AddToCartButton.tsx" xlink:title="AddToCartButton.tsx">
<path fill="#bbfeff" stroke="black" d="M928.71,-477.88C928.71,-477.88 841.29,-477.88 841.29,-477.88 838.33,-477.88 835.38,-474.92 835.38,-471.96 835.38,-471.96 835.38,-466.04 835.38,-466.04 835.38,-463.08 838.33,-460.12 841.29,-460.12 841.29,-460.12 928.71,-460.12 928.71,-460.12 931.67,-460.12 934.62,-463.08 934.62,-466.04 934.62,-466.04 934.62,-471.96 934.62,-471.96 934.62,-474.92 931.67,-477.88 928.71,-477.88"/>
<text text-anchor="start" x="843.38" y="-465.32" font-family="Helvetica,sans-Serif" font-size="9.00">AddToCartButton.tsx</text>
</a>
</g>
</g>
<!-- src/shared/ui/index.ts&#45;&gt;src/shared/ui/AddToCartButton/AddToCartButton.tsx -->
<g id="edge41" class="edge">
<title>src/shared/ui/index.ts&#45;&gt;src/shared/ui/AddToCartButton/AddToCartButton.tsx</title>
<path fill="none" stroke="#000000" stroke-width="2" stroke-opacity="0.200000" d="M729.39,-575.89C744.14,-555.59 782.75,-506.51 827.38,-482 827.84,-481.75 828.31,-481.5 828.78,-481.25"/>
<polygon fill="#000000" fill-opacity="0.200000" stroke="#000000" stroke-width="2" stroke-opacity="0.200000" points="835.12,-480.66 828.79,-481.25 833.37,-476.84 835.12,-480.66"/>
</g>
<!-- src/shared/ui/Price/Price.tsx -->
<g id="node29" class="node">
<title>src/shared/ui/Price/Price.tsx</title>
<g id="a_node29"><a xlink:href="src/shared/ui/Price/Price.tsx" xlink:title="Price.tsx">
<path fill="#bbfeff" stroke="black" d="M1060.71,-537.88C1060.71,-537.88 1018.54,-537.88 1018.54,-537.88 1015.58,-537.88 1012.62,-534.92 1012.62,-531.96 1012.62,-531.96 1012.62,-526.04 1012.62,-526.04 1012.62,-523.08 1015.58,-520.12 1018.54,-520.12 1018.54,-520.12 1060.71,-520.12 1060.71,-520.12 1063.67,-520.12 1066.62,-523.08 1066.62,-526.04 1066.62,-526.04 1066.62,-531.96 1066.62,-531.96 1066.62,-534.92 1063.67,-537.88 1060.71,-537.88"/>
<text text-anchor="start" x="1022.38" y="-525.33" font-family="Helvetica,sans-Serif" font-size="9.00">Price.tsx</text>
</a>
</g>
</g>
<!-- src/shared/ui/index.ts&#45;&gt;src/shared/ui/Price/Price.tsx -->
<g id="edge43" class="edge">
<title>src/shared/ui/index.ts&#45;&gt;src/shared/ui/Price/Price.tsx</title>
<path fill="none" stroke="#000000" stroke-width="2" stroke-opacity="0.200000" d="M749.37,-580.32C806.72,-570.15 942.68,-546.02 1005.61,-534.86"/>
<polygon fill="#000000" fill-opacity="0.200000" stroke="#000000" stroke-width="2" stroke-opacity="0.200000" points="1011.94,-535.87 1005.66,-534.85 1011.2,-531.73 1011.94,-535.87"/>
</g>
<!-- src/shared/ui/Layout/Layout.tsx -->
<g id="node32" class="node">
<title>src/shared/ui/Layout/Layout.tsx</title>
<g id="a_node32"><a xlink:href="src/shared/ui/Layout/Layout.tsx" xlink:title="Layout.tsx">
<path fill="#bbfeff" stroke="black" d="M907.71,-597.88C907.71,-597.88 862.29,-597.88 862.29,-597.88 859.33,-597.88 856.38,-594.92 856.38,-591.96 856.38,-591.96 856.38,-586.04 856.38,-586.04 856.38,-583.08 859.33,-580.12 862.29,-580.12 862.29,-580.12 907.71,-580.12 907.71,-580.12 910.67,-580.12 913.62,-583.08 913.62,-586.04 913.62,-586.04 913.62,-591.96 913.62,-591.96 913.62,-594.92 910.67,-597.88 907.71,-597.88"/>
<text text-anchor="start" x="864.38" y="-585.33" font-family="Helvetica,sans-Serif" font-size="9.00">Layout.tsx</text>
</a>
</g>
</g>
<!-- src/shared/ui/index.ts&#45;&gt;src/shared/ui/Layout/Layout.tsx -->
<g id="edge42" class="edge">
<title>src/shared/ui/index.ts&#45;&gt;src/shared/ui/Layout/Layout.tsx</title>
<path fill="none" stroke="#000000" stroke-width="2" stroke-opacity="0.200000" d="M749.23,-585.65C776.37,-586.33 818.91,-587.38 848.93,-588.13"/>
<polygon fill="#000000" fill-opacity="0.200000" stroke="#000000" stroke-width="2" stroke-opacity="0.200000" points="854.84,-590.38 848.89,-588.13 854.94,-586.18 854.84,-590.38"/>
</g>
<!-- src/widgets/popular&#45;products/store/popular&#45;products.slice.ts -->
<g id="node39" class="node">
<title>src/widgets/popular&#45;products/store/popular&#45;products.slice.ts</title>
<g id="a_node39"><a xlink:href="src/widgets/popular-products/store/popular-products.slice.ts" xlink:title="popular&#45;products.slice.ts">
<path fill="#ddfeff" stroke="black" d="M625.71,-1003.88C625.71,-1003.88 521.79,-1003.88 521.79,-1003.88 518.83,-1003.88 515.88,-1000.92 515.88,-997.96 515.88,-997.96 515.88,-992.04 515.88,-992.04 515.88,-989.08 518.83,-986.12 521.79,-986.12 521.79,-986.12 625.71,-986.12 625.71,-986.12 628.67,-986.12 631.62,-989.08 631.62,-992.04 631.62,-992.04 631.62,-997.96 631.62,-997.96 631.62,-1000.92 628.67,-1003.88 625.71,-1003.88"/>
<text text-anchor="start" x="523.88" y="-991.33" font-family="Helvetica,sans-Serif" font-size="9.00">popular&#45;products.slice.ts</text>
</a>
</g>
</g>
<!-- src/widgets/popular&#45;products/index.ts&#45;&gt;src/widgets/popular&#45;products/store/popular&#45;products.slice.ts -->
<g id="edge52" class="edge">
<title>src/widgets/popular&#45;products/index.ts&#45;&gt;src/widgets/popular&#45;products/store/popular&#45;products.slice.ts</title>
<path fill="none" stroke="#000000" stroke-width="2" stroke-opacity="0.200000" d="M391.86,-991.51C421.08,-992.07 469.39,-993 508.74,-993.76"/>
<polygon fill="#000000" fill-opacity="0.200000" stroke="#000000" stroke-width="2" stroke-opacity="0.200000" points="514.43,-995.97 508.48,-993.76 514.52,-991.77 514.43,-995.97"/>
</g>
<!-- src/widgets/popular&#45;products/ui/ProductList/ProductList.tsx -->
<g id="node40" class="node">
<title>src/widgets/popular&#45;products/ui/ProductList/ProductList.tsx</title>
<g id="a_node40"><a xlink:href="src/widgets/popular-products/ui/ProductList/ProductList.tsx" xlink:title="ProductList.tsx">
<path fill="#bbfeff" stroke="black" d="M484.96,-1101.88C484.96,-1101.88 421.54,-1101.88 421.54,-1101.88 418.58,-1101.88 415.62,-1098.92 415.62,-1095.96 415.62,-1095.96 415.62,-1090.04 415.62,-1090.04 415.62,-1087.08 418.58,-1084.12 421.54,-1084.12 421.54,-1084.12 484.96,-1084.12 484.96,-1084.12 487.92,-1084.12 490.88,-1087.08 490.88,-1090.04 490.88,-1090.04 490.88,-1095.96 490.88,-1095.96 490.88,-1098.92 487.92,-1101.88 484.96,-1101.88"/>
<text text-anchor="start" x="423.62" y="-1089.33" font-family="Helvetica,sans-Serif" font-size="9.00">ProductList.tsx</text>
</a>
</g>
</g>
<!-- src/widgets/popular&#45;products/index.ts&#45;&gt;src/widgets/popular&#45;products/ui/ProductList/ProductList.tsx -->
<g id="edge53" class="edge">
<title>src/widgets/popular&#45;products/index.ts&#45;&gt;src/widgets/popular&#45;products/ui/ProductList/ProductList.tsx</title>
<path fill="none" stroke="#000000" stroke-width="2" stroke-opacity="0.200000" d="M366.38,-1000.11C368.38,-1018.18 375.46,-1058.63 399.62,-1080 402.33,-1082.39 405.41,-1084.36 408.69,-1085.98"/>
<polygon fill="#000000" fill-opacity="0.200000" stroke="#000000" stroke-width="2" stroke-opacity="0.200000" points="413.46,-1090.23 408.72,-1085.99 415.07,-1086.35 413.46,-1090.23"/>
</g>
<!-- src/app/providers/redux/store.ts&#45;&gt;src/widgets/popular&#45;products/index.ts -->
<g id="edge16" class="edge">
<title>src/app/providers/redux/store.ts&#45;&gt;src/widgets/popular&#45;products/index.ts</title>
<path fill="none" stroke="#000000" stroke-width="2" stroke-opacity="0.200000" d="M265.68,-701.37C274.38,-729.58 300.3,-816.31 313.62,-890 316.61,-906.49 312.7,-950.81 321.62,-965 324.56,-969.67 328.67,-973.63 333.18,-976.95"/>
<polygon fill="#000000" fill-opacity="0.200000" stroke="#000000" stroke-width="2" stroke-opacity="0.200000" points="331.76,-978.53 337.94,-980.01 334.03,-975 331.76,-978.53"/>
</g>
<!-- src/shared/api/fakeApi.ts -->
<g id="node14" class="node">
<title>src/shared/api/fakeApi.ts</title>
<g id="a_node14"><a xlink:href="src/shared/api/fakeApi.ts" xlink:title="fakeApi.ts">
<path fill="#ddfeff" stroke="black" d="M906.96,-683.88C906.96,-683.88 863.04,-683.88 863.04,-683.88 860.08,-683.88 857.12,-680.92 857.12,-677.96 857.12,-677.96 857.12,-672.04 857.12,-672.04 857.12,-669.08 860.08,-666.12 863.04,-666.12 863.04,-666.12 906.96,-666.12 906.96,-666.12 909.92,-666.12 912.88,-669.08 912.88,-672.04 912.88,-672.04 912.88,-677.96 912.88,-677.96 912.88,-680.92 909.92,-683.88 906.96,-683.88"/>
<text text-anchor="start" x="865.12" y="-671.33" font-family="Helvetica,sans-Serif" font-size="9.00">fakeApi.ts</text>
</a>
</g>
</g>
<!-- src/shared/api/index.ts -->
<g id="node15" class="node">
<title>src/shared/api/index.ts</title>
<g id="a_node15"><a xlink:href="src/shared/api/index.ts" xlink:title="index.ts">
<path fill="#ddfeff" stroke="black" d="M743.08,-713.88C743.08,-713.88 700.92,-713.88 700.92,-713.88 697.96,-713.88 695,-710.92 695,-707.96 695,-707.96 695,-702.04 695,-702.04 695,-699.08 697.96,-696.12 700.92,-696.12 700.92,-696.12 743.08,-696.12 743.08,-696.12 746.04,-696.12 749,-699.08 749,-702.04 749,-702.04 749,-707.96 749,-707.96 749,-710.92 746.04,-713.88 743.08,-713.88"/>
<text text-anchor="start" x="706.25" y="-701.33" font-family="Helvetica,sans-Serif" font-size="9.00">index.ts</text>
</a>
</g>
</g>
<!-- src/shared/api/index.ts&#45;&gt;src/shared/api/fakeApi.ts -->
<g id="edge17" class="edge">
<title>src/shared/api/index.ts&#45;&gt;src/shared/api/fakeApi.ts</title>
<path fill="none" stroke="#000000" stroke-width="2" stroke-opacity="0.200000" d="M749.23,-700.11C776.61,-695.01 819.69,-686.98 849.75,-681.38"/>
<polygon fill="#000000" fill-opacity="0.200000" stroke="#000000" stroke-width="2" stroke-opacity="0.200000" points="856.11,-682.33 849.83,-681.37 855.34,-678.2 856.11,-682.33"/>
</g>
<!-- src/shared/api/types.ts -->
<g id="node16" class="node">
<title>src/shared/api/types.ts</title>
<g id="a_node16"><a xlink:href="src/shared/api/types.ts" xlink:title="types.ts">
<path fill="#ddfeff" stroke="black" d="M906.08,-713.88C906.08,-713.88 863.92,-713.88 863.92,-713.88 860.96,-713.88 858,-710.92 858,-707.96 858,-707.96 858,-702.04 858,-702.04 858,-699.08 860.96,-696.12 863.92,-696.12 863.92,-696.12 906.08,-696.12 906.08,-696.12 909.04,-696.12 912,-699.08 912,-702.04 912,-702.04 912,-707.96 912,-707.96 912,-710.92 909.04,-713.88 906.08,-713.88"/>
<text text-anchor="start" x="869.62" y="-701.33" font-family="Helvetica,sans-Serif" font-size="9.00">types.ts</text>
</a>
</g>
</g>
<!-- src/shared/api/index.ts&#45;&gt;src/shared/api/types.ts -->
<g id="edge18" class="edge">
<title>src/shared/api/index.ts&#45;&gt;src/shared/api/types.ts</title>
<path fill="none" stroke="#000000" stroke-opacity="0.200000" d="M749.23,-705C776.74,-705 820.1,-705 850.18,-705"/>
<polygon fill="none" stroke="#000000" stroke-opacity="0.200000" points="850,-707.1 856,-705 850,-702.9 850,-707.1"/>
</g>
<!-- src/shared/di/lib/useDi.tsx&#45;&gt;src/shared/di/model/context.ts -->
<g id="edge22" class="edge">
<title>src/shared/di/lib/useDi.tsx&#45;&gt;src/shared/di/model/context.ts</title>
<path fill="none" stroke="#000000" stroke-width="2" stroke-opacity="0.200000" d="M1494.66,-670.55C1501.87,-670.98 1509.81,-671.46 1517.44,-671.91"/>
<polygon fill="#000000" fill-opacity="0.200000" stroke="#000000" stroke-width="2" stroke-opacity="0.200000" points="1517.06,-673.99 1523.17,-672.25 1517.31,-669.8 1517.06,-673.99"/>
</g>
<!-- src/shared/feature&#45;flags/model/feature&#45;flags.service.ts&#45;&gt;src/shared/feature&#45;flags/model/types.ts -->
<g id="edge26" class="edge">
<title>src/shared/feature&#45;flags/model/feature&#45;flags.service.ts&#45;&gt;src/shared/feature&#45;flags/model/types.ts</title>
<path fill="none" stroke="#000000" stroke-opacity="0.200000" d="M1389.3,-157C1403.89,-157 1419.32,-157 1432.52,-157"/>
<polygon fill="none" stroke="#000000" stroke-opacity="0.200000" points="1432.5,-159.1 1438.5,-157 1432.5,-154.9 1432.5,-159.1"/>
</g>
<!-- src/shared/feature&#45;flags/ui/FeatureToggle/FeatureToggle.tsx&#45;&gt;src/shared/feature&#45;flags/model/feature&#45;flags.service.ts -->
<g id="edge27" class="edge">
<title>src/shared/feature&#45;flags/ui/FeatureToggle/FeatureToggle.tsx&#45;&gt;src/shared/feature&#45;flags/model/feature&#45;flags.service.ts</title>
<path fill="none" stroke="#000000" stroke-width="2" stroke-opacity="0.200000" d="M1260.1,-80.18C1261.85,-81.31 1263.49,-82.58 1265,-84 1273.53,-92.04 1266.63,-99.42 1273.38,-109 1283.01,-122.69 1297.66,-134.39 1310.19,-142.82"/>
<polygon fill="#000000" fill-opacity="0.200000" stroke="#000000" stroke-width="2" stroke-opacity="0.200000" points="1308.92,-144.5 1315.1,-145.99 1311.2,-140.97 1308.92,-144.5"/>
</g>
<!-- src/shared/feature&#45;flags/ui/FeatureToggle/FeatureToggle.tsx&#45;&gt;src/shared/feature&#45;flags/model/types.ts -->
<g id="edge28" class="edge">
<title>src/shared/feature&#45;flags/ui/FeatureToggle/FeatureToggle.tsx&#45;&gt;src/shared/feature&#45;flags/model/types.ts</title>
<path fill="none" stroke="#000000" stroke-opacity="0.200000" d="M1251.33,-61.68C1262.34,-58.73 1272.06,-56.17 1273.38,-56 1305.66,-51.78 1392.45,-38.46 1419.88,-56 1449.25,-74.8 1460.38,-117.33 1464.39,-140.76"/>
<polygon fill="none" stroke="#000000" stroke-opacity="0.200000" points="1462.28,-140.81 1465.27,-146.42 1466.43,-140.17 1462.28,-140.81"/>
</g>
<!-- src/shared/feature&#45;flags/ui/FeatureToggle/FeatureToggle.module.css -->
<g id="node23" class="node">
<title>src/shared/feature&#45;flags/ui/FeatureToggle/FeatureToggle.module.css</title>
<g id="a_node23"><a xlink:href="src/shared/feature-flags/ui/FeatureToggle/FeatureToggle.module.css" xlink:title="FeatureToggle.module.css">
<path fill="#ffffcc" stroke="black" d="M1391.46,-79.88C1391.46,-79.88 1279.29,-79.88 1279.29,-79.88 1276.33,-79.88 1273.38,-76.92 1273.38,-73.96 1273.38,-73.96 1273.38,-68.04 1273.38,-68.04 1273.38,-65.08 1276.33,-62.12 1279.29,-62.12 1279.29,-62.12 1391.46,-62.12 1391.46,-62.12 1394.42,-62.12 1397.38,-65.08 1397.38,-68.04 1397.38,-68.04 1397.38,-73.96 1397.38,-73.96 1397.38,-76.92 1394.42,-79.88 1391.46,-79.88"/>
<text text-anchor="start" x="1281.38" y="-67.33" font-family="Helvetica,sans-Serif" font-size="9.00">FeatureToggle.module.css</text>
</a>
</g>
</g>
<!-- src/shared/feature&#45;flags/ui/FeatureToggle/FeatureToggle.tsx&#45;&gt;src/shared/feature&#45;flags/ui/FeatureToggle/FeatureToggle.module.css -->
<g id="edge29" class="edge">
<title>src/shared/feature&#45;flags/ui/FeatureToggle/FeatureToggle.tsx&#45;&gt;src/shared/feature&#45;flags/ui/FeatureToggle/FeatureToggle.module.css</title>
<path fill="none" stroke="#000000" stroke-width="2" stroke-opacity="0.200000" d="M1260.71,-71C1261.84,-71 1262.99,-71 1264.14,-71"/>
<polygon fill="#000000" fill-opacity="0.200000" stroke="#000000" stroke-width="2" stroke-opacity="0.200000" points="1264.02,-73.1 1270.02,-71 1264.02,-68.9 1264.02,-73.1"/>
</g>
<!-- src/shared/theme/ui/ThemeToggle/ThemeToggle.tsx&#45;&gt;src/shared/di/index.ts -->
<g id="edge33" class="edge">
<title>src/shared/theme/ui/ThemeToggle/ThemeToggle.tsx&#45;&gt;src/shared/di/index.ts</title>
<path fill="none" stroke="#000000" stroke-width="2" stroke-opacity="0.200000" d="M1219.79,-328.16C1235.04,-378.32 1308.49,-619.86 1329.03,-687.41"/>
<polygon fill="#000000" fill-opacity="0.200000" stroke="#000000" stroke-width="2" stroke-opacity="0.200000" points="1326.93,-687.73 1330.68,-692.86 1330.95,-686.51 1326.93,-687.73"/>
</g>
<!-- src/shared/theme/ui/ThemeToggle/ThemeToggle.module.css -->
<g id="node26" class="node">
<title>src/shared/theme/ui/ThemeToggle/ThemeToggle.module.css</title>
<g id="a_node26"><a xlink:href="src/shared/theme/ui/ThemeToggle/ThemeToggle.module.css" xlink:title="ThemeToggle.module.css">
<path fill="#ffffcc" stroke="black" d="M1389.96,-327.88C1389.96,-327.88 1280.79,-327.88 1280.79,-327.88 1277.83,-327.88 1274.88,-324.92 1274.88,-321.96 1274.88,-321.96 1274.88,-316.04 1274.88,-316.04 1274.88,-313.08 1277.83,-310.12 1280.79,-310.12 1280.79,-310.12 1389.96,-310.12 1389.96,-310.12 1392.92,-310.12 1395.88,-313.08 1395.88,-316.04 1395.88,-316.04 1395.88,-321.96 1395.88,-321.96 1395.88,-324.92 1392.92,-327.88 1389.96,-327.88"/>
<text text-anchor="start" x="1282.88" y="-315.32" font-family="Helvetica,sans-Serif" font-size="9.00">ThemeToggle.module.css</text>
</a>
</g>
</g>
<!-- src/shared/theme/ui/ThemeToggle/ThemeToggle.tsx&#45;&gt;src/shared/theme/ui/ThemeToggle/ThemeToggle.module.css -->
<g id="edge32" class="edge">
<title>src/shared/theme/ui/ThemeToggle/ThemeToggle.tsx&#45;&gt;src/shared/theme/ui/ThemeToggle/ThemeToggle.module.css</title>
<path fill="none" stroke="#000000" stroke-width="2" stroke-opacity="0.200000" d="M1259.04,-319C1261.23,-319 1263.45,-319 1265.69,-319"/>
<polygon fill="#000000" fill-opacity="0.200000" stroke="#000000" stroke-width="2" stroke-opacity="0.200000" points="1265.38,-321.1 1271.38,-319 1265.38,-316.9 1265.38,-321.1"/>
</g>
<!-- src/shared/ui/AddToCartButton/AddToCartButton.module.css -->
<g id="node27" class="node">
<title>src/shared/ui/AddToCartButton/AddToCartButton.module.css</title>
<g id="a_node27"><a xlink:href="src/shared/ui/AddToCartButton/AddToCartButton.module.css" xlink:title="AddToCartButton.module.css">
<path fill="#ffffcc" stroke="black" d="M1100.96,-447.88C1100.96,-447.88 978.29,-447.88 978.29,-447.88 975.33,-447.88 972.38,-444.92 972.38,-441.96 972.38,-441.96 972.38,-436.04 972.38,-436.04 972.38,-433.08 975.33,-430.12 978.29,-430.12 978.29,-430.12 1100.96,-430.12 1100.96,-430.12 1103.92,-430.12 1106.88,-433.08 1106.88,-436.04 1106.88,-436.04 1106.88,-441.96 1106.88,-441.96 1106.88,-444.92 1103.92,-447.88 1100.96,-447.88"/>
<text text-anchor="start" x="980.38" y="-435.32" font-family="Helvetica,sans-Serif" font-size="9.00">AddToCartButton.module.css</text>
</a>
</g>
</g>
<!-- src/shared/ui/AddToCartButton/AddToCartButton.tsx&#45;&gt;src/shared/ui/AddToCartButton/AddToCartButton.module.css -->
<g id="edge35" class="edge">
<title>src/shared/ui/AddToCartButton/AddToCartButton.tsx&#45;&gt;src/shared/ui/AddToCartButton/AddToCartButton.module.css</title>
<path fill="none" stroke="#000000" stroke-width="2" stroke-opacity="0.200000" d="M922.39,-459.66C930.66,-457.67 939.43,-455.67 947.62,-454 954.62,-452.57 961.93,-451.19 969.25,-449.88"/>
<polygon fill="#000000" fill-opacity="0.200000" stroke="#000000" stroke-width="2" stroke-opacity="0.200000" points="969.28,-452 974.83,-448.9 968.56,-447.87 969.28,-452"/>
</g>
<!-- src/shared/ui/AddToCartButton/AddToCartButton.tsx&#45;&gt;src/shared/ui/Price/Price.tsx -->
<g id="edge34" class="edge">
<title>src/shared/ui/AddToCartButton/AddToCartButton.tsx&#45;&gt;src/shared/ui/Price/Price.tsx</title>
<path fill="none" stroke="#000000" stroke-width="2" stroke-opacity="0.200000" d="M928.93,-478.18C930.94,-479.31 932.85,-480.58 934.62,-482 944.39,-489.84 937.76,-499.28 947.62,-507 963.46,-519.4 985.25,-524.95 1003.54,-527.38"/>
<polygon fill="#000000" fill-opacity="0.200000" stroke="#000000" stroke-width="2" stroke-opacity="0.200000" points="1002.99,-529.43 1009.19,-528 1003.45,-525.26 1002.99,-529.43"/>
</g>
<!-- src/shared/ui/AddToCartButton/mixkit&#45;on&#45;or&#45;off&#45;light&#45;switch&#45;tap&#45;2585.wav -->
<g id="node30" class="node">
<title>src/shared/ui/AddToCartButton/mixkit&#45;on&#45;or&#45;off&#45;light&#45;switch&#45;tap&#45;2585.wav</title>
<g id="a_node30"><a xlink:href="src/shared/ui/AddToCartButton/mixkit-on-or-off-light-switch-tap-2585.wav" xlink:title="mixkit&#45;on&#45;or&#45;off&#45;light&#45;switch&#45;tap&#45;2585.wav">
<path fill="#ffffcc" stroke="black" d="M1125.71,-477.88C1125.71,-477.88 953.54,-477.88 953.54,-477.88 950.58,-477.88 947.62,-474.92 947.62,-471.96 947.62,-471.96 947.62,-466.04 947.62,-466.04 947.62,-463.08 950.58,-460.12 953.54,-460.12 953.54,-460.12 1125.71,-460.12 1125.71,-460.12 1128.67,-460.12 1131.62,-463.08 1131.62,-466.04 1131.62,-466.04 1131.62,-471.96 1131.62,-471.96 1131.62,-474.92 1128.67,-477.88 1125.71,-477.88"/>
<text text-anchor="start" x="955.62" y="-465.32" font-family="Helvetica,sans-Serif" font-size="9.00">mixkit&#45;on&#45;or&#45;off&#45;light&#45;switch&#45;tap&#45;2585.wav</text>
</a>
</g>
</g>
<!-- src/shared/ui/AddToCartButton/AddToCartButton.tsx&#45;&gt;src/shared/ui/AddToCartButton/mixkit&#45;on&#45;or&#45;off&#45;light&#45;switch&#45;tap&#45;2585.wav -->
<g id="edge36" class="edge">
<title>src/shared/ui/AddToCartButton/AddToCartButton.tsx&#45;&gt;src/shared/ui/AddToCartButton/mixkit&#45;on&#45;or&#45;off&#45;light&#45;switch&#45;tap&#45;2585.wav</title>
<path fill="none" stroke="#000000" stroke-width="2" stroke-opacity="0.200000" d="M934.71,-469C935.99,-469 937.29,-469 938.59,-469"/>
<polygon fill="#000000" fill-opacity="0.200000" stroke="#000000" stroke-width="2" stroke-opacity="0.200000" points="938.3,-471.1 944.3,-469 938.3,-466.9 938.3,-471.1"/>
</g>
<!-- src/shared/ui/Layout/Layout.module.css -->
<g id="node31" class="node">
<title>src/shared/ui/Layout/Layout.module.css</title>
<g id="a_node31"><a xlink:href="src/shared/ui/Layout/Layout.module.css" xlink:title="Layout.module.css">
<path fill="#ffffcc" stroke="black" d="M1079.96,-597.88C1079.96,-597.88 999.29,-597.88 999.29,-597.88 996.33,-597.88 993.38,-594.92 993.38,-591.96 993.38,-591.96 993.38,-586.04 993.38,-586.04 993.38,-583.08 996.33,-580.12 999.29,-580.12 999.29,-580.12 1079.96,-580.12 1079.96,-580.12 1082.92,-580.12 1085.88,-583.08 1085.88,-586.04 1085.88,-586.04 1085.88,-591.96 1085.88,-591.96 1085.88,-594.92 1082.92,-597.88 1079.96,-597.88"/>
<text text-anchor="start" x="1001.38" y="-585.33" font-family="Helvetica,sans-Serif" font-size="9.00">Layout.module.css</text>
</a>
</g>
</g>
<!-- src/shared/ui/Layout/Layout.tsx&#45;&gt;src/shared/di/index.ts -->
<g id="edge38" class="edge">
<title>src/shared/ui/Layout/Layout.tsx&#45;&gt;src/shared/di/index.ts</title>
<path fill="none" stroke="#000000" stroke-width="2" stroke-opacity="0.200000" d="M914.05,-596.26C992.37,-616.52 1213.32,-673.68 1299.42,-695.96"/>
<polygon fill="#000000" fill-opacity="0.200000" stroke="#000000" stroke-width="2" stroke-opacity="0.200000" points="1298.77,-697.96 1305.11,-697.43 1299.83,-693.89 1298.77,-697.96"/>
</g>
<!-- src/shared/ui/Layout/Layout.tsx&#45;&gt;src/shared/feature&#45;flags/index.ts -->
<g id="edge39" class="edge">
<title>src/shared/ui/Layout/Layout.tsx&#45;&gt;src/shared/feature&#45;flags/index.ts</title>
<path fill="none" stroke="#000000" stroke-width="2" stroke-opacity="0.200000" d="M893.68,-579.64C905.06,-565.13 926,-535.86 934.62,-507 952.72,-446.47 917.64,-278.61 947.62,-223 960.71,-198.74 987.06,-181.15 1008.05,-170.27"/>
<polygon fill="#000000" fill-opacity="0.200000" stroke="#000000" stroke-width="2" stroke-opacity="0.200000" points="1008.93,-172.18 1013.37,-167.63 1007.06,-168.41 1008.93,-172.18"/>
</g>
<!-- src/shared/ui/Layout/Layout.tsx&#45;&gt;src/shared/theme/index.ts -->
<g id="edge40" class="edge">
<title>src/shared/ui/Layout/Layout.tsx&#45;&gt;src/shared/theme/index.ts</title>
<path fill="none" stroke="#000000" stroke-width="2" stroke-opacity="0.200000" d="M892.96,-580C903.78,-565.51 924.44,-535.7 934.62,-507 947.85,-469.74 928.07,-453.36 947.62,-419 962.81,-392.32 991.66,-371.4 1012.82,-358.71"/>
<polygon fill="#000000" fill-opacity="0.200000" stroke="#000000" stroke-width="2" stroke-opacity="0.200000" points="1013.76,-360.6 1017.89,-355.77 1011.65,-356.97 1013.76,-360.6"/>
</g>
<!-- src/shared/ui/Layout/Layout.tsx&#45;&gt;src/shared/ui/Layout/Layout.module.css -->
<g id="edge37" class="edge">
<title>src/shared/ui/Layout/Layout.tsx&#45;&gt;src/shared/ui/Layout/Layout.module.css</title>
<path fill="none" stroke="#000000" stroke-width="2" stroke-opacity="0.200000" d="M913.99,-589C933.61,-589 960.45,-589 984.2,-589"/>
<polygon fill="#000000" fill-opacity="0.200000" stroke="#000000" stroke-width="2" stroke-opacity="0.200000" points="984.11,-591.1 990.11,-589 984.11,-586.9 984.11,-591.1"/>
</g>
<!-- src/shared/ui/style.d.ts -->
<g id="node33" class="node">
<title>src/shared/ui/style.d.ts</title>
<g id="a_node33"><a xlink:href="src/shared/ui/style.d.ts" xlink:title="style.d.ts">
<path fill="#ccffcc" stroke="black" d="M743.08,-623.88C743.08,-623.88 700.92,-623.88 700.92,-623.88 697.96,-623.88 695,-620.92 695,-617.96 695,-617.96 695,-612.04 695,-612.04 695,-609.08 697.96,-606.12 700.92,-606.12 700.92,-606.12 743.08,-606.12 743.08,-606.12 746.04,-606.12 749,-609.08 749,-612.04 749,-612.04 749,-617.96 749,-617.96 749,-620.92 746.04,-623.88 743.08,-623.88"/>
<text text-anchor="start" x="704.38" y="-611.33" font-family="Helvetica,sans-Serif" font-size="9.00">style.d.ts</text>
</a>
</g>
</g>
<!-- src/vite&#45;env.d.ts -->
<g id="node34" class="node">
<title>src/vite&#45;env.d.ts</title>
<g id="a_node34"><a xlink:href="src/vite-env.d.ts" xlink:title="vite&#45;env.d.ts">
<path fill="#ccffcc" stroke="black" d="M77.46,-1064.88C77.46,-1064.88 24.54,-1064.88 24.54,-1064.88 21.58,-1064.88 18.62,-1061.92 18.62,-1058.96 18.62,-1058.96 18.62,-1053.04 18.62,-1053.04 18.62,-1050.08 21.58,-1047.12 24.54,-1047.12 24.54,-1047.12 77.46,-1047.12 77.46,-1047.12 80.42,-1047.12 83.38,-1050.08 83.38,-1053.04 83.38,-1053.04 83.38,-1058.96 83.38,-1058.96 83.38,-1061.92 80.42,-1064.88 77.46,-1064.88"/>
<text text-anchor="start" x="26.62" y="-1052.33" font-family="Helvetica,sans-Serif" font-size="9.00">vite&#45;env.d.ts</text>
</a>
</g>
</g>
<!-- src/widgets/cart/store/cart.store.ts&#45;&gt;src/shared/api/index.ts -->
<g id="edge46" class="edge">
<title>src/widgets/cart/store/cart.store.ts&#45;&gt;src/shared/api/index.ts</title>
<path fill="none" stroke="#000000" stroke-opacity="0.200000" d="M605.4,-800.78C619.32,-797.04 635.56,-791.35 648.62,-783 674.83,-766.26 697.87,-737.81 710.57,-720.29"/>
<polygon fill="none" stroke="#000000" stroke-opacity="0.200000" points="712.13,-721.71 713.89,-715.6 708.71,-719.28 712.13,-721.71"/>
</g>
<!-- src/widgets/cart/ui/Cart/Cart.tsx&#45;&gt;src/shared/di/index.ts -->
<g id="edge49" class="edge">
<title>src/widgets/cart/ui/Cart/Cart.tsx&#45;&gt;src/shared/di/index.ts</title>
<path fill="none" stroke="#000000" stroke-width="2" stroke-opacity="0.200000" d="M456.3,-884.02C462.57,-911.94 481.61,-999.47 490.88,-1073 492.52,-1086.04 490.49,-1180.88 498.88,-1191 563.94,-1269.59 618.97,-1249 721,-1249 721,-1249 721,-1249 1040.62,-1249 1285.55,-1249 1327.23,-816.79 1333.4,-722.87"/>
<polygon fill="#000000" fill-opacity="0.200000" stroke="#000000" stroke-width="2" stroke-opacity="0.200000" points="1335.49,-723.13 1333.76,-717.01 1331.3,-722.87 1335.49,-723.13"/>
</g>
<!-- src/widgets/cart/ui/Cart/Cart.tsx&#45;&gt;src/shared/ui/index.ts -->
<g id="edge50" class="edge">
<title>src/widgets/cart/ui/Cart/Cart.tsx&#45;&gt;src/shared/ui/index.ts</title>
<path fill="none" stroke="#000000" stroke-width="2" stroke-opacity="0.200000" d="M456.38,-865.81C461,-847.98 473.58,-808.56 498.88,-787 552.07,-741.66 605.83,-794.25 648.62,-739 667.57,-714.54 636.7,-623.67 656.62,-600 663.86,-591.41 674.96,-587.19 685.93,-585.27"/>
<polygon fill="#000000" fill-opacity="0.200000" stroke="#000000" stroke-width="2" stroke-opacity="0.200000" points="685.92,-587.38 691.61,-584.55 685.39,-583.22 685.92,-587.38"/>
</g>
<!-- src/widgets/cart/ui/Cart/Cart.tsx&#45;&gt;src/widgets/cart/store/cart.store.ts -->
<g id="edge47" class="edge">
<title>src/widgets/cart/ui/Cart/Cart.tsx&#45;&gt;src/widgets/cart/store/cart.store.ts</title>
<path fill="none" stroke="#000000" stroke-width="2" stroke-opacity="0.200000" d="M480.41,-867.09C484.03,-865.61 487.61,-863.91 490.88,-862 494.95,-859.61 495.11,-857.85 498.88,-855 515.29,-842.59 534.86,-829.96 549.73,-820.78"/>
<polygon fill="#000000" fill-opacity="0.200000" stroke="#000000" stroke-width="2" stroke-opacity="0.200000" points="550.43,-822.81 554.45,-817.89 548.24,-819.23 550.43,-822.81"/>
</g>
<!-- src/widgets/cart/ui/Cart/Cart.module.css -->
<g id="node37" class="node">
<title>src/widgets/cart/ui/Cart/Cart.module.css</title>
<g id="a_node37"><a xlink:href="src/widgets/cart/ui/Cart/Cart.module.css" xlink:title="Cart.module.css">
<path fill="#ffffcc" stroke="black" d="M608.83,-883.88C608.83,-883.88 538.67,-883.88 538.67,-883.88 535.71,-883.88 532.75,-880.92 532.75,-877.96 532.75,-877.96 532.75,-872.04 532.75,-872.04 532.75,-869.08 535.71,-866.12 538.67,-866.12 538.67,-866.12 608.83,-866.12 608.83,-866.12 611.79,-866.12 614.75,-869.08 614.75,-872.04 614.75,-872.04 614.75,-877.96 614.75,-877.96 614.75,-880.92 611.79,-883.88 608.83,-883.88"/>
<text text-anchor="start" x="540.75" y="-871.33" font-family="Helvetica,sans-Serif" font-size="9.00">Cart.module.css</text>
</a>
</g>
</g>
<!-- src/widgets/cart/ui/Cart/Cart.tsx&#45;&gt;src/widgets/cart/ui/Cart/Cart.module.css -->
<g id="edge48" class="edge">
<title>src/widgets/cart/ui/Cart/Cart.tsx&#45;&gt;src/widgets/cart/ui/Cart/Cart.module.css</title>
<path fill="none" stroke="#000000" stroke-width="2" stroke-opacity="0.200000" d="M480.55,-875C493.32,-875 509.08,-875 523.93,-875"/>
<polygon fill="#000000" fill-opacity="0.200000" stroke="#000000" stroke-width="2" stroke-opacity="0.200000" points="523.52,-877.1 529.52,-875 523.52,-872.9 523.52,-877.1"/>
</g>
<!-- src/widgets/popular&#45;products/api/getPopularProducts.ts -->
<g id="node38" class="node">
<title>src/widgets/popular&#45;products/api/getPopularProducts.ts</title>
<g id="a_node38"><a xlink:href="src/widgets/popular-products/api/getPopularProducts.ts" xlink:title="getPopularProducts.ts">
<path fill="#ddfeff" stroke="black" d="M769.08,-1003.88C769.08,-1003.88 674.92,-1003.88 674.92,-1003.88 671.96,-1003.88 669,-1000.92 669,-997.96 669,-997.96 669,-992.04 669,-992.04 669,-989.08 671.96,-986.12 674.92,-986.12 674.92,-986.12 769.08,-986.12 769.08,-986.12 772.04,-986.12 775,-989.08 775,-992.04 775,-992.04 775,-997.96 775,-997.96 775,-1000.92 772.04,-1003.88 769.08,-1003.88"/>
<text text-anchor="start" x="677" y="-991.33" font-family="Helvetica,sans-Serif" font-size="9.00">getPopularProducts.ts</text>
</a>
</g>
</g>
<!-- src/widgets/popular&#45;products/api/getPopularProducts.ts&#45;&gt;src/shared/api/index.ts -->
<g id="edge51" class="edge">
<title>src/widgets/popular&#45;products/api/getPopularProducts.ts&#45;&gt;src/shared/api/index.ts</title>
<path fill="none" stroke="#000000" stroke-width="2" stroke-opacity="0.200000" d="M722,-985.68C722,-898.24 722,-810.8 722,-723.35"/>
<polygon fill="#000000" fill-opacity="0.200000" stroke="#000000" stroke-width="2" stroke-opacity="0.200000" points="724.1,-723.37 722,-717.37 719.9,-723.37 724.1,-723.37"/>
</g>
<!-- src/widgets/popular&#45;products/store/popular&#45;products.slice.ts&#45;&gt;src/shared/api/index.ts -->
<g id="edge55" class="edge">
<title>src/widgets/popular&#45;products/store/popular&#45;products.slice.ts&#45;&gt;src/shared/api/index.ts</title>
<path fill="none" stroke="#000000" stroke-opacity="0.200000" d="M586.38,-985.79C603.04,-971.9 633.36,-943.93 648.62,-913 657.23,-895.57 651.29,-888.69 656.62,-870 672.73,-813.57 700.59,-749.59 713.74,-720.67"/>
<polygon fill="none" stroke="#000000" stroke-opacity="0.200000" points="715.53,-721.8 716.12,-715.47 711.71,-720.05 715.53,-721.8"/>
</g>
<!-- src/widgets/popular&#45;products/store/popular&#45;products.slice.ts&#45;&gt;src/widgets/popular&#45;products/api/getPopularProducts.ts -->
<g id="edge54" class="edge">
<title>src/widgets/popular&#45;products/store/popular&#45;products.slice.ts&#45;&gt;src/widgets/popular&#45;products/api/getPopularProducts.ts</title>
<path fill="none" stroke="#000000" stroke-width="2" stroke-opacity="0.200000" d="M631.71,-995C640.95,-995 650.55,-995 659.88,-995"/>
<polygon fill="#000000" fill-opacity="0.200000" stroke="#000000" stroke-width="2" stroke-opacity="0.200000" points="659.7,-997.1 665.7,-995 659.7,-992.9 659.7,-997.1"/>
</g>
<!-- src/widgets/popular&#45;products/ui/ProductList/ProductList.tsx&#45;&gt;src/shared/di/index.ts -->
<g id="edge60" class="edge">
<title>src/widgets/popular&#45;products/ui/ProductList/ProductList.tsx&#45;&gt;src/shared/di/index.ts</title>
<path fill="none" stroke="#000000" stroke-width="2" stroke-opacity="0.200000" d="M454.36,-1102.07C455.16,-1126.2 460.91,-1192.35 498.88,-1225 574.81,-1290.3 620.84,-1263 721,-1263 721,-1263 721,-1263 1040.62,-1263 1088.39,-1263 1104.51,-1273.55 1147.62,-1253 1214.97,-1220.9 1231.38,-1199.6 1265,-1133 1302.42,-1058.87 1326.87,-794.63 1332.91,-723.01"/>
<polygon fill="#000000" fill-opacity="0.200000" stroke="#000000" stroke-width="2" stroke-opacity="0.200000" points="1334.99,-723.4 1333.39,-717.24 1330.8,-723.05 1334.99,-723.4"/>
</g>
<!-- src/widgets/popular&#45;products/ui/ProductList/ProductList.tsx&#45;&gt;src/widgets/popular&#45;products/store/popular&#45;products.slice.ts -->
<g id="edge57" class="edge">
<title>src/widgets/popular&#45;products/ui/ProductList/ProductList.tsx&#45;&gt;src/widgets/popular&#45;products/store/popular&#45;products.slice.ts</title>
<path fill="none" stroke="#000000" stroke-width="2" stroke-opacity="0.200000" d="M487.17,-1083.7C488.54,-1082.6 489.78,-1081.37 490.88,-1080 510.36,-1055.49 477.71,-1033.08 498.88,-1010 501.46,-1007.18 504.42,-1004.81 507.64,-1002.82"/>
<polygon fill="#000000" fill-opacity="0.200000" stroke="#000000" stroke-width="2" stroke-opacity="0.200000" points="508.42,-1004.77 512.84,-1000.2 506.54,-1001.02 508.42,-1004.77"/>
</g>
<!-- src/widgets/popular&#45;products/store/popular&#45;products.selectors.ts -->
<g id="node41" class="node">
<title>src/widgets/popular&#45;products/store/popular&#45;products.selectors.ts</title>
<g id="a_node41"><a xlink:href="src/widgets/popular-products/store/popular-products.selectors.ts" xlink:title="popular&#45;products.selectors.ts">
<path fill="#ddfeff" stroke="black" d="M634.71,-1033.88C634.71,-1033.88 512.79,-1033.88 512.79,-1033.88 509.83,-1033.88 506.88,-1030.92 506.88,-1027.96 506.88,-1027.96 506.88,-1022.04 506.88,-1022.04 506.88,-1019.08 509.83,-1016.12 512.79,-1016.12 512.79,-1016.12 634.71,-1016.12 634.71,-1016.12 637.67,-1016.12 640.62,-1019.08 640.62,-1022.04 640.62,-1022.04 640.62,-1027.96 640.62,-1027.96 640.62,-1030.92 637.67,-1033.88 634.71,-1033.88"/>
<text text-anchor="start" x="514.88" y="-1021.33" font-family="Helvetica,sans-Serif" font-size="9.00">popular&#45;products.selectors.ts</text>
</a>
</g>
</g>
<!-- src/widgets/popular&#45;products/ui/ProductList/ProductList.tsx&#45;&gt;src/widgets/popular&#45;products/store/popular&#45;products.selectors.ts -->
<g id="edge56" class="edge">
<title>src/widgets/popular&#45;products/ui/ProductList/ProductList.tsx&#45;&gt;src/widgets/popular&#45;products/store/popular&#45;products.selectors.ts</title>
<path fill="none" stroke="#000000" stroke-width="2" stroke-opacity="0.200000" d="M483.5,-1083.77C486.05,-1082.62 488.55,-1081.36 490.88,-1080 494.95,-1077.61 495.11,-1075.85 498.88,-1073 515.29,-1060.59 534.86,-1047.96 549.73,-1038.78"/>
<polygon fill="#000000" fill-opacity="0.200000" stroke="#000000" stroke-width="2" stroke-opacity="0.200000" points="550.43,-1040.81 554.45,-1035.89 548.24,-1037.23 550.43,-1040.81"/>
</g>
<!-- src/widgets/popular&#45;products/ui/ProductList/ProductList.module.css -->
<g id="node42" class="node">
<title>src/widgets/popular&#45;products/ui/ProductList/ProductList.module.css</title>
<g id="a_node42"><a xlink:href="src/widgets/popular-products/ui/ProductList/ProductList.module.css" xlink:title="ProductList.module.css">
<path fill="#ffffcc" stroke="black" d="M623.08,-1101.88C623.08,-1101.88 524.42,-1101.88 524.42,-1101.88 521.46,-1101.88 518.5,-1098.92 518.5,-1095.96 518.5,-1095.96 518.5,-1090.04 518.5,-1090.04 518.5,-1087.08 521.46,-1084.12 524.42,-1084.12 524.42,-1084.12 623.08,-1084.12 623.08,-1084.12 626.04,-1084.12 629,-1087.08 629,-1090.04 629,-1090.04 629,-1095.96 629,-1095.96 629,-1098.92 626.04,-1101.88 623.08,-1101.88"/>
<text text-anchor="start" x="526.5" y="-1089.33" font-family="Helvetica,sans-Serif" font-size="9.00">ProductList.module.css</text>
</a>
</g>
</g>
<!-- src/widgets/popular&#45;products/ui/ProductList/ProductList.tsx&#45;&gt;src/widgets/popular&#45;products/ui/ProductList/ProductList.module.css -->
<g id="edge59" class="edge">
<title>src/widgets/popular&#45;products/ui/ProductList/ProductList.tsx&#45;&gt;src/widgets/popular&#45;products/ui/ProductList/ProductList.module.css</title>
<path fill="none" stroke="#000000" stroke-width="2" stroke-opacity="0.200000" d="M491.09,-1093C496.85,-1093 502.93,-1093 509.07,-1093"/>
<polygon fill="#000000" fill-opacity="0.200000" stroke="#000000" stroke-width="2" stroke-opacity="0.200000" points="509.07,-1095.1 515.07,-1093 509.07,-1090.9 509.07,-1095.1"/>
</g>
<!-- src/widgets/popular&#45;products/ui/ProductListCard/ProductListCard.tsx -->
<g id="node43" class="node">
<title>src/widgets/popular&#45;products/ui/ProductListCard/ProductListCard.tsx</title>
<g id="a_node43"><a xlink:href="src/widgets/popular-products/ui/ProductListCard/ProductListCard.tsx" xlink:title="ProductListCard.tsx">
<path fill="#bbfeff" stroke="black" d="M615.58,-1161.88C615.58,-1161.88 531.92,-1161.88 531.92,-1161.88 528.96,-1161.88 526,-1158.92 526,-1155.96 526,-1155.96 526,-1150.04 526,-1150.04 526,-1147.08 528.96,-1144.12 531.92,-1144.12 531.92,-1144.12 615.58,-1144.12 615.58,-1144.12 618.54,-1144.12 621.5,-1147.08 621.5,-1150.04 621.5,-1150.04 621.5,-1155.96 621.5,-1155.96 621.5,-1158.92 618.54,-1161.88 615.58,-1161.88"/>
<text text-anchor="start" x="534" y="-1149.33" font-family="Helvetica,sans-Serif" font-size="9.00">ProductListCard.tsx</text>
</a>
</g>
</g>
<!-- src/widgets/popular&#45;products/ui/ProductList/ProductList.tsx&#45;&gt;src/widgets/popular&#45;products/ui/ProductListCard/ProductListCard.tsx -->
<g id="edge58" class="edge">
<title>src/widgets/popular&#45;products/ui/ProductList/ProductList.tsx&#45;&gt;src/widgets/popular&#45;products/ui/ProductListCard/ProductListCard.tsx</title>
<path fill="none" stroke="#000000" stroke-width="2" stroke-opacity="0.200000" d="M462.65,-1102.07C471.06,-1110.65 484.75,-1123.33 498.88,-1131 506.04,-1134.89 513.99,-1138.18 521.93,-1140.93"/>
<polygon fill="#000000" fill-opacity="0.200000" stroke="#000000" stroke-width="2" stroke-opacity="0.200000" points="521.27,-1142.92 527.63,-1142.77 522.57,-1138.92 521.27,-1142.92"/>
</g>
<!-- src/widgets/popular&#45;products/ui/ProductListCard/ProductListCard.tsx&#45;&gt;src/shared/di/index.ts -->
<g id="edge63" class="edge">
<title>src/widgets/popular&#45;products/ui/ProductListCard/ProductListCard.tsx&#45;&gt;src/shared/di/index.ts</title>
<path fill="none" stroke="#000000" stroke-width="2" stroke-opacity="0.200000" d="M621.73,-1148.16C632.07,-1144.85 641.93,-1139.52 648.62,-1131 670.08,-1103.71 636.97,-1003.61 656.62,-975 719.24,-883.86 773.42,-874 884,-874 884,-874 884,-874 1040.62,-874 1162.99,-874 1280.4,-762.47 1320.16,-720.62"/>
<polygon fill="#000000" fill-opacity="0.200000" stroke="#000000" stroke-width="2" stroke-opacity="0.200000" points="1321.63,-722.11 1324.19,-716.3 1318.56,-719.25 1321.63,-722.11"/>
</g>
<!-- src/widgets/popular&#45;products/ui/ProductListCard/ProductListCard.tsx&#45;&gt;src/shared/ui/index.ts -->
<g id="edge64" class="edge">
<title>src/widgets/popular&#45;products/ui/ProductListCard/ProductListCard.tsx&#45;&gt;src/shared/ui/index.ts</title>
<path fill="none" stroke="#000000" stroke-width="2" stroke-opacity="0.200000" d="M621.94,-1148.33C632.28,-1145.02 642.08,-1139.64 648.62,-1131 666.44,-1107.48 638.11,-622.97 656.62,-600 663.73,-591.19 674.91,-586.94 685.98,-585.05"/>
<polygon fill="#000000" fill-opacity="0.200000" stroke="#000000" stroke-width="2" stroke-opacity="0.200000" points="686.04,-587.15 691.75,-584.35 685.54,-582.98 686.04,-587.15"/>
</g>
<!-- src/widgets/popular&#45;products/ui/ProductListCard/ProductListCard.tsx&#45;&gt;src/shared/api/index.ts -->
<g id="edge62" class="edge">
<title>src/widgets/popular&#45;products/ui/ProductListCard/ProductListCard.tsx&#45;&gt;src/shared/api/index.ts</title>
<path fill="none" stroke="#000000" stroke-opacity="0.200000" d="M621.85,-1148.26C632.19,-1144.95 642.01,-1139.59 648.62,-1131 657.47,-1119.5 653.72,-884.21 656.62,-870 668.3,-812.79 698.08,-749.66 712.68,-720.87"/>
<polygon fill="none" stroke="#000000" stroke-opacity="0.200000" points="714.48,-721.96 715.35,-715.67 710.74,-720.05 714.48,-721.96"/>
</g>
<!-- src/widgets/popular&#45;products/ui/ProductListCard/ProductListCard.module.css -->
<g id="node44" class="node">
<title>src/widgets/popular&#45;products/ui/ProductListCard/ProductListCard.module.css</title>
<g id="a_node44"><a xlink:href="src/widgets/popular-products/ui/ProductListCard/ProductListCard.module.css" xlink:title="ProductListCard.module.css">
<path fill="#ffffcc" stroke="black" d="M781.46,-1161.88C781.46,-1161.88 662.54,-1161.88 662.54,-1161.88 659.58,-1161.88 656.62,-1158.92 656.62,-1155.96 656.62,-1155.96 656.62,-1150.04 656.62,-1150.04 656.62,-1147.08 659.58,-1144.12 662.54,-1144.12 662.54,-1144.12 781.46,-1144.12 781.46,-1144.12 784.42,-1144.12 787.38,-1147.08 787.38,-1150.04 787.38,-1150.04 787.38,-1155.96 787.38,-1155.96 787.38,-1158.92 784.42,-1161.88 781.46,-1161.88"/>
<text text-anchor="start" x="664.62" y="-1149.33" font-family="Helvetica,sans-Serif" font-size="9.00">ProductListCard.module.css</text>
</a>
</g>
</g>
<!-- src/widgets/popular&#45;products/ui/ProductListCard/ProductListCard.tsx&#45;&gt;src/widgets/popular&#45;products/ui/ProductListCard/ProductListCard.module.css -->
<g id="edge61" class="edge">
<title>src/widgets/popular&#45;products/ui/ProductListCard/ProductListCard.tsx&#45;&gt;src/widgets/popular&#45;products/ui/ProductListCard/ProductListCard.module.css</title>
<path fill="none" stroke="#000000" stroke-width="2" stroke-opacity="0.200000" d="M621.83,-1153C629.95,-1153 638.56,-1153 647.18,-1153"/>
<polygon fill="#000000" fill-opacity="0.200000" stroke="#000000" stroke-width="2" stroke-opacity="0.200000" points="647.13,-1155.1 653.13,-1153 647.13,-1150.9 647.13,-1155.1"/>
</g>
</g>
</svg>
