<?xml version="1.0" encoding="UTF-8" standalone="no"?>
<!DOCTYPE svg PUBLIC "-//W3C//DTD SVG 1.1//EN"
 "http://www.w3.org/Graphics/SVG/1.1/DTD/svg11.dtd">
<!-- Generated by graphviz version 12.0.0 (20240704.0754)
 -->
<!-- Title: dependency&#45;cruiser output Pages: 1 -->
<svg width="523pt" height="204pt"
 viewBox="0.00 0.00 522.75 204.00" xmlns="http://www.w3.org/2000/svg" xmlns:xlink="http://www.w3.org/1999/xlink">
<g id="graph0" class="graph" transform="scale(1 1) rotate(0) translate(4 200)">
<title>dependency&#45;cruiser output</title>
<polygon fill="white" stroke="none" points="-4,4 -4,-200 518.75,-200 518.75,4 -4,4"/>
<g id="clust1" class="cluster">
<title>cluster_src</title>
<path fill="#ffffff" stroke="black" stroke-width="2" d="M20,-8C20,-8 494.75,-8 494.75,-8 500.75,-8 506.75,-14 506.75,-20 506.75,-20 506.75,-176 506.75,-176 506.75,-182 500.75,-188 494.75,-188 494.75,-188 20,-188 20,-188 14,-188 8,-182 8,-176 8,-176 8,-20 8,-20 8,-14 14,-8 20,-8"/>
<text text-anchor="middle" x="257.38" y="-175.45" font-family="Helvetica,sans-Serif" font-weight="bold" font-size="9.00">src</text>
</g>
<g id="clust2" class="cluster">
<title>cluster_src/app</title>
<path fill="#ffffff" stroke="black" stroke-width="2" d="M28,-29C28,-29 152,-29 152,-29 158,-29 164,-35 164,-41 164,-41 164,-129 164,-129 164,-135 158,-141 152,-141 152,-141 28,-141 28,-141 22,-141 16,-135 16,-129 16,-129 16,-41 16,-41 16,-35 22,-29 28,-29"/>
<text text-anchor="middle" x="90" y="-128.45" font-family="Helvetica,sans-Serif" font-weight="bold" font-size="9.00">app</text>
</g>
<g id="clust3" class="cluster">
<title>cluster_src/app/providers</title>
<path fill="#ffffff" stroke="black" stroke-width="2" d="M98,-63C98,-63 144,-63 144,-63 150,-63 156,-69 156,-75 156,-75 156,-103 156,-103 156,-109 150,-115 144,-115 144,-115 98,-115 98,-115 92,-115 86,-109 86,-103 86,-103 86,-75 86,-75 86,-69 92,-63 98,-63"/>
<text text-anchor="middle" x="121" y="-102.45" font-family="Helvetica,sans-Serif" font-weight="bold" font-size="9.00">providers</text>
</g>
<g id="clust4" class="cluster">
<title>cluster_src/shared</title>
<path fill="#ffffff" stroke="black" stroke-width="2" d="M293.75,-50C293.75,-50 486.75,-50 486.75,-50 492.75,-50 498.75,-56 498.75,-62 498.75,-62 498.75,-150 498.75,-150 498.75,-156 492.75,-162 486.75,-162 486.75,-162 293.75,-162 293.75,-162 287.75,-162 281.75,-156 281.75,-150 281.75,-150 281.75,-62 281.75,-62 281.75,-56 287.75,-50 293.75,-50"/>
<text text-anchor="middle" x="390.25" y="-149.45" font-family="Helvetica,sans-Serif" font-weight="bold" font-size="9.00">shared</text>
</g>
<g id="clust5" class="cluster">
<title>cluster_src/widgets</title>
<path fill="#ffffff" stroke="black" stroke-width="2" d="M184,-26C184,-26 261.75,-26 261.75,-26 267.75,-26 273.75,-32 273.75,-38 273.75,-38 273.75,-96 273.75,-96 273.75,-102 267.75,-108 261.75,-108 261.75,-108 184,-108 184,-108 178,-108 172,-102 172,-96 172,-96 172,-38 172,-38 172,-32 178,-26 184,-26"/>
<text text-anchor="middle" x="222.88" y="-95.45" font-family="Helvetica,sans-Serif" font-weight="bold" font-size="9.00">widgets</text>
</g>
<!-- src/app/entry.tsx -->
<g id="node1" class="node">
<title>src/app/entry.tsx</title>
<g id="a_node1"><a xlink:href="src/app/entry.tsx" xlink:title="entry.tsx">
<path fill="#bbfeff" stroke="black" d="M72.08,-101.88C72.08,-101.88 29.92,-101.88 29.92,-101.88 26.96,-101.88 24,-98.92 24,-95.96 24,-95.96 24,-90.04 24,-90.04 24,-87.08 26.96,-84.12 29.92,-84.12 29.92,-84.12 72.08,-84.12 72.08,-84.12 75.04,-84.12 78,-87.08 78,-90.04 78,-90.04 78,-95.96 78,-95.96 78,-98.92 75.04,-101.88 72.08,-101.88"/>
<text text-anchor="start" x="34.12" y="-89.33" font-family="Helvetica,sans-Serif" font-size="9.00">entry.tsx</text>
</a>
</g>
</g>
<!-- src/app/index.css -->
<g id="node2" class="node">
<title>src/app/index.css</title>
<g id="a_node2"><a xlink:href="src/app/index.css" xlink:title="index.css">
<path fill="#ffffcc" stroke="black" d="M142.21,-54.88C142.21,-54.88 99.79,-54.88 99.79,-54.88 96.83,-54.88 93.88,-51.92 93.88,-48.96 93.88,-48.96 93.88,-43.04 93.88,-43.04 93.88,-40.08 96.83,-37.12 99.79,-37.12 99.79,-37.12 142.21,-37.12 142.21,-37.12 145.17,-37.12 148.12,-40.08 148.12,-43.04 148.12,-43.04 148.12,-48.96 148.12,-48.96 148.12,-51.92 145.17,-54.88 142.21,-54.88"/>
<text text-anchor="start" x="101.88" y="-42.33" font-family="Helvetica,sans-Serif" font-size="9.00">index.css</text>
</a>
</g>
</g>
<!-- src/app/entry.tsx&#45;&gt;src/app/index.css -->
<g id="edge1" class="edge">
<title>src/app/entry.tsx&#45;&gt;src/app/index.css</title>
<path fill="none" stroke="#000000" stroke-width="2" stroke-opacity="0.200000" d="M59.61,-83.9C66.05,-76.66 75.82,-66.68 86,-60 86.25,-59.84 86.5,-59.67 86.76,-59.51"/>
<polygon fill="#000000" fill-opacity="0.200000" stroke="#000000" stroke-width="2" stroke-opacity="0.200000" points="87.68,-61.4 91.92,-56.67 85.65,-57.72 87.68,-61.4"/>
</g>
<!-- src/app/providers/layout/ -->
<g id="node3" class="node">
<title>src/app/providers/layout/</title>
<g id="a_node3"><a xlink:href="src/app/providers/layout/" xlink:title="layout">
<polygon fill="#ffffcc" stroke="black" points="148,-88.88 95.97,-88.88 94,-86.9 94,-71.12 146.03,-71.12 148,-73.1 148,-88.88"/>
<polyline fill="none" stroke="black" points="146.03,-86.9 94,-86.9"/>
<polyline fill="none" stroke="black" points="146.03,-86.9 146.03,-71.12"/>
<polyline fill="none" stroke="black" points="146.03,-86.9 148,-88.88"/>
<text text-anchor="start" x="108.62" y="-76.33" font-family="Helvetica,sans-Serif" font-size="9.00">layout</text>
</a>
</g>
</g>
<!-- src/app/entry.tsx&#45;&gt;src/app/providers/layout/ -->
<g id="edge2" class="edge">
<title>src/app/entry.tsx&#45;&gt;src/app/providers/layout/</title>
<path fill="none" stroke="#000000" stroke-width="2" stroke-opacity="0.200000" d="M78.49,-87.94C80.7,-87.51 82.97,-87.08 85.24,-86.65"/>
<polygon fill="#000000" fill-opacity="0.200000" stroke="#000000" stroke-width="2" stroke-opacity="0.200000" points="85.45,-88.74 90.95,-85.55 84.66,-84.62 85.45,-88.74"/>
</g>
<!-- src/shared/di/ -->
<g id="node4" class="node">
<title>src/shared/di/</title>
<g id="a_node4"><a xlink:href="src/shared/di/" xlink:title="di">
<polygon fill="#ffffcc" stroke="black" points="490.75,-75.88 438.72,-75.88 436.75,-73.9 436.75,-58.12 488.78,-58.12 490.75,-60.1 490.75,-75.88"/>
<polyline fill="none" stroke="black" points="488.78,-73.9 436.75,-73.9"/>
<polyline fill="none" stroke="black" points="488.78,-73.9 488.78,-58.12"/>
<polyline fill="none" stroke="black" points="488.78,-73.9 490.75,-75.88"/>
<text text-anchor="start" x="460" y="-63.33" font-family="Helvetica,sans-Serif" font-size="9.00">di</text>
</a>
</g>
</g>
<!-- src/app/entry.tsx&#45;&gt;src/shared/di/ -->
<g id="edge3" class="edge">
<title>src/app/entry.tsx&#45;&gt;src/shared/di/</title>
<path fill="none" stroke="#000000" stroke-width="2" stroke-opacity="0.200000" d="M58.07,-102.35C64.08,-110.79 74.1,-122.81 86,-129 140.14,-157.19 160.84,-149 221.88,-149 221.88,-149 221.88,-149 317.75,-149 365.96,-149 383.97,-153.23 423.75,-126 438.71,-115.76 449.39,-97.7 455.75,-84.26"/>
<polygon fill="#000000" fill-opacity="0.200000" stroke="#000000" stroke-width="2" stroke-opacity="0.200000" points="457.57,-85.32 458.08,-78.98 453.73,-83.62 457.57,-85.32"/>
</g>
<!-- src/shared/redux/ -->
<g id="node5" class="node">
<title>src/shared/redux/</title>
<g id="a_node5"><a xlink:href="src/shared/redux/" xlink:title="redux">
<polygon fill="#ffffcc" stroke="black" points="343.75,-135.88 291.72,-135.88 289.75,-133.9 289.75,-118.12 341.78,-118.12 343.75,-120.1 343.75,-135.88"/>
<polyline fill="none" stroke="black" points="341.78,-133.9 289.75,-133.9"/>
<polyline fill="none" stroke="black" points="341.78,-133.9 341.78,-118.12"/>
<polyline fill="none" stroke="black" points="341.78,-133.9 343.75,-135.88"/>
<text text-anchor="start" x="305.12" y="-123.33" font-family="Helvetica,sans-Serif" font-size="9.00">redux</text>
</a>
</g>
</g>
<!-- src/app/entry.tsx&#45;&gt;src/shared/redux/ -->
<g id="edge4" class="edge">
<title>src/app/entry.tsx&#45;&gt;src/shared/redux/</title>
<path fill="none" stroke="#000000" stroke-width="2" stroke-opacity="0.200000" d="M61.21,-102.16C67.59,-107.86 76.59,-114.71 86,-118 151.7,-140.99 234.49,-136.84 280.61,-131.85"/>
<polygon fill="#000000" fill-opacity="0.200000" stroke="#000000" stroke-width="2" stroke-opacity="0.200000" points="280.6,-133.97 286.32,-131.19 280.12,-129.79 280.6,-133.97"/>
</g>
<!-- src/app/providers/layout/&#45;&gt;src/shared/di/ -->
<g id="edge5" class="edge">
<title>src/app/providers/layout/&#45;&gt;src/shared/di/</title>
<path fill="none" stroke="#000000" stroke-width="2" stroke-opacity="0.200000" d="M148.08,-76.64C154.05,-74.7 159.85,-71.68 164,-67 177.18,-52.13 156.8,-35.8 172,-23 182.4,-14.24 404.34,-13.14 423.75,-22 436.36,-27.76 446.47,-39.84 453.23,-50.03"/>
<polygon fill="#000000" fill-opacity="0.200000" stroke="#000000" stroke-width="2" stroke-opacity="0.200000" points="451.39,-51.06 456.33,-55.07 454.97,-48.86 451.39,-51.06"/>
</g>
<!-- src/shared/ui/ -->
<g id="node6" class="node">
<title>src/shared/ui/</title>
<g id="a_node6"><a xlink:href="src/shared/ui/" xlink:title="ui">
<polygon fill="#ffffcc" stroke="black" points="343.75,-105.88 291.72,-105.88 289.75,-103.9 289.75,-88.12 341.78,-88.12 343.75,-90.1 343.75,-105.88"/>
<polyline fill="none" stroke="black" points="341.78,-103.9 289.75,-103.9"/>
<polyline fill="none" stroke="black" points="341.78,-103.9 341.78,-88.12"/>
<polyline fill="none" stroke="black" points="341.78,-103.9 343.75,-105.88"/>
<text text-anchor="start" x="313" y="-93.33" font-family="Helvetica,sans-Serif" font-size="9.00">ui</text>
</a>
</g>
</g>
<!-- src/app/providers/layout/&#45;&gt;src/shared/ui/ -->
<g id="edge6" class="edge">
<title>src/app/providers/layout/&#45;&gt;src/shared/ui/</title>
<path fill="none" stroke="#000000" stroke-width="2" stroke-opacity="0.200000" d="M148.22,-84.38C153.91,-86.29 159.55,-89.05 164,-93 170.54,-98.81 164.66,-106.23 172,-111 206.78,-133.61 256.65,-121.15 287.57,-109.5"/>
<polygon fill="#000000" fill-opacity="0.200000" stroke="#000000" stroke-width="2" stroke-opacity="0.200000" points="288.14,-111.54 292.95,-107.38 286.6,-107.63 288.14,-111.54"/>
</g>
<!-- src/widgets/cart/ -->
<g id="node7" class="node">
<title>src/widgets/cart/</title>
<g id="a_node7"><a xlink:href="src/widgets/cart/" xlink:title="cart">
<polygon fill="#ffffcc" stroke="black" points="249.88,-51.88 197.85,-51.88 195.88,-49.9 195.88,-34.12 247.9,-34.12 249.88,-36.1 249.88,-51.88"/>
<polyline fill="none" stroke="black" points="247.9,-49.9 195.88,-49.9"/>
<polyline fill="none" stroke="black" points="247.9,-49.9 247.9,-34.12"/>
<polyline fill="none" stroke="black" points="247.9,-49.9 249.88,-51.88"/>
<text text-anchor="start" x="215.38" y="-39.33" font-family="Helvetica,sans-Serif" font-size="9.00">cart</text>
</a>
</g>
</g>
<!-- src/app/providers/layout/&#45;&gt;src/widgets/cart/ -->
<g id="edge7" class="edge">
<title>src/app/providers/layout/&#45;&gt;src/widgets/cart/</title>
<path fill="none" stroke="#000000" stroke-width="2" stroke-opacity="0.200000" d="M148.3,-74.27C153.74,-72.43 159.25,-70.06 164,-67 168.5,-64.1 167.49,-60.88 172,-58 176.65,-55.03 181.92,-52.62 187.25,-50.68"/>
<polygon fill="#000000" fill-opacity="0.200000" stroke="#000000" stroke-width="2" stroke-opacity="0.200000" points="187.64,-52.76 192.7,-48.92 186.35,-48.77 187.64,-52.76"/>
</g>
<!-- src/widgets/popular&#45;products/ -->
<g id="node8" class="node">
<title>src/widgets/popular&#45;products/</title>
<g id="a_node8"><a xlink:href="src/widgets/popular-products/" xlink:title="popular&#45;products">
<polygon fill="#ffffcc" stroke="black" points="265.75,-81.88 181.97,-81.88 180,-79.9 180,-64.12 263.78,-64.12 265.75,-66.1 265.75,-81.88"/>
<polyline fill="none" stroke="black" points="263.78,-79.9 180,-79.9"/>
<polyline fill="none" stroke="black" points="263.78,-79.9 263.78,-64.12"/>
<polyline fill="none" stroke="black" points="263.78,-79.9 265.75,-81.88"/>
<text text-anchor="start" x="188" y="-69.33" font-family="Helvetica,sans-Serif" font-size="9.00">popular&#45;products</text>
</a>
</g>
</g>
<!-- src/app/providers/layout/&#45;&gt;src/widgets/popular&#45;products/ -->
<g id="edge8" class="edge">
<title>src/app/providers/layout/&#45;&gt;src/widgets/popular&#45;products/</title>
<path fill="none" stroke="#000000" stroke-width="2" stroke-opacity="0.200000" d="M148.24,-78.16C155.21,-77.67 162.98,-77.13 170.79,-76.58"/>
<polygon fill="#000000" fill-opacity="0.200000" stroke="#000000" stroke-width="2" stroke-opacity="0.200000" points="170.73,-78.69 176.57,-76.18 170.44,-74.5 170.73,-78.69"/>
</g>
<!-- src/shared/ui/&#45;&gt;src/shared/di/ -->
<g id="edge11" class="edge">
<title>src/shared/ui/&#45;&gt;src/shared/di/</title>
<path fill="none" stroke="#000000" stroke-width="2" stroke-opacity="0.200000" d="M344.21,-94.93C365.86,-92.84 397.12,-88.91 423.75,-82 426.72,-81.23 429.77,-80.3 432.8,-79.3"/>
<polygon fill="#000000" fill-opacity="0.200000" stroke="#000000" stroke-width="2" stroke-opacity="0.200000" points="433.38,-81.32 438.32,-77.32 431.96,-77.36 433.38,-81.32"/>
</g>
<!-- src/shared/feature&#45;flags/ -->
<g id="node10" class="node">
<title>src/shared/feature&#45;flags/</title>
<g id="a_node10"><a xlink:href="src/shared/feature-flags/" xlink:title="feature&#45;flags">
<polygon fill="#ffffcc" stroke="black" points="423.75,-119.88 358.72,-119.88 356.75,-117.9 356.75,-102.12 421.78,-102.12 423.75,-104.1 423.75,-119.88"/>
<polyline fill="none" stroke="black" points="421.78,-117.9 356.75,-117.9"/>
<polyline fill="none" stroke="black" points="421.78,-117.9 421.78,-102.12"/>
<polyline fill="none" stroke="black" points="421.78,-117.9 423.75,-119.88"/>
<text text-anchor="start" x="364.75" y="-107.33" font-family="Helvetica,sans-Serif" font-size="9.00">feature&#45;flags</text>
</a>
</g>
</g>
<!-- src/shared/ui/&#45;&gt;src/shared/feature&#45;flags/ -->
<g id="edge12" class="edge">
<title>src/shared/ui/&#45;&gt;src/shared/feature&#45;flags/</title>
<path fill="none" stroke="#000000" stroke-width="2" stroke-opacity="0.200000" d="M343.97,-102.13C345.26,-102.39 346.58,-102.64 347.9,-102.9"/>
<polygon fill="#000000" fill-opacity="0.200000" stroke="#000000" stroke-width="2" stroke-opacity="0.200000" points="347.45,-104.95 353.74,-104.05 348.25,-100.83 347.45,-104.95"/>
</g>
<!-- src/shared/theme/ -->
<g id="node11" class="node">
<title>src/shared/theme/</title>
<g id="a_node11"><a xlink:href="src/shared/theme/" xlink:title="theme">
<polygon fill="#ffffcc" stroke="black" points="417.25,-75.88 365.22,-75.88 363.25,-73.9 363.25,-58.12 415.28,-58.12 417.25,-60.1 417.25,-75.88"/>
<polyline fill="none" stroke="black" points="415.28,-73.9 363.25,-73.9"/>
<polyline fill="none" stroke="black" points="415.28,-73.9 415.28,-58.12"/>
<polyline fill="none" stroke="black" points="415.28,-73.9 417.25,-75.88"/>
<text text-anchor="start" x="377.5" y="-63.33" font-family="Helvetica,sans-Serif" font-size="9.00">theme</text>
</a>
</g>
</g>
<!-- src/shared/ui/&#45;&gt;src/shared/theme/ -->
<g id="edge13" class="edge">
<title>src/shared/ui/&#45;&gt;src/shared/theme/</title>
<path fill="none" stroke="#000000" stroke-width="2" stroke-opacity="0.200000" d="M339.98,-87.67C346.09,-85.11 352.82,-82.29 359.29,-79.57"/>
<polygon fill="#000000" fill-opacity="0.200000" stroke="#000000" stroke-width="2" stroke-opacity="0.200000" points="359.77,-81.65 364.49,-77.39 358.14,-77.78 359.77,-81.65"/>
</g>
<!-- src/widgets/cart/&#45;&gt;src/shared/di/ -->
<g id="edge15" class="edge">
<title>src/widgets/cart/&#45;&gt;src/shared/di/</title>
<path fill="none" stroke="#000000" stroke-width="2" stroke-opacity="0.200000" d="M250.33,-36.38C289.47,-27.86 364.55,-16.45 423.75,-37 432.52,-40.04 440.87,-45.91 447.58,-51.66"/>
<polygon fill="#000000" fill-opacity="0.200000" stroke="#000000" stroke-width="2" stroke-opacity="0.200000" points="446.09,-53.14 451.93,-55.65 448.94,-50.05 446.09,-53.14"/>
</g>
<!-- src/widgets/cart/&#45;&gt;src/shared/ui/ -->
<g id="edge16" class="edge">
<title>src/widgets/cart/&#45;&gt;src/shared/ui/</title>
<path fill="none" stroke="#000000" stroke-width="2" stroke-opacity="0.200000" d="M250.15,-46.03C258.59,-48.18 267.39,-51.83 273.75,-58 281.82,-65.83 274.18,-73.69 281.75,-82 282.02,-82.3 282.3,-82.59 282.58,-82.88"/>
<polygon fill="#000000" fill-opacity="0.200000" stroke="#000000" stroke-width="2" stroke-opacity="0.200000" points="280.93,-84.25 286.96,-86.27 283.51,-80.94 280.93,-84.25"/>
</g>
<!-- src/shared/api/ -->
<g id="node9" class="node">
<title>src/shared/api/</title>
<g id="a_node9"><a xlink:href="src/shared/api/" xlink:title="api">
<polygon fill="#ffffcc" stroke="black" points="343.75,-75.88 291.72,-75.88 289.75,-73.9 289.75,-58.12 341.78,-58.12 343.75,-60.1 343.75,-75.88"/>
<polyline fill="none" stroke="black" points="341.78,-73.9 289.75,-73.9"/>
<polyline fill="none" stroke="black" points="341.78,-73.9 341.78,-58.12"/>
<polyline fill="none" stroke="black" points="341.78,-73.9 343.75,-75.88"/>
<text text-anchor="start" x="310.38" y="-63.33" font-family="Helvetica,sans-Serif" font-size="9.00">api</text>
</a>
</g>
</g>
<!-- src/widgets/cart/&#45;&gt;src/shared/api/ -->
<g id="edge14" class="edge">
<title>src/widgets/cart/&#45;&gt;src/shared/api/</title>
<path fill="none" stroke="#000000" stroke-opacity="0.200000" d="M249.96,-49.81C259.96,-52.43 271.51,-55.44 282.12,-58.22"/>
<polygon fill="none" stroke="#000000" stroke-opacity="0.200000" points="281.48,-60.22 287.82,-59.7 282.54,-56.16 281.48,-60.22"/>
</g>
<!-- src/widgets/popular&#45;products/&#45;&gt;src/shared/di/ -->
<g id="edge17" class="edge">
<title>src/widgets/popular&#45;products/&#45;&gt;src/shared/di/</title>
<path fill="none" stroke="#000000" stroke-width="2" stroke-opacity="0.200000" d="M260.42,-63.64C265,-62 269.55,-60.12 273.75,-58 277.72,-56 277.53,-53.41 281.75,-52 341.62,-32.04 361.7,-40.48 423.75,-52 427.36,-52.67 431.07,-53.66 434.69,-54.82"/>
<polygon fill="#000000" fill-opacity="0.200000" stroke="#000000" stroke-width="2" stroke-opacity="0.200000" points="433.71,-56.7 440.07,-56.74 435.13,-52.75 433.71,-56.7"/>
</g>
<!-- src/widgets/popular&#45;products/&#45;&gt;src/shared/redux/ -->
<g id="edge18" class="edge">
<title>src/widgets/popular&#45;products/&#45;&gt;src/shared/redux/</title>
<path fill="none" stroke="#000000" stroke-opacity="0.200000" d="M236.34,-82.35C247.79,-90.7 265.41,-102.99 281.75,-112 283.33,-112.87 284.97,-113.73 286.65,-114.58"/>
<polygon fill="none" stroke="#000000" stroke-opacity="0.200000" points="285.48,-116.35 291.8,-117.05 287.3,-112.56 285.48,-116.35"/>
</g>
<!-- src/widgets/popular&#45;products/&#45;&gt;src/shared/ui/ -->
<g id="edge20" class="edge">
<title>src/widgets/popular&#45;products/&#45;&gt;src/shared/ui/</title>
<path fill="none" stroke="#000000" stroke-width="2" stroke-opacity="0.200000" d="M259.66,-82.35C266.6,-84.16 273.87,-86.06 280.79,-87.87"/>
<polygon fill="#000000" fill-opacity="0.200000" stroke="#000000" stroke-width="2" stroke-opacity="0.200000" points="280.05,-89.84 286.38,-89.33 281.11,-85.78 280.05,-89.84"/>
</g>
<!-- src/widgets/popular&#45;products/&#45;&gt;src/shared/api/ -->
<g id="edge19" class="edge">
<title>src/widgets/popular&#45;products/&#45;&gt;src/shared/api/</title>
<path fill="none" stroke="#000000" stroke-opacity="0.200000" d="M266.05,-70.25C271.37,-69.9 276.77,-69.55 281.94,-69.21"/>
<polygon fill="none" stroke="#000000" stroke-opacity="0.200000" points="281.96,-71.31 287.81,-68.82 281.69,-67.12 281.96,-71.31"/>
</g>
<!-- src/shared/feature&#45;flags/&#45;&gt;src/shared/di/ -->
<g id="edge9" class="edge">
<title>src/shared/feature&#45;flags/&#45;&gt;src/shared/di/</title>
<path fill="none" stroke="#000000" stroke-width="2" stroke-opacity="0.200000" d="M408.61,-101.73C413.55,-99 418.9,-95.95 423.75,-93 429.91,-89.25 436.47,-84.98 442.43,-81"/>
<polygon fill="#000000" fill-opacity="0.200000" stroke="#000000" stroke-width="2" stroke-opacity="0.200000" points="443.26,-82.97 447.06,-77.87 440.91,-79.49 443.26,-82.97"/>
</g>
<!-- src/shared/theme/&#45;&gt;src/shared/di/ -->
<g id="edge10" class="edge">
<title>src/shared/theme/&#45;&gt;src/shared/di/</title>
<path fill="none" stroke="#000000" stroke-width="2" stroke-opacity="0.200000" d="M417.47,-67C420.77,-67 424.19,-67 427.6,-67"/>
<polygon fill="#000000" fill-opacity="0.200000" stroke="#000000" stroke-width="2" stroke-opacity="0.200000" points="427.51,-69.1 433.51,-67 427.51,-64.9 427.51,-69.1"/>
</g>
</g>
</svg>
