<?xml version="1.0" encoding="UTF-8" standalone="no"?>
<!DOCTYPE svg PUBLIC "-//W3C//DTD SVG 1.1//EN"
 "http://www.w3.org/Graphics/SVG/1.1/DTD/svg11.dtd">
<!-- Generated by graphviz version 12.0.0 (20240704.0754)
 -->
<!-- Title: dependency&#45;cruiser output Pages: 1 -->
<svg width="1654pt" height="1301pt"
 viewBox="0.00 0.00 1654.12 1300.83" xmlns="http://www.w3.org/2000/svg" xmlns:xlink="http://www.w3.org/1999/xlink">
<g id="graph0" class="graph" transform="scale(1 1) rotate(0) translate(4 1296.83)">
<title>dependency&#45;cruiser output</title>
<polygon fill="white" stroke="none" points="-4,4 -4,-1296.83 1650.12,-1296.83 1650.12,4 -4,4"/>
<g id="clust1" class="cluster">
<title>cluster_src</title>
<path fill="#ffffff" stroke="black" stroke-width="2" d="M20,-12.83C20,-12.83 1626.12,-12.83 1626.12,-12.83 1632.12,-12.83 1638.12,-18.83 1638.12,-24.83 1638.12,-24.83 1638.12,-1272.83 1638.12,-1272.83 1638.12,-1278.83 1632.12,-1284.83 1626.12,-1284.83 1626.12,-1284.83 20,-1284.83 20,-1284.83 14,-1284.83 8,-1278.83 8,-1272.83 8,-1272.83 8,-24.83 8,-24.83 8,-18.83 14,-12.83 20,-12.83"/>
<text text-anchor="middle" x="823.06" y="-1272.28" font-family="Helvetica,sans-Serif" font-weight="bold" font-size="9.00">src</text>
</g>
<g id="clust2" class="cluster">
<title>cluster_src/app</title>
<path fill="#ffffff" stroke="black" stroke-width="2" d="M28,-565.83C28,-565.83 301.62,-565.83 301.62,-565.83 307.62,-565.83 313.62,-571.83 313.62,-577.83 313.62,-577.83 313.62,-819.83 313.62,-819.83 313.62,-825.83 307.62,-831.83 301.62,-831.83 301.62,-831.83 28,-831.83 28,-831.83 22,-831.83 16,-825.83 16,-819.83 16,-819.83 16,-577.83 16,-577.83 16,-571.83 22,-565.83 28,-565.83"/>
<text text-anchor="middle" x="164.81" y="-819.28" font-family="Helvetica,sans-Serif" font-weight="bold" font-size="9.00">app</text>
</g>
<g id="clust3" class="cluster">
<title>cluster_src/app/providers</title>
<path fill="#ffffff" stroke="black" stroke-width="2" d="M103.38,-599.83C103.38,-599.83 293.62,-599.83 293.62,-599.83 299.62,-599.83 305.62,-605.83 305.62,-611.83 305.62,-611.83 305.62,-793.83 305.62,-793.83 305.62,-799.83 299.62,-805.83 293.62,-805.83 293.62,-805.83 103.38,-805.83 103.38,-805.83 97.38,-805.83 91.38,-799.83 91.38,-793.83 91.38,-793.83 91.38,-611.83 91.38,-611.83 91.38,-605.83 97.38,-599.83 103.38,-599.83"/>
<text text-anchor="middle" x="198.5" y="-793.28" font-family="Helvetica,sans-Serif" font-weight="bold" font-size="9.00">providers</text>
</g>
<g id="clust4" class="cluster">
<title>cluster_src/app/providers/diContainer</title>
<path fill="#ffffff" stroke="black" stroke-width="2" d="M111.38,-607.83C111.38,-607.83 285.62,-607.83 285.62,-607.83 291.62,-607.83 297.62,-613.83 297.62,-619.83 297.62,-619.83 297.62,-647.83 297.62,-647.83 297.62,-653.83 291.62,-659.83 285.62,-659.83 285.62,-659.83 111.38,-659.83 111.38,-659.83 105.38,-659.83 99.38,-653.83 99.38,-647.83 99.38,-647.83 99.38,-619.83 99.38,-619.83 99.38,-613.83 105.38,-607.83 111.38,-607.83"/>
<text text-anchor="middle" x="198.5" y="-647.28" font-family="Helvetica,sans-Serif" font-weight="bold" font-size="9.00">diContainer</text>
</g>
<g id="clust5" class="cluster">
<title>cluster_src/app/providers/layout</title>
<path fill="#ffffff" stroke="black" stroke-width="2" d="M122.25,-727.83C122.25,-727.83 206,-727.83 206,-727.83 212,-727.83 218,-733.83 218,-739.83 218,-739.83 218,-767.83 218,-767.83 218,-773.83 212,-779.83 206,-779.83 206,-779.83 122.25,-779.83 122.25,-779.83 116.25,-779.83 110.25,-773.83 110.25,-767.83 110.25,-767.83 110.25,-739.83 110.25,-739.83 110.25,-733.83 116.25,-727.83 122.25,-727.83"/>
<text text-anchor="middle" x="164.12" y="-767.28" font-family="Helvetica,sans-Serif" font-weight="bold" font-size="9.00">layout</text>
</g>
<g id="clust6" class="cluster">
<title>cluster_src/app/providers/redux</title>
<path fill="#ffffff" stroke="black" stroke-width="2" d="M122.62,-667.83C122.62,-667.83 284.75,-667.83 284.75,-667.83 290.75,-667.83 296.75,-673.83 296.75,-679.83 296.75,-679.83 296.75,-707.83 296.75,-707.83 296.75,-713.83 290.75,-719.83 284.75,-719.83 284.75,-719.83 122.62,-719.83 122.62,-719.83 116.62,-719.83 110.62,-713.83 110.62,-707.83 110.62,-707.83 110.62,-679.83 110.62,-679.83 110.62,-673.83 116.62,-667.83 122.62,-667.83"/>
<text text-anchor="middle" x="203.69" y="-707.28" font-family="Helvetica,sans-Serif" font-weight="bold" font-size="9.00">redux</text>
</g>
<g id="clust7" class="cluster">
<title>cluster_src/shared</title>
<path fill="#ffffff" stroke="black" stroke-width="2" d="M691,-22.83C691,-22.83 1618.12,-22.83 1618.12,-22.83 1624.12,-22.83 1630.12,-28.83 1630.12,-34.83 1630.12,-34.83 1630.12,-746.83 1630.12,-746.83 1630.12,-752.83 1624.12,-758.83 1618.12,-758.83 1618.12,-758.83 691,-758.83 691,-758.83 685,-758.83 679,-752.83 679,-746.83 679,-746.83 679,-34.83 679,-34.83 679,-28.83 685,-22.83 691,-22.83"/>
<text text-anchor="middle" x="1154.56" y="-746.28" font-family="Helvetica,sans-Serif" font-weight="bold" font-size="9.00">shared</text>
</g>
<g id="clust8" class="cluster">
<title>cluster_src/shared/api</title>
<path fill="#ffffff" stroke="black" stroke-width="2" d="M699,-650.83C699,-650.83 908.88,-650.83 908.88,-650.83 914.88,-650.83 920.88,-656.83 920.88,-662.83 920.88,-662.83 920.88,-720.83 920.88,-720.83 920.88,-726.83 914.88,-732.83 908.88,-732.83 908.88,-732.83 699,-732.83 699,-732.83 693,-732.83 687,-726.83 687,-720.83 687,-720.83 687,-662.83 687,-662.83 687,-656.83 693,-650.83 699,-650.83"/>
<text text-anchor="middle" x="803.94" y="-720.28" font-family="Helvetica,sans-Serif" font-weight="bold" font-size="9.00">api</text>
</g>
<g id="clust9" class="cluster">
<title>cluster_src/shared/di</title>
<path fill="#ffffff" stroke="black" stroke-width="2" d="M1341.12,-606.83C1341.12,-606.83 1610.12,-606.83 1610.12,-606.83 1616.12,-606.83 1622.12,-612.83 1622.12,-618.83 1622.12,-618.83 1622.12,-720.83 1622.12,-720.83 1622.12,-726.83 1616.12,-732.83 1610.12,-732.83 1610.12,-732.83 1341.12,-732.83 1341.12,-732.83 1335.12,-732.83 1329.12,-726.83 1329.12,-720.83 1329.12,-720.83 1329.12,-618.83 1329.12,-618.83 1329.12,-612.83 1335.12,-606.83 1341.12,-606.83"/>
<text text-anchor="middle" x="1475.62" y="-720.28" font-family="Helvetica,sans-Serif" font-weight="bold" font-size="9.00">di</text>
</g>
<g id="clust10" class="cluster">
<title>cluster_src/shared/di/lib</title>
<path fill="#ffffff" stroke="black" stroke-width="2" d="M1468.62,-614.83C1468.62,-614.83 1523.88,-614.83 1523.88,-614.83 1529.88,-614.83 1535.88,-620.83 1535.88,-626.83 1535.88,-626.83 1535.88,-684.83 1535.88,-684.83 1535.88,-690.83 1529.88,-696.83 1523.88,-696.83 1523.88,-696.83 1468.62,-696.83 1468.62,-696.83 1462.62,-696.83 1456.62,-690.83 1456.62,-684.83 1456.62,-684.83 1456.62,-626.83 1456.62,-626.83 1456.62,-620.83 1462.62,-614.83 1468.62,-614.83"/>
<text text-anchor="middle" x="1496.25" y="-684.28" font-family="Helvetica,sans-Serif" font-weight="bold" font-size="9.00">lib</text>
</g>
<g id="clust11" class="cluster">
<title>cluster_src/shared/di/model</title>
<path fill="#ffffff" stroke="black" stroke-width="2" d="M1555.88,-649.83C1555.88,-649.83 1602.12,-649.83 1602.12,-649.83 1608.12,-649.83 1614.12,-655.83 1614.12,-661.83 1614.12,-661.83 1614.12,-689.83 1614.12,-689.83 1614.12,-695.83 1608.12,-701.83 1602.12,-701.83 1602.12,-701.83 1555.88,-701.83 1555.88,-701.83 1549.88,-701.83 1543.88,-695.83 1543.88,-689.83 1543.88,-689.83 1543.88,-661.83 1543.88,-661.83 1543.88,-655.83 1549.88,-649.83 1555.88,-649.83"/>
<text text-anchor="middle" x="1579" y="-689.28" font-family="Helvetica,sans-Serif" font-weight="bold" font-size="9.00">model</text>
</g>
<g id="clust12" class="cluster">
<title>cluster_src/shared/feature&#45;flags</title>
<path fill="#ffffff" stroke="black" stroke-width="2" d="M983.25,-30.83C983.25,-30.83 1395.12,-30.83 1395.12,-30.83 1401.12,-30.83 1407.12,-36.83 1407.12,-42.83 1407.12,-42.83 1407.12,-198.83 1407.12,-198.83 1407.12,-204.83 1401.12,-210.83 1395.12,-210.83 1395.12,-210.83 983.25,-210.83 983.25,-210.83 977.25,-210.83 971.25,-204.83 971.25,-198.83 971.25,-198.83 971.25,-42.83 971.25,-42.83 971.25,-36.83 977.25,-30.83 983.25,-30.83"/>
<text text-anchor="middle" x="1189.19" y="-198.28" font-family="Helvetica,sans-Serif" font-weight="bold" font-size="9.00">feature&#45;flags</text>
</g>
<g id="clust13" class="cluster">
<title>cluster_src/shared/feature&#45;flags/model</title>
<path fill="#ffffff" stroke="black" stroke-width="2" d="M1167.88,-132.83C1167.88,-132.83 1387.12,-132.83 1387.12,-132.83 1393.12,-132.83 1399.12,-138.83 1399.12,-144.83 1399.12,-144.83 1399.12,-172.83 1399.12,-172.83 1399.12,-178.83 1393.12,-184.83 1387.12,-184.83 1387.12,-184.83 1167.88,-184.83 1167.88,-184.83 1161.88,-184.83 1155.88,-178.83 1155.88,-172.83 1155.88,-172.83 1155.88,-144.83 1155.88,-144.83 1155.88,-138.83 1161.88,-132.83 1167.88,-132.83"/>
<text text-anchor="middle" x="1277.5" y="-172.28" font-family="Helvetica,sans-Serif" font-weight="bold" font-size="9.00">model</text>
</g>
<g id="clust14" class="cluster">
<title>cluster_src/shared/feature&#45;flags/ui</title>
<path fill="#ffffff" stroke="black" stroke-width="2" d="M991.25,-38.83C991.25,-38.83 1283.62,-38.83 1283.62,-38.83 1289.62,-38.83 1295.62,-44.83 1295.62,-50.83 1295.62,-50.83 1295.62,-112.83 1295.62,-112.83 1295.62,-118.83 1289.62,-124.83 1283.62,-124.83 1283.62,-124.83 991.25,-124.83 991.25,-124.83 985.25,-124.83 979.25,-118.83 979.25,-112.83 979.25,-112.83 979.25,-50.83 979.25,-50.83 979.25,-44.83 985.25,-38.83 991.25,-38.83"/>
<text text-anchor="middle" x="1137.44" y="-112.28" font-family="Helvetica,sans-Serif" font-weight="bold" font-size="9.00">ui</text>
</g>
<g id="clust15" class="cluster">
<title>cluster_src/shared/feature&#45;flags/ui/FeatureToggle</title>
<path fill="#ffffff" stroke="black" stroke-width="2" d="M999.25,-46.83C999.25,-46.83 1275.62,-46.83 1275.62,-46.83 1281.62,-46.83 1287.62,-52.83 1287.62,-58.83 1287.62,-58.83 1287.62,-86.83 1287.62,-86.83 1287.62,-92.83 1281.62,-98.83 1275.62,-98.83 1275.62,-98.83 999.25,-98.83 999.25,-98.83 993.25,-98.83 987.25,-92.83 987.25,-86.83 987.25,-86.83 987.25,-58.83 987.25,-58.83 987.25,-52.83 993.25,-46.83 999.25,-46.83"/>
<text text-anchor="middle" x="1137.44" y="-86.28" font-family="Helvetica,sans-Serif" font-weight="bold" font-size="9.00">FeatureToggle</text>
</g>
<g id="clust16" class="cluster">
<title>cluster_src/shared/theme</title>
<path fill="#ffffff" stroke="black" stroke-width="2" d="M1016.62,-218.83C1016.62,-218.83 1436.62,-218.83 1436.62,-218.83 1442.62,-218.83 1448.62,-224.83 1448.62,-230.83 1448.62,-230.83 1448.62,-386.83 1448.62,-386.83 1448.62,-392.83 1442.62,-398.83 1436.62,-398.83 1436.62,-398.83 1016.62,-398.83 1016.62,-398.83 1010.62,-398.83 1004.62,-392.83 1004.62,-386.83 1004.62,-386.83 1004.62,-230.83 1004.62,-230.83 1004.62,-224.83 1010.62,-218.83 1016.62,-218.83"/>
<text text-anchor="middle" x="1226.62" y="-386.28" font-family="Helvetica,sans-Serif" font-weight="bold" font-size="9.00">theme</text>
</g>
<g id="clust17" class="cluster">
<title>cluster_src/shared/theme/model</title>
<path fill="#ffffff" stroke="black" stroke-width="2" d="M1180.62,-226.83C1180.62,-226.83 1254.62,-226.83 1254.62,-226.83 1260.62,-226.83 1266.62,-232.83 1266.62,-238.83 1266.62,-238.83 1266.62,-266.83 1266.62,-266.83 1266.62,-272.83 1260.62,-278.83 1254.62,-278.83 1254.62,-278.83 1180.62,-278.83 1180.62,-278.83 1174.62,-278.83 1168.62,-272.83 1168.62,-266.83 1168.62,-266.83 1168.62,-238.83 1168.62,-238.83 1168.62,-232.83 1174.62,-226.83 1180.62,-226.83"/>
<text text-anchor="middle" x="1217.62" y="-266.28" font-family="Helvetica,sans-Serif" font-weight="bold" font-size="9.00">model</text>
</g>
<g id="clust18" class="cluster">
<title>cluster_src/shared/theme/ui</title>
<path fill="#ffffff" stroke="black" stroke-width="2" d="M1170.75,-286.83C1170.75,-286.83 1428.62,-286.83 1428.62,-286.83 1434.62,-286.83 1440.62,-292.83 1440.62,-298.83 1440.62,-298.83 1440.62,-360.83 1440.62,-360.83 1440.62,-366.83 1434.62,-372.83 1428.62,-372.83 1428.62,-372.83 1170.75,-372.83 1170.75,-372.83 1164.75,-372.83 1158.75,-366.83 1158.75,-360.83 1158.75,-360.83 1158.75,-298.83 1158.75,-298.83 1158.75,-292.83 1164.75,-286.83 1170.75,-286.83"/>
<text text-anchor="middle" x="1299.69" y="-360.28" font-family="Helvetica,sans-Serif" font-weight="bold" font-size="9.00">ui</text>
</g>
<g id="clust19" class="cluster">
<title>cluster_src/shared/theme/ui/ThemeToggle</title>
<path fill="#ffffff" stroke="black" stroke-width="2" d="M1178.75,-294.83C1178.75,-294.83 1420.62,-294.83 1420.62,-294.83 1426.62,-294.83 1432.62,-300.83 1432.62,-306.83 1432.62,-306.83 1432.62,-334.83 1432.62,-334.83 1432.62,-340.83 1426.62,-346.83 1420.62,-346.83 1420.62,-346.83 1178.75,-346.83 1178.75,-346.83 1172.75,-346.83 1166.75,-340.83 1166.75,-334.83 1166.75,-334.83 1166.75,-306.83 1166.75,-306.83 1166.75,-300.83 1172.75,-294.83 1178.75,-294.83"/>
<text text-anchor="middle" x="1299.69" y="-334.28" font-family="Helvetica,sans-Serif" font-weight="bold" font-size="9.00">ThemeToggle</text>
</g>
<g id="clust20" class="cluster">
<title>cluster_src/shared/ui</title>
<path fill="#ffffff" stroke="black" stroke-width="2" d="M699,-406.83C699,-406.83 1135.62,-406.83 1135.62,-406.83 1141.62,-406.83 1147.62,-412.83 1147.62,-418.83 1147.62,-418.83 1147.62,-630.83 1147.62,-630.83 1147.62,-636.83 1141.62,-642.83 1135.62,-642.83 1135.62,-642.83 699,-642.83 699,-642.83 693,-642.83 687,-636.83 687,-630.83 687,-630.83 687,-418.83 687,-418.83 687,-412.83 693,-406.83 699,-406.83"/>
<text text-anchor="middle" x="917.31" y="-630.28" font-family="Helvetica,sans-Serif" font-weight="bold" font-size="9.00">ui</text>
</g>
<g id="clust21" class="cluster">
<title>cluster_src/shared/ui/AddToCartButton</title>
<path fill="#ffffff" stroke="black" stroke-width="2" d="M839.38,-414.83C839.38,-414.83 1127.62,-414.83 1127.62,-414.83 1133.62,-414.83 1139.62,-420.83 1139.62,-426.83 1139.62,-426.83 1139.62,-484.83 1139.62,-484.83 1139.62,-490.83 1133.62,-496.83 1127.62,-496.83 1127.62,-496.83 839.38,-496.83 839.38,-496.83 833.38,-496.83 827.38,-490.83 827.38,-484.83 827.38,-484.83 827.38,-426.83 827.38,-426.83 827.38,-420.83 833.38,-414.83 839.38,-414.83"/>
<text text-anchor="middle" x="983.5" y="-484.28" font-family="Helvetica,sans-Serif" font-weight="bold" font-size="9.00">AddToCartButton</text>
</g>
<g id="clust22" class="cluster">
<title>cluster_src/shared/ui/Layout</title>
<path fill="#ffffff" stroke="black" stroke-width="2" d="M860.38,-504.83C860.38,-504.83 1081.88,-504.83 1081.88,-504.83 1087.88,-504.83 1093.88,-510.83 1093.88,-516.83 1093.88,-516.83 1093.88,-544.83 1093.88,-544.83 1093.88,-550.83 1087.88,-556.83 1081.88,-556.83 1081.88,-556.83 860.38,-556.83 860.38,-556.83 854.38,-556.83 848.38,-550.83 848.38,-544.83 848.38,-544.83 848.38,-516.83 848.38,-516.83 848.38,-510.83 854.38,-504.83 860.38,-504.83"/>
<text text-anchor="middle" x="971.12" y="-544.28" font-family="Helvetica,sans-Serif" font-weight="bold" font-size="9.00">Layout</text>
</g>
<g id="clust23" class="cluster">
<title>cluster_src/shared/ui/Price</title>
<path fill="#ffffff" stroke="black" stroke-width="2" d="M862,-564.83C862,-564.83 908,-564.83 908,-564.83 914,-564.83 920,-570.83 920,-576.83 920,-576.83 920,-604.83 920,-604.83 920,-610.83 914,-616.83 908,-616.83 908,-616.83 862,-616.83 862,-616.83 856,-616.83 850,-610.83 850,-604.83 850,-604.83 850,-576.83 850,-576.83 850,-570.83 856,-564.83 862,-564.83"/>
<text text-anchor="middle" x="885" y="-604.28" font-family="Helvetica,sans-Serif" font-weight="bold" font-size="9.00">Price</text>
</g>
<g id="clust24" class="cluster">
<title>cluster_src/widgets</title>
<path fill="#ffffff" stroke="black" stroke-width="2" d="M333.62,-766.83C333.62,-766.83 807.38,-766.83 807.38,-766.83 813.38,-766.83 819.38,-772.83 819.38,-778.83 819.38,-778.83 819.38,-1246.83 819.38,-1246.83 819.38,-1252.83 813.38,-1258.83 807.38,-1258.83 807.38,-1258.83 333.62,-1258.83 333.62,-1258.83 327.62,-1258.83 321.62,-1252.83 321.62,-1246.83 321.62,-1246.83 321.62,-778.83 321.62,-778.83 321.62,-772.83 327.62,-766.83 333.62,-766.83"/>
<text text-anchor="middle" x="570.5" y="-1246.28" font-family="Helvetica,sans-Serif" font-weight="bold" font-size="9.00">widgets</text>
</g>
<g id="clust25" class="cluster">
<title>cluster_src/widgets/cart</title>
<path fill="#ffffff" stroke="black" stroke-width="2" d="M341.62,-774.83C341.62,-774.83 626.75,-774.83 626.75,-774.83 632.75,-774.83 638.75,-780.83 638.75,-786.83 638.75,-786.83 638.75,-942.83 638.75,-942.83 638.75,-948.83 632.75,-954.83 626.75,-954.83 626.75,-954.83 341.62,-954.83 341.62,-954.83 335.62,-954.83 329.62,-948.83 329.62,-942.83 329.62,-942.83 329.62,-786.83 329.62,-786.83 329.62,-780.83 335.62,-774.83 341.62,-774.83"/>
<text text-anchor="middle" x="484.19" y="-942.28" font-family="Helvetica,sans-Serif" font-weight="bold" font-size="9.00">cart</text>
</g>
<g id="clust26" class="cluster">
<title>cluster_src/widgets/cart/store</title>
<path fill="#ffffff" stroke="black" stroke-width="2" d="M546.5,-782.83C546.5,-782.83 601,-782.83 601,-782.83 607,-782.83 613,-788.83 613,-794.83 613,-794.83 613,-822.83 613,-822.83 613,-828.83 607,-834.83 601,-834.83 601,-834.83 546.5,-834.83 546.5,-834.83 540.5,-834.83 534.5,-828.83 534.5,-822.83 534.5,-822.83 534.5,-794.83 534.5,-794.83 534.5,-788.83 540.5,-782.83 546.5,-782.83"/>
<text text-anchor="middle" x="573.75" y="-822.28" font-family="Helvetica,sans-Serif" font-weight="bold" font-size="9.00">store</text>
</g>
<g id="clust27" class="cluster">
<title>cluster_src/widgets/cart/ui</title>
<path fill="#ffffff" stroke="black" stroke-width="2" d="M422.25,-842.83C422.25,-842.83 618.75,-842.83 618.75,-842.83 624.75,-842.83 630.75,-848.83 630.75,-854.83 630.75,-854.83 630.75,-916.83 630.75,-916.83 630.75,-922.83 624.75,-928.83 618.75,-928.83 618.75,-928.83 422.25,-928.83 422.25,-928.83 416.25,-928.83 410.25,-922.83 410.25,-916.83 410.25,-916.83 410.25,-854.83 410.25,-854.83 410.25,-848.83 416.25,-842.83 422.25,-842.83"/>
<text text-anchor="middle" x="520.5" y="-916.28" font-family="Helvetica,sans-Serif" font-weight="bold" font-size="9.00">ui</text>
</g>
<g id="clust28" class="cluster">
<title>cluster_src/widgets/cart/ui/Cart</title>
<path fill="#ffffff" stroke="black" stroke-width="2" d="M430.25,-850.83C430.25,-850.83 610.75,-850.83 610.75,-850.83 616.75,-850.83 622.75,-856.83 622.75,-862.83 622.75,-862.83 622.75,-890.83 622.75,-890.83 622.75,-896.83 616.75,-902.83 610.75,-902.83 610.75,-902.83 430.25,-902.83 430.25,-902.83 424.25,-902.83 418.25,-896.83 418.25,-890.83 418.25,-890.83 418.25,-862.83 418.25,-862.83 418.25,-856.83 424.25,-850.83 430.25,-850.83"/>
<text text-anchor="middle" x="520.5" y="-890.28" font-family="Helvetica,sans-Serif" font-weight="bold" font-size="9.00">Cart</text>
</g>
<g id="clust29" class="cluster">
<title>cluster_src/widgets/popular&#45;products</title>
<path fill="#ffffff" stroke="black" stroke-width="2" d="M341.62,-962.83C341.62,-962.83 799.38,-962.83 799.38,-962.83 805.38,-962.83 811.38,-968.83 811.38,-974.83 811.38,-974.83 811.38,-1220.83 811.38,-1220.83 811.38,-1226.83 805.38,-1232.83 799.38,-1232.83 799.38,-1232.83 341.62,-1232.83 341.62,-1232.83 335.62,-1232.83 329.62,-1226.83 329.62,-1220.83 329.62,-1220.83 329.62,-974.83 329.62,-974.83 329.62,-968.83 335.62,-962.83 341.62,-962.83"/>
<text text-anchor="middle" x="570.5" y="-1220.28" font-family="Helvetica,sans-Serif" font-weight="bold" font-size="9.00">popular&#45;products</text>
</g>
<g id="clust30" class="cluster">
<title>cluster_src/widgets/popular&#45;products/api</title>
<path fill="#ffffff" stroke="black" stroke-width="2" d="M673,-970.83C673,-970.83 771,-970.83 771,-970.83 777,-970.83 783,-976.83 783,-982.83 783,-982.83 783,-1010.83 783,-1010.83 783,-1016.83 777,-1022.83 771,-1022.83 771,-1022.83 673,-1022.83 673,-1022.83 667,-1022.83 661,-1016.83 661,-1010.83 661,-1010.83 661,-982.83 661,-982.83 661,-976.83 667,-970.83 673,-970.83"/>
<text text-anchor="middle" x="722" y="-1010.28" font-family="Helvetica,sans-Serif" font-weight="bold" font-size="9.00">api</text>
</g>
<g id="clust31" class="cluster">
<title>cluster_src/widgets/popular&#45;products/store</title>
<path fill="#ffffff" stroke="black" stroke-width="2" d="M510.88,-970.83C510.88,-970.83 636.62,-970.83 636.62,-970.83 642.62,-970.83 648.62,-976.83 648.62,-982.83 648.62,-982.83 648.62,-1040.83 648.62,-1040.83 648.62,-1046.83 642.62,-1052.83 636.62,-1052.83 636.62,-1052.83 510.88,-1052.83 510.88,-1052.83 504.88,-1052.83 498.88,-1046.83 498.88,-1040.83 498.88,-1040.83 498.88,-982.83 498.88,-982.83 498.88,-976.83 504.88,-970.83 510.88,-970.83"/>
<text text-anchor="middle" x="573.75" y="-1040.28" font-family="Helvetica,sans-Serif" font-weight="bold" font-size="9.00">store</text>
</g>
<g id="clust32" class="cluster">
<title>cluster_src/widgets/popular&#45;products/ui</title>
<path fill="#ffffff" stroke="black" stroke-width="2" d="M411.62,-1060.83C411.62,-1060.83 791.38,-1060.83 791.38,-1060.83 797.38,-1060.83 803.38,-1066.83 803.38,-1072.83 803.38,-1072.83 803.38,-1194.83 803.38,-1194.83 803.38,-1200.83 797.38,-1206.83 791.38,-1206.83 791.38,-1206.83 411.62,-1206.83 411.62,-1206.83 405.62,-1206.83 399.62,-1200.83 399.62,-1194.83 399.62,-1194.83 399.62,-1072.83 399.62,-1072.83 399.62,-1066.83 405.62,-1060.83 411.62,-1060.83"/>
<text text-anchor="middle" x="601.5" y="-1194.28" font-family="Helvetica,sans-Serif" font-weight="bold" font-size="9.00">ui</text>
</g>
<g id="clust33" class="cluster">
<title>cluster_src/widgets/popular&#45;products/ui/ProductList</title>
<path fill="#ffffff" stroke="black" stroke-width="2" d="M419.62,-1068.83C419.62,-1068.83 625,-1068.83 625,-1068.83 631,-1068.83 637,-1074.83 637,-1080.83 637,-1080.83 637,-1108.83 637,-1108.83 637,-1114.83 631,-1120.83 625,-1120.83 625,-1120.83 419.62,-1120.83 419.62,-1120.83 413.62,-1120.83 407.62,-1114.83 407.62,-1108.83 407.62,-1108.83 407.62,-1080.83 407.62,-1080.83 407.62,-1074.83 413.62,-1068.83 419.62,-1068.83"/>
<text text-anchor="middle" x="522.31" y="-1108.28" font-family="Helvetica,sans-Serif" font-weight="bold" font-size="9.00">ProductList</text>
</g>
<g id="clust34" class="cluster">
<title>cluster_src/widgets/popular&#45;products/ui/ProductListCard</title>
<path fill="#ffffff" stroke="black" stroke-width="2" d="M530,-1128.83C530,-1128.83 783.38,-1128.83 783.38,-1128.83 789.38,-1128.83 795.38,-1134.83 795.38,-1140.83 795.38,-1140.83 795.38,-1168.83 795.38,-1168.83 795.38,-1174.83 789.38,-1180.83 783.38,-1180.83 783.38,-1180.83 530,-1180.83 530,-1180.83 524,-1180.83 518,-1174.83 518,-1168.83 518,-1168.83 518,-1140.83 518,-1140.83 518,-1134.83 524,-1128.83 530,-1128.83"/>
<text text-anchor="middle" x="656.69" y="-1168.28" font-family="Helvetica,sans-Serif" font-weight="bold" font-size="9.00">ProductListCard</text>
</g>
<!-- src/app/entry.tsx -->
<g id="node1" class="node">
<title>src/app/entry.tsx</title>
<g id="a_node1"><a xlink:href="src/app/entry.tsx" xlink:title="entry.tsx">
<path fill="#bbfeff" stroke="black" d="M72.08,-663.71C72.08,-663.71 29.92,-663.71 29.92,-663.71 26.96,-663.71 24,-660.75 24,-657.79 24,-657.79 24,-651.87 24,-651.87 24,-648.92 26.96,-645.96 29.92,-645.96 29.92,-645.96 72.08,-645.96 72.08,-645.96 75.04,-645.96 78,-648.92 78,-651.87 78,-651.87 78,-657.79 78,-657.79 78,-660.75 75.04,-663.71 72.08,-663.71"/>
<text text-anchor="start" x="34.12" y="-651.16" font-family="Helvetica,sans-Serif" font-size="9.00">entry.tsx</text>
</a>
</g>
</g>
<!-- src/app/index.css -->
<g id="node2" class="node">
<title>src/app/index.css</title>
<g id="a_node2"><a xlink:href="src/app/index.css" xlink:title="index.css">
<path fill="#ffffcc" stroke="black" d="M185.33,-591.71C185.33,-591.71 142.92,-591.71 142.92,-591.71 139.96,-591.71 137,-588.75 137,-585.79 137,-585.79 137,-579.87 137,-579.87 137,-576.92 139.96,-573.96 142.92,-573.96 142.92,-573.96 185.33,-573.96 185.33,-573.96 188.29,-573.96 191.25,-576.92 191.25,-579.87 191.25,-579.87 191.25,-585.79 191.25,-585.79 191.25,-588.75 188.29,-591.71 185.33,-591.71"/>
<text text-anchor="start" x="145" y="-579.16" font-family="Helvetica,sans-Serif" font-size="9.00">index.css</text>
</a>
</g>
</g>
<!-- src/app/entry.tsx&#45;&gt;src/app/index.css -->
<g id="edge1" class="edge">
<title>src/app/entry.tsx&#45;&gt;src/app/index.css</title>
<path fill="none" stroke="#000000" stroke-width="2" stroke-opacity="0.200000" d="M56.87,-645.68C63.31,-634.45 75.7,-615.57 91.38,-604.83 102.19,-597.43 115.58,-592.44 127.86,-589.12"/>
<polygon fill="#000000" fill-opacity="0.200000" stroke="#000000" stroke-width="2" stroke-opacity="0.200000" points="128.28,-591.18 133.6,-587.71 127.28,-587.1 128.28,-591.18"/>
</g>
<!-- src/app/providers/diContainer/DIContainerProvider.tsx -->
<g id="node3" class="node">
<title>src/app/providers/diContainer/DIContainerProvider.tsx</title>
<g id="a_node3"><a xlink:href="src/app/providers/diContainer/DIContainerProvider.tsx" xlink:title="DIContainerProvider.tsx">
<path fill="#bbfeff" stroke="black" d="M214.96,-633.71C214.96,-633.71 113.29,-633.71 113.29,-633.71 110.33,-633.71 107.38,-630.75 107.38,-627.79 107.38,-627.79 107.38,-621.87 107.38,-621.87 107.38,-618.92 110.33,-615.96 113.29,-615.96 113.29,-615.96 214.96,-615.96 214.96,-615.96 217.92,-615.96 220.88,-618.92 220.88,-621.87 220.88,-621.87 220.88,-627.79 220.88,-627.79 220.88,-630.75 217.92,-633.71 214.96,-633.71"/>
<text text-anchor="start" x="115.38" y="-621.16" font-family="Helvetica,sans-Serif" font-size="9.00">DIContainerProvider.tsx</text>
</a>
</g>
</g>
<!-- src/app/entry.tsx&#45;&gt;src/app/providers/diContainer/DIContainerProvider.tsx -->
<g id="edge2" class="edge">
<title>src/app/entry.tsx&#45;&gt;src/app/providers/diContainer/DIContainerProvider.tsx</title>
<path fill="none" stroke="#000000" stroke-width="2" stroke-opacity="0.200000" d="M78.34,-647.72C90.77,-644.37 105.94,-640.27 119.99,-636.48"/>
<polygon fill="#000000" fill-opacity="0.200000" stroke="#000000" stroke-width="2" stroke-opacity="0.200000" points="120.39,-638.54 125.64,-634.95 119.3,-634.49 120.39,-638.54"/>
</g>
<!-- src/app/providers/layout/LayoutProvider.tsx -->
<g id="node4" class="node">
<title>src/app/providers/layout/LayoutProvider.tsx</title>
<g id="a_node4"><a xlink:href="src/app/providers/layout/LayoutProvider.tsx" xlink:title="LayoutProvider.tsx">
<path fill="#bbfeff" stroke="black" d="M204.08,-753.71C204.08,-753.71 124.17,-753.71 124.17,-753.71 121.21,-753.71 118.25,-750.75 118.25,-747.79 118.25,-747.79 118.25,-741.87 118.25,-741.87 118.25,-738.92 121.21,-735.96 124.17,-735.96 124.17,-735.96 204.08,-735.96 204.08,-735.96 207.04,-735.96 210,-738.92 210,-741.87 210,-741.87 210,-747.79 210,-747.79 210,-750.75 207.04,-753.71 204.08,-753.71"/>
<text text-anchor="start" x="126.25" y="-741.16" font-family="Helvetica,sans-Serif" font-size="9.00">LayoutProvider.tsx</text>
</a>
</g>
</g>
<!-- src/app/entry.tsx&#45;&gt;src/app/providers/layout/LayoutProvider.tsx -->
<g id="edge3" class="edge">
<title>src/app/entry.tsx&#45;&gt;src/app/providers/layout/LayoutProvider.tsx</title>
<path fill="none" stroke="#000000" stroke-width="2" stroke-opacity="0.200000" d="M78.22,-663C80.17,-664.37 81.93,-665.97 83.38,-667.83 98.54,-687.33 75.29,-704.08 91.38,-722.83 96.31,-728.59 102.72,-732.87 109.66,-736.04"/>
<polygon fill="#000000" fill-opacity="0.200000" stroke="#000000" stroke-width="2" stroke-opacity="0.200000" points="108.83,-737.97 115.19,-738.18 110.35,-734.05 108.83,-737.97"/>
</g>
<!-- src/app/providers/redux/ReduxProvider.tsx -->
<g id="node5" class="node">
<title>src/app/providers/redux/ReduxProvider.tsx</title>
<g id="a_node5"><a xlink:href="src/app/providers/redux/ReduxProvider.tsx" xlink:title="ReduxProvider.tsx">
<path fill="#bbfeff" stroke="black" d="M203.71,-693.71C203.71,-693.71 124.54,-693.71 124.54,-693.71 121.58,-693.71 118.62,-690.75 118.62,-687.79 118.62,-687.79 118.62,-681.87 118.62,-681.87 118.62,-678.92 121.58,-675.96 124.54,-675.96 124.54,-675.96 203.71,-675.96 203.71,-675.96 206.67,-675.96 209.62,-678.92 209.62,-681.87 209.62,-681.87 209.62,-687.79 209.62,-687.79 209.62,-690.75 206.67,-693.71 203.71,-693.71"/>
<text text-anchor="start" x="126.62" y="-681.16" font-family="Helvetica,sans-Serif" font-size="9.00">ReduxProvider.tsx</text>
</a>
</g>
</g>
<!-- src/app/entry.tsx&#45;&gt;src/app/providers/redux/ReduxProvider.tsx -->
<g id="edge4" class="edge">
<title>src/app/entry.tsx&#45;&gt;src/app/providers/redux/ReduxProvider.tsx</title>
<path fill="none" stroke="#000000" stroke-width="2" stroke-opacity="0.200000" d="M78.34,-661.94C90.77,-665.3 105.94,-669.39 119.99,-673.19"/>
<polygon fill="#000000" fill-opacity="0.200000" stroke="#000000" stroke-width="2" stroke-opacity="0.200000" points="119.3,-675.18 125.64,-674.71 120.39,-671.12 119.3,-675.18"/>
</g>
<!-- src/app/providers/diContainer/register.ts -->
<g id="node6" class="node">
<title>src/app/providers/diContainer/register.ts</title>
<g id="a_node6"><a xlink:href="src/app/providers/diContainer/register.ts" xlink:title="register.ts">
<path fill="#ddfeff" stroke="black" d="M283.71,-633.71C283.71,-633.71 239.79,-633.71 239.79,-633.71 236.83,-633.71 233.88,-630.75 233.88,-627.79 233.88,-627.79 233.88,-621.87 233.88,-621.87 233.88,-618.92 236.83,-615.96 239.79,-615.96 239.79,-615.96 283.71,-615.96 283.71,-615.96 286.67,-615.96 289.62,-618.92 289.62,-621.87 289.62,-621.87 289.62,-627.79 289.62,-627.79 289.62,-630.75 286.67,-633.71 283.71,-633.71"/>
<text text-anchor="start" x="241.88" y="-621.16" font-family="Helvetica,sans-Serif" font-size="9.00">register.ts</text>
</a>
</g>
</g>
<!-- src/app/providers/diContainer/DIContainerProvider.tsx&#45;&gt;src/app/providers/diContainer/register.ts -->
<g id="edge5" class="edge">
<title>src/app/providers/diContainer/DIContainerProvider.tsx&#45;&gt;src/app/providers/diContainer/register.ts</title>
<path fill="none" stroke="#000000" stroke-width="2" stroke-opacity="0.200000" d="M221.3,-624.83C222.49,-624.83 223.67,-624.83 224.85,-624.83"/>
<polygon fill="#000000" fill-opacity="0.200000" stroke="#000000" stroke-width="2" stroke-opacity="0.200000" points="224.55,-626.93 230.55,-624.83 224.55,-622.73 224.55,-626.93"/>
</g>
<!-- src/shared/di/index.ts -->
<g id="node7" class="node">
<title>src/shared/di/index.ts</title>
<g id="a_node7"><a xlink:href="src/shared/di/index.ts" xlink:title="index.ts">
<path fill="#ddfeff" stroke="black" d="M1385.21,-706.71C1385.21,-706.71 1343.04,-706.71 1343.04,-706.71 1340.08,-706.71 1337.12,-703.75 1337.12,-700.79 1337.12,-700.79 1337.12,-694.87 1337.12,-694.87 1337.12,-691.92 1340.08,-688.96 1343.04,-688.96 1343.04,-688.96 1385.21,-688.96 1385.21,-688.96 1388.17,-688.96 1391.12,-691.92 1391.12,-694.87 1391.12,-694.87 1391.12,-700.79 1391.12,-700.79 1391.12,-703.75 1388.17,-706.71 1385.21,-706.71"/>
<text text-anchor="start" x="1348.38" y="-694.16" font-family="Helvetica,sans-Serif" font-size="9.00">index.ts</text>
</a>
</g>
</g>
<!-- src/app/providers/diContainer/DIContainerProvider.tsx&#45;&gt;src/shared/di/index.ts -->
<g id="edge6" class="edge">
<title>src/app/providers/diContainer/DIContainerProvider.tsx&#45;&gt;src/shared/di/index.ts</title>
<path fill="none" stroke="#000000" stroke-width="2" stroke-opacity="0.200000" d="M184.77,-634.2C196.98,-641.03 212,-651.42 220.88,-664.83 235.45,-686.86 213.58,-705.92 233.88,-722.83 254.68,-740.17 693.92,-741.83 721,-741.83 721,-741.83 721,-741.83 1040.62,-741.83 1146.24,-741.83 1269.54,-718.38 1328.41,-705.72"/>
<polygon fill="#000000" fill-opacity="0.200000" stroke="#000000" stroke-width="2" stroke-opacity="0.200000" points="1328.58,-707.83 1334,-704.5 1327.69,-703.73 1328.58,-707.83"/>
</g>
<!-- src/app/providers/layout/LayoutProvider.tsx&#45;&gt;src/shared/di/index.ts -->
<g id="edge11" class="edge">
<title>src/app/providers/layout/LayoutProvider.tsx&#45;&gt;src/shared/di/index.ts</title>
<path fill="none" stroke="#000000" stroke-width="2" stroke-opacity="0.200000" d="M210.41,-749.13C250.61,-752.57 310.97,-756.83 363.62,-756.83 363.62,-756.83 363.62,-756.83 1040.62,-756.83 1097.34,-756.83 1241.98,-764.25 1295.62,-745.83 1315.59,-738.98 1334.86,-724.2 1347.66,-712.84"/>
<polygon fill="#000000" fill-opacity="0.200000" stroke="#000000" stroke-width="2" stroke-opacity="0.200000" points="1348.84,-714.6 1351.84,-709 1346,-711.51 1348.84,-714.6"/>
</g>
<!-- src/widgets/cart/index.ts -->
<g id="node10" class="node">
<title>src/widgets/cart/index.ts</title>
<g id="a_node10"><a xlink:href="src/widgets/cart/index.ts" xlink:title="index.ts">
<path fill="#ddfeff" stroke="black" d="M385.71,-804.71C385.71,-804.71 343.54,-804.71 343.54,-804.71 340.58,-804.71 337.62,-801.75 337.62,-798.79 337.62,-798.79 337.62,-792.87 337.62,-792.87 337.62,-789.92 340.58,-786.96 343.54,-786.96 343.54,-786.96 385.71,-786.96 385.71,-786.96 388.67,-786.96 391.62,-789.92 391.62,-792.87 391.62,-792.87 391.62,-798.79 391.62,-798.79 391.62,-801.75 388.67,-804.71 385.71,-804.71"/>
<text text-anchor="start" x="348.88" y="-792.16" font-family="Helvetica,sans-Serif" font-size="9.00">index.ts</text>
</a>
</g>
</g>
<!-- src/app/providers/layout/LayoutProvider.tsx&#45;&gt;src/widgets/cart/index.ts -->
<g id="edge13" class="edge">
<title>src/app/providers/layout/LayoutProvider.tsx&#45;&gt;src/widgets/cart/index.ts</title>
<path fill="none" stroke="#000000" stroke-width="2" stroke-opacity="0.200000" d="M201.53,-754.19C237.75,-763.49 292.93,-777.67 328.64,-786.84"/>
<polygon fill="#000000" fill-opacity="0.200000" stroke="#000000" stroke-width="2" stroke-opacity="0.200000" points="328.01,-788.85 334.34,-788.31 329.05,-784.78 328.01,-788.85"/>
</g>
<!-- src/shared/ui/index.ts -->
<g id="node11" class="node">
<title>src/shared/ui/index.ts</title>
<g id="a_node11"><a xlink:href="src/shared/ui/index.ts" xlink:title="index.ts">
<path fill="#ddfeff" stroke="black" d="M743.08,-586.71C743.08,-586.71 700.92,-586.71 700.92,-586.71 697.96,-586.71 695,-583.75 695,-580.79 695,-580.79 695,-574.87 695,-574.87 695,-571.92 697.96,-568.96 700.92,-568.96 700.92,-568.96 743.08,-568.96 743.08,-568.96 746.04,-568.96 749,-571.92 749,-574.87 749,-574.87 749,-580.79 749,-580.79 749,-583.75 746.04,-586.71 743.08,-586.71"/>
<text text-anchor="start" x="706.25" y="-574.16" font-family="Helvetica,sans-Serif" font-size="9.00">index.ts</text>
</a>
</g>
</g>
<!-- src/app/providers/layout/LayoutProvider.tsx&#45;&gt;src/shared/ui/index.ts -->
<g id="edge12" class="edge">
<title>src/app/providers/layout/LayoutProvider.tsx&#45;&gt;src/shared/ui/index.ts</title>
<path fill="none" stroke="#000000" stroke-width="2" stroke-opacity="0.200000" d="M210.2,-744.76C239.93,-743.85 279.53,-740.96 313.62,-732.83 473.79,-694.64 499.73,-642.78 656.62,-592.83 666.09,-589.82 676.5,-587.13 686.15,-584.89"/>
<polygon fill="#000000" fill-opacity="0.200000" stroke="#000000" stroke-width="2" stroke-opacity="0.200000" points="686.4,-586.99 691.79,-583.62 685.48,-582.89 686.4,-586.99"/>
</g>
<!-- src/widgets/popular&#45;products/index.ts -->
<g id="node12" class="node">
<title>src/widgets/popular&#45;products/index.ts</title>
<g id="a_node12"><a xlink:href="src/widgets/popular-products/index.ts" xlink:title="index.ts">
<path fill="#ddfeff" stroke="black" d="M385.71,-992.71C385.71,-992.71 343.54,-992.71 343.54,-992.71 340.58,-992.71 337.62,-989.75 337.62,-986.79 337.62,-986.79 337.62,-980.87 337.62,-980.87 337.62,-977.92 340.58,-974.96 343.54,-974.96 343.54,-974.96 385.71,-974.96 385.71,-974.96 388.67,-974.96 391.62,-977.92 391.62,-980.87 391.62,-980.87 391.62,-986.79 391.62,-986.79 391.62,-989.75 388.67,-992.71 385.71,-992.71"/>
<text text-anchor="start" x="348.88" y="-980.16" font-family="Helvetica,sans-Serif" font-size="9.00">index.ts</text>
</a>
</g>
</g>
<!-- src/app/providers/layout/LayoutProvider.tsx&#45;&gt;src/widgets/popular&#45;products/index.ts -->
<g id="edge14" class="edge">
<title>src/app/providers/layout/LayoutProvider.tsx&#45;&gt;src/widgets/popular&#45;products/index.ts</title>
<path fill="none" stroke="#000000" stroke-width="2" stroke-opacity="0.200000" d="M170.06,-753.88C187.46,-785.18 248.81,-890.58 321.62,-957.83 326.48,-962.31 332.21,-966.45 337.85,-970.05"/>
<polygon fill="#000000" fill-opacity="0.200000" stroke="#000000" stroke-width="2" stroke-opacity="0.200000" points="336.59,-971.74 342.81,-973.03 338.76,-968.14 336.59,-971.74"/>
</g>
<!-- src/app/providers/redux/store.ts -->
<g id="node13" class="node">
<title>src/app/providers/redux/store.ts</title>
<g id="a_node13"><a xlink:href="src/app/providers/redux/store.ts" xlink:title="store.ts">
<path fill="#ddfeff" stroke="black" d="M282.83,-693.71C282.83,-693.71 240.67,-693.71 240.67,-693.71 237.71,-693.71 234.75,-690.75 234.75,-687.79 234.75,-687.79 234.75,-681.87 234.75,-681.87 234.75,-678.92 237.71,-675.96 240.67,-675.96 240.67,-675.96 282.83,-675.96 282.83,-675.96 285.79,-675.96 288.75,-678.92 288.75,-681.87 288.75,-681.87 288.75,-687.79 288.75,-687.79 288.75,-690.75 285.79,-693.71 282.83,-693.71"/>
<text text-anchor="start" x="247.12" y="-681.16" font-family="Helvetica,sans-Serif" font-size="9.00">store.ts</text>
</a>
</g>
</g>
<!-- src/app/providers/redux/ReduxProvider.tsx&#45;&gt;src/app/providers/redux/store.ts -->
<g id="edge15" class="edge">
<title>src/app/providers/redux/ReduxProvider.tsx&#45;&gt;src/app/providers/redux/store.ts</title>
<path fill="none" stroke="#000000" stroke-width="2" stroke-opacity="0.200000" d="M209.86,-684.83C215.08,-684.83 220.36,-684.83 225.43,-684.83"/>
<polygon fill="#000000" fill-opacity="0.200000" stroke="#000000" stroke-width="2" stroke-opacity="0.200000" points="225.26,-686.93 231.26,-684.83 225.26,-682.73 225.26,-686.93"/>
</g>
<!-- src/app/providers/diContainer/register.ts&#45;&gt;src/shared/di/index.ts -->
<g id="edge7" class="edge">
<title>src/app/providers/diContainer/register.ts&#45;&gt;src/shared/di/index.ts</title>
<path fill="none" stroke="#000000" stroke-width="2" stroke-opacity="0.200000" d="M263.53,-615.84C270.32,-540.83 321.94,-21.83 452.25,-21.83 452.25,-21.83 452.25,-21.83 1040.62,-21.83 1154.38,-21.83 1217.63,38.98 1295.62,-43.83 1307.28,-56.21 1301.97,-332.91 1303.62,-349.83 1316.13,-477.34 1347.88,-628.64 1359.11,-679.86"/>
<polygon fill="#000000" fill-opacity="0.200000" stroke="#000000" stroke-width="2" stroke-opacity="0.200000" points="1357.02,-680.13 1360.37,-685.53 1361.12,-679.22 1357.02,-680.13"/>
</g>
<!-- src/shared/feature&#45;flags/index.ts -->
<g id="node8" class="node">
<title>src/shared/feature&#45;flags/index.ts</title>
<g id="a_node8"><a xlink:href="src/shared/feature-flags/index.ts" xlink:title="index.ts">
<path fill="#ddfeff" stroke="black" d="M1060.71,-180.71C1060.71,-180.71 1018.54,-180.71 1018.54,-180.71 1015.58,-180.71 1012.62,-177.75 1012.62,-174.79 1012.62,-174.79 1012.62,-168.87 1012.62,-168.87 1012.62,-165.92 1015.58,-162.96 1018.54,-162.96 1018.54,-162.96 1060.71,-162.96 1060.71,-162.96 1063.67,-162.96 1066.62,-165.92 1066.62,-168.87 1066.62,-168.87 1066.62,-174.79 1066.62,-174.79 1066.62,-177.75 1063.67,-180.71 1060.71,-180.71"/>
<text text-anchor="start" x="1023.88" y="-168.16" font-family="Helvetica,sans-Serif" font-size="9.00">index.ts</text>
</a>
</g>
</g>
<!-- src/app/providers/diContainer/register.ts&#45;&gt;src/shared/feature&#45;flags/index.ts -->
<g id="edge8" class="edge">
<title>src/app/providers/diContainer/register.ts&#45;&gt;src/shared/feature&#45;flags/index.ts</title>
<path fill="none" stroke="#000000" stroke-width="2" stroke-opacity="0.200000" d="M262.72,-615.52C263.07,-581.23 268.19,-459.93 321.62,-381.83 361.58,-323.44 381.5,-290.83 452.25,-290.83 452.25,-290.83 452.25,-290.83 723,-290.83 782.53,-290.83 946.57,-215.78 1011.58,-184.88"/>
<polygon fill="#000000" fill-opacity="0.200000" stroke="#000000" stroke-width="2" stroke-opacity="0.200000" points="1012.12,-186.95 1016.63,-182.47 1010.31,-183.16 1012.12,-186.95"/>
</g>
<!-- src/shared/theme/index.ts -->
<g id="node9" class="node">
<title>src/shared/theme/index.ts</title>
<g id="a_node9"><a xlink:href="src/shared/theme/index.ts" xlink:title="index.ts">
<path fill="#ddfeff" stroke="black" d="M1060.71,-346.71C1060.71,-346.71 1018.54,-346.71 1018.54,-346.71 1015.58,-346.71 1012.62,-343.75 1012.62,-340.79 1012.62,-340.79 1012.62,-334.87 1012.62,-334.87 1012.62,-331.92 1015.58,-328.96 1018.54,-328.96 1018.54,-328.96 1060.71,-328.96 1060.71,-328.96 1063.67,-328.96 1066.62,-331.92 1066.62,-334.87 1066.62,-334.87 1066.62,-340.79 1066.62,-340.79 1066.62,-343.75 1063.67,-346.71 1060.71,-346.71"/>
<text text-anchor="start" x="1023.88" y="-334.16" font-family="Helvetica,sans-Serif" font-size="9.00">index.ts</text>
</a>
</g>
</g>
<!-- src/app/providers/diContainer/register.ts&#45;&gt;src/shared/theme/index.ts -->
<g id="edge9" class="edge">
<title>src/app/providers/diContainer/register.ts&#45;&gt;src/shared/theme/index.ts</title>
<path fill="none" stroke="#000000" stroke-width="2" stroke-opacity="0.200000" d="M264.65,-615.69C274.74,-569.9 326.41,-367.83 452.25,-367.83 452.25,-367.83 452.25,-367.83 723,-367.83 825.41,-367.83 945.67,-351.99 1003.74,-343.33"/>
<polygon fill="#000000" fill-opacity="0.200000" stroke="#000000" stroke-width="2" stroke-opacity="0.200000" points="1003.9,-345.43 1009.52,-342.46 1003.28,-341.27 1003.9,-345.43"/>
</g>
<!-- src/app/providers/diContainer/register.ts&#45;&gt;src/widgets/cart/index.ts -->
<g id="edge10" class="edge">
<title>src/app/providers/diContainer/register.ts&#45;&gt;src/widgets/cart/index.ts</title>
<path fill="none" stroke="#000000" stroke-width="2" stroke-opacity="0.200000" d="M278.4,-633.92C289.55,-641.08 304.17,-651.98 313.62,-664.83 339.84,-700.45 354.03,-751.5 360.06,-778.13"/>
<polygon fill="#000000" fill-opacity="0.200000" stroke="#000000" stroke-width="2" stroke-opacity="0.200000" points="357.97,-778.38 361.28,-783.8 362.07,-777.5 357.97,-778.38"/>
</g>
<!-- src/shared/di/lib/container.ts -->
<g id="node17" class="node">
<title>src/shared/di/lib/container.ts</title>
<g id="a_node17"><a xlink:href="src/shared/di/lib/container.ts" xlink:title="container.ts">
<path fill="#ddfeff" stroke="black" d="M1521.96,-640.71C1521.96,-640.71 1470.54,-640.71 1470.54,-640.71 1467.58,-640.71 1464.62,-637.75 1464.62,-634.79 1464.62,-634.79 1464.62,-628.87 1464.62,-628.87 1464.62,-625.92 1467.58,-622.96 1470.54,-622.96 1470.54,-622.96 1521.96,-622.96 1521.96,-622.96 1524.92,-622.96 1527.88,-625.92 1527.88,-628.87 1527.88,-628.87 1527.88,-634.79 1527.88,-634.79 1527.88,-637.75 1524.92,-640.71 1521.96,-640.71"/>
<text text-anchor="start" x="1472.62" y="-628.16" font-family="Helvetica,sans-Serif" font-size="9.00">container.ts</text>
</a>
</g>
</g>
<!-- src/shared/di/index.ts&#45;&gt;src/shared/di/lib/container.ts -->
<g id="edge19" class="edge">
<title>src/shared/di/index.ts&#45;&gt;src/shared/di/lib/container.ts</title>
<path fill="none" stroke="#000000" stroke-width="2" stroke-opacity="0.200000" d="M1380.33,-688.5C1398.21,-677.73 1428.98,-659.83 1456.62,-646.83 1458.84,-645.79 1461.15,-644.76 1463.48,-643.76"/>
<polygon fill="#000000" fill-opacity="0.200000" stroke="#000000" stroke-width="2" stroke-opacity="0.200000" points="1469.57,-643.51 1463.23,-643.87 1467.96,-639.63 1469.57,-643.51"/>
</g>
<!-- src/shared/di/lib/useDi.tsx -->
<g id="node18" class="node">
<title>src/shared/di/lib/useDi.tsx</title>
<g id="a_node18"><a xlink:href="src/shared/di/lib/useDi.tsx" xlink:title="useDi.tsx">
<path fill="#bbfeff" stroke="black" d="M1517.33,-670.71C1517.33,-670.71 1475.17,-670.71 1475.17,-670.71 1472.21,-670.71 1469.25,-667.75 1469.25,-664.79 1469.25,-664.79 1469.25,-658.87 1469.25,-658.87 1469.25,-655.92 1472.21,-652.96 1475.17,-652.96 1475.17,-652.96 1517.33,-652.96 1517.33,-652.96 1520.29,-652.96 1523.25,-655.92 1523.25,-658.87 1523.25,-658.87 1523.25,-664.79 1523.25,-664.79 1523.25,-667.75 1520.29,-670.71 1517.33,-670.71"/>
<text text-anchor="start" x="1477.5" y="-658.16" font-family="Helvetica,sans-Serif" font-size="9.00">useDi.tsx</text>
</a>
</g>
</g>
<!-- src/shared/di/index.ts&#45;&gt;src/shared/di/lib/useDi.tsx -->
<g id="edge20" class="edge">
<title>src/shared/di/index.ts&#45;&gt;src/shared/di/lib/useDi.tsx</title>
<path fill="none" stroke="#000000" stroke-width="2" stroke-opacity="0.200000" d="M1391.46,-690.55C1411.83,-684.91 1440.17,-677.07 1462.08,-671.01"/>
<polygon fill="#000000" fill-opacity="0.200000" stroke="#000000" stroke-width="2" stroke-opacity="0.200000" points="1468.55,-671.4 1462.21,-670.97 1467.43,-667.35 1468.55,-671.4"/>
</g>
<!-- src/shared/di/model/context.ts -->
<g id="node19" class="node">
<title>src/shared/di/model/context.ts</title>
<g id="a_node19"><a xlink:href="src/shared/di/model/context.ts" xlink:title="context.ts">
<path fill="#ddfeff" stroke="black" d="M1600.21,-675.71C1600.21,-675.71 1557.79,-675.71 1557.79,-675.71 1554.83,-675.71 1551.88,-672.75 1551.88,-669.79 1551.88,-669.79 1551.88,-663.87 1551.88,-663.87 1551.88,-660.92 1554.83,-657.96 1557.79,-657.96 1557.79,-657.96 1600.21,-657.96 1600.21,-657.96 1603.17,-657.96 1606.12,-660.92 1606.12,-663.87 1606.12,-663.87 1606.12,-669.79 1606.12,-669.79 1606.12,-672.75 1603.17,-675.71 1600.21,-675.71"/>
<text text-anchor="start" x="1559.88" y="-663.16" font-family="Helvetica,sans-Serif" font-size="9.00">context.ts</text>
</a>
</g>
</g>
<!-- src/shared/di/index.ts&#45;&gt;src/shared/di/model/context.ts -->
<g id="edge21" class="edge">
<title>src/shared/di/index.ts&#45;&gt;src/shared/di/model/context.ts</title>
<path fill="none" stroke="#000000" stroke-width="2" stroke-opacity="0.200000" d="M1391.45,-703.5C1425.75,-709.69 1487.11,-716.66 1535.88,-699.83 1546.86,-696.04 1557.17,-688.07 1564.84,-680.92"/>
<polygon fill="#000000" fill-opacity="0.200000" stroke="#000000" stroke-width="2" stroke-opacity="0.200000" points="1570.46,-678.35 1564.71,-681.05 1567.52,-675.35 1570.46,-678.35"/>
</g>
<!-- src/shared/feature&#45;flags/model/feature&#45;flags.service.ts -->
<g id="node20" class="node">
<title>src/shared/feature&#45;flags/model/feature&#45;flags.service.ts</title>
<g id="a_node20"><a xlink:href="src/shared/feature-flags/model/feature-flags.service.ts" xlink:title="feature&#45;flags.service.ts">
<path fill="#ddfeff" stroke="black" d="M1265.46,-158.71C1265.46,-158.71 1169.79,-158.71 1169.79,-158.71 1166.83,-158.71 1163.88,-155.75 1163.88,-152.79 1163.88,-152.79 1163.88,-146.87 1163.88,-146.87 1163.88,-143.92 1166.83,-140.96 1169.79,-140.96 1169.79,-140.96 1265.46,-140.96 1265.46,-140.96 1268.42,-140.96 1271.38,-143.92 1271.38,-146.87 1271.38,-146.87 1271.38,-152.79 1271.38,-152.79 1271.38,-155.75 1268.42,-158.71 1265.46,-158.71"/>
<text text-anchor="start" x="1171.88" y="-146.16" font-family="Helvetica,sans-Serif" font-size="9.00">feature&#45;flags.service.ts</text>
</a>
</g>
</g>
<!-- src/shared/feature&#45;flags/index.ts&#45;&gt;src/shared/feature&#45;flags/model/feature&#45;flags.service.ts -->
<g id="edge23" class="edge">
<title>src/shared/feature&#45;flags/index.ts&#45;&gt;src/shared/feature&#45;flags/model/feature&#45;flags.service.ts</title>
<path fill="none" stroke="#000000" stroke-width="2" stroke-opacity="0.200000" d="M1066.97,-168.54C1090.6,-165.59 1126.14,-161.14 1156.66,-157.33"/>
<polygon fill="#000000" fill-opacity="0.200000" stroke="#000000" stroke-width="2" stroke-opacity="0.200000" points="1162.75,-158.68 1156.54,-157.34 1162.23,-154.52 1162.75,-158.68"/>
</g>
<!-- src/shared/feature&#45;flags/model/types.ts -->
<g id="node21" class="node">
<title>src/shared/feature&#45;flags/model/types.ts</title>
<g id="a_node21"><a xlink:href="src/shared/feature-flags/model/types.ts" xlink:title="types.ts">
<path fill="#ddfeff" stroke="black" d="M1385.21,-158.71C1385.21,-158.71 1343.04,-158.71 1343.04,-158.71 1340.08,-158.71 1337.12,-155.75 1337.12,-152.79 1337.12,-152.79 1337.12,-146.87 1337.12,-146.87 1337.12,-143.92 1340.08,-140.96 1343.04,-140.96 1343.04,-140.96 1385.21,-140.96 1385.21,-140.96 1388.17,-140.96 1391.12,-143.92 1391.12,-146.87 1391.12,-146.87 1391.12,-152.79 1391.12,-152.79 1391.12,-155.75 1388.17,-158.71 1385.21,-158.71"/>
<text text-anchor="start" x="1348.75" y="-146.16" font-family="Helvetica,sans-Serif" font-size="9.00">types.ts</text>
</a>
</g>
</g>
<!-- src/shared/feature&#45;flags/index.ts&#45;&gt;src/shared/feature&#45;flags/model/types.ts -->
<g id="edge24" class="edge">
<title>src/shared/feature&#45;flags/index.ts&#45;&gt;src/shared/feature&#45;flags/model/types.ts</title>
<path fill="none" stroke="#000000" stroke-opacity="0.200000" d="M1066.81,-172.76C1113.15,-174.03 1212.55,-175.11 1295.62,-164.83 1306.76,-163.46 1318.76,-161.09 1329.5,-158.63"/>
<polygon fill="none" stroke="#000000" stroke-opacity="0.200000" points="1329.89,-160.7 1335.25,-157.28 1328.93,-156.61 1329.89,-160.7"/>
</g>
<!-- src/shared/feature&#45;flags/ui/FeatureToggle/FeatureToggle.tsx -->
<g id="node22" class="node">
<title>src/shared/feature&#45;flags/ui/FeatureToggle/FeatureToggle.tsx</title>
<g id="a_node22"><a xlink:href="src/shared/feature-flags/ui/FeatureToggle/FeatureToggle.tsx" xlink:title="FeatureToggle.tsx">
<path fill="#bbfeff" stroke="black" d="M1078.08,-72.71C1078.08,-72.71 1001.17,-72.71 1001.17,-72.71 998.21,-72.71 995.25,-69.75 995.25,-66.79 995.25,-66.79 995.25,-60.87 995.25,-60.87 995.25,-57.92 998.21,-54.96 1001.17,-54.96 1001.17,-54.96 1078.08,-54.96 1078.08,-54.96 1081.04,-54.96 1084,-57.92 1084,-60.87 1084,-60.87 1084,-66.79 1084,-66.79 1084,-69.75 1081.04,-72.71 1078.08,-72.71"/>
<text text-anchor="start" x="1003.25" y="-60.16" font-family="Helvetica,sans-Serif" font-size="9.00">FeatureToggle.tsx</text>
</a>
</g>
</g>
<!-- src/shared/feature&#45;flags/index.ts&#45;&gt;src/shared/feature&#45;flags/ui/FeatureToggle/FeatureToggle.tsx -->
<g id="edge25" class="edge">
<title>src/shared/feature&#45;flags/index.ts&#45;&gt;src/shared/feature&#45;flags/ui/FeatureToggle/FeatureToggle.tsx</title>
<g id="a_edge25"><a xlink:title="no&#45;circular">
<path fill="none" stroke="orange" stroke-width="2" d="M1039.62,-162.58C1039.62,-138.93 1039.62,-115.28 1039.62,-91.64"/>
<polygon fill="orange" stroke="orange" stroke-width="2" points="1041.73,-82.14 1039.63,-76.14 1037.53,-82.14 1041.73,-82.14"/>
<polyline fill="none" stroke="orange" stroke-width="2" points="1039.63,-83.14 1039.63,-86.14"/>
<ellipse fill="none" stroke="orange" stroke-width="2" cx="1039.63" cy="-89.54" rx="2.4" ry="2.4"/>
</a>
</g>
<text text-anchor="middle" x="1017.88" y="-109.13" font-family="Helvetica,sans-Serif" font-size="9.00" fill="orange">no&#45;circular</text>
</g>
<!-- src/shared/theme/model/theme.service.ts -->
<g id="node24" class="node">
<title>src/shared/theme/model/theme.service.ts</title>
<g id="a_node24"><a xlink:href="src/shared/theme/model/theme.service.ts" xlink:title="theme.service.ts">
<path fill="#ddfeff" stroke="black" d="M1252.71,-252.71C1252.71,-252.71 1182.54,-252.71 1182.54,-252.71 1179.58,-252.71 1176.62,-249.75 1176.62,-246.79 1176.62,-246.79 1176.62,-240.87 1176.62,-240.87 1176.62,-237.92 1179.58,-234.96 1182.54,-234.96 1182.54,-234.96 1252.71,-234.96 1252.71,-234.96 1255.67,-234.96 1258.62,-237.92 1258.62,-240.87 1258.62,-240.87 1258.62,-246.79 1258.62,-246.79 1258.62,-249.75 1255.67,-252.71 1252.71,-252.71"/>
<text text-anchor="start" x="1184.62" y="-240.16" font-family="Helvetica,sans-Serif" font-size="9.00">theme.service.ts</text>
</a>
</g>
</g>
<!-- src/shared/theme/index.ts&#45;&gt;src/shared/theme/model/theme.service.ts -->
<g id="edge30" class="edge">
<title>src/shared/theme/index.ts&#45;&gt;src/shared/theme/model/theme.service.ts</title>
<path fill="none" stroke="#000000" stroke-width="2" stroke-opacity="0.200000" d="M1058.14,-328.48C1089.9,-311.51 1157.01,-275.67 1192.86,-256.52"/>
<polygon fill="#000000" fill-opacity="0.200000" stroke="#000000" stroke-width="2" stroke-opacity="0.200000" points="1199.28,-255.47 1193,-256.45 1197.31,-251.77 1199.28,-255.47"/>
</g>
<!-- src/shared/theme/ui/ThemeToggle/ThemeToggle.tsx -->
<g id="node25" class="node">
<title>src/shared/theme/ui/ThemeToggle/ThemeToggle.tsx</title>
<g id="a_node25"><a xlink:href="src/shared/theme/ui/ThemeToggle/ThemeToggle.tsx" xlink:title="ThemeToggle.tsx">
<path fill="#bbfeff" stroke="black" d="M1254.58,-320.71C1254.58,-320.71 1180.67,-320.71 1180.67,-320.71 1177.71,-320.71 1174.75,-317.75 1174.75,-314.79 1174.75,-314.79 1174.75,-308.87 1174.75,-308.87 1174.75,-305.92 1177.71,-302.96 1180.67,-302.96 1180.67,-302.96 1254.58,-302.96 1254.58,-302.96 1257.54,-302.96 1260.5,-305.92 1260.5,-308.87 1260.5,-308.87 1260.5,-314.79 1260.5,-314.79 1260.5,-317.75 1257.54,-320.71 1254.58,-320.71"/>
<text text-anchor="start" x="1182.75" y="-308.16" font-family="Helvetica,sans-Serif" font-size="9.00">ThemeToggle.tsx</text>
</a>
</g>
</g>
<!-- src/shared/theme/index.ts&#45;&gt;src/shared/theme/ui/ThemeToggle/ThemeToggle.tsx -->
<g id="edge31" class="edge">
<title>src/shared/theme/index.ts&#45;&gt;src/shared/theme/ui/ThemeToggle/ThemeToggle.tsx</title>
<path fill="none" stroke="#000000" stroke-width="2" stroke-opacity="0.200000" d="M1066.97,-333.94C1093.47,-330.03 1134.96,-323.9 1167.54,-319.08"/>
<polygon fill="#000000" fill-opacity="0.200000" stroke="#000000" stroke-width="2" stroke-opacity="0.200000" points="1173.67,-320.3 1167.42,-319.1 1173.05,-316.15 1173.67,-320.3"/>
</g>
<!-- src/widgets/cart/store/cart.store.ts -->
<g id="node35" class="node">
<title>src/widgets/cart/store/cart.store.ts</title>
<g id="a_node35"><a xlink:href="src/widgets/cart/store/cart.store.ts" xlink:title="cart.store.ts">
<path fill="#ddfeff" stroke="black" d="M599.08,-808.71C599.08,-808.71 548.42,-808.71 548.42,-808.71 545.46,-808.71 542.5,-805.75 542.5,-802.79 542.5,-802.79 542.5,-796.87 542.5,-796.87 542.5,-793.92 545.46,-790.96 548.42,-790.96 548.42,-790.96 599.08,-790.96 599.08,-790.96 602.04,-790.96 605,-793.92 605,-796.87 605,-796.87 605,-802.79 605,-802.79 605,-805.75 602.04,-808.71 599.08,-808.71"/>
<text text-anchor="start" x="550.5" y="-796.16" font-family="Helvetica,sans-Serif" font-size="9.00">cart.store.ts</text>
</a>
</g>
</g>
<!-- src/widgets/cart/index.ts&#45;&gt;src/widgets/cart/store/cart.store.ts -->
<g id="edge44" class="edge">
<title>src/widgets/cart/index.ts&#45;&gt;src/widgets/cart/store/cart.store.ts</title>
<path fill="none" stroke="#000000" stroke-width="2" stroke-opacity="0.200000" d="M391.86,-796.34C428.08,-797.04 493.62,-798.3 535.08,-799.1"/>
<polygon fill="#000000" fill-opacity="0.200000" stroke="#000000" stroke-width="2" stroke-opacity="0.200000" points="540.98,-801.32 535.02,-799.1 541.06,-797.12 540.98,-801.32"/>
</g>
<!-- src/widgets/cart/ui/Cart/Cart.tsx -->
<g id="node36" class="node">
<title>src/widgets/cart/ui/Cart/Cart.tsx</title>
<g id="a_node36"><a xlink:href="src/widgets/cart/ui/Cart/Cart.tsx" xlink:title="Cart.tsx">
<path fill="#bbfeff" stroke="black" d="M474.33,-876.71C474.33,-876.71 432.17,-876.71 432.17,-876.71 429.21,-876.71 426.25,-873.75 426.25,-870.79 426.25,-870.79 426.25,-864.87 426.25,-864.87 426.25,-861.92 429.21,-858.96 432.17,-858.96 432.17,-858.96 474.33,-858.96 474.33,-858.96 477.29,-858.96 480.25,-861.92 480.25,-864.87 480.25,-864.87 480.25,-870.79 480.25,-870.79 480.25,-873.75 477.29,-876.71 474.33,-876.71"/>
<text text-anchor="start" x="437.88" y="-864.16" font-family="Helvetica,sans-Serif" font-size="9.00">Cart.tsx</text>
</a>
</g>
</g>
<!-- src/widgets/cart/index.ts&#45;&gt;src/widgets/cart/ui/Cart/Cart.tsx -->
<g id="edge45" class="edge">
<title>src/widgets/cart/index.ts&#45;&gt;src/widgets/cart/ui/Cart/Cart.tsx</title>
<path fill="none" stroke="#000000" stroke-width="2" stroke-opacity="0.200000" d="M368.34,-804.96C372.72,-818.07 382.62,-842.04 399.62,-854.83 405.26,-859.08 412.12,-861.95 418.99,-863.89"/>
<polygon fill="#000000" fill-opacity="0.200000" stroke="#000000" stroke-width="2" stroke-opacity="0.200000" points="424.35,-867.34 419.01,-863.9 425.34,-863.26 424.35,-867.34"/>
</g>
<!-- src/shared/ui/AddToCartButton/AddToCartButton.tsx -->
<g id="node28" class="node">
<title>src/shared/ui/AddToCartButton/AddToCartButton.tsx</title>
<g id="a_node28"><a xlink:href="src/shared/ui/AddToCartButton/AddToCartButton.tsx" xlink:title="AddToCartButton.tsx">
<path fill="#bbfeff" stroke="black" d="M928.71,-470.71C928.71,-470.71 841.29,-470.71 841.29,-470.71 838.33,-470.71 835.38,-467.75 835.38,-464.79 835.38,-464.79 835.38,-458.87 835.38,-458.87 835.38,-455.92 838.33,-452.96 841.29,-452.96 841.29,-452.96 928.71,-452.96 928.71,-452.96 931.67,-452.96 934.62,-455.92 934.62,-458.87 934.62,-458.87 934.62,-464.79 934.62,-464.79 934.62,-467.75 931.67,-470.71 928.71,-470.71"/>
<text text-anchor="start" x="843.38" y="-458.16" font-family="Helvetica,sans-Serif" font-size="9.00">AddToCartButton.tsx</text>
</a>
</g>
</g>
<!-- src/shared/ui/index.ts&#45;&gt;src/shared/ui/AddToCartButton/AddToCartButton.tsx -->
<g id="edge41" class="edge">
<title>src/shared/ui/index.ts&#45;&gt;src/shared/ui/AddToCartButton/AddToCartButton.tsx</title>
<g id="a_edge41"><a xlink:title="no&#45;circular">
<path fill="none" stroke="orange" stroke-width="2" d="M741.42,-568.66C762.23,-555.04 797.14,-529.52 827.38,-507.83 838.79,-499.64 851.57,-490.61 862.09,-482.63"/>
<polygon fill="orange" stroke="orange" stroke-width="2" points="870.94,-478.19 874.29,-472.79 868.3,-474.92 870.94,-478.19"/>
<polyline fill="none" stroke="orange" stroke-width="2" points="868.84,-477.19 866.51,-479.07"/>
<ellipse fill="none" stroke="orange" stroke-width="2" cx="863.86" cy="-481.2" rx="2.4" ry="2.4"/>
</a>
</g>
<text text-anchor="middle" x="831.38" y="-512.05" font-family="Helvetica,sans-Serif" font-size="9.00" fill="orange">no&#45;circular</text>
</g>
<!-- src/shared/ui/Layout/Layout.tsx -->
<g id="node31" class="node">
<title>src/shared/ui/Layout/Layout.tsx</title>
<g id="a_node31"><a xlink:href="src/shared/ui/Layout/Layout.tsx" xlink:title="Layout.tsx">
<path fill="#bbfeff" stroke="black" d="M907.71,-530.71C907.71,-530.71 862.29,-530.71 862.29,-530.71 859.33,-530.71 856.38,-527.75 856.38,-524.79 856.38,-524.79 856.38,-518.87 856.38,-518.87 856.38,-515.92 859.33,-512.96 862.29,-512.96 862.29,-512.96 907.71,-512.96 907.71,-512.96 910.67,-512.96 913.62,-515.92 913.62,-518.87 913.62,-518.87 913.62,-524.79 913.62,-524.79 913.62,-527.75 910.67,-530.71 907.71,-530.71"/>
<text text-anchor="start" x="864.38" y="-518.16" font-family="Helvetica,sans-Serif" font-size="9.00">Layout.tsx</text>
</a>
</g>
</g>
<!-- src/shared/ui/index.ts&#45;&gt;src/shared/ui/Layout/Layout.tsx -->
<g id="edge42" class="edge">
<title>src/shared/ui/index.ts&#45;&gt;src/shared/ui/Layout/Layout.tsx</title>
<path fill="none" stroke="#000000" stroke-width="2" stroke-opacity="0.200000" d="M749.23,-568.71C776.89,-559.09 820.57,-543.89 850.67,-533.43"/>
<polygon fill="#000000" fill-opacity="0.200000" stroke="#000000" stroke-width="2" stroke-opacity="0.200000" points="856.99,-533.45 850.64,-533.44 855.61,-529.48 856.99,-533.45"/>
</g>
<!-- src/shared/ui/Price/Price.tsx -->
<g id="node32" class="node">
<title>src/shared/ui/Price/Price.tsx</title>
<g id="a_node32"><a xlink:href="src/shared/ui/Price/Price.tsx" xlink:title="Price.tsx">
<path fill="#bbfeff" stroke="black" d="M906.08,-590.71C906.08,-590.71 863.92,-590.71 863.92,-590.71 860.96,-590.71 858,-587.75 858,-584.79 858,-584.79 858,-578.87 858,-578.87 858,-575.92 860.96,-572.96 863.92,-572.96 863.92,-572.96 906.08,-572.96 906.08,-572.96 909.04,-572.96 912,-575.92 912,-578.87 912,-578.87 912,-584.79 912,-584.79 912,-587.75 909.04,-590.71 906.08,-590.71"/>
<text text-anchor="start" x="867.75" y="-578.16" font-family="Helvetica,sans-Serif" font-size="9.00">Price.tsx</text>
</a>
</g>
</g>
<!-- src/shared/ui/index.ts&#45;&gt;src/shared/ui/Price/Price.tsx -->
<g id="edge43" class="edge">
<title>src/shared/ui/index.ts&#45;&gt;src/shared/ui/Price/Price.tsx</title>
<path fill="none" stroke="#000000" stroke-width="2" stroke-opacity="0.200000" d="M749.23,-578.48C776.86,-579.17 820.47,-580.25 850.56,-581"/>
<polygon fill="#000000" fill-opacity="0.200000" stroke="#000000" stroke-width="2" stroke-opacity="0.200000" points="856.47,-583.25 850.52,-581 856.57,-579.05 856.47,-583.25"/>
</g>
<!-- src/widgets/popular&#45;products/store/popular&#45;products.slice.ts -->
<g id="node39" class="node">
<title>src/widgets/popular&#45;products/store/popular&#45;products.slice.ts</title>
<g id="a_node39"><a xlink:href="src/widgets/popular-products/store/popular-products.slice.ts" xlink:title="popular&#45;products.slice.ts">
<path fill="#ddfeff" stroke="black" d="M625.71,-996.71C625.71,-996.71 521.79,-996.71 521.79,-996.71 518.83,-996.71 515.88,-993.75 515.88,-990.79 515.88,-990.79 515.88,-984.87 515.88,-984.87 515.88,-981.92 518.83,-978.96 521.79,-978.96 521.79,-978.96 625.71,-978.96 625.71,-978.96 628.67,-978.96 631.62,-981.92 631.62,-984.87 631.62,-984.87 631.62,-990.79 631.62,-990.79 631.62,-993.75 628.67,-996.71 625.71,-996.71"/>
<text text-anchor="start" x="523.88" y="-984.16" font-family="Helvetica,sans-Serif" font-size="9.00">popular&#45;products.slice.ts</text>
</a>
</g>
</g>
<!-- src/widgets/popular&#45;products/index.ts&#45;&gt;src/widgets/popular&#45;products/store/popular&#45;products.slice.ts -->
<g id="edge52" class="edge">
<title>src/widgets/popular&#45;products/index.ts&#45;&gt;src/widgets/popular&#45;products/store/popular&#45;products.slice.ts</title>
<path fill="none" stroke="#000000" stroke-width="2" stroke-opacity="0.200000" d="M391.86,-984.34C421.08,-984.9 469.39,-985.84 508.74,-986.6"/>
<polygon fill="#000000" fill-opacity="0.200000" stroke="#000000" stroke-width="2" stroke-opacity="0.200000" points="514.43,-988.81 508.48,-986.59 514.52,-984.61 514.43,-988.81"/>
</g>
<!-- src/widgets/popular&#45;products/ui/ProductList/ProductList.tsx -->
<g id="node40" class="node">
<title>src/widgets/popular&#45;products/ui/ProductList/ProductList.tsx</title>
<g id="a_node40"><a xlink:href="src/widgets/popular-products/ui/ProductList/ProductList.tsx" xlink:title="ProductList.tsx">
<path fill="#bbfeff" stroke="black" d="M484.96,-1094.71C484.96,-1094.71 421.54,-1094.71 421.54,-1094.71 418.58,-1094.71 415.62,-1091.75 415.62,-1088.79 415.62,-1088.79 415.62,-1082.87 415.62,-1082.87 415.62,-1079.92 418.58,-1076.96 421.54,-1076.96 421.54,-1076.96 484.96,-1076.96 484.96,-1076.96 487.92,-1076.96 490.88,-1079.92 490.88,-1082.87 490.88,-1082.87 490.88,-1088.79 490.88,-1088.79 490.88,-1091.75 487.92,-1094.71 484.96,-1094.71"/>
<text text-anchor="start" x="423.62" y="-1082.16" font-family="Helvetica,sans-Serif" font-size="9.00">ProductList.tsx</text>
</a>
</g>
</g>
<!-- src/widgets/popular&#45;products/index.ts&#45;&gt;src/widgets/popular&#45;products/ui/ProductList/ProductList.tsx -->
<g id="edge53" class="edge">
<title>src/widgets/popular&#45;products/index.ts&#45;&gt;src/widgets/popular&#45;products/ui/ProductList/ProductList.tsx</title>
<path fill="none" stroke="#000000" stroke-width="2" stroke-opacity="0.200000" d="M366.38,-992.94C368.38,-1011.01 375.46,-1051.47 399.62,-1072.83 402.33,-1075.23 405.41,-1077.19 408.69,-1078.81"/>
<polygon fill="#000000" fill-opacity="0.200000" stroke="#000000" stroke-width="2" stroke-opacity="0.200000" points="413.46,-1083.06 408.72,-1078.82 415.07,-1079.18 413.46,-1083.06"/>
</g>
<!-- src/app/providers/redux/store.ts&#45;&gt;src/widgets/popular&#45;products/index.ts -->
<g id="edge16" class="edge">
<title>src/app/providers/redux/store.ts&#45;&gt;src/widgets/popular&#45;products/index.ts</title>
<path fill="none" stroke="#000000" stroke-width="2" stroke-opacity="0.200000" d="M265.68,-694.2C274.38,-722.42 300.3,-809.14 313.62,-882.83 316.61,-899.33 312.7,-943.64 321.62,-957.83 324.56,-962.5 328.67,-966.47 333.18,-969.78"/>
<polygon fill="#000000" fill-opacity="0.200000" stroke="#000000" stroke-width="2" stroke-opacity="0.200000" points="331.76,-971.36 337.94,-972.84 334.03,-967.83 331.76,-971.36"/>
</g>
<!-- src/shared/api/fakeApi.ts -->
<g id="node14" class="node">
<title>src/shared/api/fakeApi.ts</title>
<g id="a_node14"><a xlink:href="src/shared/api/fakeApi.ts" xlink:title="fakeApi.ts">
<path fill="#ddfeff" stroke="black" d="M906.96,-676.71C906.96,-676.71 863.04,-676.71 863.04,-676.71 860.08,-676.71 857.12,-673.75 857.12,-670.79 857.12,-670.79 857.12,-664.87 857.12,-664.87 857.12,-661.92 860.08,-658.96 863.04,-658.96 863.04,-658.96 906.96,-658.96 906.96,-658.96 909.92,-658.96 912.88,-661.92 912.88,-664.87 912.88,-664.87 912.88,-670.79 912.88,-670.79 912.88,-673.75 909.92,-676.71 906.96,-676.71"/>
<text text-anchor="start" x="865.12" y="-664.16" font-family="Helvetica,sans-Serif" font-size="9.00">fakeApi.ts</text>
</a>
</g>
</g>
<!-- src/shared/api/index.ts -->
<g id="node15" class="node">
<title>src/shared/api/index.ts</title>
<g id="a_node15"><a xlink:href="src/shared/api/index.ts" xlink:title="index.ts">
<path fill="#ddfeff" stroke="black" d="M743.08,-706.71C743.08,-706.71 700.92,-706.71 700.92,-706.71 697.96,-706.71 695,-703.75 695,-700.79 695,-700.79 695,-694.87 695,-694.87 695,-691.92 697.96,-688.96 700.92,-688.96 700.92,-688.96 743.08,-688.96 743.08,-688.96 746.04,-688.96 749,-691.92 749,-694.87 749,-694.87 749,-700.79 749,-700.79 749,-703.75 746.04,-706.71 743.08,-706.71"/>
<text text-anchor="start" x="706.25" y="-694.16" font-family="Helvetica,sans-Serif" font-size="9.00">index.ts</text>
</a>
</g>
</g>
<!-- src/shared/api/index.ts&#45;&gt;src/shared/api/fakeApi.ts -->
<g id="edge17" class="edge">
<title>src/shared/api/index.ts&#45;&gt;src/shared/api/fakeApi.ts</title>
<path fill="none" stroke="#000000" stroke-width="2" stroke-opacity="0.200000" d="M749.23,-692.95C776.61,-687.84 819.69,-679.82 849.75,-674.22"/>
<polygon fill="#000000" fill-opacity="0.200000" stroke="#000000" stroke-width="2" stroke-opacity="0.200000" points="856.11,-675.17 849.83,-674.2 855.34,-671.04 856.11,-675.17"/>
</g>
<!-- src/shared/api/types.ts -->
<g id="node16" class="node">
<title>src/shared/api/types.ts</title>
<g id="a_node16"><a xlink:href="src/shared/api/types.ts" xlink:title="types.ts">
<path fill="#ddfeff" stroke="black" d="M906.08,-706.71C906.08,-706.71 863.92,-706.71 863.92,-706.71 860.96,-706.71 858,-703.75 858,-700.79 858,-700.79 858,-694.87 858,-694.87 858,-691.92 860.96,-688.96 863.92,-688.96 863.92,-688.96 906.08,-688.96 906.08,-688.96 909.04,-688.96 912,-691.92 912,-694.87 912,-694.87 912,-700.79 912,-700.79 912,-703.75 909.04,-706.71 906.08,-706.71"/>
<text text-anchor="start" x="869.62" y="-694.16" font-family="Helvetica,sans-Serif" font-size="9.00">types.ts</text>
</a>
</g>
</g>
<!-- src/shared/api/index.ts&#45;&gt;src/shared/api/types.ts -->
<g id="edge18" class="edge">
<title>src/shared/api/index.ts&#45;&gt;src/shared/api/types.ts</title>
<path fill="none" stroke="#000000" stroke-opacity="0.200000" d="M749.23,-697.83C776.74,-697.83 820.1,-697.83 850.18,-697.83"/>
<polygon fill="none" stroke="#000000" stroke-opacity="0.200000" points="850,-699.93 856,-697.83 850,-695.73 850,-699.93"/>
</g>
<!-- src/shared/di/lib/useDi.tsx&#45;&gt;src/shared/di/model/context.ts -->
<g id="edge22" class="edge">
<title>src/shared/di/lib/useDi.tsx&#45;&gt;src/shared/di/model/context.ts</title>
<path fill="none" stroke="#000000" stroke-width="2" stroke-opacity="0.200000" d="M1523.69,-663.47C1529.83,-663.85 1536.45,-664.26 1542.89,-664.66"/>
<polygon fill="#000000" fill-opacity="0.200000" stroke="#000000" stroke-width="2" stroke-opacity="0.200000" points="1542.36,-666.73 1548.48,-665 1542.62,-662.54 1542.36,-666.73"/>
</g>
<!-- src/shared/feature&#45;flags/model/feature&#45;flags.service.ts&#45;&gt;src/shared/feature&#45;flags/model/types.ts -->
<g id="edge26" class="edge">
<title>src/shared/feature&#45;flags/model/feature&#45;flags.service.ts&#45;&gt;src/shared/feature&#45;flags/model/types.ts</title>
<path fill="none" stroke="#000000" stroke-opacity="0.200000" d="M1271.61,-149.83C1291.06,-149.83 1312.53,-149.83 1329.77,-149.83"/>
<polygon fill="none" stroke="#000000" stroke-opacity="0.200000" points="1329.38,-151.93 1335.38,-149.83 1329.38,-147.73 1329.38,-151.93"/>
</g>
<!-- src/shared/feature&#45;flags/ui/FeatureToggle/FeatureToggle.tsx&#45;&gt;src/shared/feature&#45;flags/index.ts -->
<g id="edge29" class="edge">
<title>src/shared/feature&#45;flags/ui/FeatureToggle/FeatureToggle.tsx&#45;&gt;src/shared/feature&#45;flags/index.ts</title>
<g id="a_edge29"><a xlink:title="no&#45;circular">
<path fill="none" stroke="orange" d="M1039.62,-73.11C1039.62,-97.58 1039.62,-122.04 1039.62,-146.5"/>
<polygon fill="orange" stroke="orange" points="1037.53,-155.06 1039.63,-161.06 1041.73,-155.06 1037.53,-155.06"/>
<polyline fill="none" stroke="orange" points="1039.63,-154.56 1039.63,-151.56"/>
<ellipse fill="none" stroke="orange" cx="1039.63" cy="-148.66" rx="2.4" ry="2.4"/>
</a>
</g>
<text text-anchor="middle" x="1061.38" y="-109.28" font-family="Helvetica,sans-Serif" font-size="9.00" fill="orange">no&#45;circular</text>
</g>
<!-- src/shared/feature&#45;flags/ui/FeatureToggle/FeatureToggle.tsx&#45;&gt;src/shared/feature&#45;flags/model/feature&#45;flags.service.ts -->
<g id="edge27" class="edge">
<title>src/shared/feature&#45;flags/ui/FeatureToggle/FeatureToggle.tsx&#45;&gt;src/shared/feature&#45;flags/model/feature&#45;flags.service.ts</title>
<path fill="none" stroke="#000000" stroke-width="2" stroke-opacity="0.200000" d="M1084.48,-58.82C1105.73,-58.77 1130.32,-62.52 1147.62,-76.83 1156.62,-84.27 1148.97,-92.25 1155.62,-101.83 1165.17,-115.58 1179.82,-127.29 1192.36,-135.7"/>
<polygon fill="#000000" fill-opacity="0.200000" stroke="#000000" stroke-width="2" stroke-opacity="0.200000" points="1191.11,-137.39 1197.29,-138.86 1193.38,-133.86 1191.11,-137.39"/>
</g>
<!-- src/shared/feature&#45;flags/ui/FeatureToggle/FeatureToggle.module.css -->
<g id="node23" class="node">
<title>src/shared/feature&#45;flags/ui/FeatureToggle/FeatureToggle.module.css</title>
<g id="a_node23"><a xlink:href="src/shared/feature-flags/ui/FeatureToggle/FeatureToggle.module.css" xlink:title="FeatureToggle.module.css">
<path fill="#ffffcc" stroke="black" d="M1273.71,-72.71C1273.71,-72.71 1161.54,-72.71 1161.54,-72.71 1158.58,-72.71 1155.62,-69.75 1155.62,-66.79 1155.62,-66.79 1155.62,-60.87 1155.62,-60.87 1155.62,-57.92 1158.58,-54.96 1161.54,-54.96 1161.54,-54.96 1273.71,-54.96 1273.71,-54.96 1276.67,-54.96 1279.62,-57.92 1279.62,-60.87 1279.62,-60.87 1279.62,-66.79 1279.62,-66.79 1279.62,-69.75 1276.67,-72.71 1273.71,-72.71"/>
<text text-anchor="start" x="1163.62" y="-60.16" font-family="Helvetica,sans-Serif" font-size="9.00">FeatureToggle.module.css</text>
</a>
</g>
</g>
<!-- src/shared/feature&#45;flags/ui/FeatureToggle/FeatureToggle.tsx&#45;&gt;src/shared/feature&#45;flags/ui/FeatureToggle/FeatureToggle.module.css -->
<g id="edge28" class="edge">
<title>src/shared/feature&#45;flags/ui/FeatureToggle/FeatureToggle.tsx&#45;&gt;src/shared/feature&#45;flags/ui/FeatureToggle/FeatureToggle.module.css</title>
<path fill="none" stroke="#000000" stroke-width="2" stroke-opacity="0.200000" d="M1084.13,-63.83C1102.92,-63.83 1125.39,-63.83 1146.44,-63.83"/>
<polygon fill="#000000" fill-opacity="0.200000" stroke="#000000" stroke-width="2" stroke-opacity="0.200000" points="1146.33,-65.93 1152.33,-63.83 1146.33,-61.73 1146.33,-65.93"/>
</g>
<!-- src/shared/theme/ui/ThemeToggle/ThemeToggle.tsx&#45;&gt;src/shared/di/index.ts -->
<g id="edge33" class="edge">
<title>src/shared/theme/ui/ThemeToggle/ThemeToggle.tsx&#45;&gt;src/shared/di/index.ts</title>
<path fill="none" stroke="#000000" stroke-width="2" stroke-opacity="0.200000" d="M1222.05,-320.99C1240.83,-371.15 1331.25,-612.7 1356.54,-680.25"/>
<polygon fill="#000000" fill-opacity="0.200000" stroke="#000000" stroke-width="2" stroke-opacity="0.200000" points="1354.53,-680.87 1358.6,-685.75 1358.47,-679.4 1354.53,-680.87"/>
</g>
<!-- src/shared/theme/ui/ThemeToggle/ThemeToggle.module.css -->
<g id="node26" class="node">
<title>src/shared/theme/ui/ThemeToggle/ThemeToggle.module.css</title>
<g id="a_node26"><a xlink:href="src/shared/theme/ui/ThemeToggle/ThemeToggle.module.css" xlink:title="ThemeToggle.module.css">
<path fill="#ffffcc" stroke="black" d="M1418.71,-320.71C1418.71,-320.71 1309.54,-320.71 1309.54,-320.71 1306.58,-320.71 1303.62,-317.75 1303.62,-314.79 1303.62,-314.79 1303.62,-308.87 1303.62,-308.87 1303.62,-305.92 1306.58,-302.96 1309.54,-302.96 1309.54,-302.96 1418.71,-302.96 1418.71,-302.96 1421.67,-302.96 1424.62,-305.92 1424.62,-308.87 1424.62,-308.87 1424.62,-314.79 1424.62,-314.79 1424.62,-317.75 1421.67,-320.71 1418.71,-320.71"/>
<text text-anchor="start" x="1311.62" y="-308.16" font-family="Helvetica,sans-Serif" font-size="9.00">ThemeToggle.module.css</text>
</a>
</g>
</g>
<!-- src/shared/theme/ui/ThemeToggle/ThemeToggle.tsx&#45;&gt;src/shared/theme/ui/ThemeToggle/ThemeToggle.module.css -->
<g id="edge32" class="edge">
<title>src/shared/theme/ui/ThemeToggle/ThemeToggle.tsx&#45;&gt;src/shared/theme/ui/ThemeToggle/ThemeToggle.module.css</title>
<path fill="none" stroke="#000000" stroke-width="2" stroke-opacity="0.200000" d="M1260.81,-311.83C1271.36,-311.83 1282.96,-311.83 1294.44,-311.83"/>
<polygon fill="#000000" fill-opacity="0.200000" stroke="#000000" stroke-width="2" stroke-opacity="0.200000" points="1294.14,-313.93 1300.14,-311.83 1294.14,-309.73 1294.14,-313.93"/>
</g>
<!-- src/shared/ui/AddToCartButton/AddToCartButton.module.css -->
<g id="node27" class="node">
<title>src/shared/ui/AddToCartButton/AddToCartButton.module.css</title>
<g id="a_node27"><a xlink:href="src/shared/ui/AddToCartButton/AddToCartButton.module.css" xlink:title="AddToCartButton.module.css">
<path fill="#ffffcc" stroke="black" d="M1100.96,-440.71C1100.96,-440.71 978.29,-440.71 978.29,-440.71 975.33,-440.71 972.38,-437.75 972.38,-434.79 972.38,-434.79 972.38,-428.87 972.38,-428.87 972.38,-425.92 975.33,-422.96 978.29,-422.96 978.29,-422.96 1100.96,-422.96 1100.96,-422.96 1103.92,-422.96 1106.88,-425.92 1106.88,-428.87 1106.88,-428.87 1106.88,-434.79 1106.88,-434.79 1106.88,-437.75 1103.92,-440.71 1100.96,-440.71"/>
<text text-anchor="start" x="980.38" y="-428.16" font-family="Helvetica,sans-Serif" font-size="9.00">AddToCartButton.module.css</text>
</a>
</g>
</g>
<!-- src/shared/ui/AddToCartButton/AddToCartButton.tsx&#45;&gt;src/shared/ui/index.ts -->
<g id="edge36" class="edge">
<title>src/shared/ui/AddToCartButton/AddToCartButton.tsx&#45;&gt;src/shared/ui/index.ts</title>
<g id="a_edge36"><a xlink:title="no&#45;circular">
<path fill="none" stroke="orange" stroke-width="2" d="M862.97,-471.2C852.29,-478.1 839.11,-487.41 827.38,-495.83 799.06,-516.14 766.64,-539.81 745.55,-556.61"/>
<polygon fill="orange" stroke="orange" stroke-width="2" points="736.68,-561.27 733.42,-566.72 739.37,-564.49 736.68,-561.27"/>
<polyline fill="none" stroke="orange" stroke-width="2" points="738.8,-562.24 741.1,-560.32"/>
<ellipse fill="none" stroke="orange" stroke-width="2" cx="743.71" cy="-558.14" rx="2.4" ry="2.4"/>
</a>
</g>
<text text-anchor="middle" x="774.22" y="-510.01" font-family="Helvetica,sans-Serif" font-size="9.00" fill="orange">no&#45;circular</text>
</g>
<!-- src/shared/ui/AddToCartButton/AddToCartButton.tsx&#45;&gt;src/shared/ui/AddToCartButton/AddToCartButton.module.css -->
<g id="edge34" class="edge">
<title>src/shared/ui/AddToCartButton/AddToCartButton.tsx&#45;&gt;src/shared/ui/AddToCartButton/AddToCartButton.module.css</title>
<path fill="none" stroke="#000000" stroke-width="2" stroke-opacity="0.200000" d="M922.39,-452.49C930.66,-450.5 939.43,-448.5 947.62,-446.83 954.62,-445.41 961.93,-444.02 969.25,-442.71"/>
<polygon fill="#000000" fill-opacity="0.200000" stroke="#000000" stroke-width="2" stroke-opacity="0.200000" points="969.28,-444.84 974.83,-441.73 968.56,-440.7 969.28,-444.84"/>
</g>
<!-- src/shared/ui/AddToCartButton/mixkit&#45;on&#45;or&#45;off&#45;light&#45;switch&#45;tap&#45;2585.wav -->
<g id="node29" class="node">
<title>src/shared/ui/AddToCartButton/mixkit&#45;on&#45;or&#45;off&#45;light&#45;switch&#45;tap&#45;2585.wav</title>
<g id="a_node29"><a xlink:href="src/shared/ui/AddToCartButton/mixkit-on-or-off-light-switch-tap-2585.wav" xlink:title="mixkit&#45;on&#45;or&#45;off&#45;light&#45;switch&#45;tap&#45;2585.wav">
<path fill="#ffffcc" stroke="black" d="M1125.71,-470.71C1125.71,-470.71 953.54,-470.71 953.54,-470.71 950.58,-470.71 947.62,-467.75 947.62,-464.79 947.62,-464.79 947.62,-458.87 947.62,-458.87 947.62,-455.92 950.58,-452.96 953.54,-452.96 953.54,-452.96 1125.71,-452.96 1125.71,-452.96 1128.67,-452.96 1131.62,-455.92 1131.62,-458.87 1131.62,-458.87 1131.62,-464.79 1131.62,-464.79 1131.62,-467.75 1128.67,-470.71 1125.71,-470.71"/>
<text text-anchor="start" x="955.62" y="-458.16" font-family="Helvetica,sans-Serif" font-size="9.00">mixkit&#45;on&#45;or&#45;off&#45;light&#45;switch&#45;tap&#45;2585.wav</text>
</a>
</g>
</g>
<!-- src/shared/ui/AddToCartButton/AddToCartButton.tsx&#45;&gt;src/shared/ui/AddToCartButton/mixkit&#45;on&#45;or&#45;off&#45;light&#45;switch&#45;tap&#45;2585.wav -->
<g id="edge35" class="edge">
<title>src/shared/ui/AddToCartButton/AddToCartButton.tsx&#45;&gt;src/shared/ui/AddToCartButton/mixkit&#45;on&#45;or&#45;off&#45;light&#45;switch&#45;tap&#45;2585.wav</title>
<path fill="none" stroke="#000000" stroke-width="2" stroke-opacity="0.200000" d="M934.71,-461.83C935.99,-461.83 937.29,-461.83 938.59,-461.83"/>
<polygon fill="#000000" fill-opacity="0.200000" stroke="#000000" stroke-width="2" stroke-opacity="0.200000" points="938.3,-463.93 944.3,-461.83 938.3,-459.73 938.3,-463.93"/>
</g>
<!-- src/shared/ui/Layout/Layout.module.css -->
<g id="node30" class="node">
<title>src/shared/ui/Layout/Layout.module.css</title>
<g id="a_node30"><a xlink:href="src/shared/ui/Layout/Layout.module.css" xlink:title="Layout.module.css">
<path fill="#ffffcc" stroke="black" d="M1079.96,-530.71C1079.96,-530.71 999.29,-530.71 999.29,-530.71 996.33,-530.71 993.38,-527.75 993.38,-524.79 993.38,-524.79 993.38,-518.87 993.38,-518.87 993.38,-515.92 996.33,-512.96 999.29,-512.96 999.29,-512.96 1079.96,-512.96 1079.96,-512.96 1082.92,-512.96 1085.88,-515.92 1085.88,-518.87 1085.88,-518.87 1085.88,-524.79 1085.88,-524.79 1085.88,-527.75 1082.92,-530.71 1079.96,-530.71"/>
<text text-anchor="start" x="1001.38" y="-518.16" font-family="Helvetica,sans-Serif" font-size="9.00">Layout.module.css</text>
</a>
</g>
</g>
<!-- src/shared/ui/Layout/Layout.tsx&#45;&gt;src/shared/di/index.ts -->
<g id="edge38" class="edge">
<title>src/shared/ui/Layout/Layout.tsx&#45;&gt;src/shared/di/index.ts</title>
<path fill="none" stroke="#000000" stroke-width="2" stroke-opacity="0.200000" d="M911.32,-531.17C991.38,-560.71 1239.15,-652.1 1329.62,-685.47"/>
<polygon fill="#000000" fill-opacity="0.200000" stroke="#000000" stroke-width="2" stroke-opacity="0.200000" points="1328.67,-687.36 1335.03,-687.47 1330.13,-683.42 1328.67,-687.36"/>
</g>
<!-- src/shared/ui/Layout/Layout.tsx&#45;&gt;src/shared/feature&#45;flags/index.ts -->
<g id="edge39" class="edge">
<title>src/shared/ui/Layout/Layout.tsx&#45;&gt;src/shared/feature&#45;flags/index.ts</title>
<path fill="none" stroke="#000000" stroke-width="2" stroke-opacity="0.200000" d="M913.9,-515.21C921.88,-511.92 929.74,-507.04 934.62,-499.83 970.08,-447.54 912.84,-268.57 947.62,-215.83 960.25,-196.69 983.69,-185.63 1003.62,-179.38"/>
<polygon fill="#000000" fill-opacity="0.200000" stroke="#000000" stroke-width="2" stroke-opacity="0.200000" points="1004.1,-181.43 1009.29,-177.75 1002.94,-177.39 1004.1,-181.43"/>
</g>
<!-- src/shared/ui/Layout/Layout.tsx&#45;&gt;src/shared/theme/index.ts -->
<g id="edge40" class="edge">
<title>src/shared/ui/Layout/Layout.tsx&#45;&gt;src/shared/theme/index.ts</title>
<path fill="none" stroke="#000000" stroke-width="2" stroke-opacity="0.200000" d="M913.98,-514.69C921.77,-511.39 929.49,-506.64 934.62,-499.83 958.43,-468.27 928.07,-446.19 947.62,-411.83 962.81,-385.15 991.66,-364.24 1012.82,-351.55"/>
<polygon fill="#000000" fill-opacity="0.200000" stroke="#000000" stroke-width="2" stroke-opacity="0.200000" points="1013.76,-353.43 1017.89,-348.61 1011.65,-349.8 1013.76,-353.43"/>
</g>
<!-- src/shared/ui/Layout/Layout.tsx&#45;&gt;src/shared/ui/Layout/Layout.module.css -->
<g id="edge37" class="edge">
<title>src/shared/ui/Layout/Layout.tsx&#45;&gt;src/shared/ui/Layout/Layout.module.css</title>
<path fill="none" stroke="#000000" stroke-width="2" stroke-opacity="0.200000" d="M913.99,-521.83C933.61,-521.83 960.45,-521.83 984.2,-521.83"/>
<polygon fill="#000000" fill-opacity="0.200000" stroke="#000000" stroke-width="2" stroke-opacity="0.200000" points="984.11,-523.93 990.11,-521.83 984.11,-519.73 984.11,-523.93"/>
</g>
<!-- src/shared/ui/style.d.ts -->
<g id="node33" class="node">
<title>src/shared/ui/style.d.ts</title>
<g id="a_node33"><a xlink:href="src/shared/ui/style.d.ts" xlink:title="style.d.ts">
<path fill="#ccffcc" stroke="black" d="M743.08,-616.71C743.08,-616.71 700.92,-616.71 700.92,-616.71 697.96,-616.71 695,-613.75 695,-610.79 695,-610.79 695,-604.87 695,-604.87 695,-601.92 697.96,-598.96 700.92,-598.96 700.92,-598.96 743.08,-598.96 743.08,-598.96 746.04,-598.96 749,-601.92 749,-604.87 749,-604.87 749,-610.79 749,-610.79 749,-613.75 746.04,-616.71 743.08,-616.71"/>
<text text-anchor="start" x="704.38" y="-604.16" font-family="Helvetica,sans-Serif" font-size="9.00">style.d.ts</text>
</a>
</g>
</g>
<!-- src/vite&#45;env.d.ts -->
<g id="node34" class="node">
<title>src/vite&#45;env.d.ts</title>
<g id="a_node34"><a xlink:href="src/vite-env.d.ts" xlink:title="vite&#45;env.d.ts">
<path fill="#ccffcc" stroke="black" d="M77.46,-1057.71C77.46,-1057.71 24.54,-1057.71 24.54,-1057.71 21.58,-1057.71 18.62,-1054.75 18.62,-1051.79 18.62,-1051.79 18.62,-1045.87 18.62,-1045.87 18.62,-1042.92 21.58,-1039.96 24.54,-1039.96 24.54,-1039.96 77.46,-1039.96 77.46,-1039.96 80.42,-1039.96 83.38,-1042.92 83.38,-1045.87 83.38,-1045.87 83.38,-1051.79 83.38,-1051.79 83.38,-1054.75 80.42,-1057.71 77.46,-1057.71"/>
<text text-anchor="start" x="26.62" y="-1045.16" font-family="Helvetica,sans-Serif" font-size="9.00">vite&#45;env.d.ts</text>
</a>
</g>
</g>
<!-- src/widgets/cart/store/cart.store.ts&#45;&gt;src/shared/api/index.ts -->
<g id="edge46" class="edge">
<title>src/widgets/cart/store/cart.store.ts&#45;&gt;src/shared/api/index.ts</title>
<path fill="none" stroke="#000000" stroke-opacity="0.200000" d="M605.4,-793.61C619.32,-789.87 635.56,-784.18 648.62,-775.83 674.83,-759.09 697.87,-730.64 710.57,-713.12"/>
<polygon fill="none" stroke="#000000" stroke-opacity="0.200000" points="712.13,-714.54 713.89,-708.44 708.71,-712.11 712.13,-714.54"/>
</g>
<!-- src/widgets/cart/ui/Cart/Cart.tsx&#45;&gt;src/shared/di/index.ts -->
<g id="edge49" class="edge">
<title>src/widgets/cart/ui/Cart/Cart.tsx&#45;&gt;src/shared/di/index.ts</title>
<path fill="none" stroke="#000000" stroke-width="2" stroke-opacity="0.200000" d="M456.3,-876.85C462.57,-904.77 481.61,-992.3 490.88,-1065.83 492.52,-1078.87 490.49,-1173.71 498.88,-1183.83 563.94,-1262.42 618.97,-1241.83 721,-1241.83 721,-1241.83 721,-1241.83 1040.62,-1241.83 1291.16,-1241.83 1351.29,-809.62 1361.4,-715.7"/>
<polygon fill="#000000" fill-opacity="0.200000" stroke="#000000" stroke-width="2" stroke-opacity="0.200000" points="1363.48,-716.02 1362.01,-709.83 1359.3,-715.59 1363.48,-716.02"/>
</g>
<!-- src/widgets/cart/ui/Cart/Cart.tsx&#45;&gt;src/shared/ui/index.ts -->
<g id="edge50" class="edge">
<title>src/widgets/cart/ui/Cart/Cart.tsx&#45;&gt;src/shared/ui/index.ts</title>
<path fill="none" stroke="#000000" stroke-width="2" stroke-opacity="0.200000" d="M456.38,-858.64C461,-840.81 473.58,-801.39 498.88,-779.83 552.07,-734.5 605.83,-787.09 648.62,-731.83 667.57,-707.37 636.7,-616.5 656.62,-592.83 663.86,-584.24 674.96,-580.03 685.93,-578.1"/>
<polygon fill="#000000" fill-opacity="0.200000" stroke="#000000" stroke-width="2" stroke-opacity="0.200000" points="685.92,-580.22 691.61,-577.38 685.39,-576.05 685.92,-580.22"/>
</g>
<!-- src/widgets/cart/ui/Cart/Cart.tsx&#45;&gt;src/widgets/cart/store/cart.store.ts -->
<g id="edge47" class="edge">
<title>src/widgets/cart/ui/Cart/Cart.tsx&#45;&gt;src/widgets/cart/store/cart.store.ts</title>
<path fill="none" stroke="#000000" stroke-width="2" stroke-opacity="0.200000" d="M480.41,-859.92C484.03,-858.44 487.61,-856.74 490.88,-854.83 494.95,-852.44 495.11,-850.68 498.88,-847.83 515.29,-835.42 534.86,-822.8 549.73,-813.61"/>
<polygon fill="#000000" fill-opacity="0.200000" stroke="#000000" stroke-width="2" stroke-opacity="0.200000" points="550.43,-815.64 554.45,-810.72 548.24,-812.06 550.43,-815.64"/>
</g>
<!-- src/widgets/cart/ui/Cart/Cart.module.css -->
<g id="node37" class="node">
<title>src/widgets/cart/ui/Cart/Cart.module.css</title>
<g id="a_node37"><a xlink:href="src/widgets/cart/ui/Cart/Cart.module.css" xlink:title="Cart.module.css">
<path fill="#ffffcc" stroke="black" d="M608.83,-876.71C608.83,-876.71 538.67,-876.71 538.67,-876.71 535.71,-876.71 532.75,-873.75 532.75,-870.79 532.75,-870.79 532.75,-864.87 532.75,-864.87 532.75,-861.92 535.71,-858.96 538.67,-858.96 538.67,-858.96 608.83,-858.96 608.83,-858.96 611.79,-858.96 614.75,-861.92 614.75,-864.87 614.75,-864.87 614.75,-870.79 614.75,-870.79 614.75,-873.75 611.79,-876.71 608.83,-876.71"/>
<text text-anchor="start" x="540.75" y="-864.16" font-family="Helvetica,sans-Serif" font-size="9.00">Cart.module.css</text>
</a>
</g>
</g>
<!-- src/widgets/cart/ui/Cart/Cart.tsx&#45;&gt;src/widgets/cart/ui/Cart/Cart.module.css -->
<g id="edge48" class="edge">
<title>src/widgets/cart/ui/Cart/Cart.tsx&#45;&gt;src/widgets/cart/ui/Cart/Cart.module.css</title>
<path fill="none" stroke="#000000" stroke-width="2" stroke-opacity="0.200000" d="M480.55,-867.83C493.32,-867.83 509.08,-867.83 523.93,-867.83"/>
<polygon fill="#000000" fill-opacity="0.200000" stroke="#000000" stroke-width="2" stroke-opacity="0.200000" points="523.52,-869.93 529.52,-867.83 523.52,-865.73 523.52,-869.93"/>
</g>
<!-- src/widgets/popular&#45;products/api/getPopularProducts.ts -->
<g id="node38" class="node">
<title>src/widgets/popular&#45;products/api/getPopularProducts.ts</title>
<g id="a_node38"><a xlink:href="src/widgets/popular-products/api/getPopularProducts.ts" xlink:title="getPopularProducts.ts">
<path fill="#ddfeff" stroke="black" d="M769.08,-996.71C769.08,-996.71 674.92,-996.71 674.92,-996.71 671.96,-996.71 669,-993.75 669,-990.79 669,-990.79 669,-984.87 669,-984.87 669,-981.92 671.96,-978.96 674.92,-978.96 674.92,-978.96 769.08,-978.96 769.08,-978.96 772.04,-978.96 775,-981.92 775,-984.87 775,-984.87 775,-990.79 775,-990.79 775,-993.75 772.04,-996.71 769.08,-996.71"/>
<text text-anchor="start" x="677" y="-984.16" font-family="Helvetica,sans-Serif" font-size="9.00">getPopularProducts.ts</text>
</a>
</g>
</g>
<!-- src/widgets/popular&#45;products/api/getPopularProducts.ts&#45;&gt;src/shared/api/index.ts -->
<g id="edge51" class="edge">
<title>src/widgets/popular&#45;products/api/getPopularProducts.ts&#45;&gt;src/shared/api/index.ts</title>
<path fill="none" stroke="#000000" stroke-width="2" stroke-opacity="0.200000" d="M722,-978.51C722,-891.07 722,-803.63 722,-716.19"/>
<polygon fill="#000000" fill-opacity="0.200000" stroke="#000000" stroke-width="2" stroke-opacity="0.200000" points="724.1,-716.21 722,-710.21 719.9,-716.21 724.1,-716.21"/>
</g>
<!-- src/widgets/popular&#45;products/store/popular&#45;products.slice.ts&#45;&gt;src/shared/api/index.ts -->
<g id="edge55" class="edge">
<title>src/widgets/popular&#45;products/store/popular&#45;products.slice.ts&#45;&gt;src/shared/api/index.ts</title>
<path fill="none" stroke="#000000" stroke-opacity="0.200000" d="M586.4,-978.63C603.07,-964.75 633.42,-936.79 648.62,-905.83 657.39,-887.99 651.19,-880.95 656.62,-861.83 672.58,-805.69 700.52,-742.12 713.71,-713.39"/>
<polygon fill="none" stroke="#000000" stroke-opacity="0.200000" points="715.48,-714.56 716.09,-708.24 711.67,-712.8 715.48,-714.56"/>
</g>
<!-- src/widgets/popular&#45;products/store/popular&#45;products.slice.ts&#45;&gt;src/widgets/popular&#45;products/api/getPopularProducts.ts -->
<g id="edge54" class="edge">
<title>src/widgets/popular&#45;products/store/popular&#45;products.slice.ts&#45;&gt;src/widgets/popular&#45;products/api/getPopularProducts.ts</title>
<path fill="none" stroke="#000000" stroke-width="2" stroke-opacity="0.200000" d="M631.71,-987.83C640.95,-987.83 650.55,-987.83 659.88,-987.83"/>
<polygon fill="#000000" fill-opacity="0.200000" stroke="#000000" stroke-width="2" stroke-opacity="0.200000" points="659.7,-989.93 665.7,-987.83 659.7,-985.73 659.7,-989.93"/>
</g>
<!-- src/widgets/popular&#45;products/ui/ProductList/ProductList.tsx&#45;&gt;src/shared/di/index.ts -->
<g id="edge60" class="edge">
<title>src/widgets/popular&#45;products/ui/ProductList/ProductList.tsx&#45;&gt;src/shared/di/index.ts</title>
<path fill="none" stroke="#000000" stroke-width="2" stroke-opacity="0.200000" d="M454.36,-1094.9C455.16,-1119.03 460.91,-1185.18 498.88,-1217.83 574.81,-1283.14 620.84,-1255.83 721,-1255.83 721,-1255.83 721,-1255.83 1040.62,-1255.83 1088.39,-1255.83 1103.94,-1265.15 1147.62,-1245.83 1229.05,-1209.83 1253.2,-1189.11 1295.62,-1110.83 1333.73,-1040.52 1356.22,-785.72 1361.77,-715.73"/>
<polygon fill="#000000" fill-opacity="0.200000" stroke="#000000" stroke-width="2" stroke-opacity="0.200000" points="1363.83,-716.28 1362.2,-710.14 1359.64,-715.95 1363.83,-716.28"/>
</g>
<!-- src/widgets/popular&#45;products/ui/ProductList/ProductList.tsx&#45;&gt;src/widgets/popular&#45;products/store/popular&#45;products.slice.ts -->
<g id="edge57" class="edge">
<title>src/widgets/popular&#45;products/ui/ProductList/ProductList.tsx&#45;&gt;src/widgets/popular&#45;products/store/popular&#45;products.slice.ts</title>
<path fill="none" stroke="#000000" stroke-width="2" stroke-opacity="0.200000" d="M487.17,-1076.53C488.54,-1075.43 489.78,-1074.21 490.88,-1072.83 510.36,-1048.32 477.71,-1025.91 498.88,-1002.83 501.46,-1000.01 504.42,-997.64 507.64,-995.65"/>
<polygon fill="#000000" fill-opacity="0.200000" stroke="#000000" stroke-width="2" stroke-opacity="0.200000" points="508.42,-997.6 512.84,-993.03 506.54,-993.85 508.42,-997.6"/>
</g>
<!-- src/widgets/popular&#45;products/store/popular&#45;products.selectors.ts -->
<g id="node41" class="node">
<title>src/widgets/popular&#45;products/store/popular&#45;products.selectors.ts</title>
<g id="a_node41"><a xlink:href="src/widgets/popular-products/store/popular-products.selectors.ts" xlink:title="popular&#45;products.selectors.ts">
<path fill="#ddfeff" stroke="black" d="M634.71,-1026.71C634.71,-1026.71 512.79,-1026.71 512.79,-1026.71 509.83,-1026.71 506.88,-1023.75 506.88,-1020.79 506.88,-1020.79 506.88,-1014.87 506.88,-1014.87 506.88,-1011.92 509.83,-1008.96 512.79,-1008.96 512.79,-1008.96 634.71,-1008.96 634.71,-1008.96 637.67,-1008.96 640.62,-1011.92 640.62,-1014.87 640.62,-1014.87 640.62,-1020.79 640.62,-1020.79 640.62,-1023.75 637.67,-1026.71 634.71,-1026.71"/>
<text text-anchor="start" x="514.88" y="-1014.16" font-family="Helvetica,sans-Serif" font-size="9.00">popular&#45;products.selectors.ts</text>
</a>
</g>
</g>
<!-- src/widgets/popular&#45;products/ui/ProductList/ProductList.tsx&#45;&gt;src/widgets/popular&#45;products/store/popular&#45;products.selectors.ts -->
<g id="edge56" class="edge">
<title>src/widgets/popular&#45;products/ui/ProductList/ProductList.tsx&#45;&gt;src/widgets/popular&#45;products/store/popular&#45;products.selectors.ts</title>
<path fill="none" stroke="#000000" stroke-width="2" stroke-opacity="0.200000" d="M483.5,-1076.6C486.05,-1075.45 488.55,-1074.2 490.88,-1072.83 494.95,-1070.44 495.11,-1068.68 498.88,-1065.83 515.29,-1053.42 534.86,-1040.8 549.73,-1031.61"/>
<polygon fill="#000000" fill-opacity="0.200000" stroke="#000000" stroke-width="2" stroke-opacity="0.200000" points="550.43,-1033.64 554.45,-1028.72 548.24,-1030.06 550.43,-1033.64"/>
</g>
<!-- src/widgets/popular&#45;products/ui/ProductList/ProductList.module.css -->
<g id="node42" class="node">
<title>src/widgets/popular&#45;products/ui/ProductList/ProductList.module.css</title>
<g id="a_node42"><a xlink:href="src/widgets/popular-products/ui/ProductList/ProductList.module.css" xlink:title="ProductList.module.css">
<path fill="#ffffcc" stroke="black" d="M623.08,-1094.71C623.08,-1094.71 524.42,-1094.71 524.42,-1094.71 521.46,-1094.71 518.5,-1091.75 518.5,-1088.79 518.5,-1088.79 518.5,-1082.87 518.5,-1082.87 518.5,-1079.92 521.46,-1076.96 524.42,-1076.96 524.42,-1076.96 623.08,-1076.96 623.08,-1076.96 626.04,-1076.96 629,-1079.92 629,-1082.87 629,-1082.87 629,-1088.79 629,-1088.79 629,-1091.75 626.04,-1094.71 623.08,-1094.71"/>
<text text-anchor="start" x="526.5" y="-1082.16" font-family="Helvetica,sans-Serif" font-size="9.00">ProductList.module.css</text>
</a>
</g>
</g>
<!-- src/widgets/popular&#45;products/ui/ProductList/ProductList.tsx&#45;&gt;src/widgets/popular&#45;products/ui/ProductList/ProductList.module.css -->
<g id="edge59" class="edge">
<title>src/widgets/popular&#45;products/ui/ProductList/ProductList.tsx&#45;&gt;src/widgets/popular&#45;products/ui/ProductList/ProductList.module.css</title>
<path fill="none" stroke="#000000" stroke-width="2" stroke-opacity="0.200000" d="M491.09,-1085.83C496.85,-1085.83 502.93,-1085.83 509.07,-1085.83"/>
<polygon fill="#000000" fill-opacity="0.200000" stroke="#000000" stroke-width="2" stroke-opacity="0.200000" points="509.07,-1087.93 515.07,-1085.83 509.07,-1083.73 509.07,-1087.93"/>
</g>
<!-- src/widgets/popular&#45;products/ui/ProductListCard/ProductListCard.tsx -->
<g id="node43" class="node">
<title>src/widgets/popular&#45;products/ui/ProductListCard/ProductListCard.tsx</title>
<g id="a_node43"><a xlink:href="src/widgets/popular-products/ui/ProductListCard/ProductListCard.tsx" xlink:title="ProductListCard.tsx">
<path fill="#bbfeff" stroke="black" d="M615.58,-1154.71C615.58,-1154.71 531.92,-1154.71 531.92,-1154.71 528.96,-1154.71 526,-1151.75 526,-1148.79 526,-1148.79 526,-1142.87 526,-1142.87 526,-1139.92 528.96,-1136.96 531.92,-1136.96 531.92,-1136.96 615.58,-1136.96 615.58,-1136.96 618.54,-1136.96 621.5,-1139.92 621.5,-1142.87 621.5,-1142.87 621.5,-1148.79 621.5,-1148.79 621.5,-1151.75 618.54,-1154.71 615.58,-1154.71"/>
<text text-anchor="start" x="534" y="-1142.16" font-family="Helvetica,sans-Serif" font-size="9.00">ProductListCard.tsx</text>
</a>
</g>
</g>
<!-- src/widgets/popular&#45;products/ui/ProductList/ProductList.tsx&#45;&gt;src/widgets/popular&#45;products/ui/ProductListCard/ProductListCard.tsx -->
<g id="edge58" class="edge">
<title>src/widgets/popular&#45;products/ui/ProductList/ProductList.tsx&#45;&gt;src/widgets/popular&#45;products/ui/ProductListCard/ProductListCard.tsx</title>
<path fill="none" stroke="#000000" stroke-width="2" stroke-opacity="0.200000" d="M462.65,-1094.9C471.06,-1103.48 484.75,-1116.16 498.88,-1123.83 506.04,-1127.72 513.99,-1131.01 521.93,-1133.76"/>
<polygon fill="#000000" fill-opacity="0.200000" stroke="#000000" stroke-width="2" stroke-opacity="0.200000" points="521.27,-1135.75 527.63,-1135.6 522.57,-1131.76 521.27,-1135.75"/>
</g>
<!-- src/widgets/popular&#45;products/ui/ProductListCard/ProductListCard.tsx&#45;&gt;src/shared/di/index.ts -->
<g id="edge63" class="edge">
<title>src/widgets/popular&#45;products/ui/ProductListCard/ProductListCard.tsx&#45;&gt;src/shared/di/index.ts</title>
<path fill="none" stroke="#000000" stroke-width="2" stroke-opacity="0.200000" d="M621.73,-1140.99C632.07,-1137.68 641.93,-1132.35 648.62,-1123.83 670.08,-1096.54 637.02,-996.48 656.62,-967.83 719.18,-876.43 773.24,-865.83 884,-865.83 884,-865.83 884,-865.83 1040.62,-865.83 1163.19,-865.83 1192.49,-827.05 1295.62,-760.83 1316.3,-747.56 1336.42,-727.59 1349.23,-713.71"/>
<polygon fill="#000000" fill-opacity="0.200000" stroke="#000000" stroke-width="2" stroke-opacity="0.200000" points="1350.74,-715.18 1353.2,-709.32 1347.62,-712.36 1350.74,-715.18"/>
</g>
<!-- src/widgets/popular&#45;products/ui/ProductListCard/ProductListCard.tsx&#45;&gt;src/shared/ui/index.ts -->
<g id="edge64" class="edge">
<title>src/widgets/popular&#45;products/ui/ProductListCard/ProductListCard.tsx&#45;&gt;src/shared/ui/index.ts</title>
<path fill="none" stroke="#000000" stroke-width="2" stroke-opacity="0.200000" d="M621.94,-1141.16C632.28,-1137.85 642.08,-1132.47 648.62,-1123.83 666.44,-1100.31 638.11,-615.8 656.62,-592.83 663.73,-584.02 674.91,-579.77 685.98,-577.88"/>
<polygon fill="#000000" fill-opacity="0.200000" stroke="#000000" stroke-width="2" stroke-opacity="0.200000" points="686.04,-579.99 691.75,-577.18 685.54,-575.82 686.04,-579.99"/>
</g>
<!-- src/widgets/popular&#45;products/ui/ProductListCard/ProductListCard.tsx&#45;&gt;src/shared/api/index.ts -->
<g id="edge62" class="edge">
<title>src/widgets/popular&#45;products/ui/ProductListCard/ProductListCard.tsx&#45;&gt;src/shared/api/index.ts</title>
<path fill="none" stroke="#000000" stroke-opacity="0.200000" d="M621.85,-1141.09C632.19,-1137.78 642.01,-1132.42 648.62,-1123.83 657.51,-1112.29 653.7,-876.1 656.62,-861.83 668.3,-804.93 698.08,-742.2 712.68,-713.6"/>
<polygon fill="none" stroke="#000000" stroke-opacity="0.200000" points="714.46,-714.73 715.35,-708.44 710.73,-712.8 714.46,-714.73"/>
</g>
<!-- src/widgets/popular&#45;products/ui/ProductListCard/ProductListCard.module.css -->
<g id="node44" class="node">
<title>src/widgets/popular&#45;products/ui/ProductListCard/ProductListCard.module.css</title>
<g id="a_node44"><a xlink:href="src/widgets/popular-products/ui/ProductListCard/ProductListCard.module.css" xlink:title="ProductListCard.module.css">
<path fill="#ffffcc" stroke="black" d="M781.46,-1154.71C781.46,-1154.71 662.54,-1154.71 662.54,-1154.71 659.58,-1154.71 656.62,-1151.75 656.62,-1148.79 656.62,-1148.79 656.62,-1142.87 656.62,-1142.87 656.62,-1139.92 659.58,-1136.96 662.54,-1136.96 662.54,-1136.96 781.46,-1136.96 781.46,-1136.96 784.42,-1136.96 787.38,-1139.92 787.38,-1142.87 787.38,-1142.87 787.38,-1148.79 787.38,-1148.79 787.38,-1151.75 784.42,-1154.71 781.46,-1154.71"/>
<text text-anchor="start" x="664.62" y="-1142.16" font-family="Helvetica,sans-Serif" font-size="9.00">ProductListCard.module.css</text>
</a>
</g>
</g>
<!-- src/widgets/popular&#45;products/ui/ProductListCard/ProductListCard.tsx&#45;&gt;src/widgets/popular&#45;products/ui/ProductListCard/ProductListCard.module.css -->
<g id="edge61" class="edge">
<title>src/widgets/popular&#45;products/ui/ProductListCard/ProductListCard.tsx&#45;&gt;src/widgets/popular&#45;products/ui/ProductListCard/ProductListCard.module.css</title>
<path fill="none" stroke="#000000" stroke-width="2" stroke-opacity="0.200000" d="M621.83,-1145.83C629.95,-1145.83 638.56,-1145.83 647.18,-1145.83"/>
<polygon fill="#000000" fill-opacity="0.200000" stroke="#000000" stroke-width="2" stroke-opacity="0.200000" points="647.13,-1147.93 653.13,-1145.83 647.13,-1143.73 647.13,-1147.93"/>
</g>
</g>
</svg>
