<?xml version="1.0" encoding="UTF-8" standalone="no"?>
<!DOCTYPE svg PUBLIC "-//W3C//DTD SVG 1.1//EN"
 "http://www.w3.org/Graphics/SVG/1.1/DTD/svg11.dtd">
<!-- Generated by graphviz version 12.0.0 (20240704.0754)
 -->
<!-- Title: dependency&#45;cruiser output Pages: 1 -->
<svg width="533pt" height="230pt"
 viewBox="0.00 0.00 532.75 230.00" xmlns="http://www.w3.org/2000/svg" xmlns:xlink="http://www.w3.org/1999/xlink">
<g id="graph0" class="graph" transform="scale(1 1) rotate(0) translate(4 226)">
<title>dependency&#45;cruiser output</title>
<polygon fill="white" stroke="none" points="-4,4 -4,-226 528.75,-226 528.75,4 -4,4"/>
<g id="clust1" class="cluster">
<title>cluster_src</title>
<path fill="#ffffff" stroke="black" stroke-width="2" d="M20,-8C20,-8 504.75,-8 504.75,-8 510.75,-8 516.75,-14 516.75,-20 516.75,-20 516.75,-202 516.75,-202 516.75,-208 510.75,-214 504.75,-214 504.75,-214 20,-214 20,-214 14,-214 8,-208 8,-202 8,-202 8,-20 8,-20 8,-14 14,-8 20,-8"/>
<text text-anchor="middle" x="262.38" y="-201.45" font-family="Helvetica,sans-Serif" font-weight="bold" font-size="9.00">src</text>
</g>
<g id="clust2" class="cluster">
<title>cluster_src/app</title>
<path fill="#ffffff" stroke="black" stroke-width="2" d="M28,-16C28,-16 162,-16 162,-16 168,-16 174,-22 174,-28 174,-28 174,-176 174,-176 174,-182 168,-188 162,-188 162,-188 28,-188 28,-188 22,-188 16,-182 16,-176 16,-176 16,-28 16,-28 16,-22 22,-16 28,-16"/>
<text text-anchor="middle" x="95" y="-175.45" font-family="Helvetica,sans-Serif" font-weight="bold" font-size="9.00">app</text>
</g>
<g id="clust3" class="cluster">
<title>cluster_src/app/providers</title>
<path fill="#ffffff" stroke="black" stroke-width="2" d="M98,-50C98,-50 154,-50 154,-50 160,-50 166,-56 166,-62 166,-62 166,-150 166,-150 166,-156 160,-162 154,-162 154,-162 98,-162 98,-162 92,-162 86,-156 86,-150 86,-150 86,-62 86,-62 86,-56 92,-50 98,-50"/>
<text text-anchor="middle" x="126" y="-149.45" font-family="Helvetica,sans-Serif" font-weight="bold" font-size="9.00">providers</text>
</g>
<g id="clust4" class="cluster">
<title>cluster_src/shared</title>
<path fill="#ffffff" stroke="black" stroke-width="2" d="M303.75,-73C303.75,-73 496.75,-73 496.75,-73 502.75,-73 508.75,-79 508.75,-85 508.75,-85 508.75,-157 508.75,-157 508.75,-163 502.75,-169 496.75,-169 496.75,-169 303.75,-169 303.75,-169 297.75,-169 291.75,-163 291.75,-157 291.75,-157 291.75,-85 291.75,-85 291.75,-79 297.75,-73 303.75,-73"/>
<text text-anchor="middle" x="400.25" y="-156.45" font-family="Helvetica,sans-Serif" font-weight="bold" font-size="9.00">shared</text>
</g>
<g id="clust5" class="cluster">
<title>cluster_src/widgets</title>
<path fill="#ffffff" stroke="black" stroke-width="2" d="M194,-50C194,-50 271.75,-50 271.75,-50 277.75,-50 283.75,-56 283.75,-62 283.75,-62 283.75,-120 283.75,-120 283.75,-126 277.75,-132 271.75,-132 271.75,-132 194,-132 194,-132 188,-132 182,-126 182,-120 182,-120 182,-62 182,-62 182,-56 188,-50 194,-50"/>
<text text-anchor="middle" x="232.88" y="-119.45" font-family="Helvetica,sans-Serif" font-weight="bold" font-size="9.00">widgets</text>
</g>
<!-- src/app/entry.tsx -->
<g id="node1" class="node">
<title>src/app/entry.tsx</title>
<g id="a_node1"><a xlink:href="src/app/entry.tsx" xlink:title="entry.tsx">
<path fill="#bbfeff" stroke="black" d="M72.08,-90.88C72.08,-90.88 29.92,-90.88 29.92,-90.88 26.96,-90.88 24,-87.92 24,-84.96 24,-84.96 24,-79.04 24,-79.04 24,-76.08 26.96,-73.12 29.92,-73.12 29.92,-73.12 72.08,-73.12 72.08,-73.12 75.04,-73.12 78,-76.08 78,-79.04 78,-79.04 78,-84.96 78,-84.96 78,-87.92 75.04,-90.88 72.08,-90.88"/>
<text text-anchor="start" x="34.12" y="-78.33" font-family="Helvetica,sans-Serif" font-size="9.00">entry.tsx</text>
</a>
</g>
</g>
<!-- src/app/index.css -->
<g id="node2" class="node">
<title>src/app/index.css</title>
<g id="a_node2"><a xlink:href="src/app/index.css" xlink:title="index.css">
<path fill="#ffffcc" stroke="black" d="M147.21,-41.88C147.21,-41.88 104.79,-41.88 104.79,-41.88 101.83,-41.88 98.88,-38.92 98.88,-35.96 98.88,-35.96 98.88,-30.04 98.88,-30.04 98.88,-27.08 101.83,-24.12 104.79,-24.12 104.79,-24.12 147.21,-24.12 147.21,-24.12 150.17,-24.12 153.12,-27.08 153.12,-30.04 153.12,-30.04 153.12,-35.96 153.12,-35.96 153.12,-38.92 150.17,-41.88 147.21,-41.88"/>
<text text-anchor="start" x="106.88" y="-29.32" font-family="Helvetica,sans-Serif" font-size="9.00">index.css</text>
</a>
</g>
</g>
<!-- src/app/entry.tsx&#45;&gt;src/app/index.css -->
<g id="edge1" class="edge">
<title>src/app/entry.tsx&#45;&gt;src/app/index.css</title>
<path fill="none" stroke="#000000" stroke-width="2" stroke-opacity="0.200000" d="M58.92,-72.82C65.22,-65 75.17,-53.97 86,-47 87.45,-46.07 88.97,-45.18 90.54,-44.35"/>
<polygon fill="#000000" fill-opacity="0.200000" stroke="#000000" stroke-width="2" stroke-opacity="0.200000" points="91.32,-46.3 95.88,-41.88 89.55,-42.49 91.32,-46.3"/>
</g>
<!-- src/app/providers/diContainer/ -->
<g id="node3" class="node">
<title>src/app/providers/diContainer/</title>
<g id="a_node3"><a xlink:href="src/app/providers/diContainer/" xlink:title="diContainer">
<polygon fill="#ffffcc" stroke="black" points="158,-105.88 95.97,-105.88 94,-103.9 94,-88.12 156.03,-88.12 158,-90.1 158,-105.88"/>
<polyline fill="none" stroke="black" points="156.03,-103.9 94,-103.9"/>
<polyline fill="none" stroke="black" points="156.03,-103.9 156.03,-88.12"/>
<polyline fill="none" stroke="black" points="156.03,-103.9 158,-105.88"/>
<text text-anchor="start" x="102" y="-93.33" font-family="Helvetica,sans-Serif" font-size="9.00">diContainer</text>
</a>
</g>
</g>
<!-- src/app/entry.tsx&#45;&gt;src/app/providers/diContainer/ -->
<g id="edge2" class="edge">
<title>src/app/entry.tsx&#45;&gt;src/app/providers/diContainer/</title>
<path fill="none" stroke="#000000" stroke-width="2" stroke-opacity="0.200000" d="M78.35,-87.42C80.53,-87.86 82.77,-88.32 85.02,-88.78"/>
<polygon fill="#000000" fill-opacity="0.200000" stroke="#000000" stroke-width="2" stroke-opacity="0.200000" points="84.45,-90.81 90.75,-89.96 85.29,-86.7 84.45,-90.81"/>
</g>
<!-- src/app/providers/layout/ -->
<g id="node4" class="node">
<title>src/app/providers/layout/</title>
<g id="a_node4"><a xlink:href="src/app/providers/layout/" xlink:title="layout">
<polygon fill="#ffffcc" stroke="black" points="153,-135.88 100.97,-135.88 99,-133.9 99,-118.12 151.03,-118.12 153,-120.1 153,-135.88"/>
<polyline fill="none" stroke="black" points="151.03,-133.9 99,-133.9"/>
<polyline fill="none" stroke="black" points="151.03,-133.9 151.03,-118.12"/>
<polyline fill="none" stroke="black" points="151.03,-133.9 153,-135.88"/>
<text text-anchor="start" x="113.62" y="-123.33" font-family="Helvetica,sans-Serif" font-size="9.00">layout</text>
</a>
</g>
</g>
<!-- src/app/entry.tsx&#45;&gt;src/app/providers/layout/ -->
<g id="edge3" class="edge">
<title>src/app/entry.tsx&#45;&gt;src/app/providers/layout/</title>
<path fill="none" stroke="#000000" stroke-width="2" stroke-opacity="0.200000" d="M60.54,-91.1C67.03,-97.61 76.44,-106.2 86,-112 87.49,-112.9 89.04,-113.77 90.63,-114.59"/>
<polygon fill="#000000" fill-opacity="0.200000" stroke="#000000" stroke-width="2" stroke-opacity="0.200000" points="89.73,-116.49 96.05,-117.13 91.5,-112.68 89.73,-116.49"/>
</g>
<!-- src/app/providers/redux/ -->
<g id="node5" class="node">
<title>src/app/providers/redux/</title>
<g id="a_node5"><a xlink:href="src/app/providers/redux/" xlink:title="redux">
<polygon fill="#ffffcc" stroke="black" points="153,-75.88 100.97,-75.88 99,-73.9 99,-58.12 151.03,-58.12 153,-60.1 153,-75.88"/>
<polyline fill="none" stroke="black" points="151.03,-73.9 99,-73.9"/>
<polyline fill="none" stroke="black" points="151.03,-73.9 151.03,-58.12"/>
<polyline fill="none" stroke="black" points="151.03,-73.9 153,-75.88"/>
<text text-anchor="start" x="114.38" y="-63.33" font-family="Helvetica,sans-Serif" font-size="9.00">redux</text>
</a>
</g>
</g>
<!-- src/app/entry.tsx&#45;&gt;src/app/providers/redux/ -->
<g id="edge4" class="edge">
<title>src/app/entry.tsx&#45;&gt;src/app/providers/redux/</title>
<path fill="none" stroke="#000000" stroke-width="2" stroke-opacity="0.200000" d="M78.35,-76.58C82.23,-75.79 86.26,-74.96 90.27,-74.14"/>
<polygon fill="#000000" fill-opacity="0.200000" stroke="#000000" stroke-width="2" stroke-opacity="0.200000" points="90.51,-76.23 95.96,-72.97 89.66,-72.12 90.51,-76.23"/>
</g>
<!-- src/shared/di/ -->
<g id="node6" class="node">
<title>src/shared/di/</title>
<g id="a_node6"><a xlink:href="src/shared/di/" xlink:title="di">
<polygon fill="#ffffcc" stroke="black" points="500.75,-98.88 448.72,-98.88 446.75,-96.9 446.75,-81.12 498.78,-81.12 500.75,-83.1 500.75,-98.88"/>
<polyline fill="none" stroke="black" points="498.78,-96.9 446.75,-96.9"/>
<polyline fill="none" stroke="black" points="498.78,-96.9 498.78,-81.12"/>
<polyline fill="none" stroke="black" points="498.78,-96.9 500.75,-98.88"/>
<text text-anchor="start" x="470" y="-86.33" font-family="Helvetica,sans-Serif" font-size="9.00">di</text>
</a>
</g>
</g>
<!-- src/app/providers/diContainer/&#45;&gt;src/shared/di/ -->
<g id="edge5" class="edge">
<title>src/app/providers/diContainer/&#45;&gt;src/shared/di/</title>
<path fill="none" stroke="#000000" stroke-width="2" stroke-opacity="0.200000" d="M158.47,-91.93C164.28,-89.71 169.83,-86.54 174,-82 184.8,-70.25 169.52,-56.95 182,-47 204.41,-29.13 412.64,-49.56 433.75,-58 443.02,-61.7 451.77,-68.46 458.62,-74.81"/>
<polygon fill="#000000" fill-opacity="0.200000" stroke="#000000" stroke-width="2" stroke-opacity="0.200000" points="456.89,-76.05 462.64,-78.77 459.84,-73.06 456.89,-76.05"/>
</g>
<!-- src/shared/feature&#45;flags/ -->
<g id="node7" class="node">
<title>src/shared/feature&#45;flags/</title>
<g id="a_node7"><a xlink:href="src/shared/feature-flags/" xlink:title="feature&#45;flags">
<polygon fill="#ffffcc" stroke="black" points="433.75,-112.88 368.72,-112.88 366.75,-110.9 366.75,-95.12 431.78,-95.12 433.75,-97.1 433.75,-112.88"/>
<polyline fill="none" stroke="black" points="431.78,-110.9 366.75,-110.9"/>
<polyline fill="none" stroke="black" points="431.78,-110.9 431.78,-95.12"/>
<polyline fill="none" stroke="black" points="431.78,-110.9 433.75,-112.88"/>
<text text-anchor="start" x="374.75" y="-100.33" font-family="Helvetica,sans-Serif" font-size="9.00">feature&#45;flags</text>
</a>
</g>
</g>
<!-- src/app/providers/diContainer/&#45;&gt;src/shared/feature&#45;flags/ -->
<g id="edge6" class="edge">
<title>src/app/providers/diContainer/&#45;&gt;src/shared/feature&#45;flags/</title>
<path fill="none" stroke="#000000" stroke-width="2" stroke-opacity="0.200000" d="M158.09,-102.44C163.93,-104.63 169.58,-107.7 174,-112 181.75,-119.55 173.18,-128.73 182,-135 244.21,-179.23 284.83,-167.81 353.75,-135 362.02,-131.06 359.51,-124.62 366.75,-119 367.27,-118.6 367.79,-118.21 368.33,-117.82"/>
<polygon fill="#000000" fill-opacity="0.200000" stroke="#000000" stroke-width="2" stroke-opacity="0.200000" points="369.18,-119.77 373.19,-114.84 366.98,-116.19 369.18,-119.77"/>
</g>
<!-- src/shared/theme/ -->
<g id="node8" class="node">
<title>src/shared/theme/</title>
<g id="a_node8"><a xlink:href="src/shared/theme/" xlink:title="theme">
<polygon fill="#ffffcc" stroke="black" points="427.25,-142.88 375.22,-142.88 373.25,-140.9 373.25,-125.12 425.28,-125.12 427.25,-127.1 427.25,-142.88"/>
<polyline fill="none" stroke="black" points="425.28,-140.9 373.25,-140.9"/>
<polyline fill="none" stroke="black" points="425.28,-140.9 425.28,-125.12"/>
<polyline fill="none" stroke="black" points="425.28,-140.9 427.25,-142.88"/>
<text text-anchor="start" x="387.5" y="-130.32" font-family="Helvetica,sans-Serif" font-size="9.00">theme</text>
</a>
</g>
</g>
<!-- src/app/providers/diContainer/&#45;&gt;src/shared/theme/ -->
<g id="edge7" class="edge">
<title>src/app/providers/diContainer/&#45;&gt;src/shared/theme/</title>
<path fill="none" stroke="#000000" stroke-width="2" stroke-opacity="0.200000" d="M158.1,-101.79C164.08,-104.01 169.79,-107.27 174,-112 186.34,-125.87 167.67,-141.2 182,-153 236.91,-198.23 328.24,-166.83 372.96,-146.92"/>
<polygon fill="#000000" fill-opacity="0.200000" stroke="#000000" stroke-width="2" stroke-opacity="0.200000" points="373.67,-148.91 378.25,-144.5 371.92,-145.09 373.67,-148.91"/>
</g>
<!-- src/widgets/cart/ -->
<g id="node9" class="node">
<title>src/widgets/cart/</title>
<g id="a_node9"><a xlink:href="src/widgets/cart/" xlink:title="cart">
<polygon fill="#ffffcc" stroke="black" points="259.88,-105.88 207.85,-105.88 205.88,-103.9 205.88,-88.12 257.9,-88.12 259.88,-90.1 259.88,-105.88"/>
<polyline fill="none" stroke="black" points="257.9,-103.9 205.88,-103.9"/>
<polyline fill="none" stroke="black" points="257.9,-103.9 257.9,-88.12"/>
<polyline fill="none" stroke="black" points="257.9,-103.9 259.88,-105.88"/>
<text text-anchor="start" x="225.38" y="-93.33" font-family="Helvetica,sans-Serif" font-size="9.00">cart</text>
</a>
</g>
</g>
<!-- src/app/providers/diContainer/&#45;&gt;src/widgets/cart/ -->
<g id="edge8" class="edge">
<title>src/app/providers/diContainer/&#45;&gt;src/widgets/cart/</title>
<path fill="none" stroke="#000000" stroke-width="2" stroke-opacity="0.200000" d="M158.47,-97C170.51,-97 184.31,-97 196.68,-97"/>
<polygon fill="#000000" fill-opacity="0.200000" stroke="#000000" stroke-width="2" stroke-opacity="0.200000" points="196.36,-99.1 202.36,-97 196.36,-94.9 196.36,-99.1"/>
</g>
<!-- src/app/providers/layout/&#45;&gt;src/shared/di/ -->
<g id="edge9" class="edge">
<title>src/app/providers/layout/&#45;&gt;src/shared/di/</title>
<path fill="none" stroke="#000000" stroke-width="2" stroke-opacity="0.200000" d="M135.66,-136.33C145.68,-146.38 163.24,-161.78 182,-168 254.45,-192.03 277.93,-176.88 353.75,-168 390.05,-163.75 403.8,-169.93 433.75,-149 448.61,-138.61 459.3,-120.58 465.69,-107.18"/>
<polygon fill="#000000" fill-opacity="0.200000" stroke="#000000" stroke-width="2" stroke-opacity="0.200000" points="467.51,-108.26 468.04,-101.93 463.67,-106.55 467.51,-108.26"/>
</g>
<!-- src/app/providers/layout/&#45;&gt;src/widgets/cart/ -->
<g id="edge11" class="edge">
<title>src/app/providers/layout/&#45;&gt;src/widgets/cart/</title>
<path fill="none" stroke="#000000" stroke-width="2" stroke-opacity="0.200000" d="M153.46,-119.43C166.63,-115.66 182.72,-111.06 196.89,-107.01"/>
<polygon fill="#000000" fill-opacity="0.200000" stroke="#000000" stroke-width="2" stroke-opacity="0.200000" points="197.32,-109.07 202.51,-105.4 196.16,-105.03 197.32,-109.07"/>
</g>
<!-- src/shared/ui/ -->
<g id="node10" class="node">
<title>src/shared/ui/</title>
<g id="a_node10"><a xlink:href="src/shared/ui/" xlink:title="ui">
<polygon fill="#ffffcc" stroke="black" points="353.75,-128.88 301.72,-128.88 299.75,-126.9 299.75,-111.12 351.78,-111.12 353.75,-113.1 353.75,-128.88"/>
<polyline fill="none" stroke="black" points="351.78,-126.9 299.75,-126.9"/>
<polyline fill="none" stroke="black" points="351.78,-126.9 351.78,-111.12"/>
<polyline fill="none" stroke="black" points="351.78,-126.9 353.75,-128.88"/>
<text text-anchor="start" x="323" y="-116.33" font-family="Helvetica,sans-Serif" font-size="9.00">ui</text>
</a>
</g>
</g>
<!-- src/app/providers/layout/&#45;&gt;src/shared/ui/ -->
<g id="edge10" class="edge">
<title>src/app/providers/layout/&#45;&gt;src/shared/ui/</title>
<path fill="none" stroke="#000000" stroke-width="2" stroke-opacity="0.200000" d="M153.28,-131.87C184.6,-136.86 238.37,-142.86 283.75,-135 287.72,-134.31 291.81,-133.28 295.81,-132.08"/>
<polygon fill="#000000" fill-opacity="0.200000" stroke="#000000" stroke-width="2" stroke-opacity="0.200000" points="296.43,-134.09 301.46,-130.2 295.11,-130.1 296.43,-134.09"/>
</g>
<!-- src/widgets/popular&#45;products/ -->
<g id="node11" class="node">
<title>src/widgets/popular&#45;products/</title>
<g id="a_node11"><a xlink:href="src/widgets/popular-products/" xlink:title="popular&#45;products">
<polygon fill="#ffffcc" stroke="black" points="275.75,-75.88 191.97,-75.88 190,-73.9 190,-58.12 273.78,-58.12 275.75,-60.1 275.75,-75.88"/>
<polyline fill="none" stroke="black" points="273.78,-73.9 190,-73.9"/>
<polyline fill="none" stroke="black" points="273.78,-73.9 273.78,-58.12"/>
<polyline fill="none" stroke="black" points="273.78,-73.9 275.75,-75.88"/>
<text text-anchor="start" x="198" y="-63.33" font-family="Helvetica,sans-Serif" font-size="9.00">popular&#45;products</text>
</a>
</g>
</g>
<!-- src/app/providers/layout/&#45;&gt;src/widgets/popular&#45;products/ -->
<g id="edge12" class="edge">
<title>src/app/providers/layout/&#45;&gt;src/widgets/popular&#45;products/</title>
<path fill="none" stroke="#000000" stroke-width="2" stroke-opacity="0.200000" d="M153.46,-123.44C160.97,-121.25 168.56,-117.7 174,-112 183.52,-102.01 172.4,-91.91 182,-82 182.28,-81.71 182.57,-81.42 182.87,-81.14"/>
<polygon fill="#000000" fill-opacity="0.200000" stroke="#000000" stroke-width="2" stroke-opacity="0.200000" points="183.74,-83.11 187.28,-77.83 181.22,-79.75 183.74,-83.11"/>
</g>
<!-- src/app/providers/redux/&#45;&gt;src/widgets/popular&#45;products/ -->
<g id="edge13" class="edge">
<title>src/app/providers/redux/&#45;&gt;src/widgets/popular&#45;products/</title>
<path fill="none" stroke="#000000" stroke-width="2" stroke-opacity="0.200000" d="M153.46,-67C161.74,-67 171.17,-67 180.56,-67"/>
<polygon fill="#000000" fill-opacity="0.200000" stroke="#000000" stroke-width="2" stroke-opacity="0.200000" points="180.47,-69.1 186.47,-67 180.47,-64.9 180.47,-69.1"/>
</g>
<!-- src/shared/theme/&#45;&gt;src/shared/di/ -->
<g id="edge14" class="edge">
<title>src/shared/theme/&#45;&gt;src/shared/di/</title>
<path fill="none" stroke="#000000" stroke-width="2" stroke-opacity="0.200000" d="M422.9,-124.77C426.59,-122.98 430.33,-121.03 433.75,-119 440.84,-114.79 448.2,-109.57 454.6,-104.72"/>
<polygon fill="#000000" fill-opacity="0.200000" stroke="#000000" stroke-width="2" stroke-opacity="0.200000" points="455.75,-106.48 459.19,-101.14 453.17,-103.17 455.75,-106.48"/>
</g>
<!-- src/widgets/cart/&#45;&gt;src/shared/di/ -->
<g id="edge19" class="edge">
<title>src/widgets/cart/&#45;&gt;src/shared/di/</title>
<path fill="none" stroke="#000000" stroke-width="2" stroke-opacity="0.200000" d="M260.35,-91.3C268.17,-89.03 276.55,-85.98 283.75,-82 287.88,-79.71 287.33,-76.66 291.75,-75 301,-71.52 427.3,-75.87 433.75,-77 435.9,-77.38 438.1,-77.85 440.3,-78.39"/>
<polygon fill="#000000" fill-opacity="0.200000" stroke="#000000" stroke-width="2" stroke-opacity="0.200000" points="439.44,-80.33 445.78,-79.93 440.57,-76.29 439.44,-80.33"/>
</g>
<!-- src/widgets/cart/&#45;&gt;src/shared/ui/ -->
<g id="edge20" class="edge">
<title>src/widgets/cart/&#45;&gt;src/shared/ui/</title>
<path fill="none" stroke="#000000" stroke-width="2" stroke-opacity="0.200000" d="M259.96,-103.53C269.48,-105.91 280.4,-108.65 290.58,-111.2"/>
<polygon fill="#000000" fill-opacity="0.200000" stroke="#000000" stroke-width="2" stroke-opacity="0.200000" points="290.02,-113.22 296.35,-112.64 291.04,-109.15 290.02,-113.22"/>
</g>
<!-- src/shared/api/ -->
<g id="node12" class="node">
<title>src/shared/api/</title>
<g id="a_node12"><a xlink:href="src/shared/api/" xlink:title="api">
<polygon fill="#ffffcc" stroke="black" points="353.75,-98.88 301.72,-98.88 299.75,-96.9 299.75,-81.12 351.78,-81.12 353.75,-83.1 353.75,-98.88"/>
<polyline fill="none" stroke="black" points="351.78,-96.9 299.75,-96.9"/>
<polyline fill="none" stroke="black" points="351.78,-96.9 351.78,-81.12"/>
<polyline fill="none" stroke="black" points="351.78,-96.9 353.75,-98.88"/>
<text text-anchor="start" x="320.38" y="-86.33" font-family="Helvetica,sans-Serif" font-size="9.00">api</text>
</a>
</g>
</g>
<!-- src/widgets/cart/&#45;&gt;src/shared/api/ -->
<g id="edge18" class="edge">
<title>src/widgets/cart/&#45;&gt;src/shared/api/</title>
<path fill="none" stroke="#000000" stroke-opacity="0.200000" d="M259.96,-95.01C269.86,-94.26 281.29,-93.39 291.81,-92.59"/>
<polygon fill="none" stroke="#000000" stroke-opacity="0.200000" points="291.95,-94.68 297.77,-92.13 291.63,-90.49 291.95,-94.68"/>
</g>
<!-- src/shared/ui/&#45;&gt;src/shared/di/ -->
<g id="edge15" class="edge">
<title>src/shared/ui/&#45;&gt;src/shared/di/</title>
<path fill="none" stroke="#000000" stroke-width="2" stroke-opacity="0.200000" d="M345.95,-110.65C348.68,-108.93 351.37,-107.03 353.75,-105 360.72,-99.06 358.48,-92.94 366.75,-89 388.71,-78.55 416.23,-79.15 437.73,-82.18"/>
<polygon fill="#000000" fill-opacity="0.200000" stroke="#000000" stroke-width="2" stroke-opacity="0.200000" points="437.3,-84.24 443.56,-83.12 437.97,-80.09 437.3,-84.24"/>
</g>
<!-- src/shared/ui/&#45;&gt;src/shared/feature&#45;flags/ -->
<g id="edge16" class="edge">
<title>src/shared/ui/&#45;&gt;src/shared/feature&#45;flags/</title>
<path fill="none" stroke="#000000" stroke-width="2" stroke-opacity="0.200000" d="M353.97,-114.13C355.39,-113.81 356.84,-113.49 358.3,-113.16"/>
<polygon fill="#000000" fill-opacity="0.200000" stroke="#000000" stroke-width="2" stroke-opacity="0.200000" points="358.36,-115.3 363.76,-111.94 357.44,-111.2 358.36,-115.3"/>
</g>
<!-- src/shared/ui/&#45;&gt;src/shared/theme/ -->
<g id="edge17" class="edge">
<title>src/shared/ui/&#45;&gt;src/shared/theme/</title>
<path fill="none" stroke="#000000" stroke-width="2" stroke-opacity="0.200000" d="M353.97,-125.13C357.37,-125.8 360.89,-126.49 364.41,-127.18"/>
<polygon fill="#000000" fill-opacity="0.200000" stroke="#000000" stroke-width="2" stroke-opacity="0.200000" points="363.77,-129.19 370.06,-128.29 364.58,-125.07 363.77,-129.19"/>
</g>
<!-- src/widgets/popular&#45;products/&#45;&gt;src/shared/di/ -->
<g id="edge22" class="edge">
<title>src/widgets/popular&#45;products/&#45;&gt;src/shared/di/</title>
<path fill="none" stroke="#000000" stroke-width="2" stroke-opacity="0.200000" d="M275.88,-62.66C316.8,-59.63 380.44,-58.14 433.75,-71 439.23,-72.32 444.83,-74.49 450.03,-76.9"/>
<polygon fill="#000000" fill-opacity="0.200000" stroke="#000000" stroke-width="2" stroke-opacity="0.200000" points="448.76,-78.62 455.06,-79.44 450.65,-74.87 448.76,-78.62"/>
</g>
<!-- src/widgets/popular&#45;products/&#45;&gt;src/shared/ui/ -->
<g id="edge23" class="edge">
<title>src/widgets/popular&#45;products/&#45;&gt;src/shared/ui/</title>
<path fill="none" stroke="#000000" stroke-width="2" stroke-opacity="0.200000" d="M275.86,-76.2C278.72,-77.83 281.4,-79.75 283.75,-82 291.56,-89.49 284.41,-97.04 291.75,-105 292.02,-105.3 292.3,-105.59 292.59,-105.87"/>
<polygon fill="#000000" fill-opacity="0.200000" stroke="#000000" stroke-width="2" stroke-opacity="0.200000" points="290.95,-107.26 296.98,-109.25 293.51,-103.93 290.95,-107.26"/>
</g>
<!-- src/widgets/popular&#45;products/&#45;&gt;src/shared/api/ -->
<g id="edge21" class="edge">
<title>src/widgets/popular&#45;products/&#45;&gt;src/shared/api/</title>
<path fill="none" stroke="#000000" stroke-opacity="0.200000" d="M271.24,-76.35C278.18,-78.09 285.38,-79.89 292.19,-81.6"/>
<polygon fill="none" stroke="#000000" stroke-opacity="0.200000" points="291.59,-83.61 297.92,-83.03 292.61,-79.54 291.59,-83.61"/>
</g>
</g>
</svg>
